<?xml version="1.0" encoding="utf-8"?>
<!-- Generator: Adobe Illustrator 18.0.0, SVG Export Plug-In . SVG Version: 6.00 Build 0)  -->
<!DOCTYPE svg PUBLIC "-//W3C//DTD SVG 1.1//EN" "http://www.w3.org/Graphics/SVG/1.1/DTD/svg11.dtd">
<svg version="1.1" id="Calque_1" xmlns="http://www.w3.org/2000/svg" xmlns:xlink="http://www.w3.org/1999/xlink" x="0px" y="0px"
	 viewBox="0 0 89.4 79.4" enable-background="new 0 0 89.4 79.4" xml:space="preserve">
<g>
	<path display="none" d="M41.2,79.3c18.8,4.6,37.9-6.9,42.5-25.7c4.6-18.8-6.9-37.9-25.7-42.5C39.1,6.5,20.1,18,15.5,36.9
		C10.9,55.7,22.4,74.7,41.2,79.3z"/>
</g>
<g>
	<path d="M30.3,79.4H21c-6.3,0-11.4-3.8-11.4-13.1V50.9c0-5.5-7.4-6.2-9.6-6.2V34.6c2.2,0,9.6-0.6,9.6-6.2V13C9.6,3.7,14.5,0,21,0
		h9.3v10.2H26c-5.4,0-5.8,3.3-5.8,5.7v14.4c-0.1,8.3-5.1,8.9-8.9,9.3v0.2c3.7,0.3,8.8,0.9,8.9,9.2v14.5c0,2.4,0.4,5.7,5.8,5.7h4.3
		V79.4z"/>
	<path d="M59.1,0h9.6c6,0,11.2,3.8,11.2,13v15.4c0,5.5,7.1,6.2,9.6,6.2v10.2c-2.5,0-9.6,0.6-9.6,6.2v15.5c0,9.3-4.9,13-11.4,13h-9.3
		V69.2h4.3c5.4,0,5.8-3.3,5.8-5.7V49.1c0.1-8.3,5.1-8.9,8.9-9.3v-0.2c-3.7-0.3-8.8-0.9-8.9-9.2V15.9c0-2.4-0.4-5.7-5.8-5.7h-4.3
		C59.1,10.2,59.1,0,59.1,0z"/>
</g>
</svg>
