<?xml version="1.0" encoding="utf-8"?>
<!-- Generator: Adobe Illustrator 18.0.0, SVG Export Plug-In . SVG Version: 6.00 Build 0)  -->
<!DOCTYPE svg PUBLIC "-//W3C//DTD SVG 1.1//EN" "http://www.w3.org/Graphics/SVG/1.1/DTD/svg11.dtd">
<svg version="1.1" id="Calque_1" xmlns="http://www.w3.org/2000/svg" xmlns:xlink="http://www.w3.org/1999/xlink" x="0px" y="0px"
	 viewBox="0 0 30.3 79.4" enable-background="new 0 0 30.3 79.4" xml:space="preserve">
<g>
	<path display="none" d="M41.2,79.3c18.8,4.6,37.9-6.9,42.5-25.7c4.6-18.8-6.9-37.9-25.7-42.5C39.1,6.5,20.1,18,15.5,36.9
		C10.9,55.7,22.4,74.7,41.2,79.3z"/>
</g>
<g>
	<path d="M0,0l9.3,0c6.3,0,11.4,3.8,11.4,13.1v15.4c0,5.5,7.4,6.2,9.6,6.2v10.2c-2.2,0-9.6,0.6-9.6,6.2v15.5c0,9.3-4.9,13-11.4,13H0
		l0-10.2h4.3c5.4,0,5.8-3.3,5.8-5.7V49.1c0.1-8.3,5.1-8.9,8.9-9.3v-0.2c-3.7-0.3-8.8-0.9-8.9-9.2V15.9c0-2.4-0.4-5.7-5.8-5.7H0L0,0z
		"/>
</g>
</svg>
