<?xml version="1.0" encoding="utf-8"?>
<!-- Generator: Adobe Illustrator 18.0.0, SVG Export Plug-In . SVG Version: 6.00 Build 0)  -->
<!DOCTYPE svg PUBLIC "-//W3C//DTD SVG 1.1//EN" "http://www.w3.org/Graphics/SVG/1.1/DTD/svg11.dtd">
<svg version="1.1" id="Calque_1" xmlns="http://www.w3.org/2000/svg" xmlns:xlink="http://www.w3.org/1999/xlink" x="0px" y="0px"
	 viewBox="0 0 56.3 56.3" enable-background="new 0 0 56.3 56.3" xml:space="preserve">
<g opacity="0">
	<path d="M48.4,7.9l-6.1-6.1C41.7,1.3,40.9,1,40.1,1c-1.2,0-2.4,0.5-3.3,1.4L3.8,35.3c-0.1,0.1-0.2,0.3-0.2,0.5L1,54.3
		c0,0.3,0.1,0.6,0.2,0.8c0.2,0.2,0.4,0.3,0.6,0.3c0,0,0.1,0,0.1,0l18.4-2.6c0.2,0,0.4-0.1,0.5-0.2l32.9-32.9
		c1.6-1.6,1.9-4.2,0.6-5.5L48.4,7.9z M7,34.9l24-23.9l0.7-0.7l0.7,0.7l2.4,2.4l0.7,0.7l-0.7,0.7l-24,24l-0.7,0.7l-0.7-0.7L7,36.3
		l-0.7-0.7L7,34.9z M36.1,16l0.7-0.7l0.7,0.7l1.4,1.4l1.4,1.4l0.7,0.7l-0.7,0.7l-24,24l-0.7,0.7l-0.7-0.7l-1.4-1.4l-1.4-1.4
		l-0.7-0.7l0.7-0.7L36.1,16z M17.2,51.3l-13,1.8L3,53.4L3.1,52l1.8-13l0.3-2l1.4,1.4l5.6,5.5l5.5,5.6l1.4,1.4L17.2,51.3z M45.4,25.3
		l-23.9,24l-0.7,0.7L20,49.3l-2.4-2.4l-0.7-0.7l0.7-0.7l24-24l0.7-0.7l0.7,0.7l2.4,2.4l0.7,0.7L45.4,25.3z M52.6,18.2l-4.5,4.5
		l-0.7,0.7l-0.7-0.7l-6.5-6.5l-6.5-6.5L33,9l0.7-0.7l4.5-4.5c0.4-0.4,1-0.9,1.8-0.9c0.5,0,1.1,0.2,1.5,0.7l5.6,5.6l5.6,5.6
		C53.3,15.4,54.1,16.6,52.6,18.2z"/>
</g>
</svg>
