<?xml version="1.0" encoding="utf-8"?>
<!-- Generator: Adobe Illustrator 18.0.0, SVG Export Plug-In . SVG Version: 6.00 Build 0)  -->
<!DOCTYPE svg PUBLIC "-//W3C//DTD SVG 1.1//EN" "http://www.w3.org/Graphics/SVG/1.1/DTD/svg11.dtd">
<svg version="1.1" id="Calque_1" xmlns="http://www.w3.org/2000/svg" xmlns:xlink="http://www.w3.org/1999/xlink" x="0px" y="0px"
	 viewBox="0 0 428.3 103.2" enable-background="new 0 0 428.3 103.2" xml:space="preserve">
<path fill-rule="evenodd" clip-rule="evenodd" fill="#CCB27A" d="M82.3,53.8c0,0-16.5-60.2,43.1-53.2c59.5,7,61.1,47.2,47.5,60.8
	c0,0,30.6-10.8,27.9,14.6c0,0,13.3-0.6,18.4,4.4c5.1,5.1,9.2,9.8,5.1,13.9c-4.1,4.1-4.1,4.1-4.1,4.1l25,4.8H0l22.8-5.1
	c0,0-19-10.1-5.7-23.4c0,0,22.2-13.9,29.8,0C46.9,74.7,54.5,44.3,82.3,53.8z"/>
<path fill-rule="evenodd" clip-rule="evenodd" fill="#CCB27A" d="M326.9,65.8c0,0,24.7-24.7,51.3-6.3c26.6,18.4-2.5,17.1-2.5,17.1
	s37.1-0.6,37.1,9.2c0,0,13.3,4.4,15.5,6.7c2.2,2.2-33.6,8.9-49.4,2.2C363,88,335.7,88,316.7,88c-19,0-49.4-5.7-49.4-8.9
	c0,0,3.7-7,19.6-7C302.8,72.1,326.9,65.8,326.9,65.8z"/>
</svg>
