<?xml version="1.0" encoding="utf-8"?>
<!-- Generator: Adobe Illustrator 18.0.0, SVG Export Plug-In . SVG Version: 6.00 Build 0)  -->
<!DOCTYPE svg PUBLIC "-//W3C//DTD SVG 1.1//EN" "http://www.w3.org/Graphics/SVG/1.1/DTD/svg11.dtd">
<svg version="1.1" id="Calque_3" xmlns="http://www.w3.org/2000/svg" xmlns:xlink="http://www.w3.org/1999/xlink" x="0px" y="0px"
	 viewBox="0 0 1000 1000" enable-background="new 0 0 1000 1000" xml:space="preserve">
<path fill="#4E7793" d="M948.6,534.8c0.9-11.4,1.3-22.9,1.3-34.5c0-11.7-0.4-23.3-1.3-34.8l0,0l0-0.1
	c-8.2-106.8-53.7-206.1-130.2-282.6C733.5,97.9,620.7,51.2,500.8,51.2S268,97.9,183.2,182.7S51.6,380.3,51.6,500.3
	S98.4,733,183.2,817.9s197.6,131.5,317.6,131.5s232.7-46.7,317.6-131.5c76.5-76.5,122-175.8,130.2-282.6L948.6,534.8L948.6,534.8z
	 M60.3,500.3c0-11.3,0.4-22.5,1.3-33.5l58.2,9.2c-0.5,8.1-0.8,16.2-0.8,24.3c0,8.3,0.3,16.5,0.8,24.7l-58.2,9.2
	C60.7,523,60.3,511.7,60.3,500.3z M350.4,852.8l-17.7,54.6c-20.8-8.6-40.8-18.8-59.9-30.4l33.9-46.6
	C320.7,838.8,335.3,846.3,350.4,852.8z M297.2,824.6L271,875.9c-19.2-11.8-37.4-24.9-54.5-39.4l41-41
	C270.2,806.1,283.4,815.8,297.2,824.6z M231.5,771.8c5.7,5.7,11.6,11.3,17.6,16.6l-34,46.9c-17.1-14.6-33-30.4-47.7-47.4l47.1-34.2
	C219.9,759.8,225.6,765.9,231.5,771.8z M207.2,745.2l-41.1,41.1c-14.6-17-27.9-35.2-39.8-54.3l52-26.5
	C187,719.3,196.7,732.5,207.2,745.2z M172.5,696l-47.2,34.3c-11.7-19.1-22-39.1-30.8-59.9l55.7-18.1
	C156.6,667.3,164.1,681.9,172.5,696z M145.9,642.1l-52.2,26.6c-8.6-20.6-15.6-42-21-64.1l58-9.2
	C134.8,611.3,139.9,626.9,145.9,642.1z M128.2,584.6l-55.9,18.2c-5.2-21.7-8.8-44-10.6-66.8l58.2-9.2
	C121.2,546.3,124,565.7,128.2,584.6z M72.7,396.4c5.4-22.1,12.4-43.5,20.9-64.1l52.2,26.6c-6,15.2-11,30.8-15.1,46.7L72.7,396.4z
	 M94.3,330.6c8.7-20.8,19-40.9,30.7-60l47.2,34.3c-8.4,14.1-15.8,28.7-22.3,43.7L94.3,330.6z M126.1,269
	c11.9-19.1,25.1-37.3,39.7-54.4l41.1,41.1c-10.5,12.7-20.2,25.9-28.9,39.7L126.1,269z M167.1,213.1c14.7-17,30.6-32.9,47.6-47.5
	l34.1,46.9c-5.9,5.2-11.7,10.7-17.3,16.3c-6,6-11.8,12.2-17.3,18.5L167.1,213.1z M216.2,164.3c17.1-14.5,35.3-27.7,54.4-39.5
	l26.2,51.4c-13.7,8.8-27,18.5-39.6,29L216.2,164.3z M272.4,123.8c19.1-11.6,39.1-21.8,59.9-30.5l17.7,54.6
	c-15,6.5-29.6,14-43.8,22.5L272.4,123.8z M72.2,398.3l55.9,18.2c-4.2,18.9-7,38.2-8.3,57.8L61.7,465C63.5,442.3,67.1,420,72.2,398.3
	z M360.2,143.7l-26-51.1c20.7-8.5,42.1-15.4,64.2-20.7l17.7,54.3C396.9,130.6,378.3,136.4,360.2,143.7z M334.5,908.2l26-51.1
	c18.1,7.2,36.8,13,55.8,17.4l-17.7,54.3C376.6,923.6,355.2,916.6,334.5,908.2z M127.7,500.3C127.7,293.4,296,125,502.9,125
	c34.4,0,67.7,4.7,99.4,13.4l32.5,10.6c7.3,2.8,14.6,5.7,21.7,8.9l32.2,16.4c6.5,3.7,13,7.7,19.3,11.8l29.8,21.7
	c5.6,4.5,11,9.1,16.3,13.9l27.6,27.6c4.1,4.5,8,9.1,11.9,13.8l25.6,35.2c2.3,3.6,4.6,7.3,6.8,11l22,43.2c1.1,2.6,2.2,5.2,3.2,7.8
	l16,49.4c0.5,1.9,1,3.9,1.4,5.8l8.3,52.3c0.9,10.8,1.4,21.6,1.4,32.6c0,11-0.5,21.9-1.4,32.6l-8.3,52.3c-0.5,2-0.9,3.9-1.4,5.8
	l-16,49.4c-1.1,2.6-2.1,5.2-3.2,7.8l-22,43.2c-2.2,3.7-4.5,7.4-6.8,11l-25.6,35.2c-3.8,4.7-7.8,9.3-11.9,13.8L754,779
	c-5.3,4.8-10.8,9.4-16.3,13.9l-29.8,21.7c-6.3,4.1-12.7,8.1-19.3,11.8l-32.2,16.4c-7.1,3.2-14.3,6.2-21.7,8.9l-32.5,10.6
	c-31.7,8.7-65,13.3-99.3,13.3C296,875.6,127.7,707.2,127.7,500.3z M929.5,601.5l-51.8-16.8c4.2-19,7-38.4,8.4-58.1l53.9,8.5
	C938.1,557.8,934.6,579.9,929.5,601.5z M908.4,667.1l-48.6-24.7c6.1-15.3,11.2-31.1,15.3-47.1l53.8,8.5
	C923.7,625.5,916.8,646.7,908.4,667.1z M877.3,728.6l-44.2-32.1c8.5-14.2,16-29,22.6-44.1l51.8,16.8
	C898.9,689.9,888.8,709.7,877.3,728.6z M837,784.5l-38.8-38.8c10.6-12.8,20.4-26.1,29.2-40l48.7,24.8
	C864.4,749.6,851.3,767.6,837,784.5z M788.5,833.5l-32.4-44.6c6.3-5.5,12.4-11.2,18.3-17.2c5.8-5.8,11.3-11.7,16.7-17.8l44.4,32.2
	C821,803.2,805.3,819,788.5,833.5z M733,874.4l-25.1-49.3c13.9-8.8,27.2-18.5,40-29.1l39,38.9C769.9,849.5,751.9,862.6,733,874.4z
	 M671.7,906.2l-17.2-52.9c15.1-6.5,29.8-14,44-22.4l32.5,44.8C712.2,887.3,692.3,897.5,671.7,906.2z M875,405
	c-4.1-16.1-9.2-31.8-15.3-47.1l48.6-24.8c8.4,20.4,15.3,41.6,20.6,63.3L875,405z M832.9,303.7l44.2-32.1
	c11.5,18.9,21.7,38.7,30.3,59.3l-51.8,16.8C849,332.7,841.4,318,832.9,303.7z M798,254.6l38.8-38.8c14.4,16.9,27.4,34.9,39.1,53.9
	l-48.7,24.8C818.4,280.6,808.6,267.3,798,254.6z M707.5,175.2l25.1-49.3c19,11.8,36.9,25,53.8,39.4l-39,39
	C734.7,193.7,721.4,184,707.5,175.2z M671.3,94.2c20.6,8.7,40.5,18.9,59.4,30.6l-32.5,44.8c-14.2-8.4-28.9-15.9-44.1-22.4
	L671.3,94.2z M788.2,166.8c16.8,14.5,32.6,30.3,47,47.2l-44.4,32.2c-5.3-6-10.8-11.8-16.4-17.5c-6-6-12.2-11.8-18.6-17.4
	L788.2,166.8z M877.6,415.6l51.8-16.9c5.1,21.6,8.6,43.7,10.4,66.4l-53.9,8.5C884.6,453.9,881.8,434.5,877.6,415.6z M669.3,93.4
	L644,143c-18.1-7.2-36.9-12.9-56-17.2l17.3-53.4C627.4,77.8,648.7,84.8,669.3,93.4z M644.4,857.5l25.3,49.6
	c-20.6,8.6-41.9,15.6-63.9,21l-17.3-53.4C607.5,870.4,626.2,864.6,644.4,857.5z M941.2,500.3c0,11.1-0.4,22.2-1.2,33.1l-53.9-8.5
	c0.5-8.1,0.8-16.3,0.8-24.6c0-8.4-0.3-16.7-0.8-25l53.9-8.5C940.8,477.9,941.2,489,941.2,500.3z M603.7,72l-17.4,53.4
	c-27.1-6-55-9-83.4-9c-29,0-57.6,3.2-85.2,9.4L400,71.5c32.4-7.6,66.1-11.6,100.7-11.6C536.2,59.8,570.6,64.1,603.7,72z
	 M400.4,929.2l17.7-54.3c27.5,6.2,56,9.4,84.9,9.4c28.5,0,56.6-3.1,83.7-9.1l17.3,53.4c-33.1,8-67.7,12.2-103.3,12.2
	C466.3,940.8,432.7,936.8,400.4,929.2z"/>
</svg>
