<?xml version="1.0" encoding="utf-8"?>
<!-- Generator: Adobe Illustrator 18.0.0, SVG Export Plug-In . SVG Version: 6.00 Build 0)  -->
<!DOCTYPE svg PUBLIC "-//W3C//DTD SVG 1.1//EN" "http://www.w3.org/Graphics/SVG/1.1/DTD/svg11.dtd">
<svg version="1.1" id="Calque_5" xmlns="http://www.w3.org/2000/svg" xmlns:xlink="http://www.w3.org/1999/xlink" x="0px" y="0px"
	 viewBox="0 0 1000 1000" enable-background="new 0 0 1000 1000" xml:space="preserve">
<g>
	<path fill="#4E7793" d="M119.2,486.7l-23.6,13.6l23.6,13.6c-0.2-4.5-0.2-9.1-0.2-13.6C119,495.7,119.1,491.2,119.2,486.7z"/>
	<path fill="#4E7793" d="M905.9,500.3l-19.2-11.1c0.1,3.7,0.2,7.4,0.2,11.1c0,3.7-0.1,7.4-0.2,11.1L905.9,500.3z"/>
	<path fill="#4E7793" d="M483.2,875L483.2,875c6.5,0.4,13.1,0.5,19.7,0.5c5.9,0,11.8-0.1,17.6-0.4c-0.1,0-0.1,0-0.2,0
		c-5.8,0.3-11.7,0.4-17.6,0.4C496.2,875.5,489.7,875.4,483.2,875z"/>
	<path fill="#4E7793" d="M488.4,884l12.4,21.4l12.3-21.3c-3.4,0.1-6.7,0.1-10.1,0.1C498.1,884.2,493.2,884.1,488.4,884z"/>
	<path fill="#4E7793" d="M866.8,477.7h10.5c0-0.6-0.1-1.2-0.1-1.7h-13.4l-16.9-9.8h29.6c-0.1-0.6-0.1-1.2-0.2-1.7h-32.4l-16.9-9.8
		h47.9l-0.3-1.7h-78.2c-0.5-3.3-1.1-6.5-1.7-9.8h78.4l-0.3-1.7h-78.5c-0.7-3.3-1.4-6.5-2.1-9.8h79l-0.3-1.7h-79.2
		c-0.8-3.3-1.6-6.5-2.5-9.8h80.2l-0.2-1.2c0-0.2-0.1-0.4-0.1-0.6h-80.3c-0.9-3.3-1.9-6.5-3-9.8h81c-0.1-0.6-0.3-1.2-0.4-1.7h-81.1
		c-1.1-3.3-2.2-6.5-3.4-9.8h81.4l-0.6-1.7H781c-1.2-3.3-2.5-6.6-3.9-9.8h82.2l-0.6-1.7h-82.3c-1.4-3.3-2.9-6.5-4.4-9.8h83.5
		l-0.6-1.7h-83.8c-1.6-3.3-3.2-6.6-4.9-9.8h85.5c-0.2-0.6-0.5-1.2-0.7-1.7h-85.7c-1.7-3.3-3.5-6.6-5.4-9.8h87
		c-0.1-0.3-0.3-0.6-0.4-1l-0.4-0.8h-87.2c-1.9-3.3-3.9-6.6-6-9.8h88.2l-0.9-1.7h-88.4c-2.1-3.3-4.4-6.6-6.6-9.8h90.1l-0.9-1.7h-90.4
		c-2.4-3.3-4.8-6.6-7.3-9.8h92.8l-0.9-1.7h-93.3c-1.4-1.8-2.8-3.5-4.3-5.3l0.6-2.2h92.8c-0.3-0.6-0.7-1.2-1-1.7h-91.3l2.6-9.8h82.4
		L816,294h-80.7l2.6-9.8h71l-1.3-1.7h-69.3l2.6-9.8h59.5l-1.3-1.7h-57.8l2.6-9.8h47.8c-0.5-0.6-1-1.2-1.4-1.7h-45.9l1.1-4l-15.1,4
		h-52.3c-4.6-3.4-9.3-6.7-14.1-9.8H782c-0.3-0.4-0.7-0.7-1-1.1l-0.6-0.6H661.5c-5.4-3.4-10.9-6.7-16.5-9.8h125.5l-1.7-1.7h-127
		c-6.5-3.5-13.2-6.8-20-9.8h137.2l-1.7-1.7H617.9c-8.6-3.7-17.3-6.9-26.3-9.8h155c-0.7-0.6-1.4-1.2-2-1.7H586
		c-14.8-4.4-30.1-7.7-45.8-9.8h191.9l-2.4-1.7H523.6c-7.3-0.6-14.6-0.8-22-0.9c0.5-0.7,0.9-1.4,1.3-2.1v-3.7
		c-0.8,1.9-1.9,3.8-3.3,5.7c-5.4,0-10.7,0.2-16,0.5c7-7.4,8.2-17.3,8.2-17.5l-1.7-0.2c-0.1,0.6-1.4,11-9,17.8
		c-7.2,0.5-14.4,1.2-21.5,2.2c13.4-6.5,15.4-22.6,15.4-22.8l-1.7-0.2c-0.1,0.9-2.8,22.4-23.8,23.9c-4,0.3-7.4,1.3-10.2,2.7
		c-7.8,1.6-15.5,3.6-23.1,5.8c3.5-4.8,9.2-9.1,18.2-9.8c22.5-1.6,25.4-25.2,25.4-25.4l-1.7-0.2c-0.1,0.9-2.8,22.4-23.8,23.9
		c-10.7,0.7-16.9,6.4-20.6,12.2c-2.1,0.6-4.1,1.3-6.2,2c0.9-2.9,1.1-4.9,1.2-5l-1.7-0.2c0,0.3-0.3,2.7-1.4,5.8c-3,1-6,2.1-8.9,3.2
		c1.9-6.6,7.5-18.6,22.9-19.7c22.5-1.6,25.4-25.2,25.4-25.4l-1.7-0.2c-0.1,0.9-2.8,22.4-23.8,23.9c-17.4,1.2-23.1,15.6-24.8,22.2
		c-2.6,1-5.2,2-7.8,3.1c5.5-7.1,6.6-15.5,6.6-15.6l-1.7-0.2c0,0.2-1.3,10.4-8.6,17.4c-4.6,2-9.2,4.1-13.7,6.3
		c-0.5,0.1-1,0.1-1.5,0.2c-10.3,0.7-16.5,6-20.2,11.6c-2.6,1.6-5.2,3.1-7.7,4.8c1.3-3.7,1.7-6.4,1.7-6.5l-1.7-0.2
		c0,0.4-0.5,4-2.3,8.3c-7.5,4.9-14.7,10.1-21.7,15.6c-4.5,0.3-8.1,1.6-11.2,3.3l-11.2-3c2.2-0.8,4.6-1.4,7.4-1.6
		c22.5-1.6,25.4-25.2,25.4-25.4l-1.7-0.2c0,0.2-2.7,22.4-23.8,23.9c-3.9,0.3-7.2,1.2-10,2.6l-11.2-3c1.9-0.6,4.1-1.1,6.5-1.2
		c22.5-1.6,25.4-25.2,25.4-25.4l-1.7-0.2c-0.1,0.9-2.8,22.4-23.8,23.9c-3.5,0.2-6.6,1-9.2,2.2l-10.3-2.8c1.4-0.3,2.8-0.6,4.4-0.7
		c22.5-1.6,25.4-25.2,25.4-25.4l-1.7-0.2c0,0.2-2.7,22.4-23.8,23.9c-2.8,0.2-5.3,0.7-7.5,1.5l-7.2-1.9l1.3,5
		c-10.4,7.3-12,20.6-12,20.8l1.7,0.2c0.1-0.7,1.5-12.5,10.7-19.3l1.5,5.7l-0.6-0.1c-0.1,0.9-2.8,22.4-23.8,23.9
		c-22.5,1.6-25.4,25.2-25.4,25.4l1.7,0.2c0.1-0.9,2.8-22.4,23.8-23.9c18.2-1.3,23.5-16.8,25-22.9l2.1,7.7c-1.2,3.4-1.5,5.9-1.5,6
		l1.7,0.2c0-0.1,0.2-1.2,0.6-3l2,7.4c-3.5,3.1-8.2,5.4-14.7,5.9c-22.5,1.6-25.4,25.2-25.4,25.4l1.7,0.2c0.1-0.9,2.8-22.4,23.8-23.9
		c6.5-0.5,11.4-2.8,15.1-5.8l1.9,7.3c-0.7,0.1-1.5,0.2-2.3,0.3c-22.5,1.6-25.4,25.2-25.4,25.4l1.7,0.2c0.1-0.9,2.8-22.4,23.8-23.9
		c0.9-0.1,1.8-0.2,2.6-0.3l1.3,4.8c-12.3,6.8-14.1,22-14.2,22.2l1.7,0.2c0-0.2,1.7-14.1,12.9-20.6l0.9,3.5
		c-7,8.5-13.6,17.3-19.7,26.5c-2.1,0.7-4.4,1.2-6.9,1.4c-22.5,1.6-25.4,25.2-25.4,25.4l1.7,0.2c0.1-0.9,2.8-22.4,23.8-23.9
		c1.9-0.1,3.7-0.4,5.3-0.9c-1.5,2.4-3.1,4.8-4.5,7.2c-6.7,5.8-9.2,14.1-9.9,17.7c-2,3.9-3.9,7.8-5.8,11.8c-1.7,0.5-3.5,0.8-5.5,1
		c-22.5,1.6-25.4,25.2-25.4,25.4l1.7,0.2c0.1-0.9,2.8-22.4,23.8-23.9c1.6-0.1,3.1-0.3,4.5-0.7c-1,2.2-2,4.4-2.9,6.6
		c-10.2,7.3-11.8,20.5-11.8,20.7l1.7,0.2c0.1-0.6,1.3-10.8,8.8-17.7c-3.2,7.9-6.2,15.9-8.8,24.2c-3.2,2.3-7.4,4-12.8,4.4
		c-22.5,1.6-25.4,25.2-25.4,25.4l1.7,0.2c0-0.2,2.7-22.4,23.8-23.9c4.8-0.3,8.8-1.7,12-3.6c-0.6,2-1.2,4-1.8,6
		c-18.4,4.2-20.9,24.5-20.9,24.7l1.7,0.2c0.1-0.8,2.3-18.7,18.7-23c-3.1,11.3-5.5,22.8-7.3,34.6c-2.5,1.1-5.3,1.8-8.7,2.1
		c-9.1,0.6-15,4.9-18.8,9.7v-10.4c1.1-0.2,2.3-0.4,3.6-0.5c22.5-1.6,25.4-25.2,25.4-25.4l-1.7-0.2c-0.1,0.9-2.8,22.4-23.8,23.9
		c-1.2,0.1-2.4,0.2-3.5,0.5v-2.4l-22.5,13c0.2-1,0.3-1.6,0.3-1.7l-1.7-0.2c0,0.2-0.2,1.3-0.6,3l-9.5,5.5c2-6.6,7.7-18.3,22.8-19.3
		c22.5-1.6,25.4-25.2,25.4-25.4l-1.7-0.2c-0.1,0.9-2.8,22.4-23.8,23.9c-17.5,1.2-23.2,15.8-24.8,22.3l-10.8,6.2
		c8-7.5,9.4-18.5,9.4-18.7l-1.7-0.2c-0.1,0.7-1.5,11.8-9.9,18.6c-0.4,6.7-0.6,13.5-0.6,20.4c0,6.3,0.2,12.5,0.5,18.7l13.5,7.8h-12.4
		v1.7h15.4l16.9,9.8h-10.5v1.7h13.6l12.7,7.4v-18.9h3.2v-1.7h-3.2v-24.3h12.6v-1.7h-12.6v-1.7c21.8-2,24.7-25.1,24.7-25.3l-1.7-0.2
		c-0.1,0.9-2.7,21.8-23,23.8V488c6.7-7.4,7.9-17,7.9-17.2l-1.7-0.2c0,0.1-1,8-6.2,14.7v-14.8c3.4-5.2,9.2-10.1,18.9-10.7
		c3.1-0.2,5.9-0.9,8.3-1.8c-0.2,1.7-0.5,3.5-0.7,5.2c-14.2,6.2-16.3,23-16.3,23.2l1.7,0.2c0-0.2,1.9-15.2,14.3-21.4
		c-1.3,10.7-1.9,21.6-2,32.6c-2.4,1.2-5.1,2-8.3,2.4h7.1c0.4-0.2,0.8-0.3,1.2-0.5c0,0.2,0,0.3,0,0.5c0,5,0.1,10.1,0.4,15h-16.7v1.7
		H202c0.2,3.3,0.4,6.5,0.7,9.8h-5.1v1.7h5.2c1.5,15.7,4.2,31.1,8,46.1H207v1.7h4.3c3.2,12.3,7.2,24.2,11.9,35.8h-3.8v1.7h4.5
		c2.8,6.8,5.8,13.5,9.1,20h-13.7v1.7h14.5c8.5,16.8,18.6,32.6,30,47.4h-10.4v1.7h11.7c1.7,2.1,3.4,4.2,5.1,6.3l-4.5,16.7h-12.3v1.7
		h11.9l-6.5,24.3h-5.4v1.7h4.9l-2.6,9.6l35.7-9.6h13.2v-1.7h-6.8l11.9-3.2c27,22.4,58.1,40.2,91.8,52.1h-11.5v1.7h16.6
		c12.8,4.2,25.9,7.6,39.3,10.1v1.4h8.3c15.1,2.4,30.6,3.6,46.3,3.6c4.4,0,8.8-0.1,13.2-0.3c3.4,4.3,6.1,10.1,6.9,18.1
		c0.2,2.3,0.6,4.4,1.1,6.3h-6.6c-1.4-12.1-6.9-19.5-13-24v2c5.3,4.3,9.9,11.1,11.2,22h-6.8c-1.1-3.7-2.6-6.9-4.4-9.5v3.3
		c1,1.8,1.9,3.9,2.6,6.2h-51.5l5,8.7v1.2h0.7l13.3,23h-14v1.7h15l9.7,16.7c6.5,0.3,12.9,0.5,19.5,0.5c5.9,0,11.8-0.1,17.6-0.4
		c-0.6-0.1-1.2-0.2-1.8-0.4l3.7-6.4c5,1.7,8.8,1.9,8.9,1.9l0.3,0c0.5,0,5.8,0.3,11.9,3.1c1-0.1,2-0.2,2.9-0.3
		c-7.5-4.1-14.6-4.5-14.7-4.5l-0.3,0c-0.4,0-3.8-0.2-8.2-1.6l3.8-6.6c6.1,2.6,11.3,2.9,11.4,2.9l0.3,0c0.2,0,11,0.6,19.6,8.3
		c0.7-0.1,1.5-0.2,2.2-0.3c-9.3-9-21.6-9.7-21.7-9.7l-0.3,0c-0.5,0-5.1-0.3-10.7-2.5l3.9-6.8c7.1,3.6,13.6,4,13.7,4l0.3,0
		c0.8,0,15.7,0.8,24.3,13.5c0.6-0.1,1.2-0.2,1.8-0.3c-9.1-14-25.8-14.9-25.9-14.9l-0.3,0c-0.1,0-6.3-0.3-13-3.7l4-6.9
		c7.9,4.8,15.9,5.2,16,5.2l0.3,0c0.9,0,19.6,1,27.1,18.6c0.6-0.1,1.1-0.2,1.7-0.4c-8-19-28.5-20-28.7-20l-0.3,0
		c-0.6,0-8-0.4-15.3-4.9l4.1-7.2c8.6,6.2,18.1,6.7,18.2,6.7l0.3,0c0.2,0,22.9,1.2,28.8,23.8c0.6-0.1,1.1-0.3,1.7-0.4
		c-6.1-23.9-30.2-25.1-30.4-25.1l-0.3,0c-0.6,0-9.5-0.5-17.5-6.4l4.2-7.3c9,7.8,20.1,8.3,20.2,8.3l0.3,0c0.3,0,26.3,1.3,29.8,28.9
		c0.6-0.1,1.1-0.3,1.7-0.4c-3.8-28.8-31.1-30.2-31.4-30.2l-0.3,0c-0.7,0-11.1-0.6-19.6-8l0.7-1.2h-2c-4.4-4.4-8.1-11-9.1-20.8
		c-0.2-1.9-0.5-3.8-0.9-5.5c2.1-0.3,4.3-0.5,6.4-0.8c3.5,29.5,31.2,30.9,31.5,30.9l0.3,0c1.1,0,27,1.4,29.9,30
		c0.1,1.3,0.3,2.6,0.6,3.9l1.7-0.5c-0.2-1.1-0.4-2.3-0.5-3.5c-3.1-30.2-31.3-31.5-31.5-31.6l-0.3,0c-0.3,0-26.6-1.3-29.9-29.4
		c2.2-0.3,4.3-0.7,6.5-1c6.2,23.8,30.2,25,30.4,25.1l0.3,0c1.1,0,27,1.4,29.9,30c0.3,3.1,0.9,5.8,1.7,8.3l1.7-0.5
		c-0.7-2.4-1.3-5-1.6-7.9c-3.1-30.2-31.3-31.5-31.5-31.6l-0.3,0c-1,0-23-1.2-28.8-23.6c2.4-0.4,4.9-0.9,7.3-1.4
		c8.1,18.6,28.3,19.6,28.5,19.6l0.3,0c0.3,0,27,1.3,29.9,30c0.5,4.9,1.7,9.1,3.3,12.6l1.6-0.5c-1.6-3.4-2.7-7.4-3.2-12.2
		c-3.1-30.2-31.3-31.5-31.5-31.5l-0.3,0c-0.9,0-19.3-1-26.9-18.2c2.7-0.6,5.4-1.2,8.1-1.8c9.2,13.8,25.6,14.6,25.8,14.6l0.3,0
		c0.3,0,27,1.3,29.9,30c0.7,7,2.8,12.4,5.6,16.7l1.6-0.5c-2.7-4.1-4.8-9.4-5.5-16.3c-3.1-30.2-31.3-31.5-31.5-31.6l-0.3,0
		c-0.8,0-15.6-0.8-24.2-13.3c3-0.7,6-1.5,9-2.3c9.3,9.6,22.1,10.2,22.2,10.2l0.3,0c1.1,0,27,1.4,29.9,30c0.9,9.1,4.2,15.6,8.2,20.2
		c0.6-0.2,1.1-0.5,1.7-0.7c-4-4.4-7.3-10.7-8.2-19.7c-3.1-30.2-31.3-31.5-31.5-31.6l-0.3,0c-0.2,0-11.7-0.6-20.4-9
		c3.2-0.9,6.4-1.9,9.5-2.9c8.5,6,17.8,6.5,17.9,6.5l0.3,0c1.1,0,27,1.4,29.9,30c1.2,11.2,5.8,18.5,11.2,23.1
		c0.6-0.2,1.1-0.5,1.7-0.7c-5.3-4.4-10-11.4-11.1-22.6c-3.1-30.2-31.3-31.5-31.5-31.6l-0.3,0c-0.6,0-8.5-0.4-16.1-5.4
		c3.4-1.1,6.9-2.3,10.2-3.5c6.7,3.2,12.7,3.5,12.8,3.5l0.3,0c0.3,0,27,1.3,29.9,30c1.4,13.3,7.7,21,14.3,25.5l1.7-0.8
		c-6.5-4.1-12.8-11.5-14.2-24.8c-3.1-30.2-31.3-31.5-31.5-31.5l-0.3,0c-0.5,0-5.2-0.3-10.8-2.6c3.5-1.3,7.1-2.7,10.5-4.2
		c4.2,1.2,7.2,1.4,7.3,1.4l0.3,0c0.3,0,27,1.3,29.9,30c1.6,15.5,9.8,23.4,17.4,27.4l1.8-0.9c-7.5-3.6-15.9-11.1-17.5-26.7
		c-3.1-30.2-31.3-31.5-31.5-31.6l-0.3,0c-0.1,0-2-0.1-4.9-0.8c3.5-1.5,7-3.1,10.5-4.7c0.8,0.1,1.4,0.1,1.4,0.1l0.3,0
		c1.1,0,27,1.4,29.9,30c1.9,18,12.6,25.7,21,29l2.1-1.1c-8.2-2.8-19.5-10-21.4-28.1c-2.8-26.6-25-30.8-30.4-31.4
		c3.3-1.6,6.5-3.3,9.7-5c7.6,1.5,23.8,7.2,26.1,29.5c2.1,20.7,16.2,27.9,24.8,30.3c0.7-0.4,1.3-0.8,2-1.2c-7.9-1.8-22.8-8-25-29.3
		c-2.2-21.4-17.1-28.3-25.6-30.5c2.9-1.6,5.7-3.2,8.6-4.9c8.2,2.6,20.4,9.6,22.4,28.5c2.4,23.6,20.3,29.6,28,31.1
		c0.7-0.5,1.4-0.9,2.2-1.4c-5.7-0.7-25.9-4.8-28.5-29.9c-1.9-18.8-13.6-26.4-22.2-29.5c2.7-1.6,5.4-3.3,8.1-5
		c7.9,3.2,17.7,10.6,19.5,27.5c2.8,27.2,26.1,31,30.7,31.5l2.1-1.5c-0.4,0-0.6-0.1-0.7-0.1l-0.5-0.1c-0.3,0-27-1.3-29.9-30
		c-1.8-16.9-11.4-24.8-19.6-28.4c2.5-1.7,5.1-3.4,7.6-5.1c7.5,3.6,15.8,11.1,17.4,26.6c3.1,30.2,31.3,31.5,31.5,31.5l0.5,0.1
		c0.1,0,0.5,0,1.1,0.1l2-1.4c-1.8-0.3-2.9-0.4-2.9-0.4l-0.5-0.1c-0.3,0-27-1.3-29.9-30c-1.6-15.6-9.9-23.5-17.6-27.5
		c2.4-1.7,4.7-3.4,7.1-5.2c7.1,3.9,14.5,11.4,16,25.7c3.1,30.2,31.3,31.5,31.5,31.5l0.5,0.1c0.2,0,1.5,0.1,3.3,0.4l1.8-1.3
		c-2.9-0.7-4.9-0.8-5-0.8l-0.5-0.1c-1.1,0-27-1.4-29.9-30c-1.5-14.6-8.9-22.5-16.2-26.7c2.3-1.7,4.5-3.5,6.8-5.3
		c6.7,4.1,13.4,11.5,14.8,25.1c3.1,30.2,31.3,31.5,31.5,31.5l0.5,0.1c0.3,0,2.3,0.1,5.1,0.8c0.5-0.4,1.1-0.9,1.6-1.3
		c-3.8-1-6.4-1.2-6.5-1.2l-0.5-0.1c-1.1,0-27-1.4-29.9-30c-1.4-13.9-8.2-21.7-15.1-26c0.4-0.4,0.9-0.7,1.3-1.1l13.6,3.6
		c2.8,4.1,4.9,9.5,5.6,16.6c3.1,30.2,31.3,31.5,31.5,31.5l0.5,0.1c0.1,0,2.5,0.1,6,1.1c0.5-0.4,1-0.9,1.5-1.4
		c-4.2-1.3-7.4-1.4-7.4-1.4l-0.5-0.1c-0.3,0-27-1.3-29.9-30c-0.7-6.5-2.5-11.7-5-15.8l9.2,2.5c0.5,2,0.9,4.1,1.1,6.3
		c3.1,30.2,31.3,31.5,31.5,31.5l0.5,0.1c0.3,0,3,0.2,6.6,1.1l1.3-1.3c-4.4-1.4-7.7-1.5-7.8-1.5l-0.5-0.1c-0.3,0-27-1.3-29.9-30
		c-0.2-2-0.5-3.9-1-5.7l6.8,1.8c4.7,27.1,30.9,28.4,31.1,28.4l0.5,0.1c0.3,0,3,0.2,6.6,1.1l1.3-1.3c-4.4-1.4-7.7-1.5-7.8-1.5
		l-0.5-0.1c-1,0-24.6-1.3-29.4-26.2l8.3,2.2c8.4,17.6,27.9,18.6,28,18.6l0.5,0.1c0.3,0,3,0.2,6.6,1.1l1.3-1.3
		c-4.4-1.4-7.7-1.5-7.8-1.6l-0.5-0.1c-0.9,0-17.9-0.9-26-16.3l7.9,2.1l-2.3-8.5C752,753,770.6,754,770.7,754l0.5,0.1
		c0.3,0,3,0.2,6.6,1.1l1.3-1.3c-4.4-1.4-7.7-1.5-7.8-1.5l-0.5-0.1c-0.3,0-27-1.3-29.9-30c-0.8-7.5-3.1-13.2-6.2-17.6l-3.6-13.6
		c0.2-0.3,0.5-0.5,0.7-0.8c6.6,4.1,13.1,11.5,14.5,25c3.1,30.2,31.3,31.5,31.5,31.5l0.5,0.1c0.3,0,2.8,0.1,6.2,1.1
		c0.4-0.5,0.8-0.9,1.2-1.4c-4.2-1.2-7.2-1.4-7.3-1.4l-0.5-0.1c-1.1,0-27-1.4-29.9-30c-1.4-14-8.3-21.8-15.2-26.1
		c1.7-2.1,3.4-4.2,5-6.3c7,4,14.1,11.4,15.6,25.5c3.1,30.2,31.3,31.5,31.5,31.5l0.5,0.1c0.3,0,2.4,0.1,5.4,0.8
		c0.4-0.5,0.8-0.9,1.2-1.4c-3.7-1-6.4-1.2-6.4-1.2l-0.5-0.1c-1.1,0-27-1.4-29.9-30c-1.5-14.7-9-22.5-16.2-26.7
		c1.6-2.1,3.2-4.3,4.8-6.4c7.3,3.8,15.3,11.3,16.9,26.2c3.1,30.2,31.3,31.5,31.5,31.5l0.5,0.1c0.3,0,1.8,0.1,4,0.5l1.1-1.5
		c-2.9-0.7-4.9-0.8-5-0.8l-0.5-0.1c-1.1,0-27-1.4-29.9-30c-1.6-15.6-9.9-23.4-17.6-27.4c1.5-2.2,3.1-4.4,4.5-6.6
		c7.7,3.4,16.7,10.9,18.4,27.1c3.1,30.2,31.3,31.5,31.5,31.5l0.5,0.1c0.2,0,1,0.1,2.3,0.2l1.1-1.5c-2-0.4-3.2-0.4-3.3-0.4l-0.5-0.1
		c-0.3,0-27-1.3-29.9-30c-1.7-16.7-11.1-24.6-19.2-28.3c1.4-2.2,2.9-4.4,4.2-6.6c8.1,3,18.6,10.3,20.4,27.9
		c3.1,30.2,31.3,31.5,31.5,31.5l0.5,0.1c0.1,0,0.3,0,0.5,0l1.2-1.6c-0.9-0.1-1.5-0.2-1.5-0.2l-0.5-0.1c-1.1,0-27-1.4-29.9-30
		c-1.9-18.1-12.8-25.8-21.2-29.1c1.3-2.1,2.6-4.3,3.9-6.4c8.2,2.5,20.8,9.4,22.8,28.6c2.8,27.2,26.1,31,30.7,31.5l1.2-1.6l-0.2,0
		c-1.1,0-27-1.4-29.9-30c-2-19.8-14.9-27.2-23.6-29.9c1.2-2.1,2.4-4.2,3.6-6.4c7.8,1.7,23.2,7.7,25.4,29.4
		c2.6,24.7,21.9,30.1,28.9,31.2c0.3-0.5,0.7-1.1,1-1.6c-5.9-0.8-25.7-5.4-28.3-29.8c-2.3-22-18-28.7-26.3-30.7
		c1.1-2,2.2-4.1,3.2-6.1c5.7,0.7,25.9,4.8,28.5,29.9c2.3,22.3,18.3,28.9,26.6,30.8c0.3-0.5,0.6-1,1-1.6c-7.7-1.6-23.6-7.6-25.8-29.4
		c-2.6-25.2-22.8-30.3-29.4-31.3c1-1.9,1.9-3.9,2.9-5.8c1,0.1,1.7,0.2,1.7,0.2l0.3,0c0.3,0,27,1.3,29.9,30
		c2.1,20.2,15.4,27.5,24.1,30.1l0.8-1.5c-8.2-2.3-21.1-9.1-23.1-28.8c-3.1-30.2-31.3-31.5-31.5-31.5l-0.3,0c-0.1,0-0.5,0-1.1-0.1
		c1-2,1.9-4.1,2.8-6.2c3.1,0.7,5.2,0.9,5.3,0.9l0.3,0c0.3,0,27,1.3,29.9,30c1.9,18,12.6,25.7,21.1,29.1l0.7-1.5
		c-8-3.1-18.3-10.4-20.1-27.8c-3.1-30.2-31.3-31.5-31.5-31.5l-0.3,0c-0.3,0-2.1-0.1-4.7-0.7c1-2.2,1.9-4.4,2.8-6.6
		c5,1.7,8.8,1.9,8.9,1.9l0.3,0c1.1,0,27,1.4,29.9,30c1.7,16,10.4,23.9,18.2,27.8l0.8-1.5c-7.5-3.7-15.7-11.2-17.3-26.4
		c-3.1-30.2-31.3-31.5-31.5-31.6l-0.3,0c-0.1,0-3.7-0.2-8.4-1.8c0.9-2.3,1.8-4.7,2.7-7.1c6.7,3.2,12.6,3.5,12.7,3.5l0.3,0
		c1.1,0,27,1.4,29.9,30c1.5,14.2,8.5,22,15.5,26.3l0.8-1.5c-6.6-4.1-13.2-11.5-14.6-24.9c-3.1-30.2-31.3-31.5-31.5-31.6l-0.3,0
		c-0.5,0-6-0.3-12.3-3.3c0.9-2.6,1.8-5.1,2.7-7.7c8.1,5.2,16.4,5.6,16.6,5.6l0.3,0c0.3,0,27,1.3,29.9,30c1.3,12.4,6.8,20,12.9,24.5
		l0.7-1.5c-5.6-4.3-10.7-11.5-11.9-23.3c-3.1-30.2-31.3-31.5-31.5-31.5l-0.3,0c-0.6,0-8.6-0.4-16.2-5.5c0.9-2.8,1.8-5.7,2.6-8.5
		c9.1,8,20.4,8.6,20.5,8.6l0.3,0c0.3,0,27,1.3,29.9,30c1.1,10.5,5.2,17.5,10.2,22.2c0.2-0.5,0.5-1.1,0.7-1.6
		c-4.4-4.4-8.1-11-9.1-20.8c-3.1-30.2-31.3-31.5-31.5-31.6l-0.3,0c-0.7,0-11.6-0.6-20.2-8.6c0.9-3.2,1.8-6.4,2.6-9.7
		c9.3,12.1,24.4,12.9,24.6,12.9l0.3,0c1.1,0,27,1.4,29.9,30c0.8,8.2,3.6,14.3,7.1,18.8l0.7-2c-3-4.2-5.3-9.7-6-16.9
		c-3.1-30.2-31.3-31.5-31.5-31.6l-0.3,0c-0.2,0-15.4-0.8-24.1-13.4c0.9-3.9,1.8-7.8,2.6-11.7c8.1,18.7,28.4,19.7,28.5,19.7l0.3,0
		c1.1,0,27,1.4,29.9,30c0.6,5.5,2,10,3.9,13.7l0.8-2.4c-1.4-3.2-2.5-7-3-11.5c-3.1-30.2-31.3-31.5-31.5-31.5l-0.3,0
		c-1,0-21.3-1.1-28.1-21.1c1.2-6.4,2.2-12.8,3-19.4c0.2,1.1,0.4,2.3,0.5,3.6c3.1,30.2,31.3,31.5,31.5,31.6l0.3,0
		c0.3,0,27,1.3,29.9,30c0.3,2.5,0.7,4.8,1.3,7l1-3.2c-0.2-1.3-0.5-2.6-0.6-3.9c-3.1-30.2-31.3-31.5-31.5-31.5l-0.3,0
		c-1.1,0-27-1.4-29.9-30c-0.3-3.1-0.9-5.8-1.7-8.3c0.5-5.1,0.9-10.3,1.2-15.5c2.9,4.2,5.1,9.7,5.9,16.9
		c3.1,30.2,31.3,31.5,31.5,31.6l0.3,0c0.3,0,25,1.2,29.5,26.8c0.3-1.3,0.6-2.5,0.9-3.8c-6.3-23.6-30.1-24.7-30.3-24.8l-0.3,0
		c-0.3,0-27-1.3-29.9-30c-0.9-8.5-3.8-14.8-7.5-19.3c0.2-3.7,0.3-7.5,0.3-11.2c5.9,4.3,11.4,11.5,12.6,23.6
		c3.1,30.2,31.3,31.5,31.5,31.5l0.3,0c0.9,0,17.8,0.9,25.9,16.2l0.4-2.6c-9.1-14.4-26-15.3-26.2-15.3l-0.3,0
		c-0.7,0-11.3-0.6-19.7-8.2l7.8-4.5c8.8,6.8,18.8,7.3,19,7.3l0.3,0c0.7,0,12.4,0.6,21,9.4l0.3-2c-9.2-8.6-21-9.2-21.2-9.2l-0.3,0
		c-0.6,0-9.6-0.5-17.6-6.4l7.9-4.6c8.1,5.2,16.5,5.6,16.6,5.6l0.3,0c0.1,0,8,0.4,15.7,5.3l0.3-1.9c-7.9-4.8-15.7-5.2-15.8-5.2
		l-0.3,0c-0.6,0-7.9-0.4-15.2-4.8l8.1-4.7c7.2,3.8,13.9,4.1,14,4.1l0.3,0c0.4,0,4.8,0.3,10.2,2.3l0.2-1.1c0-0.2,0-0.4,0.1-0.5
		c-5.6-2.2-10.2-2.4-10.3-2.4l-0.3,0c-0.1,0-5.9-0.3-12.4-3.4l8.2-4.7c6,2.5,11.1,2.8,11.1,2.8l0.3,0c0.2,0,1.7,0.1,3.9,0.5
		c0-0.6,0.1-1.1,0.1-1.7c-2.3-0.5-3.8-0.5-3.9-0.6l-0.3,0c-0.4,0-4.5-0.2-9.5-2.1l8.5-4.9c2.2,0.7,4.2,1.1,5.6,1.3
		c0-0.6,0.1-1.2,0.1-1.7c-1-0.2-2.2-0.4-3.6-0.8l3.7-2.2c0.2-5.4,0.4-10.9,0.4-16.3c0-5.5-0.1-10.9-0.4-16.3L866.8,477.7z
		 M738.7,262.3l-18.3,68.3l-50-50L738.7,262.3z M724.1,261.2l-32.5,8.7c-3.6-3-7.3-5.9-11-8.7H724.1z M364.7,233.8
		c-4.5,2.3-8.9,4.7-13.2,7.2C354.5,237.7,358.7,234.9,364.7,233.8z M313.2,267.3c-1.1,0.9-2.2,1.7-3.2,2.6l-2.8-0.8
		C309,268.3,311,267.7,313.2,267.3z M262.8,262.3l68.3,18.3l-50,50L262.8,262.3z M262.9,738.4l18.3-68.3l50,50L262.9,738.4z
		 M523.8,823.7c-0.5-2-0.9-4.2-1.2-6.5c-0.8-7.8-3.3-13.6-6.5-18c3-0.2,5.9-0.4,8.9-0.6c1.4,3.3,2.5,7.1,3,11.7
		c0.6,5.3,1.9,9.8,3.7,13.5H523.8z M543.7,823.7h-10.1c-1.9-3.7-3.3-8.1-3.9-13.6c-0.5-4.5-1.5-8.4-2.9-11.7
		c2.5-0.2,4.9-0.5,7.4-0.7c0.4,1.7,0.7,3.5,0.9,5.5C536.1,812.5,539.5,819.1,543.7,823.7z M738.4,738.5l-68.3-18.3l50-50
		L738.4,738.5z M730,687l-7.3-27.2l-62.5,62.5l27.2,7.3c-50.9,41.6-115.9,66.5-186.7,66.5c-70.7,0-135.7-25-186.7-66.5l27.2-7.3
		l-62.5-62.5l-7.3,27.2C229.9,636,205,571,205,500.3c0-70.7,25-135.7,66.5-186.7l7.3,27.2l62.5-62.5l-27.2-7.3
		c50.9-41.6,115.9-66.5,186.7-66.5c70.7,0,135.7,25,186.7,66.5l-27.2,7.3l62.5,62.5l7.3-27.2c41.6,50.9,66.5,115.9,66.5,186.7
		C796.6,571,771.6,636,730,687z M824.2,546.9c-4.8-4.4-8.8-11.2-9.8-21.5c-1.3-13-7.4-20.6-13.8-25.1h12.3c3.4,4.3,6,10.2,6.9,18.2
		c0.6,6,2.2,10.9,4.4,14.8V546.9z M824.2,529.4c-1.3-3.2-2.3-6.8-2.7-11.1c-0.8-7.8-3.3-13.6-6.5-18h9.2c0,0.1,0.1,0.2,0.1,0.2
		V529.4z M824.2,499H800c0-3.3-0.1-6.5-0.2-9.8h24.4V499z M824.2,487.5h-24.4c-0.1-3.3-0.3-6.5-0.6-9.8h25V487.5z M824.2,476H799
		c-0.3-3.3-0.6-6.5-1-9.8h26.1V476z M824.2,464.5h-26.3c-0.4-3.3-0.8-6.5-1.3-9.8h27.6V464.5z"/>
	<path fill="#4E7793" d="M846.3,349.3L846.3,349.3l0.3,0.8C846.5,349.8,846.4,349.6,846.3,349.3z"/>
	<path fill="#4E7793" d="M502.4,180.5c-8.4,7.5-9.8,18.9-9.8,19.1l1.7,0.2c0.1-0.6,1.3-10.6,8.6-17.5v-1.7h196.3
		c-0.9-0.6-1.9-1.2-2.8-1.7h-194V180.5z"/>
	<polygon fill="#4E7793" points="502.4,192.1 716.2,192.1 713.8,190.4 502.4,190.4 	"/>
	<path fill="#4E7793" d="M212.5,262.9c-1.1,1.4-2.2,2.8-3.3,4.1c-1.6,3.5-4.1,7.5-8.1,10.5c-0.9,1.3-1.9,2.5-2.8,3.8
		C207.3,276.8,211.1,268.1,212.5,262.9z"/>
	<path fill="#4E7793" d="M191.9,298.5l-1.7-0.2c0,0.2-2.1,17-16.6,22.3c-0.4,0.7-0.8,1.5-1.2,2.2C189.5,318,191.8,298.7,191.9,298.5
		z"/>
	<path fill="#4E7793" d="M228.3,262.1l-1.7-0.2c-0.1,0.9-2.8,22.4-23.8,23.9c-3.5,0.2-6.4,1-9,2.1c-0.7,1-1.4,2-2.1,3
		c3-1.8,6.7-3.1,11.2-3.4C225.4,285.9,228.3,262.3,228.3,262.1z"/>
	<path fill="#4E7793" d="M179.1,310.8c-0.1,0.2-0.2,0.3-0.3,0.5l0.2,0C179.1,311.3,179.1,311.1,179.1,310.8z"/>
	<path fill="#4E7793" d="M170.6,338l-1.7-0.2c-0.1,0.7-1.8,14.8-13.6,21c-0.3,0.8-0.6,1.6-1,2.4C168.6,354.9,170.6,338.2,170.6,338z
		"/>
	<path fill="#4E7793" d="M207.1,301.5l-1.7-0.2c-0.1,0.9-2.8,22.4-23.8,23.9c-5.2,0.4-9.3,1.9-12.6,4c-0.6,1.1-1.1,2.2-1.7,3.4
		c3.4-2.9,8.1-5.2,14.4-5.6C204.2,325.3,207.1,301.7,207.1,301.5z"/>
	<path fill="#4E7793" d="M218,288.7c-22.5,1.6-25.4,25.2-25.4,25.4l1.7,0.2c0.1-0.9,2.8-22.4,23.8-23.9
		c22.5-1.6,25.4-25.2,25.4-25.4l-1.7-0.2C241.8,265.1,239.1,287.2,218,288.7z"/>
	<path fill="#4E7793" d="M149.5,377c-0.1,0.5-1,7.7-5.6,14c-0.4,1.3-0.8,2.6-1.2,4c7.2-7.4,8.5-17.6,8.5-17.8L149.5,377z"/>
	<path fill="#4E7793" d="M187.5,340.9l-1.7-0.2c-0.1,0.9-2.8,22.4-23.8,23.9c-3.8,0.3-7.1,1.2-9.8,2.5c-0.3,0.8-0.6,1.6-0.9,2.4
		c2.9-1.7,6.5-2.9,10.9-3.2C184.5,364.8,187.4,341.2,187.5,340.9z"/>
	<path fill="#4E7793" d="M198.4,328.1c-22.5,1.6-25.4,25.2-25.4,25.4l1.7,0.2c0.1-0.9,2.8-22.4,23.8-23.9
		c22.5-1.6,25.4-25.2,25.4-25.4l-1.7-0.2C222.1,305.2,219.5,326.6,198.4,328.1z"/>
	<path fill="#4E7793" d="M166.5,380.2l-1.7-0.2c-0.1,0.9-2.8,22.4-23.8,23.9c-0.2,0-0.5,0-0.7,0.1c-0.2,0.6-0.3,1.2-0.5,1.8
		c0.4,0,0.9-0.1,1.3-0.1C163.6,404,166.4,380.4,166.5,380.2z"/>
	<path fill="#4E7793" d="M202.7,343.9l-1.7-0.2c0,0.2-2.7,22.4-23.8,23.9c-22.5,1.6-25.4,25.2-25.4,25.4l1.7,0.2
		c0.1-0.9,2.8-22.4,23.8-23.9C199.8,367.7,202.7,344.2,202.7,343.9z"/>
	<path fill="#4E7793" d="M213.7,331.1c-22.5,1.6-25.4,25.2-25.4,25.4l1.7,0.2c0-0.2,2.7-22.4,23.8-23.9
		c22.5-1.6,25.4-25.2,25.4-25.4l-1.7-0.2C237.4,308.1,234.8,329.6,213.7,331.1z"/>
	<path fill="#4E7793" d="M144.9,420l-1.7-0.2c-0.1,0.7-1.5,12.3-10.4,19.1c-0.1,0.8-0.2,1.5-0.4,2.3
		C143.1,434,144.8,420.2,144.9,420z"/>
	<path fill="#4E7793" d="M155.9,409c22.5-1.6,25.4-25.2,25.4-25.4l-1.7-0.2c-0.1,0.9-2.8,22.4-23.8,23.9c-9.1,0.6-15,4.9-18.7,9.7
		c-0.3,1.5-0.7,3.1-1,4.6C139.3,415.7,145.2,409.7,155.9,409z"/>
	<path fill="#4E7793" d="M192,371c-22.5,1.6-25.4,25.2-25.4,25.4l1.7,0.2c0.1-0.9,2.8-22.4,23.8-23.9c22.5-1.6,25.4-25.2,25.4-25.4
		l-1.7-0.2C215.7,348,213.1,369.5,192,371z"/>
	<path fill="#4E7793" d="M254.1,310.8l-1.7-0.2c-0.1,0.9-2.8,22.4-23.8,23.9c-22.5,1.6-25.4,25.2-25.4,25.4l1.7,0.2
		c0-0.2,2.7-22.4,23.8-23.9C251.2,334.6,254,311,254.1,310.8z"/>
	<path fill="#4E7793" d="M160.1,423l-1.7-0.2c-0.1,0.9-2.8,22.4-23.8,23.9c-1.1,0.1-2.1,0.2-3.2,0.4c-0.1,0.6-0.2,1.2-0.3,1.8
		c1.1-0.2,2.3-0.4,3.5-0.5C157.2,446.8,160.1,423.2,160.1,423z"/>
	<path fill="#4E7793" d="M171,410.2c-22.5,1.6-25.4,25.2-25.4,25.4l1.7,0.2c0.1-0.9,2.8-22.4,23.8-23.9
		c22.5-1.6,25.4-25.2,25.4-25.4l-1.7-0.2C194.8,386.6,192.1,408.7,171,410.2z"/>
	<path fill="#4E7793" d="M232.8,350.3l-1.7-0.2c0,0.2-2.7,22.4-23.8,23.9c-22.5,1.6-25.4,25.2-25.4,25.4l1.7,0.2
		c0.1-0.9,2.8-22.4,23.8-23.9C229.9,374.1,232.8,350.5,232.8,350.3z"/>
	<path fill="#4E7793" d="M249.1,224.2c-0.8,0.7-1.5,1.4-2.3,2.1c-1.6,5.9-6.4,17.2-19.6,19.7c-0.6,0.7-1.3,1.4-1.9,2
		C243.5,246,248.1,229.1,249.1,224.2z"/>
	<path fill="#4E7793" d="M281.7,197.3c-1.1,0.8-2.1,1.6-3.2,2.3c-2.6,4.1-6.6,8.1-12.8,10c-1,0.8-2,1.7-3,2.5
		C273.2,210.3,278.8,203.4,281.7,197.3z"/>
	<path fill="#4E7793" d="M238.7,251.6c22.5-1.6,25.4-25.2,25.4-25.4l-1.7-0.2c-0.1,0.9-2.8,22.4-23.8,23.9
		c-22.5,1.6-25.4,25.2-25.4,25.4l1.7,0.2C214.9,275.3,217.6,253.1,238.7,251.6z"/>
	<path fill="#4E7793" d="M250.5,239.9c0.1-0.9,2.8-22.4,23.8-23.9c22.5-1.6,25.4-25.2,25.4-25.4l-1.7-0.2
		c-0.1,0.9-2.8,22.4-23.8,23.9c-22.5,1.6-25.4,25.2-25.4,25.4L250.5,239.9z"/>
	<path fill="#4E7793" d="M331.9,166.3c-1,0.5-2.1,1.1-3.1,1.6c-3.4,4.8-8.9,9.1-17.6,9.9c-1.2,0.7-2.4,1.5-3.6,2.2
		c1-0.2,2.1-0.3,3.2-0.4C322.1,178.8,328.4,172.5,331.9,166.3z"/>
	<path fill="#4E7793" d="M292.1,190c-1.1,0.7-2.2,1.5-3.2,2.2c-3,5.7-3.6,10.9-3.6,11l1.7,0.2C287,202.9,287.8,196.2,292.1,190z"/>
	<path fill="#4E7793" d="M279.4,229.2l-1.7-0.2c0,0.2-2.7,22.4-23.8,23.9c-22.5,1.6-25.4,25.2-25.4,25.4l1.7,0.2
		c0.1-0.9,2.8-22.4,23.8-23.9C276.5,253,279.4,229.4,279.4,229.2z"/>
	<path fill="#4E7793" d="M315,193.6l-1.7-0.2c-0.1,0.9-2.8,22.4-23.8,23.9c-22.5,1.6-25.4,25.2-25.4,25.4l1.7,0.2
		c0.1-0.9,2.8-22.4,23.8-23.9C312.1,217.4,315,193.8,315,193.6z"/>
	<path fill="#4E7793" d="M326,182.6c22.5-1.6,25.4-25.2,25.4-25.4l-0.3,0c-0.5,0.2-1,0.4-1.5,0.7c-0.7,4.1-4.7,21.7-23.7,23
		c-22.5,1.6-25.4,25.2-25.4,25.4l1.7,0.2C302.2,206.2,304.9,184,326,182.6z"/>
	<path fill="#4E7793" d="M340.9,161.9c-0.8,0.4-1.5,0.8-2.3,1.1c-1.5,3.9-1.8,6.9-1.8,7l1.7,0.2
		C338.5,170.1,338.9,166.3,340.9,161.9z"/>
	<path fill="#4E7793" d="M306.4,222c22.5-1.6,25.4-25.2,25.4-25.4l-1.7-0.2c-0.1,0.9-2.8,22.4-23.8,23.9
		c-22.5,1.6-25.4,25.2-25.4,25.4l1.7,0.2C282.6,245.6,285.3,223.4,306.4,222z"/>
	<path fill="#4E7793" d="M342.7,183.8c-22.5,1.6-25.4,25.2-25.4,25.4l1.7,0.2c0.1-0.9,2.8-22.4,23.8-23.9
		c22.5-1.6,25.4-25.2,25.4-25.4l-1.7-0.2C366.4,160.9,363.8,182.3,342.7,183.8z"/>
	<path fill="#4E7793" d="M379.1,149.3c8.7-0.6,14.5-4.5,18.3-9.1c-1,0.3-2.1,0.6-3.1,0.9c-3.5,3.4-8.4,6-15.3,6.5
		c-22.5,1.6-25.4,25.2-25.4,25.4l1.7,0.2C355.3,172.9,358,150.8,379.1,149.3z"/>
	<path fill="#4E7793" d="M297.8,248.8c0.1-0.9,2.8-22.4,23.8-23.9c22.5-1.6,25.4-25.2,25.4-25.4l-1.7-0.2c0,0.2-2.7,22.4-23.8,23.9
		c-22.5,1.6-25.4,25.2-25.4,25.4L297.8,248.8z"/>
	<path fill="#4E7793" d="M358,186.8c-22.5,1.6-25.4,25.2-25.4,25.4l1.7,0.2c0.1-0.9,2.8-22.4,23.8-23.9
		c22.5-1.6,25.4-25.2,25.4-25.4l-1.7-0.2C381.7,163.8,379,185.3,358,186.8z"/>
	<path fill="#4E7793" d="M368.8,175.9l1.7,0.2c0.1-0.9,2.8-22.4,23.8-23.9c13.9-1,20.3-10.3,23.2-17.4c-0.7,0.2-1.4,0.3-2.1,0.5
		c-2.9,6.5-9,14.3-21.2,15.2C371.7,152.1,368.8,175.7,368.8,175.9z"/>
	<path fill="#4E7793" d="M407.5,137.3c-0.6,0.2-1.3,0.3-1.9,0.5c-0.2,0.9-0.3,1.5-0.3,1.6l1.7,0.2
		C407.1,139.6,407.2,138.7,407.5,137.3z"/>
	<path fill="#4E7793" d="M312.7,252.2c0.1-0.9,2.8-22.4,23.8-23.9c22.5-1.6,25.4-25.2,25.4-25.4l-1.7-0.2
		c-0.1,0.9-2.8,22.4-23.8,23.9c-22.5,1.6-25.4,25.2-25.4,25.4L312.7,252.2z"/>
	<path fill="#4E7793" d="M347.4,215.6l1.7,0.2c0.1-0.9,2.8-22.4,23.8-23.9c22.5-1.6,25.4-25.2,25.4-25.4l-1.7-0.2
		c-0.1,0.9-2.8,22.4-23.8,23.9C350.3,191.7,347.4,215.3,347.4,215.6z"/>
	<path fill="#4E7793" d="M383.7,179.3l1.7,0.2c0-0.2,2.7-22.4,23.8-23.9c19.8-1.4,24.4-19.8,25.3-24.3c-0.6,0.1-1.2,0.2-1.8,0.3
		c-1,5.1-5.5,21-23.6,22.3C386.6,155.5,383.7,179.1,383.7,179.3z"/>
	<path fill="#4E7793" d="M424.9,133.2c-0.7,0.1-1.3,0.3-2,0.4c-2.2,4.9-2.7,9.1-2.7,9.2l1.7,0.2
		C421.9,142.6,422.5,138.1,424.9,133.2z"/>
	<path fill="#4E7793" d="M328,255.2c0.1-0.9,2.8-22.4,23.8-23.9c22.5-1.6,25.4-25.2,25.4-25.4l-1.7-0.2c-0.1,0.9-2.8,22.4-23.8,23.9
		c-22.5,1.6-25.4,25.2-25.4,25.4L328,255.2z"/>
	<path fill="#4E7793" d="M413.6,169.5l-1.7-0.2c0,0.2-2.7,22.4-23.8,23.9c-22.5,1.6-25.4,25.2-25.4,25.4l1.7,0.2
		c0.1-0.9,2.8-22.4,23.8-23.9C410.7,193.3,413.6,169.7,413.6,169.5z"/>
	<path fill="#4E7793" d="M424.4,156.9c-22.5,1.6-25.4,25.2-25.4,25.4l1.7,0.2c0.1-0.9,2.8-22.4,23.8-23.9
		c22.5-1.6,25.4-25.2,25.4-25.4l-1.7-0.2C448.2,133.2,445.5,155.4,424.4,156.9z"/>
	<path fill="#4E7793" d="M444.7,129.5c-0.8,0.1-1.7,0.3-2.5,0.4c-5.7,7.1-6.7,15.7-6.8,15.8l1.7,0.2
		C437.2,145.4,438.4,136.3,444.7,129.5z"/>
	<path fill="#4E7793" d="M150.9,450.5c22.5-1.6,25.4-25.2,25.4-25.4l-1.7-0.2c0,0.2-2.7,22.4-23.8,23.9
		c-11.3,0.8-17.6,7.1-21.1,13.2c-0.2,1.5-0.3,3.1-0.4,4.6C131.9,459.9,137.8,451.4,150.9,450.5z"/>
	<path fill="#4E7793" d="M161.6,437.9l1.7,0.2c0.1-0.9,2.8-22.4,23.8-23.9c22.5-1.6,25.4-25.2,25.4-25.4l-1.7-0.2
		c-0.1,0.9-2.8,22.4-23.8,23.9C164.5,414,161.6,437.6,161.6,437.9z"/>
	<path fill="#4E7793" d="M404.2,197.1c22.5-1.6,25.4-25.2,25.4-25.4l-1.7-0.2c-0.1,0.9-2.8,22.4-23.8,23.9
		c-22.5,1.6-25.4,25.2-25.4,25.4l1.7,0.2C380.5,220.1,383.1,198.6,404.2,197.1z"/>
	<path fill="#4E7793" d="M466.1,135.2l-1.7-0.2c0,0.2-2.7,22.4-23.8,23.9c-22.5,1.6-25.4,25.2-25.4,25.4l1.7,0.2
		c0.1-0.9,2.8-22.4,23.8-23.9C463.2,159.1,466.1,135.5,466.1,135.2z"/>
	<path fill="#4E7793" d="M513.1,116.5l-12.3-21.3l-12.4,21.4c4.8-0.2,9.7-0.3,14.6-0.3C506.3,116.4,509.7,116.4,513.1,116.5z"/>
	<path fill="#4E7793" d="M518.2,125.4L518.2,125.4c-5.1-0.2-10.2-0.4-15.3-0.4c-6.6,0-13.2,0.2-19.7,0.5l0,0
		c6.4-0.3,12.9-0.5,19.5-0.5C507.9,125.1,513.1,125.2,518.2,125.4z"/>
	<path fill="#4E7793" d="M467.6,126.7c-1.4,0.1-2.7,0.3-4.1,0.4c0,0,0,0,0,0C464.9,127,466.2,126.8,467.6,126.7
		C467.6,126.7,467.6,126.7,467.6,126.7z"/>
	<path fill="#4E7793" d="M467.6,126.7c-1.4,0.1-2.7,0.3-4.1,0.4c-10.3,7.3-11.9,20.6-11.9,20.8l1.7,0.2
		C453.3,147.9,455.2,132.8,467.6,126.7z"/>
	<path fill="#4E7793" d="M468.5,151l-5.4,9.4c-2.1,0.8-4.6,1.3-7.3,1.5c-22.5,1.6-25.4,25.2-25.4,25.4l1.7,0.2
		c0.1-0.9,2.8-22.4,23.8-23.9c2.1-0.1,4.1-0.5,5.9-1l-3.9,6.8c-10.9,7.2-12.6,21.1-12.7,21.3l1.7,0.2c0.1-0.6,1.3-10.7,8.7-17.6
		l-2.1,3.6H468c-6.3,7.3-7.5,16.6-7.5,16.7l1.7,0.2c0-0.1,1.2-9.9,8.1-16.9h17.5c-9.1,7.5-10.5,19.5-10.6,19.7l1.7,0.2
		c0.1-0.7,1.6-13.3,11.7-19.9h57.2l-4.5-7.8h135l-3.4-1.7H542.4l-5.6-9.8h118.9c-1.3-0.6-2.6-1.2-3.9-1.7h-116l-5.6-9.8h95.8
		l-5.3-1.7h-91.5l-5.6-9.8h63.4c-2.6-0.6-5.3-1.2-8-1.7h-56.4l-4.3-7.4c-5.1-0.2-10.3-0.3-15.5-0.3c-6.5,0-13,0.2-19.5,0.5l-1.6,2.7
		c-12.9,6.7-14.8,22.3-14.8,22.5L468.5,151z M479.9,131.3l-11.3,19.6C468.7,149.7,470.4,137.8,479.9,131.3z"/>
	<rect x="185.2" y="538.4" fill="#4E7793" width="17.1" height="1.7"/>
	<path fill="#4E7793" d="M129.8,540.1h4.2v-1.7h-4.4C129.6,539,129.7,539.5,129.8,540.1z"/>
	<rect x="172.8" y="551.6" fill="#4E7793" width="17.1" height="1.7"/>
	<rect x="138.7" y="551.6" fill="#4E7793" width="17.1" height="1.7"/>
	<path fill="#4E7793" d="M133.2,564.9h0.7v-1.7h-1C133,563.7,133.1,564.3,133.2,564.9z"/>
	<rect x="185.2" y="563.1" fill="#4E7793" width="17.1" height="1.7"/>
	<rect x="151.1" y="563.1" fill="#4E7793" width="17.1" height="1.7"/>
	<rect x="172.8" y="574.6" fill="#4E7793" width="17.1" height="1.7"/>
	<rect x="138.7" y="574.6" fill="#4E7793" width="17.1" height="1.7"/>
	<rect x="185.2" y="589.2" fill="#4E7793" width="17.1" height="1.7"/>
	<path fill="#4E7793" d="M134,589.8v-0.6h-0.1C133.9,589.4,133.9,589.6,134,589.8z"/>
	<rect x="151.1" y="589.2" fill="#4E7793" width="17.1" height="1.7"/>
	<rect x="197.6" y="600.7" fill="#4E7793" width="17.1" height="1.7"/>
	<path fill="#4E7793" d="M141.8,602.4h4.6v-1.7h-5.1C141.5,601.3,141.6,601.9,141.8,602.4z"/>
	<rect x="163.5" y="600.7" fill="#4E7793" width="17.1" height="1.7"/>
	<rect x="185.2" y="612.2" fill="#4E7793" width="17.1" height="1.7"/>
	<rect x="151.1" y="612.2" fill="#4E7793" width="17.1" height="1.7"/>
	<rect x="172.8" y="622.4" fill="#4E7793" width="17.1" height="1.7"/>
	<path fill="#4E7793" d="M155.7,622.4h-7.7c0.2,0.6,0.4,1.2,0.6,1.7h7.1V622.4z"/>
	<rect x="207" y="622.4" fill="#4E7793" width="17.1" height="1.7"/>
	<path fill="#4E7793" d="M152.9,635.7h15.2V634h-15.9C152.5,634.5,152.7,635.1,152.9,635.7z"/>
	<rect x="185.2" y="634" fill="#4E7793" width="17.1" height="1.7"/>
	<rect x="172.8" y="645.5" fill="#4E7793" width="17.1" height="1.7"/>
	<rect x="207" y="645.5" fill="#4E7793" width="17.1" height="1.7"/>
	<rect x="185.2" y="660" fill="#4E7793" width="17.1" height="1.7"/>
	<rect x="219.4" y="660" fill="#4E7793" width="17.1" height="1.7"/>
	<path fill="#4E7793" d="M164.2,661.7h3.9V660h-4.8C163.7,660.6,163.9,661.2,164.2,661.7z"/>
	<path fill="#4E7793" d="M170,673.3h10.6v-1.7h-11.5C169.4,672.1,169.7,672.7,170,673.3z"/>
	<rect x="197.6" y="671.5" fill="#4E7793" width="17.1" height="1.7"/>
	<rect x="231.8" y="671.5" fill="#4E7793" width="17.1" height="1.7"/>
	<rect x="185.2" y="683" fill="#4E7793" width="17.1" height="1.7"/>
	<rect x="219.4" y="683" fill="#4E7793" width="17.1" height="1.7"/>
	<path fill="#4E7793" d="M184.1,698h5.8v-1.7H183C183.4,696.9,183.7,697.4,184.1,698z"/>
	<rect x="207" y="696.3" fill="#4E7793" width="17.1" height="1.7"/>
	<rect x="241.2" y="696.3" fill="#4E7793" width="17.1" height="1.7"/>
	<path fill="#4E7793" d="M191.6,709.5h10.8v-1.7h-11.9C190.8,708.4,191.2,709,191.6,709.5z"/>
	<rect x="219.4" y="707.8" fill="#4E7793" width="17.1" height="1.7"/>
	<rect x="241.2" y="719.3" fill="#4E7793" width="17.1" height="1.7"/>
	<rect x="207" y="719.3" fill="#4E7793" width="17.1" height="1.7"/>
	<rect x="219.4" y="733.9" fill="#4E7793" width="17.1" height="1.7"/>
	<rect x="266" y="745.4" fill="#4E7793" width="17.1" height="1.7"/>
	<rect x="231.8" y="745.4" fill="#4E7793" width="17.1" height="1.7"/>
	<rect x="300.2" y="745.4" fill="#4E7793" width="17.1" height="1.7"/>
	<rect x="321.9" y="756.9" fill="#4E7793" width="17.1" height="1.7"/>
	<rect x="253.6" y="756.9" fill="#4E7793" width="17.1" height="1.7"/>
	<rect x="287.7" y="756.9" fill="#4E7793" width="17.1" height="1.7"/>
	<path fill="#4E7793" d="M231,758.6h5.5v-1.7h-7.1C229.9,757.5,230.4,758,231,758.6z"/>
	<rect x="309.5" y="771.2" fill="#4E7793" width="17.1" height="1.7"/>
	<rect x="343.7" y="771.2" fill="#4E7793" width="17.1" height="1.7"/>
	<rect x="275.3" y="771.2" fill="#4E7793" width="17.1" height="1.7"/>
	<path fill="#4E7793" d="M258.3,771.2h-14.7c0.6,0.6,1.2,1.2,1.8,1.7h12.9V771.2z"/>
	<path fill="#4E7793" d="M258.1,784.5h12.6v-1.7h-14.6C256.7,783.3,257.4,783.9,258.1,784.5z"/>
	<rect x="287.7" y="782.7" fill="#4E7793" width="17.1" height="1.7"/>
	<rect x="321.9" y="782.7" fill="#4E7793" width="17.1" height="1.7"/>
	<rect x="356.1" y="782.7" fill="#4E7793" width="17.1" height="1.7"/>
	<rect x="275.3" y="794.2" fill="#4E7793" width="17.1" height="1.7"/>
	<rect x="412" y="794.2" fill="#4E7793" width="17.1" height="1.7"/>
	<rect x="377.9" y="794.2" fill="#4E7793" width="17.1" height="1.7"/>
	<rect x="343.7" y="794.2" fill="#4E7793" width="17.1" height="1.7"/>
	<rect x="309.5" y="794.2" fill="#4E7793" width="17.1" height="1.7"/>
	<rect x="492.8" y="808.8" fill="#4E7793" width="10.2" height="1.7"/>
	<rect x="424.4" y="808.8" fill="#4E7793" width="17.1" height="1.7"/>
	<rect x="458.6" y="808.8" fill="#4E7793" width="17.1" height="1.7"/>
	<path fill="#4E7793" d="M292,810.5h12.8v-1.7h-15.4C290.3,809.4,291.1,809.9,292,810.5z"/>
	<rect x="390.3" y="808.8" fill="#4E7793" width="17.1" height="1.7"/>
	<rect x="321.9" y="808.8" fill="#4E7793" width="17.1" height="1.7"/>
	<rect x="356.1" y="808.8" fill="#4E7793" width="17.1" height="1.7"/>
	<rect x="471" y="820.3" fill="#4E7793" width="17.1" height="1.7"/>
	<rect x="334.3" y="820.3" fill="#4E7793" width="17.1" height="1.7"/>
	<rect x="368.5" y="820.3" fill="#4E7793" width="17.1" height="1.7"/>
	<rect x="436.8" y="820.3" fill="#4E7793" width="17.1" height="1.7"/>
	<path fill="#4E7793" d="M309.9,822h7.3v-1.7h-10.2C308,820.9,309,821.5,309.9,822z"/>
	<rect x="402.7" y="820.3" fill="#4E7793" width="17.1" height="1.7"/>
	<path fill="#4E7793" d="M330.5,833.5h8.5v-1.7h-11.8C328.3,832.4,329.4,833,330.5,833.5z"/>
	<rect x="424.4" y="831.8" fill="#4E7793" width="17.1" height="1.7"/>
	<rect x="390.3" y="831.8" fill="#4E7793" width="17.1" height="1.7"/>
	<rect x="356.1" y="831.8" fill="#4E7793" width="17.1" height="1.7"/>
	<path fill="#4E7793" d="M358.8,846.8h2v-1.7h-6C356.1,845.6,357.4,846.2,358.8,846.8z"/>
	<rect x="377.9" y="845.1" fill="#4E7793" width="17.1" height="1.7"/>
	<rect x="446.2" y="845.1" fill="#4E7793" width="17.1" height="1.7"/>
	<rect x="412" y="845.1" fill="#4E7793" width="17.1" height="1.7"/>
	<rect x="424.4" y="856.6" fill="#4E7793" width="17.1" height="1.7"/>
	<path fill="#4E7793" d="M390.3,858.3C390.3,858.3,390.3,858.3,390.3,858.3l17.1,0v-1.7h-17.1V858.3z"/>
	<rect x="446.2" y="868.1" fill="#4E7793" width="17.1" height="1.7"/>
	<path fill="#4E7793" d="M429.1,868.3v-0.2h-0.9C428.5,868.1,428.8,868.2,429.1,868.3z"/>
</g>
</svg>
