<?xml version="1.0" encoding="utf-8"?>
<!-- Generator: Adobe Illustrator 18.0.0, SVG Export Plug-In . SVG Version: 6.00 Build 0)  -->
<!DOCTYPE svg PUBLIC "-//W3C//DTD SVG 1.1//EN" "http://www.w3.org/Graphics/SVG/1.1/DTD/svg11.dtd">
<svg version="1.1" id="Calque_4" xmlns="http://www.w3.org/2000/svg" xmlns:xlink="http://www.w3.org/1999/xlink" x="0px" y="0px"
	 viewBox="0 0 1000 1000" enable-background="new 0 0 1000 1000" xml:space="preserve">
<g>
	<path fill="#4E7793" d="M530.6,883.3c-1.5,0.1-3.1,0.2-4.6,0.3l50.6,50.6c1.4-0.2,2.8-0.5,4.2-0.7L530.6,883.3z"/>
	<path fill="#4E7793" d="M470.1,882.9l-50.4,50.4c1.4,0.3,2.8,0.5,4.1,0.8l50.8-50.8C473.1,883.1,471.6,883,470.1,882.9z"/>
	<path fill="#4E7793" d="M482.8,875l0.3-0.3l17.1-17.1l17.5,17.5c0.9,0,1.8-0.1,2.7-0.1c0.1,0,0.1,0,0.2,0c0.6,0,1.2-0.1,1.9-0.1
		l-2.6-2.6l-19.6-19.6l-18.9,18.9l-3.1,3.1C479.8,874.9,481.3,875,482.8,875z"/>
	<path fill="#4E7793" d="M476.7,117.2l-51-51c-1.4,0.2-2.8,0.5-4.2,0.7l50.6,50.6C473.6,117.5,475.2,117.3,476.7,117.2z"/>
	<path fill="#4E7793" d="M528.6,117.2L579,66.8c-1.4-0.3-2.8-0.5-4.2-0.7l-50.8,50.8C525.5,117,527,117.1,528.6,117.2z"/>
	<path fill="#4E7793" d="M480.3,125.7l1.8,1.8l18.1,18.1l18.8-18.8l1.3-1.3c-0.7,0-1.4-0.1-2.1-0.1l0,0c-0.9,0-1.8-0.1-2.7-0.1
		l-15.4,15.4l-15.2-15.2c-0.6,0-1.1,0-1.7,0.1l0,0C482.3,125.6,481.3,125.7,480.3,125.7z"/>
	<path fill="#4E7793" d="M500.2,900.1l-1.6,1.6L461.2,939c4.5,0.4,9.1,0.7,13.7,1l25.2-25.2l25.3,25.3c4.6-0.3,9.2-0.6,13.7-1
		l-36.7-36.7L500.2,900.1z"/>
	<path fill="#4E7793" d="M500.2,100.3l2.3-2.3L539,61.5c-4.6-0.4-9.1-0.7-13.7-1l-25.1,25.1l-25-25c-4.6,0.3-9.2,0.6-13.7,1
		l37.2,37.2L500.2,100.3z"/>
</g>
</svg>
