<?xml version="1.0" encoding="utf-8"?>
<!-- Generator: Adobe Illustrator 18.0.0, SVG Export Plug-In . SVG Version: 6.00 Build 0)  -->
<!DOCTYPE svg PUBLIC "-//W3C//DTD SVG 1.1//EN" "http://www.w3.org/Graphics/SVG/1.1/DTD/svg11.dtd">
<svg version="1.1" id="Calque_6" xmlns="http://www.w3.org/2000/svg" xmlns:xlink="http://www.w3.org/1999/xlink" x="0px" y="0px"
	 viewBox="0 0 1000 1000" enable-background="new 0 0 1000 1000" xml:space="preserve">
<g>
	<path fill="#4E7793" d="M834.5,166.6C745.4,77.4,626.8,28.3,500.8,28.3S256.2,77.4,167,166.6C77.9,255.7,28.8,374.2,28.8,500.3
		S77.9,744.9,167,834c89.1,89.1,207.7,138.2,333.7,138.2c126.1,0,244.6-49.1,333.7-138.2c89.1-89.1,138.2-207.7,138.2-333.7
		S923.7,255.7,834.5,166.6z M950.2,500.3c0,0.6,0,1.2,0,1.8l13.8,0.2c0,1.9,0,3.7-0.1,5.6l-13.8-0.3c0,0.6,0,1.3,0,1.9l13.8,0.3
		c0,1.9-0.1,3.9-0.2,5.8l-13.8-0.5c0,0.6,0,1.3-0.1,1.9l13.8,0.5c-0.1,1.9-0.2,3.9-0.2,5.8l-13.8-0.7c0,0.6-0.1,1.3-0.1,1.9
		l13.8,0.7c-0.1,2-0.2,3.9-0.3,5.9l-13.8-0.9c0,0.6-0.1,1.3-0.1,1.9l13.8,0.9c-0.1,1.9-0.3,3.9-0.4,5.8l-13.8-1.2
		c-0.1,0.6-0.1,1.3-0.2,1.9l13.8,1.2c-0.2,1.9-0.3,3.9-0.5,5.8l-13.8-1.4c-0.1,0.6-0.1,1.3-0.2,1.9l13.8,1.4
		c-0.2,1.9-0.4,3.9-0.6,5.8l-13.7-1.6c-0.1,0.6-0.2,1.3-0.2,1.9l13.7,1.6c-0.2,1.9-0.5,3.8-0.7,5.7l-13.7-1.8
		c-0.1,0.6-0.2,1.3-0.3,1.9l13.7,1.8c-0.3,1.9-0.5,3.9-0.8,5.8l-13.7-2.1c-0.1,0.6-0.2,1.3-0.3,1.9l13.7,2.1
		c-0.3,1.9-0.6,3.8-0.9,5.7l-13.6-2.3c-0.1,0.6-0.2,1.2-0.3,1.9l13.6,2.3c-0.3,1.9-0.7,3.8-1,5.7l-13.6-2.5
		c-0.1,0.6-0.2,1.2-0.3,1.9l13.6,2.5c-0.4,1.9-0.7,3.8-1.1,5.7l-13.5-2.8c-0.1,0.6-0.2,1.2-0.4,1.9l13.5,2.8
		c-0.4,1.9-0.8,3.8-1.2,5.7l-13.5-3c-0.1,0.6-0.3,1.2-0.4,1.9l13.5,3c-0.4,1.9-0.9,3.8-1.3,5.7l-13.4-3.2c-0.1,0.6-0.3,1.2-0.4,1.8
		l13.4,3.2c-0.5,1.9-0.9,3.8-1.4,5.6l-13.4-3.4c-0.2,0.6-0.3,1.2-0.5,1.8l13.4,3.4c-0.5,1.9-1,3.7-1.5,5.6l-13.3-3.7
		c-0.2,0.6-0.3,1.2-0.5,1.8l13.3,3.6c-0.5,1.9-1.1,3.7-1.6,5.6l-13.2-3.9c-0.2,0.6-0.4,1.2-0.5,1.8l13.2,3.9
		c-0.5,1.9-1.1,3.7-1.7,5.6l-13.2-4.1c-0.2,0.6-0.4,1.2-0.6,1.8l13.2,4.1c-0.6,1.9-1.2,3.7-1.8,5.6l-13.1-4.3
		c-0.2,0.6-0.4,1.2-0.6,1.8l13.1,4.3c-0.6,1.8-1.2,3.7-1.9,5.5l-13-4.5c-0.2,0.6-0.4,1.2-0.6,1.8l13,4.5c-0.6,1.8-1.3,3.7-2,5.5
		l-12.9-4.7c-0.2,0.6-0.4,1.2-0.7,1.8l12.9,4.7c-0.7,1.8-1.4,3.6-2.1,5.5l-12.8-5c-0.2,0.6-0.5,1.2-0.7,1.8l12.8,5
		c-0.7,1.8-1.4,3.6-2.2,5.4l-12.7-5.2c-0.2,0.6-0.5,1.2-0.7,1.8l12.7,5.2c-0.7,1.8-1.5,3.6-2.2,5.3l-12.6-5.4
		c-0.2,0.6-0.5,1.2-0.8,1.7l12.6,5.4c-0.8,1.8-1.5,3.6-2.3,5.4l-12.5-5.6c-0.3,0.6-0.5,1.2-0.8,1.7l12.5,5.6
		c-0.8,1.8-1.6,3.5-2.4,5.3l-12.4-5.8c-0.3,0.6-0.5,1.2-0.8,1.7l12.4,5.8c-0.8,1.8-1.7,3.5-2.5,5.3l-12.3-6
		c-0.3,0.6-0.6,1.1-0.8,1.7l12.3,6c-0.9,1.7-1.7,3.5-2.6,5.2l-12.2-6.2c-0.3,0.6-0.6,1.1-0.9,1.7l12.2,6.2c-0.9,1.7-1.8,3.4-2.7,5.2
		l-12.1-6.4c-0.3,0.6-0.6,1.1-0.9,1.7l12.1,6.4c-0.9,1.7-1.8,3.4-2.8,5.1l-12-6.6c-0.3,0.6-0.6,1.1-0.9,1.7l12,6.6
		c-0.9,1.7-1.9,3.4-2.8,5.1l-11.9-6.8c-0.3,0.6-0.6,1.1-0.9,1.7l11.9,6.8c-1,1.7-2,3.4-3,5.1l-11.8-7c-0.3,0.5-0.7,1.1-1,1.6l11.8,7
		c-1,1.7-2,3.3-3,4.9l-11.6-7.2c-0.3,0.5-0.7,1.1-1,1.6l11.6,7.2c-1,1.6-2.1,3.3-3.1,4.9l-11.5-7.4c-0.3,0.5-0.7,1.1-1,1.6l11.5,7.4
		c-1,1.6-2.1,3.3-3.2,4.9l-11.4-7.6c-0.3,0.5-0.7,1.1-1.1,1.6l11.4,7.6c-1.1,1.6-2.2,3.2-3.3,4.8l-11.3-7.7c-0.4,0.5-0.7,1-1.1,1.6
		l11.3,7.7c-1.1,1.6-2.2,3.2-3.3,4.7l-11.1-7.9c-0.4,0.5-0.7,1-1.1,1.5l11.1,7.9c-1.1,1.6-2.3,3.2-3.4,4.7l-11-8.1
		c-0.4,0.5-0.8,1-1.1,1.5l11,8.1c-1.2,1.6-2.3,3.1-3.5,4.7l-10.8-8.3c-0.4,0.5-0.8,1-1.2,1.5l10.8,8.3c-1.2,1.5-2.4,3.1-3.6,4.6
		l-10.7-8.5c-0.4,0.5-0.8,1-1.2,1.5l10.7,8.5c-1.2,1.5-2.4,3-3.6,4.5l-10.6-8.6c-0.4,0.5-0.8,1-1.2,1.5l10.6,8.6
		c-1.2,1.5-2.5,3-3.7,4.4l-10.4-8.8c-0.4,0.5-0.8,1-1.2,1.5l10.4,8.8c-1.3,1.5-2.5,3-3.8,4.4l-10.3-9c-0.4,0.5-0.8,1-1.3,1.4l10.3,9
		c-1.3,1.5-2.6,2.9-3.9,4.4l-10.1-9.1c-0.4,0.5-0.8,0.9-1.3,1.4l10.1,9.1c-1.3,1.4-2.6,2.9-3.9,4.3l-10-9.3
		c-0.4,0.5-0.9,0.9-1.3,1.4l10,9.3c-1.3,1.4-2.7,2.8-4,4.2l-9.8-9.5c-0.4,0.5-0.9,0.9-1.3,1.4l9.8,9.5c-1.4,1.4-2.7,2.8-4.1,4.2
		l-9.6-9.6c-0.4,0.4-0.9,0.9-1.3,1.3l9.6,9.6c-1.4,1.4-2.8,2.7-4.2,4.1l-9.5-9.8c-0.5,0.4-0.9,0.9-1.4,1.3l9.5,9.8
		c-1.4,1.3-2.8,2.7-4.2,4l-9.3-10c-0.5,0.4-0.9,0.9-1.4,1.3l9.3,10c-1.4,1.3-2.8,2.6-4.3,3.9l-9.2-10.1c-0.5,0.4-0.9,0.8-1.4,1.3
		l9.2,10.1c-1.4,1.3-2.9,2.6-4.3,3.8l-9-10.3c-0.5,0.4-1,0.8-1.4,1.3l9,10.3c-1.5,1.3-2.9,2.5-4.4,3.8l-8.8-10.4
		c-0.5,0.4-1,0.8-1.4,1.2l8.8,10.4c-1.5,1.2-3,2.5-4.4,3.7l-8.6-10.6c-0.5,0.4-1,0.8-1.5,1.2l8.6,10.6c-1.5,1.2-3,2.4-4.5,3.7
		l-8.5-10.7c-0.5,0.4-1,0.8-1.5,1.2l8.5,10.7c-1.5,1.2-3.1,2.4-4.6,3.6l-8.3-10.8c-0.5,0.4-1,0.8-1.5,1.2l8.3,10.8
		c-1.5,1.2-3.1,2.3-4.7,3.5l-8.1-11c-0.5,0.4-1,0.8-1.5,1.1l8.1,11c-1.5,1.1-3.1,2.3-4.7,3.4l-7.9-11.1c-0.5,0.4-1,0.7-1.5,1.1
		l7.9,11.1c-1.6,1.1-3.2,2.2-4.8,3.4l-7.7-11.2c-0.5,0.4-1,0.7-1.6,1.1l7.7,11.2c-1.6,1.1-3.2,2.2-4.8,3.3l-7.6-11.4
		c-0.5,0.4-1.1,0.7-1.6,1.1l7.6,11.4c-1.6,1.1-3.2,2.1-4.8,3.2l-7.4-11.5c-0.5,0.3-1.1,0.7-1.6,1l7.4,11.5c-1.6,1.1-3.3,2.1-5,3.1
		l-7.2-11.6c-0.5,0.3-1.1,0.7-1.6,1l7.2,11.6c-1.6,1-3.3,2-4.9,3l-7-11.8c-0.5,0.3-1.1,0.7-1.6,1l7,11.8c-1.7,1-3.3,2-5,2.9
		l-6.8-11.9c-0.5,0.3-1.1,0.6-1.7,0.9l6.8,11.9c-1.7,1-3.4,1.9-5.1,2.9l-6.6-12c-0.6,0.3-1.1,0.6-1.7,0.9l6.6,12
		c-1.7,0.9-3.4,1.8-5.1,2.8l-6.4-12.1c-0.6,0.3-1.1,0.6-1.7,0.9l6.4,12.1c-1.7,0.9-3.4,1.8-5.2,2.7l-6.2-12.2
		c-0.6,0.3-1.1,0.6-1.7,0.9l6.2,12.2c-1.7,0.9-3.5,1.7-5.2,2.6l-6-12.3c-0.6,0.3-1.1,0.6-1.7,0.8l6,12.3c-1.7,0.8-3.5,1.7-5.3,2.5
		l-5.8-12.4c-0.6,0.3-1.1,0.5-1.7,0.8l5.8,12.4c-1.8,0.8-3.5,1.6-5.3,2.4l-5.6-12.5c-0.6,0.3-1.2,0.5-1.7,0.8l5.6,12.5
		c-1.8,0.8-3.5,1.6-5.3,2.3l-5.4-12.6c-0.6,0.2-1.2,0.5-1.7,0.8l5.4,12.6c-1.8,0.8-3.6,1.5-5.4,2.2l-5.2-12.7
		c-0.6,0.2-1.2,0.5-1.8,0.7l5.2,12.7c-1.8,0.7-3.6,1.4-5.4,2.2l-5-12.8c-0.6,0.2-1.2,0.5-1.8,0.7l5,12.8c-1.8,0.7-3.6,1.4-5.5,2.1
		l-4.7-12.9c-0.6,0.2-1.2,0.4-1.8,0.7l4.7,12.9c-1.8,0.7-3.6,1.3-5.5,2l-4.5-13c-0.6,0.2-1.2,0.4-1.8,0.6l4.5,13
		c-1.8,0.6-3.7,1.3-5.5,1.9l-4.3-13.1c-0.6,0.2-1.2,0.4-1.8,0.6l4.3,13.1c-1.8,0.6-3.7,1.2-5.6,1.8l-4.1-13.1
		c-0.6,0.2-1.2,0.4-1.8,0.6l4.1,13.2c-1.8,0.6-3.7,1.1-5.5,1.7l-3.9-13.2c-0.6,0.2-1.2,0.4-1.8,0.5l3.9,13.2
		c-1.9,0.5-3.8,1.1-5.6,1.6l-3.7-13.3c-0.6,0.2-1.2,0.3-1.8,0.5l3.7,13.3c-1.9,0.5-3.7,1-5.6,1.5l-3.4-13.4
		c-0.6,0.2-1.2,0.3-1.8,0.5l3.4,13.4c-1.9,0.5-3.8,0.9-5.6,1.4l-3.2-13.4c-0.6,0.1-1.2,0.3-1.9,0.4l3.2,13.4
		c-1.9,0.4-3.8,0.9-5.7,1.3l-3-13.5c-0.6,0.1-1.2,0.3-1.9,0.4l3,13.5c-1.9,0.4-3.8,0.8-5.7,1.2l-2.8-13.5c-0.6,0.1-1.2,0.3-1.9,0.4
		l2.8,13.5c-1.9,0.4-3.8,0.8-5.7,1.1l-2.5-13.6c-0.6,0.1-1.2,0.2-1.9,0.3l2.5,13.6c-1.9,0.4-3.9,0.7-5.8,1l-2.3-13.6
		c-0.6,0.1-1.2,0.2-1.9,0.3l2.3,13.6c-1.9,0.3-3.8,0.6-5.7,0.9l-2.1-13.7c-0.6,0.1-1.3,0.2-1.9,0.3l2.1,13.7
		c-1.9,0.3-3.8,0.6-5.7,0.8l-1.9-13.7c-0.6,0.1-1.3,0.2-1.9,0.3l1.9,13.7c-1.9,0.3-3.8,0.5-5.8,0.7l-1.6-13.7
		c-0.6,0.1-1.3,0.2-1.9,0.2l1.6,13.7c-1.9,0.2-3.9,0.4-5.8,0.6l-1.4-13.8c-0.6,0.1-1.3,0.1-1.9,0.2l1.4,13.8
		c-1.9,0.2-3.9,0.4-5.8,0.5l-1.2-13.8c-0.6,0.1-1.3,0.1-1.9,0.2l1.2,13.8c-1.9,0.2-3.8,0.3-5.8,0.4l-0.9-13.8
		c-0.6,0-1.3,0.1-1.9,0.1l0.9,13.8c-1.9,0.1-3.9,0.2-5.9,0.4l-0.7-13.8c-0.6,0-1.3,0.1-1.9,0.1L524,963c-1.9,0.1-3.9,0.2-5.8,0.3
		l-0.5-13.8c-0.6,0-1.3,0-1.9,0.1l0.5,13.8c-1.9,0.1-3.9,0.1-5.8,0.2l-0.3-13.8c-0.6,0-1.3,0-1.9,0l0.3,13.8c-1.8,0-3.7,0-5.6,0.1
		l-0.2-13.8c-0.6,0-1.3,0-1.9,0l0.2,13.8c-0.1,0-0.3,0-0.4,0c-1.9,0-3.8,0-5.7,0l0.2-13.8c-0.6,0-1.3,0-1.9,0l-0.2,13.8
		c-1.9,0-3.9-0.1-5.8-0.1l0.4-13.8c-0.6,0-1.3,0-1.9-0.1l-0.4,13.8c-1.9-0.1-3.9-0.1-5.8-0.2l0.6-13.8c-0.6,0-1.3-0.1-1.9-0.1
		l-0.6,13.8c-1.9-0.1-3.9-0.2-5.8-0.3l0.9-13.8c-0.6,0-1.3-0.1-1.9-0.1l-0.9,13.8c-1.9-0.1-3.9-0.3-5.8-0.4l1.1-13.8
		c-0.6,0-1.3-0.1-1.9-0.2l-1.1,13.8c-1.9-0.2-3.9-0.3-5.8-0.5l1.3-13.8c-0.6-0.1-1.3-0.1-1.9-0.2l-1.3,13.8
		c-1.9-0.2-3.9-0.4-5.8-0.6l1.6-13.7c-0.6-0.1-1.3-0.1-1.9-0.2l-1.6,13.7c-1.9-0.2-3.9-0.5-5.8-0.7l1.8-13.7
		c-0.6-0.1-1.3-0.2-1.9-0.3l-1.8,13.7c-1.9-0.3-3.9-0.5-5.8-0.8l2-13.7c-0.6-0.1-1.3-0.2-1.9-0.3l-2,13.7c-1.9-0.3-3.8-0.6-5.8-0.9
		l2.2-13.6c-0.6-0.1-1.3-0.2-1.9-0.3l-2.2,13.6c-1.9-0.3-3.8-0.7-5.7-1l2.5-13.6c-0.6-0.1-1.2-0.2-1.9-0.3l-2.5,13.6
		c-1.9-0.4-3.8-0.7-5.7-1.1l2.7-13.5c-0.6-0.1-1.2-0.2-1.9-0.4l-2.7,13.5c-1.9-0.4-3.8-0.8-5.7-1.2l2.9-13.5
		c-0.6-0.1-1.2-0.3-1.9-0.4l-2.9,13.5c-1.9-0.4-3.8-0.8-5.7-1.3l3.1-13.4c-0.6-0.1-1.2-0.3-1.9-0.4l-3.1,13.4
		c-1.9-0.4-3.8-0.9-5.6-1.4l3.4-13.4c-0.6-0.2-1.2-0.3-1.8-0.5l-3.4,13.4c-1.9-0.5-3.7-1-5.6-1.5l3.6-13.3c-0.6-0.2-1.2-0.3-1.8-0.5
		l-3.6,13.3c-1.9-0.5-3.8-1-5.7-1.6l3.8-13.2c-0.6-0.2-1.2-0.4-1.8-0.5l-3.8,13.2c-1.8-0.5-3.7-1.1-5.5-1.6l4-13.2
		c-0.6-0.2-1.2-0.4-1.8-0.6l-4,13.2c-1.9-0.6-3.7-1.2-5.6-1.8l4.3-13.1c-0.6-0.2-1.2-0.4-1.8-0.6l-4.3,13.1
		c-1.8-0.6-3.7-1.2-5.5-1.9l4.5-13c-0.6-0.2-1.2-0.4-1.8-0.6l-4.5,13c-1.8-0.6-3.7-1.3-5.5-1.9l4.7-12.9c-0.6-0.2-1.2-0.4-1.8-0.6
		l-4.7,12.9c-1.8-0.7-3.6-1.3-5.4-2l4.9-12.8c-0.6-0.2-1.2-0.5-1.8-0.7l-4.9,12.8c-1.8-0.7-3.7-1.4-5.5-2.1l5.1-12.8
		c-0.6-0.2-1.2-0.5-1.8-0.7l-5.1,12.8c-1.8-0.7-3.6-1.5-5.3-2.2l5.3-12.7c-0.6-0.2-1.2-0.5-1.8-0.7l-5.3,12.7
		c-1.8-0.8-3.6-1.5-5.4-2.3l5.5-12.6c-0.6-0.3-1.2-0.5-1.7-0.8l-5.5,12.6c-1.8-0.8-3.5-1.6-5.3-2.4l5.7-12.5
		c-0.6-0.3-1.2-0.5-1.7-0.8l-5.7,12.5c-1.8-0.8-3.5-1.6-5.3-2.5L307,906c-0.6-0.3-1.1-0.5-1.7-0.8l-5.9,12.4
		c-1.7-0.8-3.5-1.7-5.2-2.6l6.1-12.2c-0.6-0.3-1.1-0.6-1.7-0.9l-6.1,12.2c-1.7-0.9-3.5-1.8-5.2-2.7l6.3-12.1
		c-0.6-0.3-1.1-0.6-1.7-0.9l-6.3,12.1c-1.7-0.9-3.4-1.8-5.2-2.8l6.5-12c-0.6-0.3-1.1-0.6-1.7-0.9l-6.5,12c-1.7-0.9-3.4-1.9-5.1-2.8
		l6.7-11.9c-0.6-0.3-1.1-0.6-1.7-0.9l-6.7,11.9c-1.7-1-3.3-1.9-5-2.9l6.9-11.8c-0.5-0.3-1.1-0.6-1.6-1l-6.9,11.8c-1.7-1-3.4-2-5-3
		l7.1-11.7c-0.5-0.3-1.1-0.7-1.6-1l-7.1,11.7c-1.6-1-3.3-2-4.9-3.1l7.3-11.5c-0.5-0.3-1.1-0.7-1.6-1l-7.3,11.5
		c-1.6-1.1-3.3-2.1-4.9-3.2l7.5-11.4c-0.5-0.3-1.1-0.7-1.6-1l-7.5,11.4c-1.6-1.1-3.2-2.1-4.8-3.2l7.7-11.3c-0.5-0.4-1-0.7-1.6-1.1
		l-7.7,11.3c-1.6-1.1-3.2-2.2-4.8-3.3l7.9-11.2c-0.5-0.4-1-0.7-1.6-1.1l-7.9,11.2c-1.6-1.1-3.2-2.3-4.7-3.4l8.1-11
		c-0.5-0.4-1-0.8-1.5-1.1l-8.1,11c-1.5-1.1-3.1-2.3-4.6-3.4l8.2-10.9c-0.5-0.4-1-0.8-1.5-1.1l-8.2,10.9c-1.5-1.2-3.1-2.4-4.6-3.6
		l8.4-10.7c-0.5-0.4-1-0.8-1.5-1.2l-8.4,10.7c-1.5-1.2-3-2.4-4.6-3.6l8.6-10.6c-0.5-0.4-1-0.8-1.5-1.2l-8.6,10.6
		c-1.5-1.2-3-2.5-4.5-3.7l8.8-10.4c-0.5-0.4-1-0.8-1.5-1.2l-8.8,10.4c-1.5-1.3-3-2.5-4.4-3.8l8.9-10.3c-0.5-0.4-1-0.8-1.4-1.2
		l-8.9,10.3c-1.5-1.3-2.9-2.5-4.3-3.8l9.1-10.1c-0.5-0.4-0.9-0.8-1.4-1.3l-9.1,10.1c-1.4-1.3-2.9-2.6-4.3-3.9l9.3-10
		c-0.5-0.4-0.9-0.9-1.4-1.3l-9.3,10c-1.4-1.3-2.8-2.6-4.2-4l9.4-9.8c-0.5-0.4-0.9-0.9-1.4-1.3l-9.4,9.8c-1.4-1.3-2.8-2.7-4.2-4.1
		l9.6-9.7c-0.5-0.4-0.9-0.9-1.4-1.3l-9.6,9.7c-1.4-1.4-2.7-2.7-4.1-4.1l9.8-9.5c-0.4-0.5-0.9-0.9-1.3-1.4l-9.8,9.5
		c-1.4-1.4-2.7-2.8-4-4.2l9.9-9.4c-0.4-0.5-0.9-0.9-1.3-1.4l-9.9,9.4c-1.3-1.4-2.7-2.8-4-4.3l10.1-9.2c-0.4-0.5-0.9-0.9-1.3-1.4
		l-10.1,9.2c-1.3-1.4-2.6-2.9-3.9-4.3l10.2-9c-0.4-0.5-0.8-1-1.3-1.4l-10.2,9c-1.3-1.5-2.6-2.9-3.8-4.4l10.4-8.9
		c-0.4-0.5-0.8-1-1.2-1.4l-10.4,8.9c-1.3-1.5-2.5-3-3.8-4.5l10.5-8.7c-0.4-0.5-0.8-1-1.2-1.5l-10.5,8.7c-1.2-1.5-2.4-3-3.7-4.5
		l10.7-8.5c-0.4-0.5-0.8-1-1.2-1.5l-10.7,8.5c-1.2-1.5-2.4-3-3.6-4.6l10.8-8.3c-0.4-0.5-0.8-1-1.2-1.5l-10.8,8.3
		c-1.2-1.5-2.4-3.1-3.5-4.6l10.9-8.2c-0.4-0.5-0.8-1-1.1-1.5l-10.9,8.2c-1.2-1.6-2.3-3.1-3.5-4.7l11.1-8c-0.4-0.5-0.7-1-1.1-1.5
		l-11.1,8c-1.1-1.6-2.2-3.1-3.4-4.7l11.2-7.8c-0.4-0.5-0.7-1-1.1-1.6l-11.2,7.8c-1.1-1.6-2.2-3.2-3.3-4.8l11.3-7.6
		c-0.4-0.5-0.7-1.1-1.1-1.6l-11.3,7.6c-1.1-1.6-2.2-3.3-3.2-4.9l11.5-7.4c-0.3-0.5-0.7-1.1-1-1.6l-11.5,7.4c-1-1.6-2.1-3.2-3.1-4.9
		l11.6-7.2c-0.3-0.5-0.7-1.1-1-1.6l-11.6,7.2c-1-1.7-2.1-3.3-3.1-5l11.7-7c-0.3-0.5-0.7-1.1-1-1.6l-11.7,7c-1-1.7-2-3.3-2.9-5
		l11.8-6.8c-0.3-0.5-0.6-1.1-1-1.6L99,730.9c-1-1.7-1.9-3.4-2.9-5l12-6.7c-0.3-0.6-0.6-1.1-0.9-1.7l-12,6.7c-1-1.7-1.9-3.4-2.8-5.2
		l12.1-6.5c-0.3-0.6-0.6-1.1-0.9-1.7l-12.1,6.5c-0.9-1.7-1.8-3.4-2.7-5.1L101,706c-0.3-0.6-0.6-1.1-0.9-1.7L88,710.6
		c-0.9-1.7-1.8-3.5-2.6-5.2l12.3-6c-0.3-0.6-0.6-1.1-0.8-1.7l-12.3,6.1c-0.9-1.7-1.7-3.5-2.5-5.2l12.4-5.8c-0.3-0.6-0.5-1.1-0.8-1.7
		l-12.4,5.8c-0.8-1.7-1.6-3.5-2.4-5.3l12.5-5.6c-0.3-0.6-0.5-1.2-0.8-1.7l-12.5,5.6c-0.8-1.8-1.6-3.5-2.3-5.3l12.6-5.4
		c-0.3-0.6-0.5-1.2-0.8-1.7l-12.6,5.4c-0.8-1.8-1.5-3.6-2.3-5.4l12.7-5.2c-0.2-0.6-0.5-1.2-0.7-1.8l-12.7,5.2
		c-0.7-1.8-1.5-3.6-2.2-5.4l12.8-5c-0.2-0.6-0.5-1.2-0.7-1.8l-12.8,5c-0.7-1.8-1.4-3.6-2.1-5.5l12.9-4.8c-0.2-0.6-0.4-1.2-0.7-1.8
		l-12.9,4.8c-0.7-1.8-1.3-3.7-2-5.5l13-4.6c-0.2-0.6-0.4-1.2-0.6-1.8l-13,4.6c-0.6-1.8-1.3-3.7-1.9-5.5l13.1-4.4
		c-0.2-0.6-0.4-1.2-0.6-1.8l-13.1,4.4c-0.6-1.8-1.2-3.7-1.8-5.5l13.1-4.1c-0.2-0.6-0.4-1.2-0.6-1.8l-13.1,4.2
		c-0.6-1.8-1.1-3.7-1.7-5.5l13.2-3.9c-0.2-0.6-0.4-1.2-0.5-1.8l-13.2,3.9c-0.6-1.9-1.1-3.7-1.6-5.6l13.3-3.7
		c-0.2-0.6-0.3-1.2-0.5-1.8l-13.3,3.7c-0.5-1.9-1-3.7-1.5-5.6l13.3-3.5c-0.2-0.6-0.3-1.2-0.5-1.8L52.3,617c-0.5-1.9-1-3.7-1.4-5.6
		l13.4-3.3c-0.2-0.6-0.3-1.2-0.4-1.8l-13.4,3.3c-0.5-1.9-0.9-3.8-1.3-5.7l13.5-3c-0.1-0.6-0.3-1.2-0.4-1.9l-13.5,3
		c-0.4-1.9-0.8-3.8-1.2-5.7l13.5-2.8c-0.1-0.6-0.3-1.2-0.4-1.9l-13.5,2.8c-0.4-1.9-0.8-3.8-1.2-5.7l13.6-2.6
		c-0.1-0.6-0.2-1.2-0.4-1.9l-13.6,2.6c-0.4-1.9-0.7-3.8-1-5.7l13.6-2.4c-0.1-0.6-0.2-1.2-0.3-1.9l-13.6,2.4c-0.3-1.9-0.6-3.8-1-5.7
		l13.7-2.1c-0.1-0.6-0.2-1.3-0.3-1.9l-13.7,2.1c-0.3-1.9-0.6-3.8-0.9-5.8l13.7-1.9c-0.1-0.6-0.2-1.3-0.3-1.9l-13.7,1.9
		c-0.3-1.9-0.5-3.9-0.8-5.8l13.7-1.7c-0.1-0.6-0.2-1.3-0.2-1.9l-13.7,1.7c-0.2-1.9-0.5-3.8-0.7-5.7l13.8-1.5
		c-0.1-0.6-0.1-1.3-0.2-1.9L40,548.6c-0.2-1.9-0.4-3.9-0.6-5.8l13.8-1.2c-0.1-0.6-0.1-1.3-0.2-1.9l-13.8,1.2
		c-0.2-1.9-0.3-3.9-0.5-5.8l13.8-1c0-0.6-0.1-1.3-0.1-1.9l-13.8,1c-0.1-1.9-0.3-3.9-0.4-5.8l13.8-0.8c0-0.6-0.1-1.3-0.1-1.9
		l-13.8,0.8c-0.1-1.9-0.2-3.9-0.3-5.8l13.8-0.5c0-0.6-0.1-1.3-0.1-1.9l-13.8,0.5c-0.1-1.9-0.1-3.9-0.2-5.8l13.8-0.3
		c0-0.6,0-1.3,0-1.9l-13.8,0.3c0-1.9-0.1-3.8-0.1-5.7l13.8-0.2c0-0.6,0-1.3,0-1.9l-13.8,0.2c0-0.7,0-1.5,0-2.2c0-1.3,0-2.6,0-3.8
		l13.8,0.2c0-0.6,0-1.3,0-1.9l-13.8-0.2c0-1.9,0.1-3.8,0.1-5.7l13.8,0.4c0-0.6,0-1.3,0.1-1.9l-13.8-0.4c0.1-1.9,0.1-3.9,0.2-5.8
		l13.8,0.6c0-0.6,0.1-1.3,0.1-1.9l-13.8-0.6c0.1-1.9,0.2-3.9,0.3-5.8l13.8,0.8c0-0.6,0.1-1.3,0.1-1.9l-13.8-0.8
		c0.1-2,0.3-3.9,0.4-5.8l13.8,1c0-0.6,0.1-1.3,0.1-1.9l-13.8-1c0.2-1.9,0.3-3.9,0.5-5.8l13.8,1.3c0.1-0.6,0.1-1.3,0.2-1.9l-13.8-1.3
		c0.2-1.9,0.4-3.9,0.6-5.8l13.8,1.5c0.1-0.6,0.1-1.3,0.2-1.9l-13.8-1.5c0.2-1.9,0.4-3.9,0.7-5.8l13.7,1.7c0.1-0.6,0.2-1.3,0.2-1.9
		l-13.7-1.7c0.2-1.9,0.5-3.8,0.8-5.8l13.7,2c0.1-0.6,0.2-1.3,0.3-1.9l-13.7-2c0.3-1.9,0.6-3.8,0.9-5.8l13.6,2.2
		c0.1-0.6,0.2-1.3,0.3-1.9l-13.6-2.2c0.3-1.9,0.6-3.8,1-5.7l13.6,2.4c0.1-0.6,0.2-1.2,0.3-1.9l-13.6-2.4c0.3-1.9,0.7-3.8,1.1-5.7
		l13.6,2.6c0.1-0.6,0.2-1.2,0.4-1.9l-13.6-2.6c0.4-1.9,0.8-3.8,1.2-5.7l13.5,2.9c0.1-0.6,0.3-1.2,0.4-1.9l-13.5-2.9
		c0.4-1.9,0.8-3.8,1.3-5.7l13.5,3.1c0.1-0.6,0.3-1.2,0.4-1.9l-13.5-3.1c0.4-1.9,0.9-3.8,1.4-5.7l13.4,3.3c0.2-0.6,0.3-1.2,0.5-1.8
		l-13.4-3.3c0.5-1.9,1-3.8,1.4-5.6l13.3,3.5c0.2-0.6,0.3-1.2,0.5-1.8l-13.3-3.5c0.5-1.9,1-3.8,1.6-5.7l13.3,3.8
		c0.2-0.6,0.3-1.2,0.5-1.8l-13.3-3.8c0.5-1.9,1.1-3.7,1.6-5.5l13.2,4c0.2-0.6,0.4-1.2,0.6-1.8l-13.2-4c0.6-1.9,1.1-3.7,1.7-5.6
		l13.1,4.2c0.2-0.6,0.4-1.2,0.6-1.8L59.8,358c0.6-1.9,1.2-3.7,1.8-5.5l13,4.4c0.2-0.6,0.4-1.2,0.6-1.8l-13-4.4
		c0.6-1.8,1.3-3.7,1.9-5.5l13,4.6c0.2-0.6,0.4-1.2,0.6-1.8l-13-4.6c0.7-1.8,1.3-3.6,2-5.4l12.9,4.8c0.2-0.6,0.4-1.2,0.7-1.8
		l-12.9-4.8c0.7-1.8,1.4-3.6,2.1-5.4l12.8,5.1c0.2-0.6,0.5-1.2,0.7-1.8L70.3,329c0.7-1.8,1.5-3.6,2.2-5.4l12.7,5.3
		c0.2-0.6,0.5-1.2,0.7-1.8l-12.7-5.3c0.7-1.8,1.5-3.6,2.3-5.3l12.6,5.5c0.3-0.6,0.5-1.2,0.8-1.7l-12.6-5.5c0.8-1.8,1.6-3.5,2.4-5.3
		l12.5,5.7c0.3-0.6,0.5-1.2,0.8-1.7l-12.5-5.7c0.8-1.8,1.6-3.5,2.5-5.3l12.4,5.9c0.3-0.6,0.5-1.1,0.8-1.7l-12.4-5.9
		c0.8-1.8,1.7-3.5,2.5-5.2l12.3,6.1c0.3-0.6,0.6-1.1,0.8-1.7l-12.3-6.1c0.9-1.7,1.7-3.5,2.6-5.2l12.2,6.3c0.3-0.6,0.6-1.1,0.9-1.7
		l-12.2-6.3c0.9-1.7,1.8-3.4,2.7-5.1l12.1,6.5c0.3-0.6,0.6-1.1,0.9-1.7l-12.1-6.5c0.9-1.7,1.9-3.4,2.8-5.1l11.9,6.7
		c0.3-0.6,0.6-1.1,0.9-1.7L97,273.3c1-1.7,1.9-3.4,2.9-5.1l11.8,6.9c0.3-0.5,0.6-1.1,1-1.6l-11.8-6.9c1-1.7,2-3.3,3-5l11.7,7.1
		c0.3-0.5,0.7-1.1,1-1.6l-11.7-7.1c1-1.7,2-3.3,3.1-5l11.6,7.3c0.3-0.5,0.7-1.1,1-1.6l-11.6-7.3c1-1.6,2.1-3.2,3.1-4.9l11.4,7.5
		c0.3-0.5,0.7-1.1,1-1.6l-11.4-7.5c1.1-1.6,2.1-3.3,3.2-4.9l11.3,7.6c0.4-0.5,0.7-1.1,1.1-1.6l-11.3-7.6c1.1-1.6,2.2-3.2,3.3-4.8
		l11.2,7.8c0.4-0.5,0.7-1,1.1-1.6l-11.2-7.8c1.1-1.6,2.2-3.2,3.4-4.7l11.1,8c0.4-0.5,0.7-1,1.1-1.5l-11-8c1.1-1.6,2.3-3.1,3.5-4.7
		l10.9,8.2c0.4-0.5,0.8-1,1.1-1.5l-10.9-8.2c1.2-1.6,2.4-3.1,3.5-4.6l10.8,8.4c0.4-0.5,0.8-1,1.2-1.5l-10.8-8.4
		c1.2-1.5,2.4-3,3.6-4.5l10.6,8.5c0.4-0.5,0.8-1,1.2-1.5l-10.6-8.5c1.2-1.5,2.5-3,3.7-4.5l10.5,8.7c0.4-0.5,0.8-1,1.2-1.5l-10.5-8.7
		c1.2-1.5,2.5-3,3.8-4.4l10.3,8.9c0.4-0.5,0.8-1,1.2-1.4l-10.3-8.9c1.3-1.5,2.5-2.9,3.8-4.4l10.2,9.1c0.4-0.5,0.8-0.9,1.3-1.4
		l-10.2-9.1c1.3-1.4,2.6-2.9,3.9-4.3l10,9.2c0.4-0.5,0.9-0.9,1.3-1.4l-10-9.2c1.3-1.4,2.6-2.8,4-4.3l9.9,9.4
		c0.4-0.5,0.9-0.9,1.3-1.4l-9.9-9.4c1.3-1.4,2.7-2.8,4-4.2l9.7,9.6c0.4-0.5,0.9-0.9,1.3-1.4l-9.7-9.6c1.4-1.4,2.7-2.8,4.1-4.1
		l9.6,9.7c0.5-0.4,0.9-0.9,1.4-1.3l-9.6-9.7c1.4-1.3,2.8-2.7,4.2-4l9.4,9.9c0.5-0.4,0.9-0.9,1.4-1.3l-9.4-9.9c1.4-1.3,2.8-2.7,4.2-4
		l9.2,10c0.5-0.4,0.9-0.9,1.4-1.3l-9.2-10c1.4-1.3,2.9-2.6,4.3-3.9l9.1,10.2c0.5-0.4,0.9-0.8,1.4-1.3l-9.1-10.2
		c1.4-1.3,2.9-2.5,4.3-3.8l8.9,10.3c0.5-0.4,1-0.8,1.4-1.2l-8.9-10.3c1.5-1.3,3-2.5,4.4-3.8l8.7,10.5c0.5-0.4,1-0.8,1.5-1.2
		l-8.7-10.5c1.5-1.2,3-2.5,4.5-3.7l8.6,10.6c0.5-0.4,1-0.8,1.5-1.2l-8.6-10.6c1.5-1.2,3-2.4,4.6-3.6l8.4,10.8c0.5-0.4,1-0.8,1.5-1.2
		l-8.4-10.8c1.5-1.2,3.1-2.4,4.6-3.5l8.2,10.9c0.5-0.4,1-0.8,1.5-1.1l-8.2-10.9c1.5-1.2,3.1-2.3,4.7-3.4l8,11c0.5-0.4,1-0.7,1.5-1.1
		l-8-11c1.6-1.1,3.2-2.3,4.8-3.4l7.8,11.2c0.5-0.4,1-0.7,1.6-1.1l-7.8-11.2c1.6-1.1,3.2-2.2,4.8-3.3l7.7,11.3c0.5-0.4,1-0.7,1.6-1.1
		l-7.7-11.3c1.6-1.1,3.2-2.1,4.8-3.2l7.5,11.4c0.5-0.3,1.1-0.7,1.6-1l-7.5-11.4c1.6-1.1,3.3-2.1,4.9-3.2l7.3,11.6
		c0.5-0.3,1.1-0.7,1.6-1l-7.3-11.6c1.6-1,3.3-2,4.9-3l7.1,11.7c0.5-0.3,1.1-0.7,1.6-1l-7.1-11.7c1.7-1,3.4-2,5-3l6.9,11.8
		c0.5-0.3,1.1-0.6,1.6-1l-6.9-11.8c1.7-1,3.3-1.9,5-2.9l6.7,11.9c0.6-0.3,1.1-0.6,1.7-0.9l-6.7-11.9c1.7-0.9,3.4-1.9,5.1-2.8l6.5,12
		c0.6-0.3,1.1-0.6,1.7-0.9l-6.5-12c1.7-0.9,3.4-1.8,5.1-2.7l6.3,12.2c0.6-0.3,1.1-0.6,1.7-0.9l-6.3-12.2c1.7-0.9,3.4-1.8,5.2-2.6
		l6.1,12.3c0.6-0.3,1.1-0.6,1.7-0.8l-6.1-12.3c1.7-0.9,3.5-1.7,5.2-2.6l5.9,12.4c0.6-0.3,1.1-0.5,1.7-0.8l-5.9-12.4
		c1.8-0.8,3.5-1.7,5.3-2.5l5.7,12.5c0.6-0.3,1.2-0.5,1.7-0.8l-5.7-12.5c1.8-0.8,3.6-1.6,5.3-2.4l5.5,12.6c0.6-0.3,1.2-0.5,1.7-0.8
		l-5.5-12.6c1.8-0.8,3.6-1.5,5.3-2.3l5.3,12.7c0.6-0.2,1.2-0.5,1.8-0.7l-5.3-12.7c1.8-0.7,3.6-1.5,5.4-2.2l5.1,12.8
		c0.6-0.2,1.2-0.5,1.8-0.7l-5.1-12.8c1.8-0.7,3.6-1.4,5.4-2.1l4.9,12.9c0.6-0.2,1.2-0.4,1.8-0.7l-4.9-12.9c1.8-0.7,3.7-1.4,5.5-2
		l4.6,12.9c0.6-0.2,1.2-0.4,1.8-0.6l-4.6-12.9c1.8-0.7,3.7-1.3,5.5-1.9l4.4,13c0.6-0.2,1.2-0.4,1.8-0.6l-4.4-13
		c1.8-0.6,3.7-1.2,5.5-1.8l4.2,13.1c0.6-0.2,1.2-0.4,1.8-0.6L360,58.9c1.8-0.6,3.7-1.2,5.5-1.7l4,13.2c0.6-0.2,1.2-0.4,1.8-0.6
		l-4-13.2c1.9-0.6,3.7-1.1,5.6-1.7l3.8,13.3c0.6-0.2,1.2-0.3,1.8-0.5l-3.8-13.3c1.9-0.5,3.7-1,5.6-1.5l3.5,13.3
		c0.6-0.2,1.2-0.3,1.8-0.5l-3.5-13.3c1.9-0.5,3.8-1,5.7-1.5l3.3,13.4c0.6-0.2,1.2-0.3,1.8-0.5l-3.3-13.4c1.9-0.5,3.8-0.9,5.7-1.4
		l3.1,13.4c0.6-0.1,1.2-0.3,1.9-0.4l-3.1-13.4c1.9-0.4,3.8-0.9,5.7-1.3l2.9,13.5c0.6-0.1,1.2-0.3,1.9-0.4L404.7,47
		c1.9-0.4,3.8-0.8,5.7-1.2l2.7,13.6c0.6-0.1,1.2-0.2,1.9-0.4l-2.6-13.6c1.9-0.4,3.8-0.7,5.7-1.1l2.4,13.6c0.6-0.1,1.2-0.2,1.9-0.3
		l-2.4-13.6c1.9-0.3,3.8-0.7,5.8-1l2.2,13.6c0.6-0.1,1.3-0.2,1.9-0.3l-2.2-13.6c1.9-0.3,3.8-0.6,5.8-0.9l2,13.7
		c0.6-0.1,1.3-0.2,1.9-0.3l-2-13.7c1.9-0.3,3.8-0.5,5.7-0.8l1.7,13.7c0.6-0.1,1.3-0.2,1.9-0.2l-1.7-13.7c1.9-0.2,3.9-0.5,5.8-0.7
		l1.5,13.8c0.6-0.1,1.3-0.1,1.9-0.2l-1.5-13.8c1.9-0.2,3.9-0.4,5.8-0.6l1.3,13.8c0.6-0.1,1.3-0.1,1.9-0.2l-1.3-13.8
		c1.9-0.2,3.9-0.3,5.8-0.5l1.1,13.8c0.6,0,1.3-0.1,1.9-0.1l-1.1-13.8c1.9-0.1,3.8-0.3,5.7-0.4l0.8,13.8c0.6,0,1.3-0.1,1.9-0.1
		l-0.8-13.8c2-0.1,3.9-0.2,5.9-0.3l0.6,13.8c0.6,0,1.3-0.1,1.9-0.1l-0.6-13.8c1.9-0.1,3.9-0.1,5.8-0.2l0.4,13.8c0.6,0,1.3,0,1.9-0.1
		L489,37.1c1.9,0,3.8-0.1,5.7-0.1l0.2,13.8c0.6,0,1.3,0,1.9,0L496.7,37c1.4,0,2.7,0,4.1,0c0.6,0,1.3,0,1.9,0l-0.2,13.8
		c0.6,0,1.3,0,1.9,0l0.2-13.8c1.9,0,3.9,0,5.8,0.1l-0.3,13.8c0.6,0,1.3,0,1.9,0l0.3-13.8c1.9,0,3.9,0.1,5.8,0.2l-0.5,13.8
		c0.6,0,1.3,0.1,1.9,0.1l0.5-13.8c1.9,0.1,3.9,0.2,5.8,0.3L525,51.5c0.6,0,1.3,0.1,1.9,0.1l0.8-13.8c2,0.1,3.9,0.2,5.8,0.4l-1,13.8
		c0.6,0,1.3,0.1,1.9,0.1l1-13.8c1.9,0.1,3.9,0.3,5.8,0.5L540,52.5c0.6,0.1,1.3,0.1,1.9,0.2l1.2-13.8c1.9,0.2,3.9,0.4,5.8,0.6
		l-1.4,13.8c0.6,0.1,1.3,0.1,1.9,0.2l1.4-13.8c1.9,0.2,3.8,0.4,5.8,0.7l-1.7,13.7c0.6,0.1,1.3,0.1,1.9,0.2l1.7-13.7
		c1.9,0.2,3.9,0.5,5.8,0.8L562.3,55c0.6,0.1,1.3,0.2,1.9,0.3l1.9-13.7c1.9,0.3,3.8,0.6,5.8,0.9l-2.1,13.7c0.6,0.1,1.3,0.2,1.9,0.3
		l2.1-13.7c1.9,0.3,3.8,0.6,5.7,0.9l-2.4,13.6c0.6,0.1,1.3,0.2,1.9,0.3l2.4-13.6c1.9,0.3,3.8,0.7,5.7,1l-2.6,13.6
		c0.6,0.1,1.2,0.2,1.9,0.4l2.6-13.6c1.9,0.4,3.8,0.8,5.7,1.2l-2.8,13.5c0.6,0.1,1.2,0.3,1.9,0.4l2.8-13.5c1.9,0.4,3.8,0.8,5.7,1.2
		l-3,13.5c0.6,0.1,1.2,0.3,1.9,0.4l3-13.5c1.9,0.4,3.8,0.9,5.7,1.3l-3.3,13.4c0.6,0.1,1.2,0.3,1.8,0.4l3.3-13.4
		c1.9,0.5,3.8,0.9,5.6,1.4l-3.5,13.3c0.6,0.2,1.2,0.3,1.8,0.5l3.5-13.3c1.9,0.5,3.8,1,5.6,1.5L621,67.1c0.6,0.2,1.2,0.3,1.8,0.5
		l3.7-13.3c1.9,0.5,3.7,1.1,5.6,1.6l-3.9,13.2c0.6,0.2,1.2,0.4,1.8,0.5l3.9-13.2c1.9,0.6,3.7,1.1,5.5,1.7l-4.1,13.1
		c0.6,0.2,1.2,0.4,1.8,0.6l4.1-13.1c1.9,0.6,3.7,1.2,5.5,1.8l-4.4,13.1c0.6,0.2,1.2,0.4,1.8,0.6l4.4-13.1c1.8,0.6,3.7,1.3,5.5,1.9
		l-4.6,13c0.6,0.2,1.2,0.4,1.8,0.6l4.6-13c1.8,0.6,3.6,1.3,5.5,2l-4.8,12.9c0.6,0.2,1.2,0.4,1.8,0.7l4.8-12.9
		c1.8,0.7,3.6,1.4,5.5,2.1l-5,12.8c0.6,0.2,1.2,0.5,1.8,0.7l5-12.8c1.8,0.7,3.6,1.4,5.4,2.2L670.6,84c0.6,0.2,1.2,0.5,1.8,0.7
		l5.2-12.7c1.8,0.7,3.6,1.5,5.4,2.3l-5.4,12.6c0.6,0.2,1.2,0.5,1.7,0.8l5.4-12.6c1.8,0.8,3.5,1.6,5.3,2.3l-5.6,12.5
		c0.6,0.3,1.2,0.5,1.7,0.8l5.6-12.5c1.8,0.8,3.5,1.6,5.3,2.4L691.2,93c0.6,0.3,1.1,0.5,1.7,0.8l5.8-12.4c1.8,0.8,3.5,1.7,5.2,2.5
		l-6,12.3c0.6,0.3,1.1,0.6,1.7,0.8l6-12.3c1.7,0.9,3.5,1.7,5.2,2.6l-6.2,12.2c0.6,0.3,1.1,0.6,1.7,0.9l6.2-12.2
		c1.7,0.9,3.4,1.8,5.1,2.7l-6.4,12.1c0.6,0.3,1.1,0.6,1.7,0.9l6.4-12.1c1.7,0.9,3.4,1.8,5.1,2.8l-6.6,12c0.6,0.3,1.1,0.6,1.7,0.9
		l6.6-12c1.7,1,3.4,1.9,5.1,2.9l-6.8,11.8c0.5,0.3,1.1,0.6,1.6,1l6.8-11.8c1.7,1,3.3,1.9,5,2.9l-7,11.7c0.5,0.3,1.1,0.7,1.6,1
		l7-11.7c1.7,1,3.3,2,5,3l-7.2,11.6c0.5,0.3,1.1,0.7,1.6,1l7.2-11.6c1.6,1,3.3,2.1,4.9,3.1l-7.4,11.5c0.5,0.3,1.1,0.7,1.6,1
		l7.4-11.5c1.6,1.1,3.2,2.1,4.9,3.2l-7.6,11.3c0.5,0.4,1.1,0.7,1.6,1.1l7.6-11.3c1.6,1.1,3.2,2.2,4.8,3.3l-7.8,11.2
		c0.5,0.4,1,0.7,1.6,1.1l7.8-11.2c1.6,1.1,3.2,2.2,4.8,3.4l-8,11.1c0.5,0.4,1,0.7,1.5,1.1l8-11.1c1.6,1.1,3.1,2.3,4.7,3.5l-8.2,10.9
		c0.5,0.4,1,0.8,1.5,1.1l8.2-10.9c1.5,1.1,3.1,2.3,4.6,3.5l-8.3,10.8c0.5,0.4,1,0.8,1.5,1.2l8.3-10.8c1.5,1.2,3.1,2.4,4.6,3.6
		l-8.5,10.7c0.5,0.4,1,0.8,1.5,1.2l8.5-10.7c1.5,1.2,3,2.4,4.5,3.7l-8.7,10.5c0.5,0.4,1,0.8,1.5,1.2l8.7-10.5c1.5,1.2,3,2.5,4.5,3.7
		l-8.9,10.4c0.5,0.4,1,0.8,1.4,1.2l8.9-10.4c1.5,1.3,2.9,2.5,4.4,3.8l-9,10.2c0.5,0.4,1,0.8,1.4,1.3l9-10.2c1.5,1.3,2.9,2.6,4.3,3.9
		l-9.2,10.1c0.5,0.4,0.9,0.9,1.4,1.3l9.2-10.1c1.4,1.3,2.8,2.6,4.2,3.9l-9.4,9.9c0.5,0.4,0.9,0.9,1.4,1.3l9.4-9.9
		c1.4,1.3,2.8,2.7,4.2,4l-9.5,9.8c0.5,0.4,0.9,0.9,1.4,1.3l9.5-9.8c1.4,1.4,2.8,2.7,4.1,4.1l-9.7,9.6c0.4,0.4,0.9,0.9,1.3,1.4
		l9.7-9.6c1.4,1.4,2.7,2.7,4,4.1l-9.8,9.4c0.4,0.5,0.9,0.9,1.3,1.4l9.8-9.4c1.3,1.4,2.7,2.8,4,4.2l-10,9.3c0.4,0.5,0.9,0.9,1.3,1.4
		l10-9.3c1.3,1.4,2.6,2.9,3.9,4.3l-10.1,9.1c0.4,0.5,0.8,0.9,1.3,1.4l10.1-9.1c1.3,1.4,2.6,2.9,3.9,4.4l-10.3,8.9
		c0.4,0.5,0.8,1,1.3,1.4l10.3-8.9c1.3,1.5,2.5,2.9,3.8,4.4l-10.4,8.8c0.4,0.5,0.8,1,1.2,1.5l10.4-8.8c1.2,1.5,2.5,3,3.7,4.5
		l-10.6,8.6c0.4,0.5,0.8,1,1.2,1.5l10.6-8.6c1.2,1.5,2.4,3,3.6,4.6l-10.7,8.4c0.4,0.5,0.8,1,1.2,1.5l10.7-8.4c1.2,1.5,2.4,3,3.5,4.6
		l-10.9,8.2c0.4,0.5,0.8,1,1.1,1.5l10.9-8.2c1.2,1.5,2.3,3.1,3.5,4.6l-11,8.1c0.4,0.5,0.8,1,1.1,1.5l11-8.1c1.1,1.6,2.3,3.2,3.4,4.7
		l-11.1,7.9c0.4,0.5,0.7,1,1.1,1.6l11.1-7.9c1.1,1.6,2.2,3.2,3.3,4.8l-11.3,7.7c0.4,0.5,0.7,1,1.1,1.6l11.3-7.7
		c1.1,1.6,2.2,3.2,3.2,4.8l-11.4,7.5c0.3,0.5,0.7,1.1,1,1.6l11.4-7.5c1.1,1.6,2.1,3.3,3.2,4.9l-11.5,7.3c0.3,0.5,0.7,1.1,1,1.6
		l11.5-7.3c1,1.6,2,3.3,3.1,4.9l-11.7,7.1c0.3,0.5,0.7,1.1,1,1.6l11.7-7.1c1,1.7,2,3.3,3,5l-11.8,6.9c0.3,0.5,0.6,1.1,1,1.6
		l11.8-6.9c1,1.7,2,3.4,2.9,5l-11.9,6.7c0.3,0.6,0.6,1.1,0.9,1.7l11.9-6.7c1,1.7,1.9,3.4,2.8,5.1l-12,6.6c0.3,0.6,0.6,1.1,0.9,1.7
		l12-6.6c0.9,1.7,1.8,3.4,2.7,5.1l-12.1,6.4c0.3,0.6,0.6,1.1,0.9,1.7l12.1-6.4c0.9,1.7,1.8,3.5,2.7,5.2l-12.2,6.2
		c0.3,0.6,0.6,1.1,0.9,1.7l12.2-6.2c0.9,1.7,1.7,3.4,2.6,5.2l-12.4,5.9c0.3,0.6,0.6,1.1,0.8,1.7l12.4-6c0.8,1.8,1.7,3.5,2.5,5.3
		l-12.5,5.7c0.3,0.6,0.5,1.2,0.8,1.7l12.5-5.7c0.8,1.8,1.6,3.5,2.4,5.3l-12.6,5.5c0.3,0.6,0.5,1.2,0.8,1.7l12.6-5.5
		c0.8,1.8,1.6,3.6,2.3,5.4l-12.7,5.3c0.2,0.6,0.5,1.2,0.7,1.8l12.7-5.3c0.7,1.8,1.5,3.6,2.2,5.3l-12.7,5.1c0.2,0.6,0.5,1.2,0.7,1.8
		l12.8-5.1c0.7,1.8,1.4,3.6,2.1,5.4l-12.8,4.9c0.2,0.6,0.5,1.2,0.7,1.8l12.8-4.9c0.7,1.8,1.4,3.6,2,5.5l-12.9,4.7
		c0.2,0.6,0.4,1.2,0.6,1.8l12.9-4.7c0.7,1.8,1.3,3.6,1.9,5.5l-13,4.5c0.2,0.6,0.4,1.2,0.6,1.8l13-4.5c0.6,1.8,1.2,3.7,1.9,5.5
		l-13.1,4.3c0.2,0.6,0.4,1.2,0.6,1.8l13.1-4.3c0.6,1.9,1.2,3.7,1.8,5.6l-13.2,4c0.2,0.6,0.4,1.2,0.6,1.8l13.2-4
		c0.6,1.8,1.1,3.7,1.6,5.5l-13.2,3.8c0.2,0.6,0.4,1.2,0.5,1.8l13.2-3.8c0.5,1.9,1.1,3.8,1.6,5.7l-13.3,3.6c0.2,0.6,0.3,1.2,0.5,1.8
		l13.3-3.6c0.5,1.9,1,3.7,1.5,5.6l-13.4,3.4c0.2,0.6,0.3,1.2,0.5,1.8l13.4-3.4c0.5,1.9,0.9,3.8,1.4,5.6l-13.4,3.2
		c0.1,0.6,0.3,1.2,0.4,1.9L952,395c0.4,1.9,0.9,3.8,1.3,5.7l-13.5,2.9c0.1,0.6,0.3,1.2,0.4,1.9l13.5-2.9c0.4,1.9,0.8,3.8,1.2,5.7
		l-13.5,2.7c0.1,0.6,0.2,1.2,0.4,1.9l13.5-2.7c0.4,1.9,0.7,3.8,1.1,5.7l-13.6,2.5c0.1,0.6,0.2,1.2,0.3,1.9l13.6-2.5
		c0.3,1.9,0.7,3.8,1,5.7l-13.6,2.3c0.1,0.6,0.2,1.3,0.3,1.9l13.6-2.3c0.3,1.9,0.6,3.8,0.9,5.8l-13.7,2c0.1,0.6,0.2,1.3,0.3,1.9
		l13.7-2c0.3,1.9,0.6,3.9,0.8,5.8l-13.7,1.8c0.1,0.6,0.2,1.3,0.3,1.9l13.7-1.8c0.2,1.9,0.5,3.8,0.7,5.8l-13.7,1.6
		c0.1,0.6,0.1,1.3,0.2,1.9l13.7-1.6c0.2,1.9,0.4,3.9,0.6,5.8l-13.8,1.3c0.1,0.6,0.1,1.3,0.2,1.9l13.8-1.3c0.2,1.9,0.4,3.9,0.5,5.8
		l-13.8,1.1c0.1,0.6,0.1,1.3,0.2,1.9l13.8-1.1c0.2,1.9,0.3,3.9,0.4,5.8l-13.8,0.9c0,0.6,0.1,1.3,0.1,1.9l13.8-0.9
		c0.1,1.9,0.2,3.9,0.3,5.8l-13.8,0.7c0,0.6,0.1,1.3,0.1,1.9l13.8-0.7c0.1,1.9,0.2,3.9,0.2,5.8l-13.8,0.4c0,0.6,0,1.3,0.1,1.9
		l13.8-0.4c0.1,1.9,0.1,3.9,0.1,5.8l-13.8,0.2c0,0.6,0,1.3,0,1.9l13.8-0.2c0,2,0,3.9,0,5.9c0,0.1,0,0.1,0,0.2L950.2,500.3
		C950.2,500.3,950.2,500.3,950.2,500.3z"/>
	<polygon fill="#4E7793" points="518,257.8 515.9,257.7 506.7,278.3 508.9,278.4 	"/>
	<polygon fill="#4E7793" points="518,278.9 527.9,258.7 525.8,258.5 515.8,278.7 	"/>
	<polygon fill="#4E7793" points="527,279.8 537.8,260 535.7,259.8 524.9,279.5 	"/>
	<polygon fill="#4E7793" points="545.5,261.4 533.9,280.7 536,281 547.6,261.7 	"/>
	<polygon fill="#4E7793" points="555.3,263.4 542.9,282.2 545,282.7 557.3,263.9 	"/>
	<polygon fill="#4E7793" points="553.9,284.6 567,266.4 564.9,265.8 551.8,284.1 	"/>
	<polygon fill="#4E7793" points="574.5,268.7 560.7,286.4 562.7,287 576.6,269.3 	"/>
	<polygon fill="#4E7793" points="584,271.9 569.4,289 571.4,289.7 586,272.6 	"/>
	<polygon fill="#4E7793" points="593.3,275.5 578,292 579.9,292.8 595.2,276.3 	"/>
	<polygon fill="#4E7793" points="602.4,279.5 586.5,295.3 588.4,296.2 604.3,280.3 	"/>
	<polygon fill="#4E7793" points="611.4,283.8 594.8,299 596.7,300 613.3,284.8 	"/>
	<polygon fill="#4E7793" points="620.2,288.6 603,303.1 604.8,304.1 622,289.6 	"/>
	<polygon fill="#4E7793" points="628.7,293.6 610.9,307.4 612.8,308.5 630.5,294.7 	"/>
	<polygon fill="#4E7793" points="637.1,299.1 618.8,312.1 620.5,313.3 638.8,300.2 	"/>
	<polygon fill="#4E7793" points="646.9,306.1 645.2,304.8 626.4,317.1 628.1,318.3 	"/>
	<polygon fill="#4E7793" points="654.8,312.2 653.1,310.9 633.8,322.4 635.4,323.7 	"/>
	<polygon fill="#4E7793" points="642.6,329.4 662.4,318.7 660.8,317.4 641,328.1 	"/>
	<polygon fill="#4E7793" points="649.4,335.4 669.6,325.5 668.1,324 647.9,333.9 	"/>
	<polygon fill="#4E7793" points="656.1,341.6 676.7,332.6 675.2,331.1 654.6,340.1 	"/>
	<polygon fill="#4E7793" points="662.5,348.1 683.4,339.9 682,338.4 661,346.6 	"/>
	<polygon fill="#4E7793" points="668.6,354.9 689.9,347.6 688.5,346 667.3,353.3 	"/>
	<polygon fill="#4E7793" points="674.4,361.9 696,355.4 694.7,353.8 673.1,360.2 	"/>
	<polygon fill="#4E7793" points="679.9,369.1 701.7,363.5 700.5,361.8 678.7,367.4 	"/>
	<polygon fill="#4E7793" points="685.2,376.6 707.2,371.9 706,370.1 684,374.8 	"/>
	<polygon fill="#4E7793" points="690.1,384.2 712.3,380.4 711.2,378.6 689,382.4 	"/>
	<polygon fill="#4E7793" points="694.7,392.1 717,389.2 716,387.4 693.7,390.3 	"/>
	<polygon fill="#4E7793" points="699,400.1 721.4,398.2 720.5,396.3 698.1,398.2 	"/>
	<polygon fill="#4E7793" points="703,408.4 725.4,407.3 724.6,405.4 702.1,406.4 	"/>
	<polygon fill="#4E7793" points="706.6,416.7 729,416.6 728.3,414.7 705.8,414.8 	"/>
	<polygon fill="#4E7793" points="709.8,425.2 732.3,426.1 731.6,424.1 709.1,423.2 	"/>
	<polygon fill="#4E7793" points="712.7,433.9 735.1,435.6 734.5,433.6 712.1,431.8 	"/>
	<polygon fill="#4E7793" points="715.3,442.7 737.6,445.3 737.1,443.3 714.7,440.6 	"/>
	<polygon fill="#4E7793" points="717.4,451.5 739.6,455.1 739.2,453 717,449.4 	"/>
	<polygon fill="#4E7793" points="719.2,460.4 741.3,464.9 740.9,462.8 718.9,458.3 	"/>
	<polygon fill="#4E7793" points="720.7,469.4 742.5,474.8 742.3,472.7 720.4,467.3 	"/>
	<polygon fill="#4E7793" points="721.8,478.5 743.3,484.8 743.2,482.7 721.6,476.4 	"/>
	<polygon fill="#4E7793" points="722.5,487.5 743.8,494.7 743.7,492.6 722.4,485.4 	"/>
	<polygon fill="#4E7793" points="722.7,494.5 722.7,496.6 743.9,504.3 743.8,502.2 	"/>
	<polygon fill="#4E7793" points="722.8,505.7 743.4,514.6 743.5,512.5 722.8,503.6 	"/>
	<polygon fill="#4E7793" points="722.3,514.8 742.6,524.5 742.8,522.4 722.5,512.7 	"/>
	<polygon fill="#4E7793" points="721.6,524 741.4,534.5 741.7,532.4 721.8,521.9 	"/>
	<polygon fill="#4E7793" points="720.4,533 739.9,544.3 740.2,542.2 720.8,530.9 	"/>
	<polygon fill="#4E7793" points="718.9,541.9 737.9,554.1 738.3,552 719.3,539.9 	"/>
	<polygon fill="#4E7793" points="717,550.9 735.5,563.8 736,561.7 717.5,548.8 	"/>
	<polygon fill="#4E7793" points="714.8,559.7 732.7,573.3 733.3,571.3 715.4,557.7 	"/>
	<polygon fill="#4E7793" points="712.2,568.4 729.5,582.8 730.1,580.8 712.9,566.4 	"/>
	<polygon fill="#4E7793" points="709.2,577 725.9,592.1 726.7,590.1 710,575 	"/>
	<polygon fill="#4E7793" points="705.9,585.5 721.9,601.3 722.8,599.3 706.7,583.6 	"/>
	<polygon fill="#4E7793" points="702.2,593.9 717.6,610.2 718.5,608.4 703.1,592 	"/>
	<polygon fill="#4E7793" points="698.2,602 712.9,619 713.9,617.2 699.2,600.1 	"/>
	<polygon fill="#4E7793" points="693.9,610 707.8,627.6 708.9,625.8 694.9,608.2 	"/>
	<polygon fill="#4E7793" points="689.2,617.9 702.4,636 703.6,634.3 690.3,616.1 	"/>
	<polygon fill="#4E7793" points="684.2,625.5 696.7,644.2 697.9,642.5 685.4,623.8 	"/>
	<polygon fill="#4E7793" points="678.9,632.9 690.6,652.1 691.9,650.4 680.2,631.2 	"/>
	<polygon fill="#4E7793" points="673.3,640.1 684.2,659.7 685.6,658.1 674.7,638.5 	"/>
	<polygon fill="#4E7793" points="667.4,647.1 677.5,667.1 679,665.6 668.8,645.5 	"/>
	<polygon fill="#4E7793" points="661.3,653.7 670.6,674.2 672.1,672.7 662.8,652.2 	"/>
	<polygon fill="#4E7793" points="654.8,660.2 663.3,681.1 664.8,679.6 656.4,658.8 	"/>
	<polygon fill="#4E7793" points="648.2,666.4 655.8,687.6 657.3,686.2 649.8,665 	"/>
	<polygon fill="#4E7793" points="641.2,672.3 647.9,693.8 649.6,692.5 642.8,671 	"/>
	<polygon fill="#4E7793" points="634,677.9 639.9,699.7 641.6,698.4 635.7,676.7 	"/>
	<polygon fill="#4E7793" points="626.6,683.3 631.6,705.2 633.3,704 628.4,682.1 	"/>
	<polygon fill="#4E7793" points="619,688.3 623.1,710.4 624.9,709.3 620.8,687.2 	"/>
	<polygon fill="#4E7793" points="611.2,693 614.3,715.3 616.2,714.2 613.1,692 	"/>
	<polygon fill="#4E7793" points="603.3,697.3 605.5,719.7 607.4,718.8 605.1,696.4 	"/>
	<polygon fill="#4E7793" points="595.1,701.4 596.4,723.8 598.3,723 597,700.5 	"/>
	<polygon fill="#4E7793" points="586.8,705.1 587.1,727.6 589.1,726.8 588.7,704.3 	"/>
	<polygon fill="#4E7793" points="577.7,730.9 579.7,730.2 580.2,707.8 578.3,708.5 	"/>
	<polygon fill="#4E7793" points="568.2,733.9 570.2,733.3 571.7,710.8 569.7,711.5 	"/>
	<polygon fill="#4E7793" points="558.6,736.4 560.6,735.9 563,713.6 561,714.1 	"/>
	<polygon fill="#4E7793" points="548.8,738.6 550.9,738.2 554.2,715.9 552.2,716.4 	"/>
	<polygon fill="#4E7793" points="539,740.4 541,740 545.3,717.9 543.2,718.3 	"/>
	<polygon fill="#4E7793" points="529.1,741.7 531.2,741.5 536.4,719.6 534.3,719.8 	"/>
	<polygon fill="#4E7793" points="519.2,742.7 521.3,742.5 527.3,720.8 525.2,721 	"/>
	<polygon fill="#4E7793" points="509.2,743.2 511.3,743.1 518.3,721.7 516.2,721.8 	"/>
	<polygon fill="#4E7793" points="499.3,743.4 501.4,743.3 509.2,722.2 507.1,722.3 	"/>
	<polygon fill="#4E7793" points="497.9,722.3 489.3,743.1 491.4,743.2 500,722.4 	"/>
	<polygon fill="#4E7793" points="488.8,722 479.4,742.4 481.5,742.6 490.9,722.2 	"/>
	<polygon fill="#4E7793" points="479.7,721.4 469.4,741.4 471.5,741.6 481.8,721.6 	"/>
	<polygon fill="#4E7793" points="470.7,720.3 459.6,739.9 461.7,740.2 472.8,720.6 	"/>
	<polygon fill="#4E7793" points="461.7,718.9 449.8,738 451.8,738.4 463.7,719.3 	"/>
	<polygon fill="#4E7793" points="452.8,717.2 440.1,735.7 442.2,736.2 454.8,717.6 	"/>
	<polygon fill="#4E7793" points="443.9,715 430.5,733 432.5,733.6 445.9,715.6 	"/>
	<polygon fill="#4E7793" points="435.2,712.5 421,730 423,730.6 437.2,713.2 	"/>
	<polygon fill="#4E7793" points="426.5,709.6 411.7,726.5 413.6,727.2 428.5,710.4 	"/>
	<polygon fill="#4E7793" points="418,706.4 402.4,722.6 404.4,723.5 419.9,707.2 	"/>
	<polygon fill="#4E7793" points="409.6,702.8 393.4,718.4 395.3,719.3 411.5,703.7 	"/>
	<polygon fill="#4E7793" points="401.4,698.9 384.5,713.8 386.4,714.8 403.3,699.9 	"/>
	<polygon fill="#4E7793" points="393.3,694.7 375.9,708.9 377.7,709.9 395.1,695.7 	"/>
	<polygon fill="#4E7793" points="385.4,690.1 367.4,703.6 369.2,704.7 387.2,691.2 	"/>
	<polygon fill="#4E7793" points="377.8,685.2 359.2,697.9 360.9,699.1 379.5,686.4 	"/>
	<polygon fill="#4E7793" points="370.3,680 351.2,691.9 352.9,693.2 371.9,681.2 	"/>
	<polygon fill="#4E7793" points="363,674.5 343.5,685.6 345.1,687 364.7,675.8 	"/>
	<polygon fill="#4E7793" points="356,668.7 336.1,679.1 337.6,680.5 357.6,670.1 	"/>
	<polygon fill="#4E7793" points="349.2,662.6 328.8,672.1 330.4,673.6 350.7,664 	"/>
	<polygon fill="#4E7793" points="342.7,656.3 322,665 323.4,666.5 344.2,657.8 	"/>
	<polygon fill="#4E7793" points="336.4,649.6 315.3,657.5 316.7,659 337.8,651.2 	"/>
	<polygon fill="#4E7793" points="330.4,642.8 309.1,649.8 310.4,651.4 331.8,644.4 	"/>
	<polygon fill="#4E7793" points="324.7,635.7 303.1,641.8 304.3,643.4 326,637.3 	"/>
	<polygon fill="#4E7793" points="319.3,628.3 297.4,633.5 298.6,635.2 320.5,630 	"/>
	<polygon fill="#4E7793" points="314.2,620.7 292.1,625.1 293.2,626.8 315.3,622.5 	"/>
	<polygon fill="#4E7793" points="309.4,613 287.2,616.4 288.2,618.3 310.5,614.9 	"/>
	<polygon fill="#4E7793" points="304.9,605.1 282.6,607.6 283.6,609.4 305.9,607 	"/>
	<polygon fill="#4E7793" points="300.8,597 278.4,598.6 279.3,600.5 301.7,598.9 	"/>
	<polygon fill="#4E7793" points="297,588.7 274.5,589.4 275.3,591.3 297.8,590.7 	"/>
	<polygon fill="#4E7793" points="293.5,580.3 271.1,580 271.8,581.9 294.3,582.2 	"/>
	<polygon fill="#4E7793" points="290.4,571.7 268,570.5 268.6,572.5 291.1,573.7 	"/>
	<polygon fill="#4E7793" points="287.7,563 265.3,560.9 265.9,562.9 288.3,565.1 	"/>
	<polygon fill="#4E7793" points="285.3,554.2 263,551.1 263.5,553.2 285.8,556.3 	"/>
	<polygon fill="#4E7793" points="283.3,545.4 261.2,541.4 261.5,543.4 283.7,547.4 	"/>
	<polygon fill="#4E7793" points="281.6,536.4 259.7,531.5 260,533.6 281.9,538.5 	"/>
	<polygon fill="#4E7793" points="280.3,527.4 258.6,521.6 258.8,523.7 280.6,529.5 	"/>
	<polygon fill="#4E7793" points="279.4,518.3 258,511.6 258.1,513.7 279.6,520.4 	"/>
	<polygon fill="#4E7793" points="278.9,509.2 257.7,501.7 257.8,503.8 278.9,511.3 	"/>
	<polygon fill="#4E7793" points="278.7,500.1 257.9,491.7 257.8,493.8 278.7,502.2 	"/>
	<polygon fill="#4E7793" points="278.9,491 258.4,481.8 258.3,483.8 278.8,493.1 	"/>
	<polygon fill="#4E7793" points="279.5,481.9 259.3,471.8 259.1,473.9 279.3,484 	"/>
	<polygon fill="#4E7793" points="280.4,472.8 260.7,462 260.4,464 280.1,474.9 	"/>
	<polygon fill="#4E7793" points="281.7,463.8 262.5,452.1 262.1,454.2 281.3,465.8 	"/>
	<polygon fill="#4E7793" points="283.4,454.8 264.6,442.4 264.2,444.4 282.9,456.9 	"/>
	<polygon fill="#4E7793" points="285.4,446 267.2,432.8 266.7,434.8 284.9,448 	"/>
	<polygon fill="#4E7793" points="287.8,437.2 270.2,423.2 269.6,425.2 287.2,439.2 	"/>
	<polygon fill="#4E7793" points="290.6,428.5 273.5,413.8 272.8,415.8 289.9,430.5 	"/>
	<polygon fill="#4E7793" points="293.7,419.9 277.3,404.6 276.5,406.5 292.9,421.9 	"/>
	<polygon fill="#4E7793" points="297.2,411.5 281.4,395.5 280.5,397.4 296.3,413.4 	"/>
	<polygon fill="#4E7793" points="301,403.3 285.9,386.6 284.9,388.5 300,405.1 	"/>
	<polygon fill="#4E7793" points="305.1,395.1 290.7,377.9 289.7,379.7 304.1,397 	"/>
	<polygon fill="#4E7793" points="309.6,387.2 295.9,369.4 294.8,371.2 308.5,389 	"/>
	<polygon fill="#4E7793" points="314.4,379.5 301.5,361.1 300.3,362.8 313.2,381.2 	"/>
	<polygon fill="#4E7793" points="319.5,372 307.4,353.1 306.1,354.8 318.3,373.7 	"/>
	<polygon fill="#4E7793" points="325,364.6 313.6,345.2 312.3,346.9 323.7,366.3 	"/>
	<polygon fill="#4E7793" points="330.7,357.5 320.1,337.7 318.7,339.3 329.3,359.1 	"/>
	<polygon fill="#4E7793" points="336.7,350.7 326.9,330.4 325.5,332 335.2,352.2 	"/>
	<polygon fill="#4E7793" points="343,344.1 334,323.4 332.5,324.9 341.5,345.5 	"/>
	<polygon fill="#4E7793" points="349.5,337.7 341.4,316.8 339.8,318.2 347.9,339.2 	"/>
	<polygon fill="#4E7793" points="356.3,331.6 349.1,310.3 347.5,311.7 354.7,333 	"/>
	<polygon fill="#4E7793" points="363.3,325.9 357,304.3 355.3,305.6 361.7,327.2 	"/>
	<polygon fill="#4E7793" points="370.6,320.4 365.1,298.6 363.4,299.8 368.9,321.6 	"/>
	<polygon fill="#4E7793" points="378.1,315.2 373.5,293.2 371.7,294.3 376.3,316.3 	"/>
	<polygon fill="#4E7793" points="385.8,310.3 382.1,288.1 380.3,289.2 384,311.4 	"/>
	<polygon fill="#4E7793" points="393.7,305.7 390.9,283.4 389.1,284.4 391.8,306.7 	"/>
	<polygon fill="#4E7793" points="401.7,301.5 399.9,279.1 398,280 399.8,302.4 	"/>
	<polygon fill="#4E7793" points="410,297.6 409.1,275.1 407.1,276 408,298.4 	"/>
	<polygon fill="#4E7793" points="418.4,271.5 416.4,272.3 416.4,294.8 418.4,294 	"/>
	<polygon fill="#4E7793" points="427.8,268.4 425.8,269 424.9,291.5 426.9,290.8 	"/>
	<polygon fill="#4E7793" points="437.4,265.6 435.4,266.2 433.5,288.6 435.5,288 	"/>
	<polygon fill="#4E7793" points="447.1,263.2 445,263.7 442.2,286 444.3,285.5 	"/>
	<polygon fill="#4E7793" points="456.9,261.2 454.8,261.6 451.1,283.8 453.2,283.4 	"/>
	<polygon fill="#4E7793" points="466.7,259.6 464.7,259.9 460,281.9 462.1,281.6 	"/>
	<polygon fill="#4E7793" points="476.6,258.4 474.5,258.7 469,280.5 471.1,280.2 	"/>
	<polygon fill="#4E7793" points="486.6,257.6 484.5,257.8 478.1,279.4 480.2,279.2 	"/>
	<polygon fill="#4E7793" points="496.5,257.3 494.4,257.3 487.1,278.6 489.2,278.5 	"/>
	<polygon fill="#4E7793" points="498.3,278.2 506.7,257.4 504.6,257.3 496.2,278.2 	"/>
</g>
</svg>
