<?xml version="1.0" encoding="utf-8"?>
<!-- Generator: Adobe Illustrator 18.0.0, SVG Export Plug-In . SVG Version: 6.00 Build 0)  -->
<!DOCTYPE svg PUBLIC "-//W3C//DTD SVG 1.1//EN" "http://www.w3.org/Graphics/SVG/1.1/DTD/svg11.dtd">
<svg version="1.1" id="Calque_2" xmlns="http://www.w3.org/2000/svg" xmlns:xlink="http://www.w3.org/1999/xlink" x="0px" y="0px"
	 viewBox="0 0 1000 1000" enable-background="new 0 0 1000 1000" xml:space="preserve">
<path fill="#4E7793" d="M533.5,697.5h-65.4v-65.4h65.4V697.5z M473.3,692.3h55v-55h-55V692.3z"/>
<rect x="470.7" y="305.7" fill="#4E7793" width="60.2" height="60.2"/>
<path fill="#4E7793" d="M500.8,716.9c-119.4,0-216.6-97.1-216.6-216.6s97.1-216.6,216.6-216.6s216.6,97.1,216.6,216.6
	S620.2,716.9,500.8,716.9z M500.8,287.2c-117.5,0-213.1,95.6-213.1,213.1c0,117.5,95.6,213.1,213.1,213.1
	c117.5,0,213.1-95.6,213.1-213.1C713.9,382.8,618.3,287.2,500.8,287.2z"/>
<path fill="#4E7793" d="M500.8,394.5C442.4,394.5,395,442,395,500.3s47.4,105.8,105.8,105.8s105.8-47.4,105.8-105.8
	S559.1,394.5,500.8,394.5z M569.3,434.1h-12.7v-11c-0.6-0.4-1.1-0.8-1.7-1.2C560.2,425.5,565,429.6,569.3,434.1z M547,416.9v17.2
	h-6.2v-20.4c5,2.3,9.7,5,14.2,8.1v12.2h-6.2v-16.2C548.2,417.6,547.6,417.2,547,416.9z M465.8,528.5l12,22.2h-18
	c-6.3,0-11.5-5.1-11.5-11.5V532c0-6.3,5.1-11.5,11.5-11.5h82c6.3,0,11.5,5.1,11.5,11.5v7.2c0,6.3-5.1,11.5-11.5,11.5h-18l12-22.2
	H465.8z M515.5,515.4h-30.4v-76.1h30.4V515.4z M453.3,417.6c2.6-1.5,5.2-2.9,8-4.1c-0.6,0.3-1.2,0.5-1.7,0.8v19.8h-6.2V417.6z
	 M461.3,413.5c2.4-1.1,4.8-2.1,7.2-3c-0.3,0.1-0.7,0.2-1,0.4v23.2h-6.2V413.5z M469.2,410.3c2.6-0.9,5.3-1.7,8-2.4
	c-0.6,0.1-1.2,0.3-1.7,0.5v25.7h-6.2V410.3z M477.2,407.9c2-0.5,4.1-1,6.2-1.4v27.6h-6.2V407.9z M493.1,405.2
	c2.1-0.2,4.1-0.3,6.2-0.3v29.1h-6.2V405.2z M491.3,405.4v28.7h-6.2v-27.9c-0.6,0.1-1.2,0.2-1.7,0.3c3-0.6,6.1-1,9.3-1.2
	C492.2,405.3,491.8,405.4,491.3,405.4z M515.2,406v28.1H509v-28.8c4.8,0.4,9.6,1.2,14.2,2.3v26.5h-6.2v-27.8
	C516.3,406.2,515.8,406.1,515.2,406z M524.9,408c2.1,0.6,4.2,1.2,6.2,1.9v24.2h-6.2V408z M531.1,409.9c2.7,0.9,5.4,1.9,8,3.1v21.1
	h-6.2v-23.6C532.3,410.3,531.7,410.1,531.1,409.9z M509,405.3c-0.6,0-1.2-0.1-1.7-0.1C507.8,405.2,508.4,405.2,509,405.3z
	 M507.2,405.2v28.9H501v-29.2c-0.1,0-0.2,0-0.3,0C502.9,404.9,505.1,405,507.2,405.2z M453.3,417.6c-0.6,0.3-1.2,0.7-1.7,1v15.5
	h-6.2v-11.4c-0.6,0.4-1.2,0.8-1.7,1.3v10.1h-11.4C438.4,427.7,445.5,422.1,453.3,417.6z M500.8,595.7c-52.6,0-95.4-42.8-95.4-95.4
	c0-23.2,8.3-44.5,22.1-61h55.9v76.1h-23.6c-9.2,0-16.7,7.5-16.7,16.7v7.2c0,9.2,7.5,16.7,16.7,16.7h20.8l20.2,37.5l20.2-37.5h20.8
	c9.2,0,16.7-7.5,16.7-16.7V532c0-9.2-7.5-16.7-16.7-16.7h-24.5v-76.1H574c13.8,16.5,22.1,37.8,22.1,61
	C596.1,552.9,553.3,595.7,500.8,595.7z"/>
<g>
	<path fill="#4E7793" d="M515.9,406.1c0.2,0,0.3,0.1,0.5,0.1C516.2,406.2,516.1,406.2,515.9,406.1z"/>
	<path fill="#4E7793" d="M547.7,417.3c0.2,0.1,0.4,0.2,0.6,0.3C548.2,417.6,547.9,417.5,547.7,417.3z"/>
	<path fill="#4E7793" d="M444.4,423.5c0.2-0.2,0.5-0.4,0.7-0.5C444.8,423.1,444.6,423.3,444.4,423.5z"/>
	<path opacity="0.5" fill="#4E7793" d="M555,421.9c0.6,0.4,1.2,0.8,1.7,1.3v0C556.1,422.7,555.5,422.3,555,421.9z"/>
	<path opacity="0.5" fill="#4E7793" d="M548.7,417.9c-0.1-0.1-0.3-0.1-0.4-0.2C548.5,417.8,548.6,417.8,548.7,417.9L548.7,417.9z"/>
	<path opacity="0.5" fill="#4E7793" d="M451.6,418.6L451.6,418.6c0.6-0.3,1.1-0.7,1.7-1C452.7,418,452.1,418.3,451.6,418.6z"/>
	<path opacity="0.5" fill="#4E7793" d="M547,416.9L547,416.9c0.2,0.2,0.5,0.3,0.7,0.4C547.5,417.2,547.3,417.1,547,416.9z"/>
	<path opacity="0.5" fill="#4E7793" d="M515.2,406L515.2,406c0.2,0.1,0.5,0.1,0.7,0.1C515.7,406.1,515.4,406.1,515.2,406z"/>
	<path opacity="0.5" fill="#4E7793" d="M532.8,410.5c-0.6-0.2-1.2-0.4-1.7-0.6C531.7,410.1,532.3,410.3,532.8,410.5L532.8,410.5z"/>
	<path opacity="0.5" fill="#4E7793" d="M467.5,410.9L467.5,410.9c0.3-0.1,0.7-0.2,1-0.4C468.1,410.7,467.8,410.8,467.5,410.9z"/>
	<path opacity="0.5" fill="#4E7793" d="M475.4,408.4L475.4,408.4c0.6-0.1,1.2-0.3,1.7-0.5C476.6,408.1,476,408.2,475.4,408.4z"/>
	<path opacity="0.5" fill="#4E7793" d="M485.1,406.2c-0.6,0.1-1.2,0.2-1.7,0.3C484,406.4,484.5,406.3,485.1,406.2L485.1,406.2z"/>
	<path opacity="0.5" fill="#4E7793" d="M491.3,405.4L491.3,405.4c0.4,0,0.9-0.1,1.3-0.1C492.2,405.3,491.8,405.4,491.3,405.4z"/>
	<path opacity="0.5" fill="#4E7793" d="M516.9,406.3c-0.2,0-0.3-0.1-0.5-0.1C516.6,406.3,516.8,406.3,516.9,406.3L516.9,406.3z"/>
	<path opacity="0.5" fill="#4E7793" d="M443.6,424L443.6,424c0.3-0.2,0.5-0.4,0.8-0.6C444.1,423.7,443.9,423.8,443.6,424z"/>
	<path opacity="0.5" fill="#4E7793" d="M501,404.9c-0.1,0-0.2,0-0.3,0C500.9,404.9,500.9,404.9,501,404.9L501,404.9z"/>
	<path opacity="0.5" fill="#4E7793" d="M445.3,422.8c-0.1,0.1-0.2,0.1-0.3,0.2C445.2,422.9,445.3,422.8,445.3,422.8L445.3,422.8z"/>
	<path opacity="0.5" fill="#4E7793" d="M459.5,414.3L459.5,414.3c0.6-0.3,1.1-0.5,1.7-0.8C460.7,413.8,460.1,414.1,459.5,414.3z"/>
	<path fill="#4E7793" d="M499.9,697.5v15.9c0.3,0,0.6,0,0.9,0s0.6,0,0.9,0v-15.9H499.9z"/>
	<path fill="#4E7793" d="M499.9,606.1v26h1.7v-26c-0.3,0-0.6,0-0.9,0S500.2,606.1,499.9,606.1z"/>
	<rect x="499.9" y="637.3" fill="#4E7793" width="1.7" height="55"/>
	<path fill="#4E7793" d="M541.5,597.9l17,107.5c0.6-0.2,1.1-0.3,1.7-0.5l-17.1-107.7C542.6,597.4,542,597.7,541.5,597.9z"/>
	<path fill="#4E7793" d="M577.2,573.3l35.2,108.4c0.5-0.3,1-0.6,1.5-0.9l-35.4-108.9C578.1,572.3,577.7,572.8,577.2,573.3z"/>
	<path fill="#4E7793" d="M601,533.9l56.4,110.7c0.4-0.5,0.8-0.9,1.3-1.4l-56.9-111.6C601.6,532.4,601.3,533.2,601,533.9z"/>
	<path fill="#4E7793" d="M604.4,479.4l85.9,118.2c0.3-0.6,0.6-1.2,0.9-1.7l-87.7-120.7C603.8,476.5,604.2,478,604.4,479.4z"/>
	<path fill="#4E7793" d="M486.7,305.7l-8.8-17.3c-0.6,0.1-1.2,0.1-1.8,0.2l8.7,17.1H486.7z"/>
	<path fill="#4E7793" d="M480.4,305.7l-11.7-16.1c-0.6,0.1-1.3,0.2-1.9,0.3l11.5,15.8H480.4z"/>
	<path fill="#4E7793" d="M470.7,318.9l-39.4-20.1c-0.8,0.3-1.5,0.5-2.3,0.8l41.6,21.2V318.9z"/>
	<path fill="#4E7793" d="M470.7,305.7h1.9l-14.3-14.3c-0.7,0.1-1.3,0.3-2,0.4l14.4,14.4V305.7z"/>
	<path fill="#4E7793" d="M470.7,312.3L446,294.4c-0.7,0.2-1.4,0.4-2.1,0.6l26.8,19.5V312.3z"/>
	<path fill="#4E7793" d="M492.1,305.7l-5.9-18c-0.6,0-1.2,0.1-1.8,0.1l5.8,17.9H492.1z"/>
	<path fill="#4E7793" d="M511.3,305.7l5.8-17.9c-0.6,0-1.2-0.1-1.8-0.1l-5.9,18H511.3z"/>
	<path fill="#4E7793" d="M506.3,305.7l2.9-18.3c-0.6,0-1.2,0-1.7-0.1l-2.9,18.4H506.3z"/>
	<path fill="#4E7793" d="M470.7,324.5l-57.2-18.6c-0.8,0.3-1.5,0.7-2.3,1.1l59.5,19.3V324.5z"/>
	<path fill="#4E7793" d="M516.8,305.7l8.7-17.1c-0.6-0.1-1.2-0.1-1.8-0.2l-8.8,17.3H516.8z"/>
	<path fill="#4E7793" d="M497,305.7l-2.9-18.4c-0.6,0-1.2,0-1.7,0.1l2.9,18.3H497z"/>
	<path fill="#4E7793" d="M501.6,305.7v-18.5c-0.3,0-0.6,0-0.9,0s-0.6,0-0.9,0v18.5H501.6z"/>
	<path fill="#4E7793" d="M443.9,325.3c0.2,0.6,0.4,1.2,0.5,1.8l26.2,4.2v-1.8L443.9,325.3z"/>
	<polygon fill="#4E7793" points="556.6,344.9 556.6,343.2 530.9,339.1 530.9,340.9 	"/>
	<path fill="#4E7793" d="M556.6,354.3v-0.8c0,0,0,0,0,0v-1l-25.7-8.4v1.8L556.6,354.3z"/>
	<path fill="#4E7793" d="M556.9,377c-0.1-0.8-0.2-1.5-0.2-2.3L530.9,356v2.1L556.9,377z"/>
	<polygon fill="#4E7793" points="556.6,364.6 556.6,362.7 530.9,349.6 530.9,351.5 	"/>
	<rect x="530.9" y="334.3" fill="#4E7793" width="25.7" height="1.7"/>
	<path fill="#4E7793" d="M556.7,327.2c0.1-0.6,0.2-1.3,0.4-1.8l-26.2,4.2v1.8L556.7,327.2z"/>
	<path fill="#4E7793" d="M444.5,352.6v0.8c0,0,0,0,0,0v1l26.2-8.5v-1.8L444.5,352.6z"/>
	<polygon fill="#4E7793" points="444.5,343.2 444.5,345 470.7,340.9 470.7,339.1 	"/>
	<path fill="#4E7793" d="M523.3,305.7l11.5-15.8c-0.6-0.1-1.3-0.2-1.9-0.3l-11.7,16.1H523.3z"/>
	<rect x="444.5" y="334.3" fill="#4E7793" width="26.2" height="1.7"/>
	<path fill="#4E7793" d="M470.7,365.9v-1.9L291.9,542.8c0.1,0.7,0.3,1.3,0.4,2l178.9-178.9H470.7z"/>
	<polygon fill="#4E7793" points="444.5,362.9 444.5,364.9 470.7,351.5 470.7,349.6 	"/>
	<path fill="#4E7793" d="M444.4,375.1c0,0.8-0.1,1.6-0.3,2.3l26.5-19.2V356L444.4,375.1z"/>
	<path fill="#4E7793" d="M534.8,400.2l-17.4-34.2h-1.9l17,33.5C533.3,399.7,534.1,399.9,534.8,400.2z"/>
	<path fill="#4E7793" d="M469,399.4l17-33.5h-1.9l-17.4,34.2C467.5,399.9,468.2,399.7,469,399.4z"/>
	<path fill="#4E7793" d="M481.8,396.2l9.8-30.3h-1.8l-10,30.7C480.6,396.5,481.2,396.4,481.8,396.2z"/>
	<path fill="#4E7793" d="M479.5,365.9h-2.1L445,410.5c1.2-0.8,2.5-1.5,3.8-2.2L479.5,365.9z"/>
	<path fill="#4E7793" d="M492.2,394.9l4.6-28.9H495l-4.6,29.1C491,395,491.6,394.9,492.2,394.9z"/>
	<path fill="#4E7793" d="M511.1,395l-4.6-29.1h-1.8l4.6,28.9C509.9,394.9,510.5,395,511.1,395z"/>
	<path fill="#4E7793" d="M500.8,394.5c0.3,0,0.6,0,0.9,0v-28.6h-1.7v28.6C500.2,394.5,500.5,394.5,500.8,394.5z"/>
	<path fill="#4E7793" d="M521.6,396.6l-10-30.7h-1.8l9.8,30.3C520.3,396.4,521,396.5,521.6,396.6z"/>
	<path fill="#4E7793" d="M530.9,305.7v0.6l14.4-14.4c-0.7-0.1-1.3-0.3-2-0.4L529,305.7H530.9z"/>
	<path fill="#4E7793" d="M530.9,365.9h-0.6l178.9,178.9c0.1-0.7,0.3-1.3,0.4-2L530.9,364.1V365.9z"/>
	<path fill="#4E7793" d="M552.7,408.2c1.3,0.7,2.5,1.5,3.8,2.2l-32.3-44.5H522L552.7,408.2z"/>
	<path fill="#4E7793" d="M530.9,320.8l41.6-21.2c-0.7-0.3-1.5-0.5-2.3-0.8l-39.4,20.1V320.8z"/>
	<path fill="#4E7793" d="M530.9,314.4l26.8-19.5c-0.7-0.2-1.4-0.4-2.1-0.6l-24.7,17.9V314.4z"/>
	<path fill="#4E7793" d="M530.9,326.3l59.5-19.3c-0.8-0.4-1.5-0.7-2.3-1.1l-57.2,18.6V326.3z"/>
	<path fill="#4E7793" d="M581.9,395.2l131.8,95.7c0-0.7-0.1-1.5-0.1-2.2l-129.4-94C583.4,394.9,582.6,395.1,581.9,395.2z"/>
	<path fill="#4E7793" d="M596.8,385.1l108.5,55.3c-0.2-0.8-0.5-1.5-0.7-2.3l-106.9-54.5C597.4,384.1,597.1,384.6,596.8,385.1z"/>
	<path fill="#4E7793" d="M600,368.4l86.9,28.2c-0.4-0.7-0.8-1.5-1.2-2.2L600,366.5L600,368.4z"/>
	<path fill="#4E7793" d="M600,351.8l62.5,9.9c-0.6-0.7-1.2-1.4-1.8-2L600,350V351.8z"/>
	<path fill="#4E7793" d="M417.7,321.5c1.4,0,2.7,0.5,3.8,1.3v0c0-0.3,0-0.7,0.1-1l-29.6-4.7c-0.8,0.5-1.5,0.9-2.3,1.4l24.7,3.9
		C415.4,321.8,416.5,321.5,417.7,321.5z"/>
	<path fill="#4E7793" d="M402.3,334.3h-35.1c-0.7,0.6-1.4,1.1-2.1,1.7h36.3C401.7,335.5,402,334.9,402.3,334.3z"/>
	<path fill="#4E7793" d="M599.6,336.1h36.8c-0.7-0.6-1.4-1.2-2.1-1.7h-35.5C599.1,334.9,599.4,335.5,599.6,336.1z"/>
	<path fill="#4E7793" d="M401.1,350.1l-60.3,9.5c-0.6,0.7-1.2,1.4-1.8,2l62.1-9.8V350.1z"/>
	<path fill="#4E7793" d="M579.6,322.8L579.6,322.8c1.1-0.8,2.4-1.3,3.8-1.3c1.2,0,2.4,0.3,3.4,1l25.1-4c-0.8-0.5-1.5-0.9-2.3-1.4
		l-30,4.8C579.5,322.2,579.6,322.5,579.6,322.8z"/>
	<path fill="#4E7793" d="M401.1,366.7l-85.2,27.7c-0.4,0.7-0.8,1.5-1.2,2.2l86.4-28.1L401.1,366.7z"/>
	<path fill="#4E7793" d="M403.5,383.8L297,438.1c-0.2,0.8-0.5,1.5-0.7,2.3l108.1-55.1C404.1,384.8,403.8,384.3,403.5,383.8z"/>
	<path fill="#4E7793" d="M417.3,394.8L288,488.7c0,0.7-0.1,1.5-0.1,2.2l131.7-95.7C418.8,395.1,418,395,417.3,394.8z"/>
	<path fill="#4E7793" d="M398,475.1l-87.7,120.7c0.3,0.6,0.6,1.2,0.9,1.7l85.9-118.2C397.4,478,397.7,476.5,398,475.1z"/>
	<path fill="#4E7793" d="M399.7,531.6l-56.9,111.6c0.4,0.5,0.8,0.9,1.3,1.4l56.4-110.7C400.2,533.2,400,532.4,399.7,531.6z"/>
	<path fill="#4E7793" d="M423,571.9l-35.4,108.9c0.5,0.3,1,0.6,1.5,0.9l35.2-108.4C423.9,572.8,423.4,572.3,423,571.9z"/>
	<path fill="#4E7793" d="M458.4,597.2l-17.1,107.7c0.6,0.2,1.1,0.3,1.7,0.5l17-107.5C459.5,597.7,458.9,597.4,458.4,597.2z"/>
</g>
<path fill="#4E7793" d="M500.8,759.7c-143,0-259.4-116.4-259.4-259.4c0-143,116.4-259.4,259.4-259.4c143,0,259.4,116.4,259.4,259.4
	C760.2,643.3,643.8,759.7,500.8,759.7z M500.8,249.5C362.5,249.5,250,362,250,500.3c0,138.3,112.5,250.8,250.8,250.8
	c138.3,0,250.8-112.5,250.8-250.8C751.5,362,639,249.5,500.8,249.5z"/>
<path fill="#4E7793" d="M445.7,502c-12.8,0-23.1-10.4-23.1-23.1s10.4-23.1,23.1-23.1s23.1,10.4,23.1,23.1S458.5,502,445.7,502z
	 M445.7,459.2c-10.8,0-19.7,8.8-19.7,19.7c0,10.8,8.8,19.7,19.7,19.7s19.7-8.8,19.7-19.7C465.4,468.1,456.6,459.2,445.7,459.2z"/>
<path fill="#4E7793" d="M445.7,490c-6.1,0-11.1-5-11.1-11.1c0-6.1,5-11.1,11.1-11.1c6.1,0,11.1,5,11.1,11.1
	C456.8,485,451.8,490,445.7,490z M445.7,469.5c-5.2,0-9.4,4.2-9.4,9.4c0,5.2,4.2,9.4,9.4,9.4c5.2,0,9.4-4.2,9.4-9.4
	C455.1,473.7,450.9,469.5,445.7,469.5z"/>
<path fill="#4E7793" d="M555.8,490c-6.1,0-11.1-5-11.1-11.1c0-6.1,5-11.1,11.1-11.1c6.1,0,11.1,5,11.1,11.1
	C567,485,562,490,555.8,490z M555.8,469.5c-5.2,0-9.4,4.2-9.4,9.4c0,5.2,4.2,9.4,9.4,9.4c5.2,0,9.4-4.2,9.4-9.4
	C565.2,473.7,561,469.5,555.8,469.5z"/>
<path fill="#4E7793" d="M555.8,502c-12.8,0-23.1-10.4-23.1-23.1s10.4-23.1,23.1-23.1c12.8,0,23.1,10.4,23.1,23.1
	S568.6,502,555.8,502z M555.8,459.2c-10.8,0-19.7,8.8-19.7,19.7c0,10.8,8.8,19.7,19.7,19.7c10.8,0,19.7-8.8,19.7-19.7
	C575.5,468.1,566.7,459.2,555.8,459.2z"/>
<g>
	<g>
		<path fill="#4E7793" d="M578.3,395.5c5.8,0,11.2-2.3,15.3-6.4l0,0c4.1-4.1,6.4-9.5,6.4-15.3l0-10.2c0,0,0,0,0,0c0,0,0,0,0,0v-25.5
			c0-1.7-0.7-3.3-1.9-4.5c-1.2-1.2-2.8-1.9-4.5-1.9c-1.4,0-2.8,0.5-3.8,1.3l0-5.1c0-1.7-0.7-3.3-1.9-4.5c-1.2-1.2-2.8-1.9-4.5-1.9
			c-1.4,0-2.7,0.5-3.8,1.3v0c0-3.5-2.9-6.4-6.4-6.4c-3.5,0-6.4,2.9-6.4,6.4v0c-1.1-0.8-2.4-1.3-3.8-1.3c-3.5,0-6.4,2.9-6.4,6.4v25.5
			c0,0,0,0,0,0v20.4c0,5.8,2.3,11.2,6.4,15.3C567,393.3,572.5,395.5,578.3,395.5z M563,324.1c2.1,0,3.8,1.7,3.8,3.8l0,18.3
			c-0.3-0.3-0.5-0.6-0.8-0.9c-1.9-1.9-4.3-3-6.8-3.3v-14.1C559.1,325.8,560.9,324.1,563,324.1z M577,352.1l-7.7,0v-29.3
			c0-2.1,1.7-3.8,3.8-3.8c2.1,0,3.8,1.7,3.8,3.8V352.1z M587.2,352.1l-7.7,0l0-24.2c0-1,0.4-2,1.1-2.7c0.7-0.7,1.7-1.1,2.7-1.1
			c1,0,2,0.4,2.7,1.1c0.7,0.7,1.1,1.7,1.1,2.7V352.1z M597.4,356.4c-1.9-2.3-4.6-3.9-7.7-4.2v-14.1c0-2.1,1.7-3.8,3.8-3.8
			c1,0,2,0.4,2.7,1.1c0.7,0.7,1.1,1.7,1.1,2.7V356.4z M578.3,393c-5.1,0-9.9-2-13.5-5.6c-3.6-3.6-5.6-8.4-5.6-13.5v-29.3
			c1.9,0.3,3.7,1.1,5,2.5c1.7,1.7,2.6,3.9,2.6,6.3l0,0c0,0,0,0,0,0v10.2c0,0.7,0.6,1.3,1.3,1.3c2.4,0,4.6,0.9,6.3,2.6
			c1.7,1.7,2.6,3.9,2.6,6.3c0,0.7,0.6,1.3,1.3,1.3c0.7,0,1.3-0.6,1.3-1.3c0-3.1-1.2-6-3.4-8.1c-1.9-1.9-4.3-3-6.8-3.3v-3.9
			c0,0,0,0,0,0v-3.8l8.9,0c0,0,0,0,0,0c0,0,0,0,0,0l10.2,0c0,0,0,0,0,0c0,0,0,0,0,0c4.9,0,8.9,4,8.9,8.9c0,0,0,0,0,0v10.2
			c0,5.1-2,9.9-5.6,13.5C588.2,391,583.4,393,578.3,393z"/>
	</g>
</g>
<g>
	<g>
		<path fill="#4E7793" d="M438.1,389.2c4.1-4.1,6.4-9.5,6.4-15.3v-20.4c0,0,0,0,0,0v-25.5c0-3.5-2.9-6.4-6.4-6.4
			c-1.4,0-2.7,0.5-3.8,1.3v0c0-3.5-2.9-6.4-6.4-6.4c-3.5,0-6.4,2.9-6.4,6.4v0c-1.1-0.8-2.4-1.3-3.8-1.3c-1.7,0-3.3,0.7-4.5,1.9
			c-1.2,1.2-1.9,2.8-1.9,4.5l0,5.1c-1.1-0.8-2.4-1.3-3.8-1.3c-1.7,0-3.3,0.7-4.5,1.9s-1.9,2.8-1.9,4.5v25.5c0,0,0,0,0,0c0,0,0,0,0,0
			l0,10.2c0,5.8,2.3,11.2,6.4,15.3l0,0c4.1,4.1,9.5,6.4,15.3,6.4C428.6,395.5,434,393.3,438.1,389.2z M441.9,327.9V342
			c-2.6,0.3-5,1.4-6.8,3.3c-0.3,0.3-0.6,0.6-0.8,0.9l0-18.3c0-2.1,1.7-3.8,3.8-3.8C440.2,324.1,441.9,325.8,441.9,327.9z
			 M424.1,322.8c0-2.1,1.7-3.8,3.8-3.8c2.1,0,3.8,1.7,3.8,3.8v29.3l-7.7,0V322.8z M413.9,327.9c0-1,0.4-2,1.1-2.7
			c0.7-0.7,1.7-1.1,2.7-1.1s2,0.4,2.7,1.1c0.7,0.7,1.1,1.7,1.1,2.7l0,24.2l-7.7,0V327.9z M403.7,338.1c0-1,0.4-2,1.1-2.7
			c0.7-0.7,1.7-1.1,2.7-1.1c2.1,0,3.8,1.7,3.8,3.8v14.1c-3.1,0.3-5.8,1.9-7.7,4.2V338.1z M409.3,387.4c-3.6-3.6-5.6-8.4-5.6-13.5
			v-10.2c0,0,0,0,0,0c0-4.9,4-8.9,8.9-8.9c0,0,0,0,0,0c0,0,0,0,0,0l10.2,0c0,0,0,0,0,0s0,0,0,0l8.9,0v3.8c0,0,0,0,0,0v3.9
			c-2.6,0.3-5,1.4-6.8,3.3c-2.2,2.2-3.4,5.1-3.4,8.1c0,0.7,0.6,1.3,1.3,1.3c0.7,0,1.3-0.6,1.3-1.3c0-2.4,0.9-4.6,2.6-6.3
			c1.7-1.7,3.9-2.6,6.3-2.6c0.7,0,1.3-0.6,1.3-1.3v-10.2c0,0,0,0,0,0l0,0c0-2.4,0.9-4.6,2.6-6.3c1.4-1.4,3.1-2.3,5-2.5v29.3
			c0,5.1-2,9.9-5.6,13.5c-3.6,3.6-8.4,5.6-13.5,5.6S412.9,391,409.3,387.4z"/>
	</g>
</g>
</svg>
