<?xml version="1.0" encoding="utf-8"?>
<!-- Generator: Adobe Illustrator 18.0.0, SVG Export Plug-In . SVG Version: 6.00 Build 0)  -->
<!DOCTYPE svg PUBLIC "-//W3C//DTD SVG 1.1//EN" "http://www.w3.org/Graphics/SVG/1.1/DTD/svg11.dtd">
<svg version="1.1" id="Calque_1" xmlns="http://www.w3.org/2000/svg" xmlns:xlink="http://www.w3.org/1999/xlink" x="0px" y="0px"
	 viewBox="92.5 148.1 521 384.9" enable-background="new 92.5 148.1 521 384.9" xml:space="preserve">
<g>
	<path fill="#316368" d="M612.6,442.9c-0.2,0.4,0.3-1.1,0-0.8c-0.4-0.1-0.2-0.8-0.3-1.2c-0.3,0-0.2,0.4-0.5,0.4
		c-0.1-0.5-0.6-1-0.3-1.5c0.2-0.2,0.4,0.3,0.5,0.2c0.2-0.6,0.1-1.3-0.2-1.7c-0.1-0.2-0.5-0.3-0.4-0.6c0.1-0.3,0.7-0.1,0.9-0.3
		c-0.5-1.1-0.7-2.8-0.7-4.4c0-0.8,0.6-2-0.1-2.2c-0.1,1.2-0.7,2.4-0.4,3.6c-1.1,1.2-0.3,4.4-1.6,5.4c0.1-0.1,0.4-0.3,0.5,0
		c-0.2,0.3-0.5,0.7-0.8,0.8c-0.1-0.3-0.3-0.6-0.5-0.8c-0.2,0-0.2,0.3-0.3,0.2c-0.3-0.5,0.1-1.4-0.1-1.9c-0.5-0.1-0.4,0.5-0.6,0.8
		c-0.3-0.4,0.3-0.7,0.2-1.2c-0.3-0.4-0.4-1.1-0.8-1.4c0.3-0.7-0.5-1.1-0.6-1.8c0.3-0.2,0.8-0.2,1-0.4c-0.3-0.3-0.3-0.8-0.5-1.3
		s-0.5-0.8,0.1-1.2c0.1,0.2,0.2,0.4,0.5,0.4c0.3-0.6-0.6-0.9-0.3-1.6c-0.2-0.6-0.5-1-0.5-1.5s0.3-1,0.4-1.5c0.1-0.7-0.3-1-0.3-1.4
		c0-0.6,0.6-1.5,0-2.1c-0.4,0.8-0.5,1.7-0.8,2.6s-0.6,1.8-0.8,2.6c0.2-0.1,0.6-0.3,0.6-0.4v1.2c-1,0.2-0.6,0.8-0.9,1.2
		c-0.1,0.2-0.5,0.3-0.3,0.6c0.2,0,0.5-0.1,0.7,0c-0.8,1.1-0.3,3.4-1.2,4.5c-0.4-0.6-0.5-1.6-0.9-2.2c0.7,0,0.5-0.8,0.5-1.3
		c0.2-0.1,0.5,0,0.6,0.1c-0.3-0.5-0.7-0.8-1-1.3c0.3-1.5-1-1.9-1.2-2.9c0.1,0.1,0.4,0.1,0.6,0.1c0.4-0.7-0.5-1.8,0-2.5
		c0.3,0.1,0.3,0.4,0.6,0.5c-0.1-0.8-0.1-1.8-0.5-2.5c-0.1-0.2-0.3-0.3-0.3-0.5s0.1-0.4,0.1-0.6c0.1-0.8-0.3-1.3-0.4-2
		c0.2,0.2,0.2,0.7,0.7,0.6c-1-2-0.5-5.5-0.5-8c-0.7,2.6-1.2,5.7-1.8,8.5c-0.2,1-0.3,2-0.6,2.9c-0.1,0.3-0.6,0.6-0.6,1
		c0.2,0.1,0.3-0.2,0.6-0.1c0.4,0.9-1.2,1.2-0.6,2c0.2,0,0.1-0.3,0.4-0.3c0.1,0.7-0.5,1-0.7,1.5c-0.1,0.2,0,0.5,0,0.7
		c-0.3,1.5-1.7,2.4-2.5,3.5l-1.9-1.6c-0.2-0.2-0.4-0.4-0.4-0.6c0-0.4,0.6-0.7,0.6-1.1s-0.3-1-0.4-1.5c0-0.6,0.1-0.8,0.2-1.3
		c-0.6-1-1.3-2.2-1.5-3.6c0.3,0,0.5-0.3,0.4-0.6c-0.1-0.4-0.8-0.6-0.8-1c0.1-0.3,0.3,0,0.5-0.1c0-0.5-0.2-0.8-0.2-1.2
		c0.3-0.1,0.2,0.6,0.7,0.5c-0.3-0.5-0.5-1-0.8-1.5c0.6-0.7-0.8-2.1,0.3-2.6c-0.6-0.2-0.7-0.8-0.9-1.4c0.6,0,0.6,0.5,1.2,0.4
		c-1.4-1.4-0.2-4-0.6-6.1c0.2-0.4,0.4-1.4-0.1-1.7c-0.3,0.9-0.5,2-0.4,3.2c-0.6,0-0.7,0.5-0.8,1c0.3,0,0.4-0.1,0.6-0.1
		c-0.1,0.7-0.6,0.9-0.8,1.4c0.2,0.2,0.5,0.4,0.6,0.6c-0.1,0.1-0.4,0.2-0.5,0.4c-0.3,0.3-0.8,1-0.2,1.3c0.3,0,0.1-0.6,0.5-0.5
		c0.3,0.7-0.6,0.9-0.9,1.2c0,1.1,0.1,2.2-0.4,2.8c-0.2-0.4-0.2-1-0.6-1.3c0.2-0.4-0.3-0.7-0.4-1c-0.1-0.2,0-0.4,0-0.6
		c-0.1-0.8-0.9-1.1-0.9-2c0.1-0.2,0.2,0.2,0.2,0c0.1-0.3,0.1-0.8,0.4-0.9c0.1,0.7,0.1,1.5,0.8,1.6c-0.1-0.1-0.3-0.3-0.1-0.5
		c0.3,0,0.6,0.1,0.8-0.1c-1-2-2.3-4.4-1.7-7.5c0.2,0,0,0.3,0.3,0.3c0.4-0.2,0.7-0.7,1.2-0.8c-0.4-0.9-0.7-1.9-1-2.9
		c0.1-0.2,0.5-0.2,0.6-0.4c0-0.8-0.4-1.6,0.6-2v-0.4c0,0,0.2,0.1,0.3-0.1c-0.2-1-0.4-1.8-0.3-3.1c1.2,0.1,0.8-1.7,0.5-2.4
		c0.8-0.9,0.7-3,0.6-4.6c-0.3,1.3-0.6,2.9-1.3,3.6c0.1-0.1,0.3-0.2,0.5-0.1c-0.2,0.3-0.4,0.2-0.6,0.3c-0.6,0.4-0.4,1.5-1,2
		c0.1,0,0.3,0,0.2,0.1c-0.2,0.4-0.5,1.1,0.1,1.3c-0.8,0.3-0.9,1.2-1.3,2c-0.2,0.5-0.5,0.8-0.8,1.2c-0.1-0.1-0.5-0.1-0.5,0
		c0.1,0.4,0.5,0.9,0.5,0.8v0.8c0,0,0.4,0,0.5,0.2c0,0.3-0.5,0.2-0.6,0.4c0,0.2,0.2,0.2,0.2,0.4c-0.4,0.2-0.6,0.8-0.4,1.4
		c-0.2,0.1-0.4,0.2-0.5,0.4c-0.1,0.2,0,0.4-0.1,0.6c-0.2,0.6-1.1,1.3-0.4,1.8c0.2-0.1,0.3-0.4,0.6-0.5c0,0.5,0.3,0.6,0.2,1.2
		c-0.3,0.3-0.9,0.2-0.8,0.8c0.2,0,0.4-0.2,0.5-0.1c-0.8,1.2-2.2,1.7-2.6,3.3c0.4-0.4,1.3-0.2,1.8,0c-0.6,0.3-0.8,1-1.2,1.5
		c-0.9-0.3-1.5,0.3-1.9,0.8c-0.2-0.4-0.1-1.1-0.3-1.5c0.2-0.4,0.5-1.4,0-1.7c-0.4,1.2-0.4,2.8-1,3.8c-0.3-0.5,0-1.6-0.4-2
		c0,0.3,0,0.6-0.3,0.6c-0.3-0.3-0.1-1-0.3-1.5c1.2,0.2,1.5-0.7,0.8-1.2c0.8-0.5-0.1-1.5,0-2.4c0.6,0,0.5,0.6,1,0.7
		c0.2-0.7,0.2-1.6,0.4-2.3c-0.2-0.4-0.9-0.3-0.9-0.9c0-0.3,0.3,0,0.3-0.1c-0.1-0.2-0.1-0.7-0.3-0.8c-0.3,0.1-0.1,0.4-0.4,0.4
		c-0.8,0.1-0.4-1.1-0.7-1.7c-0.1-0.2-0.3-0.2-0.3-0.4c0-0.6-0.3-0.9-0.6-1.2c0.1-0.3-0.1-0.7,0.3-0.9c0,0.2-0.2,0.3,0,0.3
		c0.3-0.1,0.2-0.5,0.7-0.4c0.1,0.1-0.1,0.7,0.1,0.7c0.2-0.4,0.1-1.1,0.5-1.3c0.1,0.5-0.3,1.3,0.1,1.6c0.2,0,0.2-0.3,0.4-0.3
		c0.1,0.3,0.1,0.6,0.2,0.7c0-0.3,0.3-0.3,0.4-0.2c-0.2-0.5,0.2-0.8,0.1-1.3c-0.2,0-0.2-0.2-0.4-0.3c0.2-0.1,0.2-0.1,0.2-0.3
		c0.3-1.2-1.1-2.1-1.2-3c0.1,0,0.2,0.2,0.3,0.1c-0.2-0.9-1-1.3-1.2-2.2c0.2,0,0.5,0.3,0.6,0c-0.4-0.3-0.9-0.6-1-1.1
		c0.3,0,0.6,0.5,0.7,0.1c-0.1-0.2-0.4-0.1-0.5-0.2c0-0.2,0.3-0.1,0.3-0.2c-0.5-0.3-1.2-1.1-0.8-1.9c0,0.4,0.1,0.6,0.4,0.7
		c0.1-1.4-1.2-2.1-0.8-3.4c0.4,0.5,0.8,1.6,1.6,1.2c-0.1-0.3-0.4-0.8-0.3-1.2c1-0.2,1.4,1.2,2.5,1.1c-0.1-0.5-0.4-0.9-1-1
		c0-0.3-0.3-0.3-0.4-0.4c-0.5-1.1-1.6-1.7-2-2.8c0-0.2,0.3-0.1,0.3-0.3c-0.1-0.3-0.3-0.3-0.5-0.6c-0.4-0.8,0-2-0.5-2.7
		c0.3,0,0.3,0.4,0.5,0.3c0.2-0.5-0.4-0.6-0.3-1.1c0.7,0.1,0.2,1.3,0.8,1.4c0-0.2-0.1-0.5,0-0.6c0.5,0.7,0.9,1.5,1.2,2.4
		c0.2-0.1,0.4-0.3,0.4-0.3v0.3c-1,0.4-0.9-0.7-1.4-0.7c-0.3,0-0.4,0.4-0.4,0.7c0.5,0.2,1.4,0.3,1.9,0.2c0.1,0.1,0.1,0.2,0.1,0.3
		c0.2-0.1,0.1-0.3,0.4-0.3c0.2,0.3,0.3,0.7,0.8,0.7c-0.6-2-1.7-3.5-2.8-5c0.4-0.1-0.2-0.4,0-0.5c0.3,0.1,0.6,0.1,0.8,0.3
		c0-0.6-0.4-0.8-0.7-1.1c-0.1-0.2,0.2,0,0.2-0.1c0-0.3-0.3-0.3-0.4-0.6c0.3-0.1-0.3-0.7,0.1-0.8c0.3,0.8,1.3,0.9,2.1,1.2
		c-0.2-0.9-0.9-1.2-1.2-2c0.3-0.4,1-0.5,0.9-1c-0.1-0.4-0.5-0.3-0.8-0.6c0-0.5-0.5-0.6-0.7-1c0.2,0,0.6,0.2,0.7,0
		c-0.1-0.5-0.7-0.7-0.8-1.2c0.3,0,0.5,0,0.6-0.2c-0.1-0.6-0.6-0.7-0.8-1.3c0.2-0.1,0.6,0,0.7-0.3c0.3,0.4,0.7-0.3,1-0.3
		c-0.2,0-0.2-0.2-0.4-0.2c-0.1-1.2-1.7-1-1.6-2.1c0.7,0,1.5,0.3,2.2,0.1c0-0.6-0.9-0.4-0.8-1.2c-0.6-0.2-1.4-0.6-1.1-1.4
		c0.3,0.2,1,0.3,1.5,0.1c0-1.2-1-1.4-1.2-2.6c0.2-0.1,0.4-0.3,0.6-0.5c0-0.5-0.5-0.6-0.6-1.1c0.4,0,0.5,0.6,0.8,0.5
		c0.2-0.8-0.6-1.4-0.8-2.1c0-0.1,0.2,0,0.2-0.1c-0.5-0.7,0.2-1.9,0.4-2.8c0.2,0,0.6,0.1,0.8,0c-0.3-0.7-1.1-0.1-1.8-0.2
		c-0.3,0-0.3-0.3-0.5,0c0,0.5,0.6,0.3,0.7,0.7c0,0.1-0.1,0.6-0.2,0.9c-0.2,0.7-0.4,1.5-1.2,1.5c0,0.2,0,0.4-0.1,0.5
		s-0.4,0.1-0.5,0.2c0.1,0.2,0.3,0.4,0.6,0.4s0.5-0.3,0.6-0.1c0.2,0.3-0.4,0.1-0.3,0.4c-0.2,0-0.3,0-0.4,0c-0.1,0.2-0.2,0.5-0.3,0.7
		c0.1,0.1,0.4,0,0.6,0.1c-0.1,0.2-0.4,0.3-0.4,0.6c-0.3,0-0.5,0.1-0.6,0.4c0.2,0,0.3,0.1,0.4,0.2c0,0.4-0.1,0.6-0.2,0.8
		c0.3,0,0.7,0.3,1,0c-0.1,0.9-1.2,0.9-2,1.2c-0.1,0.3,0.3,0.1,0.3,0.3c-0.2,0.5-0.8,0.4-0.8,1.1c0.6-0.1,0.9,0.2,1.2,0.5
		c-0.3,0.1-0.7-0.3-1,0c0.3,0,0.4,0.2,0.4,0.5c0.1,0.2-0.2,0-0.2,0.1c0.2,0.4-0.3,0.5-0.2,1c-0.5-0.1-0.3,0.5-0.8,0.4
		c0.2,0.1,0.1,0.5,0.3,0.6c0.4,0,0.4-0.5,0.7-0.4c0,0.3-0.3,0.2-0.4,0.4c0.1,0.1,0.4,0.1,0.4,0.3c-0.4,0.4-1.7,0.2-1.4,1.2
		c0.7,0.2,0.9-0.8,1.5-0.7c-0.2,0.9-1.2,1.3-1.7,2c0.1,0.5,0.9,0,1,0.4c-0.5,0.4-1.2,0.6-1.9,0.8c0.1,0.1,0.4,0,0.3,0.3
		c-0.7,0.1-0.8,0.7-1.4,0.9c0,0.1,0.2,0.2,0.2,0.3c0.2,0,0.2-0.2,0.4-0.2c0,0.3,0.3,0.5,0.2,0.8c-0.5,0.2-0.9,0.6-1.4,0.9
		c0.5,0.5,0.8-0.4,1.2-0.3c-0.3,0.3-0.5,0.9-0.4,1.5c-0.7,0.9-2,1.4-2.6,2.3c0.8,0,1.4-0.4,1.8-0.7c-0.1,0.2,0.1,0.1,0.2,0.1
		c0.1,0.7-0.9,0.8-0.9,1.6c0.4,0.1,0.7,0.2,1,0.3c-0.1,0.8-1.4,0.5-1.3,1.5c0.2-0.1,0.4,0,0.5,0.1c-0.1,0.5-0.8,0.4-1.5,0.4
		c0,0.2,0,0.2-0.1,0.2c-1,0.2-1.3,1.1-1.9,1.6c0.4,0.2,0.9,0.3,1.3,0.5c0.2,0.7-0.6,1.4,0,1.9c0.2-0.1-0.1-0.3,0.1-0.3
		c0.1,0.1,0.2,0.1,0.3,0.2c-0.1,0.5-0.7,0.5-0.7,1.1c-0.1,0.1-0.3,0.2-0.4,0.3c-0.1,0.6-0.9,0.7-0.7,1.4c0.5,0.1,0.4-0.3,0.7-0.4
		c0.2,0.2,0.3-0.1,0.4,0c-0.3,0.5-0.5,1.1-1,1.3c0.1-0.8-0.6-0.7-1-0.9c-0.3-0.1-0.5-0.6-0.6-0.6c0.3,0,0.1,0,1.1,0c0-2,0-2,0-4
		c-1,2.1-0.6,0.1-0.7,0.1c-0.2,0.4,0.1-1.1-0.1-0.8c-0.4-0.1-0.2-0.8-0.4-1.2c-0.3,0.1-0.2,0.4-0.5,0.4c-0.1-0.5-0.6-1-0.3-1.5
		c0.3-0.2,0.4,0.3,0.5,0.2c0.2-0.6,0.1-1.3-0.2-1.7c-0.1-0.2-0.5-0.3-0.4-0.6c0.1-0.3,0.7-0.1,0.9-0.3c-0.5-1.1-0.7-2.8-0.7-4.4
		c0-0.8,0.6-2-0.1-2.2c-0.1,1.2-0.7,2.4-0.4,3.6c-1.1,1.2-0.4,4.1-1.5,5.3c-0.3-0.2-0.6-0.5-0.8-0.7c-0.1,0.3-0.3,0.6-0.4,0.9l0,0
		c-0.3-0.5,0.1-1.4-0.1-1.9c-0.5-0.1-0.4,0.5-0.6,0.8c-0.3-0.4,0.3-0.7,0.2-1.2c-0.3-0.4-0.4-1.1-0.8-1.4c0.3-0.7-0.5-1.1-0.6-1.8
		c0.3-0.2,0.8-0.2,1-0.4c-0.3-0.3-0.3-0.8-0.5-1.3s-0.5-0.8,0.1-1.2c0.1,0.2,0.2,0.4,0.5,0.4c0.3-0.6-0.6-0.9-0.3-1.6
		c-0.2-0.6-0.5-1-0.5-1.5s0.3-1,0.4-1.5c0.1-0.7-0.3-1-0.3-1.4c0-0.6,0.6-1.5,0-2.1c-0.4,0.8-0.5,1.7-0.8,2.6s-0.8,1.8-1,2.6
		c0.2-0.1,0.4-0.3,0.4-0.4v1.2c0,0.2-0.4,0.8-0.7,1.2c-0.1,0.2-0.4,0.3-0.2,0.6c0.2,0,0.5-0.1,0.8,0c-0.8,1.1-0.3,3.4-1.2,4.5
		c-0.4-0.6-0.5-1.5-0.9-2.2c0.7,0,0.5-0.8,0.5-1.3c0.2-0.1,0.5,0,0.6,0.1c-0.3-0.5-0.7-0.8-1-1.3c0.3-1.5-1-1.9-1.2-2.9
		c0.1,0.1,0.4,0.1,0.6,0.1c0.4-0.7-0.5-1.8,0-2.5c0.3,0.1,0.3,0.4,0.6,0.5c-0.1-0.8-0.1-1.8-0.5-2.5c-0.1-0.2-0.3-0.3-0.3-0.5
		s0.1-0.4,0.1-0.6c0.1-0.8-0.3-1.3-0.4-2c0.2,0.2,0.2,0.7,0.7,0.6c-1-2-0.5-5.5-0.5-8c-0.7,2.6-1.2,5.7-1.8,8.5
		c-0.2,1-0.3,2-0.6,2.9c-0.1,0.3-0.6,0.6-0.6,1c0.2,0.1,0.3-0.2,0.6-0.1c0.4,0.9-1.2,1.2-0.6,2c0.2,0,0.1-0.3,0.4-0.3
		c0.1,0.7-0.5,1-0.7,1.5c-0.1,0.2,0,0.5-0.1,0.7c-0.3,1.7-2.1,2.6-2.8,4.1c-0.1,0.2,0,0.4-0.3,0.6c-0.2-0.5,0.2-0.8,0.1-1.3
		c-0.1,0-0.2-0.1-0.3-0.1c0.1,0.3,0.1,0.4-0.1,0.6c-0.3,0-0.4-0.1-0.7-0.1c-0.1,0.1,0,0.6-0.1,0.7c-0.2-0.1-0.2-0.5-0.1-0.8
		c0-0.1,0.2,0,0.2-0.2c0-0.5,0.1-0.6,0.1-1c-0.1-0.6-0.6-0.9-0.7-1.2c0-0.4,0.6-0.7,0.6-1.1s-0.4-1-0.4-1.5c0-0.6,0.1-0.8,0.2-1.3
		c-0.6-1-1.3-2.2-1.5-3.6c0.3,0,0.5-0.3,0.4-0.6c-0.1-0.4-0.8-0.6-0.8-1c0.1-0.3,0.3,0,0.5-0.1c0-0.5-0.2-0.8-0.2-1.2
		c0.3-0.1,0.2,0.6,0.7,0.5c-0.3-0.5-0.5-1-0.8-1.5c0.6-0.7-0.8-2.1,0.3-2.6c-0.6-0.2-0.7-0.8-0.9-1.4c0.6,0,0.6,0.5,1.2,0.4
		c-1.4-1.4-0.2-4-0.6-6.1c0.2-0.4,0.4-1.4,0-1.7c-0.3,0.9-0.5,2-0.4,3.2c-0.6,0-0.7,0.5-0.8,1c0.3,0,0.4-0.1,0.6-0.1
		c0,0.7-0.6,0.9-0.8,1.4c0.2,0.2,0.5,0.4,0.6,0.6c-0.1,0.1-0.4,0.2-0.5,0.4c-0.3,0.3-0.8,1-0.2,1.3c0.3,0,0.1-0.6,0.5-0.5
		c0.3,0.7-0.6,0.9-0.9,1.2c0,1.1,0.1,2.2-0.4,2.8c-0.2-0.4-0.2-1-0.6-1.3c0.2-0.4-0.3-0.7-0.4-1c-0.1-0.2,0-0.4,0-0.6
		c-0.1-0.8-0.9-1.1-0.9-2c0.1-0.2,0.2,0.2,0.2,0c0.1-0.3,0.1-0.8,0.4-0.9c0.1,0.7,0.1,1.5,0.8,1.6c-0.1-0.1-0.2-0.3-0.1-0.5
		c0.3,0,0.6,0.1,0.8-0.1c-1-2-2.3-4.4-1.7-7.5c0.2,0,0,0.3,0.3,0.3c0.4-0.2,0.7-0.7,1.2-0.8c-0.4-0.9-0.7-1.9-1-2.9
		c0.1-0.2,0.3-0.2,0.4-0.4c0-0.8,0.4-1.6,0.4-2v-0.4c0,0,0.4,0.1,0.5-0.1c-0.2-1-0.3-1.8-0.2-3c1.2,0.1,0.9-1.7,0.6-2.4
		c0.8-0.9,0.7-3,0.6-4.6c-0.3,1.3-0.5,2.9-1.3,3.6c0.1-0.1,0.3-0.2,0.5-0.1c-0.2,0.3-0.4,0.2-0.6,0.3c-0.6,0.4-0.4,1.5-1,2
		c0.1,0,0.3,0,0.2,0.1c-0.2,0.4-0.5,1.1,0.1,1.3c-0.8,0.3-0.9,1.2-1.3,2c-0.2,0.5-0.5,0.8-0.8,1.2c-0.1-0.1-0.7-0.1-0.7,0
		c0.1,0.4,0.3,0.9,0.3,0.8v0.8c0,0,0.6,0,0.7,0.2c0,0.3-0.4,0.2-0.5,0.4c0,0.2,0.2,0.2,0.2,0.4c-0.4,0.2-0.6,0.8-0.4,1.4
		c-0.2,0.1-0.4,0.2-0.5,0.4c-0.1,0.2,0,0.4,0,0.6c-0.2,0.6-1.1,1.3-0.4,1.8c0.2-0.1,0.3-0.4,0.6-0.5c0,0.5,0.3,0.6,0.2,1.2
		c-0.3,0.3-0.9,0.2-0.8,0.8c0.2,0,0.5-0.2,0.5-0.1c-0.8,1.2-2.2,1.7-2.6,3.3c0.4-0.4,1.3-0.2,1.8,0c-0.6,0.3-0.8,1-1.2,1.5
		c-0.9-0.3-1.5,0.3-1.9,0.8c-0.2-0.4-0.1-1.1-0.3-1.5c0.2-0.4,0.5-1.4,0-1.7c-0.4,1.2-0.4,2.8-1,3.8c0,0,0-0.1-0.1-0.1
		c-0.2,1.8-0.5,3.7-0.7,5.4h0.1c0.1,0.5-0.3,0.9-0.1,1.3c-0.1,0-0.1,0-0.2,0c-0.2,1.2-0.3,2.2-0.4,2.9c0.1,0.2,0.1,0.5,0.2,0.7
		c0,0.2-0.2-0.1-0.3,0.1c0-0.1,0.1-0.4,0.1-0.8c0-0.1-0.1-0.1-0.1-0.1c-0.3,0.1-0.1,0.4-0.4,0.4c-0.8,0.1-0.4-1.1-0.7-1.7
		c-0.1-0.2-0.3-0.2-0.3-0.4c0-0.6-0.3-0.9-0.6-1.2c0.1-0.3-0.1-0.7,0.3-0.9c0,0.2-0.2,0.3,0,0.3c0.3-0.1,0.2-0.5,0.7-0.4
		c0.1,0.1-0.1,0.7,0.1,0.7c0.2-0.4,0.1-1.1,0.5-1.3c0.1,0.5-0.3,1.3,0.1,1.6c0.2,0,0.2-0.3,0.4-0.3c0.1,0.3,0.1,0.6,0.2,0.7
		c0-0.2,0.1-0.2,0.2-0.3c0.1-0.4,0.1-0.9,0.2-1.3c-0.1-0.1-0.2-0.2-0.3-0.3c0.2-0.1,0.2-0.1,0.2-0.3c0.3-1.2-1.1-2.1-1.2-3.1
		c0.1,0,0.2,0.2,0.3,0.1c-0.2-0.9-1-1.3-1.2-2.2c0.2,0,0.5,0.3,0.6,0c-0.4-0.3-0.9-0.6-1-1.1c0.3,0,0.6,0.5,0.7,0.1
		c-0.1-0.2-0.4-0.1-0.5-0.2c0-0.2,0.3-0.1,0.3-0.2c-0.5-0.3-1.2-1.1-0.8-1.9c0,0.4,0.1,0.6,0.4,0.7c0.1-1.4-1.2-2.1-0.8-3.4
		c0.4,0.5,0.8,1.6,1.6,1.2c-0.1-0.3-0.4-0.8-0.3-1.2c0.2,0,0.3,0,0.5,0c-0.3-0.7-0.9-1.3-0.6-1.9c-0.3-0.4-0.6-0.7-0.8-1.2
		c0-0.2,0.3-0.1,0.3-0.3c-0.1-0.3-0.3-0.3-0.5-0.6c-0.4-0.8,0-2-0.5-2.7c0.3,0,0.3,0.4,0.5,0.3c0.2-0.5-0.4-0.6-0.3-1.1
		c0.7,0.1,0.2,1.3,0.8,1.4c0-0.2-0.1-0.5,0-0.6c0.5,0.7,1.1,1.5,1.4,2.4c0.2-0.1-0.5-0.3,0.5-0.3v0.3c-1,0.4-1.1-0.7-1.5-0.7
		c-0.3,0-0.5,0.4-0.5,0.7c0.5,0.2,1.3,0.3,1.8,0.2c0.1,0.1,0.1,0.2,0.1,0.3c0.2-0.1,0.1-0.3,0.4-0.3c0.2,0.3,0.3,0.7,0.8,0.7
		c-0.6-2-1.7-3.5-2.8-5c0.4-0.1-0.2-0.4,0-0.5c0.3,0.1,0.6,0.1,0.8,0.3c0-0.6-0.4-0.8-0.7-1.1c-0.1-0.2,0.2,0,0.2-0.1
		c0-0.3-0.3-0.3-0.4-0.6c0.3-0.1-0.3-0.7,0.1-0.8c0.3,0.8,1.3,0.9,2.1,1.2c-0.2-0.9-0.9-1.2-1.2-2c0.3-0.4,1-0.5,0.9-1
		c-0.1-0.4-0.5-0.3-0.8-0.6c0-0.5-0.5-0.6-0.7-1c0.2,0,0.6,0.2,0.7,0c-0.1-0.5-0.7-0.7-0.8-1.2c0.3,0,0.5,0,0.6-0.2
		c-0.1-0.6-0.6-0.7-0.8-1.3c0.2-0.1,0.7,0,0.7-0.3c0.3,0.4,0.7-0.3,1-0.3c-0.2,0-0.2-0.2-0.4-0.2c-0.1-1.2-1.7-1-1.6-2.1
		c0.7,0,1.5,0.3,2.2,0.1c0-0.6-0.9-0.4-0.8-1.2c-0.6-0.2-1.4-0.6-1.1-1.4c0.3,0.2,1,0.3,1.5,0.1c0-1.2-1-1.4-1.2-2.6
		c0.2-0.1,0.4-0.3,0.6-0.5c0-0.5-0.5-0.6-0.6-1.1c0.4,0,0.5,0.6,0.8,0.5c0.2-0.8-0.6-1.4-0.8-2.1c0-0.1,0.2,0,0.2-0.1
		c-0.5-0.7,0.2-1.9,0.4-2.8c0.2,0,0.6,0.1,0.8,0c-0.3-0.7-1.1-0.1-1.8-0.2c-0.3,0-0.3-0.3-0.5,0c0,0.5,0.6,0.3,0.7,0.7
		c0,0.1-0.1,0.6-0.2,0.9c-0.2,0.7-0.4,1.5-1.2,1.5c0,0.2,0,0.4-0.1,0.5s-0.4,0.1-0.5,0.2c0.1,0.2,0.3,0.4,0.6,0.4s0.5-0.3,0.6-0.1
		c0.2,0.3-0.4,0.1-0.3,0.4c-0.2,0-0.3,0-0.4,0c-0.1,0.2-0.2,0.5-0.3,0.7c0.1,0.1,0.4,0,0.6,0.1c-0.1,0.2-0.4,0.3-0.4,0.6
		c-0.3,0-0.5,0.2-0.6,0.4c0.2,0,0.3,0.1,0.4,0.2c0,0.4-0.1,0.6-0.2,0.8c0.3,0,0.7,0.3,1,0c-0.1,0.9-1.2,0.9-2,1.2
		c-0.1,0.3,0.3,0.1,0.3,0.3c-0.2,0.5-0.8,0.4-0.8,1.1c0.6-0.1,0.9,0.2,1.2,0.5c-0.3,0.1-0.7-0.3-1,0c0.3,0,0.4,0.2,0.4,0.5
		c0.1,0.2-0.2,0-0.2,0.1c0.2,0.4-0.3,0.5-0.2,1c-0.5-0.1-0.3,0.5-0.8,0.4c0.2,0.1,0.1,0.5,0.3,0.6c0.4,0,0.4-0.5,0.7-0.4
		c0,0.3-0.3,0.2-0.4,0.4c0.1,0.1,0.4,0.1,0.4,0.3c-0.4,0.4-1.7,0.2-1.4,1.2c0.7,0.2,0.9-0.8,1.5-0.7c-0.2,0.9-1.2,1.3-1.7,2
		c0.1,0.5,0.9,0,1,0.4c-0.5,0.4-1.2,0.6-1.9,0.8c0.1,0.1,0.4,0,0.3,0.3c-0.7,0.1-0.9,0.7-1.4,0.9c0,0.1,0.1,0.2,0.2,0.3
		c0.2,0,0.2-0.2,0.4-0.2c0,0.3,0.3,0.5,0.2,0.8c-0.5,0.2-0.9,0.6-1.4,0.9c0.5,0.5,0.8-0.4,1.2-0.3c-0.3,0.3-0.5,0.9-0.4,1.5
		c-0.7,0.9-2,1.4-2.6,2.3c0.8,0,1.4-0.4,1.8-0.7c-0.1,0.2,0.2,0.1,0.2,0.1c0.1,0.7-0.9,0.8-0.9,1.6c0.4,0.1,0.7,0.2,1,0.3
		c-0.1,0.8-1.3,0.5-1.3,1.5c0.2-0.1,0.4,0,0.5,0.1c-0.1,0.5-0.8,0.4-1.5,0.4c0,0.2,0,0.2-0.1,0.2c-0.8,0.1-1.1,0.7-1.6,1.2
		c0,0.2,0,0.3,0,0.5c0.3,0.1,0.6,0.2,1,0.4c0.2,0.7-0.6,1.4,0,1.9c0.2-0.1-0.1-0.3,0.1-0.3c0.1,0.1,0.2,0.1,0.3,0.2
		c-0.1,0.5-0.7,0.5-0.7,1.1c-0.1,0.1-0.3,0.2-0.4,0.3c0,0.3-0.3,0.5-0.5,0.7c0,0.3,0,0.5,0,0.7c0.2-0.1,0.2-0.3,0.5-0.4
		c0.2,0.2,0.3-0.1,0.4,0c-0.3,0.5-0.5,1.1-1,1.3c0-0.1,0-0.4,0.1-1c-0.1,0-0.1,0-0.2,0c-0.1-0.3,0.1-0.5,0.3-0.7
		c0.1-1.1,0.1-2.5,0.2-4.2c-0.1,0-0.2-0.1-0.4-0.1c0.1-0.1,0.3-0.2,0.4-0.4c0.3-5.8,0.6-13.6,0.4-13.7c-0.3-0.1-0.6-0.4-0.6-0.8
		c0,0,0.1-0.1,0.1-0.2c-0.1-0.2,0.1-0.3,0-0.6c-0.1-0.5-0.7-0.8-0.9-1.5c0.7-0.2-0.1-0.8-0.2-1c-0.1-0.1,0-0.3,0-0.4
		c-0.2-0.3-0.6-0.5-0.6-0.7c0.1-0.1,0.2-0.2,0.2-0.4c-0.2-0.3-0.6-0.7-0.5-1.2c-0.5-0.5-1.1-1-1.7-1.5c-0.1,0.3-0.3,0.6-0.4,0.9l0,0
		c0,0.1,0,0.1-0.1,0.2c-0.7-1-1.3-2.1-1.7-3.1c0.4-0.6,1.7-0.3,2.2-0.9c-0.6-0.7-1.2-1.5-1.9-2.1c2-1.9-1.9-5.2-0.6-6.9
		c-1.1-0.4-1.3-1.7-1.9-2.7c-0.1,2-1.4,4.2-0.4,6c-0.3,0.6-0.7,1.2-1,1.8c0.3-0.1,0.6-0.2,0.9-0.3c0.2,0.1,0,0.1,0,0.3
		c0,0.1,0.3,0,0.5,0.1c-0.2,0.2-0.4,0.4-0.6,0.5c-0.3,0-0.4-0.3-0.7-0.2c0.2,0.7-1,0.8-1.1,1.6c1,0.2,0.8,1.6,2,1.6
		c-0.3,1.1-0.7,2.1-1.2,3c0.2,0.5,0.8,0.6,0.9,1.1c0,0.2-0.2,0.7-0.4,1.1c-0.3,0.9-0.7,2.2-1.3,2.6c-0.5-0.3-0.1-1.5-0.5-1.9
		c-0.1,0.4-0.1,0.9-0.5,1c-1.2-1.7-1.7-4.1-3.4-5.3c-0.5-2.7-1-5.5-2-7.7c-0.7,2.1,0.8,4.4,0.1,6.4c-0.1-0.7-0.2-1.5-0.5-1.9
		c-0.6,0.2-0.5,1.6-1,1.6s-0.9-2.3-1-2.9c-0.3-1.4-0.4-2.3-0.8-3c-0.4,1.1,0.2,3.4-0.7,4c-0.7-0.6-0.7-1.8-1-2.9
		c-0.2,0.5-0.2,1.2-0.5,1.6c-0.4-1.5-0.4-3.5-0.8-5c-0.2,1-0.5,1.9-0.8,2.7c-0.6-0.2,0.1-1.3-0.3-1.8c-0.2-0.1-0.3,0-0.5,0
		c-0.2,0.1-0.1,0.6-0.3,0.7c-0.1-0.6-0.5-0.9-0.9-1.2c0.1-0.3,0.5-0.3,0.5-0.6c-0.1-0.6-0.6-1.6-0.1-2.2c-0.5-0.9-1.8-2.6-0.5-3.5
		c-1.1-0.3-0.8-1.7-1.1-3.2c-0.1-0.8-0.2-2.3-0.4-3.2c-0.4,0.5-0.4,1.2-0.3,1.9c0,0.3,0.3,0.5,0.3,0.8c0.3,2.1-1.2,4.8,0.2,6.4
		c-0.3,0.4-0.9,0.5-1,1.1c-0.1,0.3,0,0.7-0.1,1l-1.6-4c0-0.5-0.2-0.9-0.5-1.2l-2.7-6.7c0.1,0,0.2,0.1,0.3,0.1
		c-0.2-0.5-0.5-0.9-0.8-1.3l-2.4-5.9c0.3-0.2,0.4-0.5,0.7-0.7c0.3-0.1,0.3,0.2,0.5,0.2c0.2-0.4,0.3-0.7,0.3-1c0-0.9-0.9-1-1.5-1.8
		c-0.1-0.1-0.2-0.5-0.3-0.7c-0.4-0.7-1.3-1-1.3-1.6c0.1-0.6,0.8-0.5,1.2-0.9c0-0.5-0.6-1.1-0.1-1.5c0.1,0.4,0.2,0.8,0.8,0.7
		c-0.2-2.1-2.1-3.2-2.2-5.5c0.6,0.2,0.8,1.1,1.7,0.9c-0.2-0.6-0.8-1.3-0.9-2.1c-0.9-0.7,0.3-1.6,0-2.6c0.6-0.1,0.5,0.4,0.9,0.5
		c0-0.7-0.7-1.4-0.9-2.1c0.7-0.8-0.6-2.6,0.7-2.9c-0.3-0.5-1-0.6-1.2-1.3c-0.2-0.8,0.2-1.6-0.1-2.4c0.9,0.2,1.4,1.6,2.8,1.2
		c-0.6-1.6-3.1-2.2-2.3-4.6c0.3,0.1,0.3,0.6,0.6,0.7c1.5-0.7,0.3-2.7,0.2-4.1c0-0.6,0-1.1,0-1.6c0.4-0.6,0.2-1.4,0.2-2.3
		c-0.6,0.3-0.7,1-0.7,1.9c-0.1,1-0.7,1.5-0.8,2.6c-0.4,0.7-1.5,0.9-1.3,1.9c0.5,0.1,0.5-0.3,1-0.2c0.5,1.1-0.3,1.7-1,2.1
		c0.1,0.2,0.5,0.1,0.5,0.3c0,0.2-0.1,0.2-0.1,0.4c-0.7,0.3-1.6,0.3-1.9,1.1c0.3,0.6,0.7,1.2,1.5,1.3c-1.6,1.1-0.7,4.7-2.2,5.8
		c0.2,0.6,0.8-0.1,1.2,0.1c-0.1,1.1-0.8,2.1-1.2,3c-0.5,0.1-0.5-0.3-0.9-0.2l-10-7.2l-15.9-24.8l-6.3-14l-9.5-9l-8.4-18.7l-8-8.4
		l-26.8-51.9l-26.7,10.5l-26,25.9L321,205.2l-10.5,20.3L288.2,245l-33.6,51.8l-14.6,2.6l-6.3,6.2l-0.2-1c-0.5-0.3-0.7-0.9-1-1.3
		c0.1-0.1,0.3,0.2,0.4,0c0.3,0,0.2,0.5,0.7,0.4c0.1-0.6-0.6-0.8-0.7-1.4c-0.1-0.1-0.3-0.2-0.4-0.3c0-0.6-0.6-0.6-0.7-1.1
		c0.1-0.1,0.2-0.1,0.3-0.2c0.2,0-0.1,0.3,0.1,0.3c0.5-0.5-0.3-1.3,0-1.9c0.4-0.2,0.9-0.3,1.3-0.5c-0.7-0.5-0.9-1.4-1.9-1.6
		c-0.1-0.1-0.1-0.1-0.1-0.2c-0.6,0-1.3,0.1-1.5-0.4c0.1-0.1,0.3-0.2,0.5-0.1c0.1-1-1.1-0.7-1.3-1.5c0.3-0.1,0.6-0.3,1-0.3
		c0-0.8-1-0.9-0.9-1.6c0.1,0,0.3,0.1,0.2-0.1c0.4,0.3,1,0.6,1.8,0.7c-0.6-0.8-1.9-1.4-2.6-2.3c0.1-0.5-0.1-1.1-0.4-1.5
		c0.4-0.1,0.7,0.8,1.2,0.3c-0.5-0.2-0.9-0.6-1.4-0.9c-0.1-0.3,0.1-0.5,0.2-0.8c0.2,0,0.2,0.2,0.4,0.2c0-0.1,0.1-0.2,0.2-0.3
		c-0.6-0.2-0.7-0.8-1.4-0.9c-0.1-0.3,0.2-0.1,0.3-0.3c-0.7-0.2-1.4-0.4-1.9-0.8c0.1-0.4,0.9,0.1,1-0.4c-0.5-0.7-1.6-1.1-1.7-2
		c0.6-0.1,0.8,0.9,1.5,0.7c0.3-1-0.9-0.8-1.4-1.2c0-0.3,0.3-0.2,0.4-0.3c-0.1-0.2-0.4-0.1-0.4-0.4c0.3-0.1,0.3,0.4,0.7,0.4
		c0.2-0.1,0.1-0.5,0.3-0.6c-0.4,0-0.2-0.6-0.8-0.4c0-0.4-0.4-0.5-0.2-1c0-0.1-0.3,0-0.2-0.1c-0.1-0.4,0.1-0.5,0.4-0.5
		c-0.2-0.4-0.7,0.1-1,0c0.3-0.3,0.6-0.6,1.2-0.5c0-0.7-0.6-0.7-0.8-1.1c0-0.2,0.4,0,0.3-0.3c-0.8-0.3-1.9-0.2-2-1.2
		c0.3,0.2,0.7,0,1,0c-0.1-0.3-0.2-0.5-0.2-0.8c0.1-0.1,0.2-0.2,0.4-0.2c-0.1-0.2-0.2-0.4-0.6-0.4c-0.1-0.3-0.3-0.4-0.4-0.6
		c0.1-0.1,0.5,0,0.6-0.1c-0.1-0.2-0.2-0.4-0.3-0.7c-0.1,0-0.3-0.1-0.4,0c0.1-0.3-0.6-0.2-0.3-0.4c0.1-0.2,0.3,0.1,0.6,0.1
		s0.5-0.1,0.6-0.4c-0.2-0.1-0.4-0.1-0.5-0.2s-0.1-0.3-0.1-0.5c-0.7,0-0.9-0.7-1.2-1.5c-0.1-0.4-0.3-0.8-0.2-0.9
		c0.1-0.5,0.7-0.3,0.7-0.7c-0.2-0.2-0.3,0-0.5,0c-0.7,0.1-1.5-0.5-1.8,0.2c0.2,0.1,0.5,0,0.8,0c0.2,0.8,0.9,2,0.4,2.8
		c0,0.1,0.2,0,0.2,0.1c-0.2,0.7-1,1.3-0.8,2.1c0.3,0.1,0.4-0.5,0.8-0.5c-0.1,0.5-0.5,0.6-0.6,1.1c0.2,0.2,0.3,0.4,0.6,0.5
		c-0.1,1.1-1.2,1.3-1.2,2.6c0.4,0.2,1.2,0.1,1.5-0.1c0.3,0.7-0.5,1.2-1.1,1.4c0.1,0.8-0.8,0.5-0.8,1.2c0.8,0.2,1.5-0.1,2.2-0.1
		c0.1,1.2-1.6,1-1.6,2.1c-0.2,0-0.1,0.3-0.4,0.2c0.3,0.1,0.7,0.8,1,0.3c0,0.3,0.4,0.2,0.7,0.3c-0.1,0.5-0.6,0.7-0.8,1.3
		c0,0.2,0.3,0.2,0.6,0.2c-0.1,0.6-0.6,0.7-0.8,1.2c0.1,0.2,0.5,0,0.7,0c-0.1,0.4-0.6,0.5-0.7,1c-0.3,0.2-0.8,0.2-0.8,0.6
		c-0.1,0.5,0.7,0.6,0.9,1c-0.3,0.8-1,1.1-1.2,2c0.8-0.3,1.7-0.5,2.1-1.2c0.4,0.1-0.2,0.7,0.1,0.8c-0.1,0.3-0.4,0.3-0.4,0.6
		c0,0.1,0.3,0,0.2,0.1c-0.3,0.3-0.7,0.5-0.7,1.1c0.2-0.2,0.5-0.2,0.8-0.3c0.2,0.2-0.4,0.5,0,0.5c-1,1.6-2.2,3-2.8,5
		c0.5,0,0.6-0.5,0.8-0.7c0.3,0,0.2,0.2,0.4,0.3c0-0.1,0-0.3,0.1-0.3c0.5,0.1,1.3,0,1.9-0.2c-0.1-0.4-0.2-0.7-0.4-0.7
		c-0.5-0.1-0.4,1.1-1.4,0.7v-0.3c0,0,0.2,0.3,0.3,0.3c0.3-0.9,0.7-1.7,1.2-2.4c0.1,0.1,0,0.4,0.1,0.6c0.6-0.1,0.1-1.3,0.8-1.4
		c0.1,0.5-0.5,0.6-0.3,1.1c0.2,0.1,0.2-0.3,0.5-0.3c-0.5,0.6-0.2,1.9-0.5,2.7c-0.1,0.3-0.4,0.4-0.5,0.6c0,0.2,0.3,0.1,0.3,0.3
		c-0.2,0.4-0.5,0.8-0.8,1.2c0.3,0.6-0.3,1.2-0.6,1.9c0.1,0,0.3-0.1,0.5,0c0,0.4-0.2,0.8-0.3,1.2c0.8,0.4,1.2-0.8,1.6-1.2
		c0.5,1.3-0.8,2-0.8,3.4c0.3-0.1,0.4-0.4,0.4-0.7c0.5,0.8-0.2,1.6-0.8,1.9c0,0.1,0.3,0,0.3,0.2c-0.1,0.1-0.4,0.1-0.5,0.2
		c0.1,0.4,0.4-0.1,0.7-0.1c-0.1,0.4-0.6,0.8-1,1.1c0.1,0.2,0.4-0.1,0.6,0c-0.2,0.9-1,1.2-1.2,2.2c0.1,0.1,0.2-0.1,0.3-0.1
		c-0.1,1-1.5,1.9-1.2,3c0,0.1,0,0.2,0.2,0.3c-0.1,0.1-0.2,0.2-0.3,0.3c0.1,0.5,0.1,0.9,0.2,1.3c0.1,0,0.2,0.1,0.2,0.3
		c0.2-0.1,0.2-0.4,0.2-0.7c0.2,0,0.2,0.3,0.4,0.3c0.4-0.3,0-1.1,0.1-1.6c0.4,0.2,0.2,1,0.5,1.3c0.2-0.1,0-0.6,0.1-0.7
		c0.4-0.1,0.4,0.3,0.7,0.4c0.2-0.1,0-0.2,0-0.3c0.4,0.2,0.1,0.6,0.3,0.9c-0.3,0.3-0.6,0.6-0.6,1.2c-0.1,0.2-0.2,0.2-0.3,0.4
		c-0.3,0.6,0,1.8-0.7,1.7c-0.3,0-0.2-0.2-0.4-0.4l-0.1,0.1c0.1,0.4,0.1,0.7,0.1,0.8c-0.1-0.2-0.3,0-0.3-0.1c0.1-0.2,0.1-0.5,0.2-0.7
		c-0.1-0.7-0.2-1.7-0.4-2.9c-0.1,0-0.2,0-0.2,0c0.2-0.5-0.2-0.8-0.1-1.3c0.1,0,0.1,0,0.1,0c-0.2-1.7-0.5-3.6-0.7-5.4v0.1
		c-0.7-0.9-0.6-2.6-1-3.8c-0.5,0.3-0.2,1.3,0,1.7c-0.3,0.3-0.1,1.1-0.3,1.5c-0.4-0.5-1-1.1-1.9-0.8c-0.4-0.5-0.6-1.1-1.2-1.5
		c0.5-0.1,1.4-0.4,1.8,0c-0.4-1.5-1.8-2.1-2.6-3.3c0.1-0.1,0.3,0.1,0.5,0.1c0-0.6-0.6-0.5-0.8-0.8c-0.1-0.5,0.2-0.7,0.2-1.2
		c0.3,0.1,0.4,0.4,0.6,0.5c0.7-0.5-0.2-1.2-0.4-1.8c-0.1-0.2,0-0.4,0-0.6c-0.1-0.2-0.4-0.3-0.5-0.4c0.2-0.6-0.1-1.1-0.4-1.4
		c0-0.2,0.2-0.2,0.2-0.4c-0.1-0.2-0.8-0.1-0.8-0.4c0-0.2,0.4-0.2,0.4-0.2v-0.8c1,0.1,0.6-0.4,0.6-0.8c0-0.2-0.4-0.1-0.5,0
		c-0.2-0.4-0.5-0.7-0.7-1.2c-0.3-0.8-0.5-1.6-1.2-2c0.6-0.2,0.3-0.9,0.1-1.3c0-0.2,0.1-0.2,0.2-0.1c-0.6-0.5-0.4-1.5-1-2
		c-0.2-0.2-0.4-0.1-0.6-0.3c0.2-0.1,0.4,0,0.5,0.1c-0.8-0.7-1-2.3-1.3-3.6c-0.1,1.6-0.3,3.7,0.6,4.6c-0.3,0.7-0.7,2.5,0.6,2.4
		c0.1,1.2,0.2,2,0,3.1c0,0.2-0.4,0.1,0.6,0.1v0.4c0,0.4,0.2,1.2,0.2,2c0,0.2,0.2,0.2,0.3,0.4c-0.3,1-0.6,2-1,2.9
		c0.4,0,0.7,0.6,1.1,0.8c0.2,0,0.1-0.3,0.3-0.3c0.6,3.1-0.7,5.5-1.7,7.5c0.1,0.2,0.5,0.1,0.8,0.1c0.1,0.2-0.1,0.4-0.1,0.5
		c0.7-0.1,0.7-0.9,0.8-1.6c0.3,0.1,0.3,0.6,0.4,0.9c0,0.2,0.2-0.1,0.2,0c0.1,0.9-0.7,1.2-0.9,2c0,0.2,0.1,0.4,0,0.6
		c-0.1,0.3-0.5,0.6-0.4,1c-0.4,0.3-0.4,0.9-0.6,1.3c-0.5-0.6-0.4-1.7-0.4-2.8c-0.3-0.3-1.2-0.6-0.9-1.2c0.4-0.1,0.2,0.5,0.5,0.5
		c0.5-0.3,0-0.9-0.2-1.3c-0.2-0.2-0.4-0.3-0.5-0.4c0.1-0.3,0.4-0.4,0.6-0.6c-0.2-0.5-0.8-0.7-0.8-1.4c0.2,0,0.3,0.2,0.6,0.1
		c0-0.5-0.2-1-0.8-1c0.1-1.2-0.1-2.3-0.4-3.2c-0.5,0.3-0.3,1.3,0,1.7c-0.4,2.1,0.8,4.8-0.6,6.1c0.6,0.1,0.6-0.4,1.2-0.4
		c-0.2,0.5-0.4,1.2-0.9,1.4c1.2,0.4-0.2,1.9,0.3,2.6c-0.3,0.4-0.5,1-0.8,1.5c0.5,0.1,0.4-0.5,0.7-0.5c0,0.5-0.2,0.7-0.2,1.2
		c0.2,0.1,0.3-0.2,0.5,0.1c0,0.4-0.7,0.6-0.8,1c0,0.3,0.1,0.6,0.4,0.6c-0.1,1.4-0.8,2.6-1.5,3.6c0.1,0.5,0.2,0.7,0.2,1.3
		c0,0.6-0.4,1.2-0.4,1.5c0,0.4,0.6,0.7,0.6,1.1c0,0.3-0.6,0.6-0.7,1.2c0,0.4,0.1,0.5,0.1,1c-0.1,0.2,0.2,0.1,0.2,0.2
		c0,0.3,0,0.6-0.1,0.8c-0.1-0.1,0-0.6-0.1-0.7c-0.3,0-0.4,0.1-0.7,0.1c-0.2-0.1-0.1-0.3-0.1-0.6c-0.1,0-0.2,0.1-0.3,0.1
		c-0.1,0.5,0.3,0.8,0.1,1.3c-0.3-0.2-0.2-0.4-0.3-0.6c-0.7-1.5-2.5-2.3-2.8-4.1c0-0.2,0-0.5,0-0.7c-0.1-0.4-0.8-0.8-0.7-1.5
		c0.2,0,0.2,0.3,0.4,0.3c0.5-0.8-1-1.2-0.6-2c0.3-0.1,0.4,0.3,0.6,0.1c0-0.4-0.5-0.7-0.6-1c-0.3-0.8-0.4-1.9-0.6-2.9
		c-0.6-2.8-1.1-5.8-1.8-8.5c0,2.5,0.5,6-0.5,8c0.6,0.1,0.5-0.4,0.7-0.6c-0.1,0.7-0.5,1.2-0.4,2c0,0.2,0.1,0.4,0.1,0.6
		s-0.2,0.3-0.3,0.5c-0.3,0.7-0.3,1.7-0.5,2.5c0.2-0.1,0.3-0.5,0.6-0.5c0.5,0.8-0.4,1.8,0,2.5c0.2,0,0.5,0,0.6-0.1
		c-0.1,1-1.5,1.4-1.2,2.9c-0.3,0.5-0.7,0.8-1,1.3c0.2-0.1,0.4-0.2,0.6-0.1c0,0.5-0.2,1.4,0.5,1.3c-0.4,0.6-0.5,1.5-0.9,2.2
		c-0.9-1-0.4-3.4-1.2-4.5c0.2-0.1,0.5,0,0.7,0c0.2-0.3-0.3-0.4-0.4-0.6c-0.3-0.4,0-1-1-1.2v-1.2c1,0.1,0.5,0.3,0.7,0.4
		c-0.2-0.8-0.4-1.7-0.7-2.6s-0.4-1.8-0.8-2.6c-0.6,0.6,0,1.5,0,2.1c0,0.4-0.4,0.7-0.3,1.4c0.1,0.5,0.4,1,0.4,1.5
		c0,0.6-0.3,1-0.5,1.5c0.3,0.8-0.6,1.1-0.3,1.6c0.3,0,0.4-0.2,0.5-0.4c0.6,0.3,0.3,0.6,0.1,1.2c-0.2,0.5-0.2,1-0.5,1.3
		c0.2,0.2,0.7,0.2,1,0.4c0,0.7-0.9,1.1-0.6,1.8c-0.4,0.3-0.5,1-0.8,1.4c-0.1,0.5,0.6,0.8,0.2,1.2c-0.2-0.2-0.1-0.8-0.6-0.8
		c-0.2,0.5,0.2,1.5-0.1,1.9c-0.2,0.1-0.1-0.2-0.3-0.2c-0.3,0.2-0.4,0.5-0.5,0.8c-0.3,0-0.6-0.5-0.8-0.8c0.1-0.2,0.4,0,0.5,0
		c-0.8-0.7-0.8-2.2-0.9-3.5c0.1,0,0.1,0,0.2,0.1c-0.1-0.2-0.2-0.4-0.2-0.6l0,0c-0.1-0.6-0.3-1.1-0.6-1.4c0.3-1.3-0.4-2.4-0.4-3.6
		c-0.7,0.3-0.1,1.4-0.1,2.2c0,0.1,0,0.3,0,0.5c0,0,0-0.1-0.1-0.1l0,0l0,0c0-0.1,0-0.1-0.1-0.2l0,0c-0.2-0.3-0.3-0.6-0.4-0.9
		c-0.6,0.5-1.2,1-1.7,1.5c0.1,0.4-0.3,0.9-0.5,1.2c0,0.2,0.1,0.3,0.2,0.4c0,0.3-0.4,0.4-0.6,0.7c-0.1,0.1,0,0.3,0,0.4
		c-0.1,0.2-0.9,0.8-0.2,1c-0.2,0.6-0.8,1-0.9,1.5c-0.1,0.3,0.1,0.4,0,0.6c0,0.1,0.1,0.2,0.1,0.2c-0.1,0.3-0.3,0.6-0.6,0.8
		c-0.2,0.1,0,5.1,0.2,10.1l-2,2.1c-0.4,0-0.8-0.1-0.9-0.4c0.1-0.1,0.3-0.2,0.5-0.1c0.1-1-1.1-0.7-1.3-1.5c0.3-0.1,0.6-0.3,1-0.3
		c0-0.8-1-0.9-0.9-1.6c0.1,0,0.3,0.1,0.2-0.1c0.4,0.3,1,0.6,1.8,0.7c-0.6-0.8-1.9-1.4-2.6-2.3c0.1-0.5-0.1-1.1-0.4-1.5
		c0.4-0.1,0.7,0.8,1.2,0.3c-0.5-0.2-0.9-0.6-1.4-0.9c-0.1-0.3,0.1-0.5,0.2-0.8c0.2,0,0.2,0.2,0.4,0.2c0-0.1,0.1-0.2,0.2-0.3
		c-0.6-0.2-0.7-0.8-1.4-0.9c-0.1-0.3,0.2-0.2,0.3-0.3c-0.7-0.2-1.4-0.4-1.9-0.8c0.1-0.4,0.9,0.1,1-0.4c-0.5-0.7-1.6-1.1-1.7-2
		c0.6-0.1,0.8,0.9,1.5,0.7c0.3-1-0.9-0.8-1.4-1.2c0-0.3,0.3-0.2,0.4-0.3c-0.1-0.2-0.4-0.1-0.4-0.4c0.3-0.1,0.3,0.4,0.7,0.4
		c0.2-0.1,0.1-0.5,0.3-0.6c-0.4,0-0.3-0.6-0.8-0.4c0-0.4-0.4-0.5-0.2-1c0-0.1-0.3,0-0.2-0.1c-0.1-0.4,0.1-0.5,0.4-0.5
		c-0.2-0.4-0.7,0.1-1,0c0.3-0.3,0.6-0.6,1.2-0.5c0-0.7-0.6-0.7-0.8-1.1c0-0.2,0.4,0,0.3-0.3c-0.8-0.3-1.9-0.2-2-1.2
		c0.3,0.2,0.7,0,1,0c-0.1-0.3-0.2-0.5-0.2-0.8c0.1-0.1,0.2-0.2,0.4-0.2c-0.1-0.2-0.2-0.4-0.6-0.4c-0.1-0.3-0.3-0.4-0.4-0.6
		c0.1-0.1,0.5,0,0.6-0.1c-0.2-0.2-0.2-0.4-0.3-0.7c-0.1,0-0.3-0.1-0.4,0c0.1-0.3-0.6-0.2-0.3-0.4c0.1-0.2,0.3,0.1,0.6,0.1
		s0.5-0.1,0.6-0.4c-0.2-0.1-0.4-0.1-0.5-0.2s-0.1-0.3-0.1-0.5c-0.7,0-0.9-0.7-1.2-1.5c-0.1-0.4-0.3-0.8-0.2-0.9
		c0.1-0.5,0.7-0.3,0.7-0.7c-0.2-0.2-0.3,0-0.5,0c-0.7,0.1-1.5-0.5-1.8,0.2c0.2,0.1,0.5,0,0.8,0c0.2,0.8,0.9,2,0.4,2.8
		c0,0.1,0.2,0,0.2,0.1c-0.2,0.7-1,1.3-0.8,2.1c0.3,0.1,0.4-0.5,0.8-0.5c-0.1,0.5-0.5,0.6-0.6,1.1c0.2,0.2,0.3,0.4,0.6,0.5
		c-0.1,1.1-1.2,1.3-1.2,2.6c0.4,0.2,1.2,0.1,1.5-0.1c0.3,0.7-0.5,1.2-1.1,1.4c0.1,0.8-0.8,0.5-0.8,1.2c0.8,0.2,1.5-0.1,2.2-0.1
		c0.1,1.2-1.6,1-1.6,2.1c-0.2,0.1-0.2,0.3-0.4,0.2c0.3,0.1,0.6,0.8,1,0.3c0,0.3,0.4,0.2,0.7,0.3c-0.2,0.5-0.6,0.7-0.8,1.3
		c0,0.2,0.3,0.2,0.6,0.2c-0.1,0.6-0.6,0.7-0.8,1.2c0.1,0.2,0.5,0,0.7,0c-0.1,0.4-0.6,0.5-0.7,1c-0.3,0.2-0.8,0.2-0.8,0.6
		c-0.1,0.5,0.7,0.6,0.9,1c-0.3,0.8-1,1.1-1.2,2c0.8-0.3,1.7-0.5,2.1-1.2c0.4,0.1-0.2,0.7,0.1,0.8c-0.1,0.3-0.4,0.3-0.4,0.6
		c0,0.1,0.3,0,0.2,0.1c-0.3,0.3-0.7,0.5-0.7,1.1c0.2-0.2,0.5-0.2,0.8-0.3c0.2,0.2-0.4,0.5,0,0.5c-1,1.6-2.2,3-2.8,5
		c0.5,0,0.6-0.5,0.8-0.7c0.3,0,0.2,0.2,0.4,0.3c0-0.1,0-0.3,0.1-0.3c0.5,0.1,1.3,0,1.9-0.2c-0.1-0.4-0.2-0.7-0.4-0.7
		c-0.4-0.1-0.3,1.1-1.3,0.7V345c0,0,0.2,0.3,0.3,0.3c0.3-0.9,0.7-1.7,1.2-2.4c0.1,0.1,0,0.4,0,0.6c0.6-0.1,0.1-1.3,0.8-1.4
		c0.1,0.5-0.5,0.6-0.3,1.1c0.2,0.1,0.2-0.3,0.5-0.3c-0.5,0.6-0.2,1.9-0.5,2.7c-0.1,0.3-0.4,0.4-0.5,0.6c0,0.2,0.3,0.1,0.3,0.3
		c-0.2,0.4-0.5,0.8-0.8,1.2c0.3,0.6-0.3,1.2-0.6,1.9c0.1,0,0.3-0.1,0.5,0c0,0.4-0.2,0.8-0.3,1.2c0.8,0.4,1.2-0.8,1.6-1.2
		c0.5,1.3-0.8,2-0.8,3.4c0.3-0.1,0.4-0.4,0.4-0.7c0.5,0.8-0.2,1.6-0.8,1.9c0,0.1,0.3,0,0.3,0.2c-0.1,0.1-0.4,0.1-0.5,0.2
		c0.1,0.3,0.2,0.1,0.4,0l-2.7,2.9c-0.1-0.6-0.2-1.2-0.2-1.7c0,0,0,0.1-0.1,0.1c-0.7-0.9-0.6-2.6-1-3.8c-0.5,0.3-0.2,1.3,0,1.7
		c-0.3,0.3-0.1,1.1-0.3,1.5c-0.4-0.5-1-1.1-1.9-0.8c-0.4-0.5-0.6-1.1-1.2-1.5c0.5-0.1,1.4-0.4,1.8,0c-0.4-1.5-1.8-2.1-2.6-3.3
		c0.1-0.1,0.3,0.1,0.5,0.1c0-0.6-0.6-0.5-0.8-0.8c-0.1-0.5,0.2-0.7,0.2-1.2c0.3,0.1,0.4,0.4,0.6,0.5c0.7-0.5-0.2-1.2-0.4-1.8
		c-0.1-0.2,0-0.4,0-0.6c-0.1-0.2-0.4-0.3-0.5-0.4c0.2-0.6-0.1-1.1-0.4-1.4c0-0.2,0.2-0.2,0.2-0.4c-0.1-0.2-0.8-0.1-0.8-0.4
		c0.1-0.2,0.4-0.2,0.4-0.2V342c1,0.1,0.6-0.4,0.6-0.8c0-0.2-0.4-0.1-0.5,0c-0.2-0.4-0.5-0.7-0.7-1.2c-0.3-0.8-0.5-1.6-1.2-2
		c0.6-0.2,0.3-0.9,0.1-1.3c0-0.2,0.1-0.2,0.2-0.1c-0.6-0.5-0.4-1.5-1-2c-0.2-0.2-0.4-0.1-0.6-0.3c0.2-0.1,0.3,0,0.5,0.1
		c-0.8-0.7-1-2.3-1.3-3.6c-0.1,1.6-0.3,3.7,0.6,4.6c-0.3,0.7-0.7,2.5,0.6,2.4c0.1,1.2,0.2,2,0,3c0,0.2-0.3,0.1,0.7,0.1v0.4
		c0,0.4,0.2,1.2,0.2,2c0,0.2,0.2,0.2,0.3,0.4c-0.3,1-0.7,2-1,2.9c0.4,0,0.7,0.6,1.1,0.8c0.2,0,0.1-0.3,0.3-0.3
		c0.6,3.1-0.7,5.5-1.7,7.5c0.1,0.2,0.5,0.1,0.8,0.1c0.1,0.2-0.1,0.4-0.1,0.5c0.7-0.1,0.7-0.9,0.8-1.6c0.3,0.1,0.3,0.6,0.4,0.9
		c0,0.2,0.2-0.1,0.2,0c0.1,0.9-0.7,1.2-0.9,2c0,0.2,0.1,0.4,0,0.6c-0.1,0.3-0.5,0.6-0.4,1c-0.4,0.3-0.4,0.9-0.6,1.3
		c-0.5-0.6-0.4-1.7-0.4-2.8c-0.3-0.3-1.2-0.6-0.9-1.2c0.4-0.1,0.2,0.5,0.5,0.5c0.5-0.3,0-0.9-0.2-1.3c-0.2-0.2-0.4-0.3-0.5-0.4
		c0.1-0.3,0.4-0.4,0.6-0.6c-0.2-0.5-0.8-0.7-0.8-1.4c0.2,0,0.3,0.2,0.6,0.1c-0.1-0.5-0.2-1-0.8-1c0.1-1.2-0.1-2.3-0.4-3.2
		c-0.5,0.3-0.3,1.3,0,1.7c-0.4,2.1,0.8,4.8-0.6,6.1c0.6,0.1,0.6-0.4,1.2-0.4c-0.2,0.5-0.4,1.2-0.9,1.4c1.2,0.4-0.2,1.9,0.3,2.6
		c-0.3,0.4-0.5,1-0.8,1.5c0.5,0.1,0.4-0.5,0.7-0.5c0,0.5-0.2,0.7-0.2,1.2c0.2,0.1,0.3-0.2,0.5,0.1c0,0.4-0.7,0.6-0.8,1
		c0,0.3,0.1,0.6,0.4,0.6c-0.1,1.4-0.8,2.6-1.5,3.6c0.1,0.5,0.2,0.7,0.2,1.3c0,0.6-0.4,1.2-0.4,1.5c0,0.4,0.6,0.7,0.6,1l-2.2,2.4
		c-0.8-1.2-2.3-2.1-2.6-3.7c0-0.2,0-0.5,0-0.7c-0.1-0.4-0.8-0.8-0.7-1.5c0.2,0,0.1,0.3,0.4,0.3c0.5-0.8-1.1-1.2-0.6-2
		c0.3-0.1,0.4,0.3,0.6,0.1c0-0.4-0.5-0.7-0.6-1c-0.3-0.8-0.4-1.9-0.6-2.9c-0.6-2.8-1.1-5.8-1.8-8.5c0,2.5,0.5,6-0.5,8
		c0.6,0.1,0.5-0.4,0.7-0.6c-0.1,0.7-0.5,1.2-0.4,2c0,0.2,0.1,0.4,0.1,0.6s-0.2,0.3-0.3,0.5c-0.4,0.7-0.3,1.7-0.5,2.5
		c0.2-0.1,0.3-0.5,0.6-0.5c0.5,0.8-0.4,1.8,0,2.5c0.2,0,0.5,0,0.6-0.1c-0.1,1-1.5,1.4-1.2,2.9c-0.3,0.5-0.7,0.8-1,1.3
		c0.2-0.1,0.4-0.2,0.6-0.1c0,0.5-0.2,1.4,0.5,1.3c-0.4,0.6-0.5,1.5-0.9,2.2c-0.9-1-0.4-3.4-1.2-4.5c0.2-0.1,0.5,0,0.7,0
		c0.2-0.3-0.3-0.4-0.4-0.6c-0.3-0.4,0-1-1-1.2v-1.2c0,0.1,0.4,0.3,0.7,0.4c-0.2-0.8-0.4-1.7-0.7-2.6s-0.4-1.8-0.8-2.6
		c-0.6,0.6,0,1.5,0,2.1c0,0.4-0.4,0.7-0.3,1.4c0.1,0.5,0.4,1,0.4,1.5c0,0.6-0.3,1-0.5,1.5c0.3,0.8-0.6,1.1-0.3,1.6
		c0.3,0,0.4-0.1,0.5-0.4c0.6,0.3,0.3,0.6,0.1,1.2c-0.2,0.5-0.2,1-0.5,1.3c0.2,0.2,0.7,0.2,1,0.4c0,0.7-0.9,1.1-0.6,1.8
		c-0.4,0.3-0.5,1-0.8,1.4c-0.1,0.5,0.6,0.8,0.2,1.2c-0.2-0.2-0.1-0.8-0.6-0.8c-0.2,0.5,0.2,1.5-0.1,1.9c-0.2,0.1-0.1-0.2-0.3-0.2
		c-0.3,0.2-0.4,0.5-0.5,0.8c-0.3,0-0.6-0.5-0.8-0.8c0.1-0.2,0.4,0,0.5,0c-1.3-1-0.5-4.2-1.6-5.4c0-0.2,0.1-0.5,0.1-0.7
		c0.1,0,0.2,0,0.2,0c-0.1-0.1-0.1-0.1-0.2-0.2l0,0c0-0.3-0.1-0.7-0.2-1c0-0.1,0.1-0.1,0.1-0.2s-0.1-0.4-0.1-0.5
		c0-0.4,0.3-0.9,0.7-0.9h0.1c-0.3,0-0.6-0.6-0.9-1.1c-0.4-0.6,0.5-1.3,1-0.9c-0.1-0.2-0.2-0.3-0.2-0.5c-0.4-0.8-0.8-1.6-1.2-2.5l0,0
		l0,0c0-0.1,0-0.1-0.1-0.2l0,0c-0.1-0.3-0.3-0.6-0.4-0.9c-0.6,0.5-1.2,1-1.7,1.5c0.1,0.4-0.3,0.9-0.5,1.2c0,0.2,0.1,0.3,0.2,0.4
		c0,0.3-0.4,0.4-0.6,0.7c-0.1,0.1,0,0.3,0,0.4c-0.1,0.2-0.9,0.8-0.2,1c-0.2,0.6-0.8,1-0.9,1.5c-0.1,0.3,0.1,0.4,0,0.6
		c0,0.1,0.1,0.2,0.1,0.2c-0.1,0.3-0.3,0.6-0.6,0.8c-0.4,0.2-1.1,0.1-1,0.9c-0.5-0.3-0.7-0.9-1-1.3c0.1-0.1,0.3,0.2,0.4,0
		c0.3,0,0.2,0.5,0.7,0.4c0.1-0.6-0.6-0.8-0.7-1.4c-0.1-0.1-0.3-0.2-0.4-0.3c0-0.6-0.6-0.6-0.7-1.1c0.1-0.1,0.2-0.1,0.3-0.2
		c0.2,0,0,0.3,0.1,0.3c0.5-0.5-0.3-1.3,0-1.9c0.4-0.2,0.9-0.3,1.3-0.5c-0.7-0.5-0.9-1.4-1.9-1.6c-0.1-0.1-0.1-0.1-0.1-0.2
		c-0.6,0-1.3,0.1-1.5-0.4c0.1-0.1,0.3-0.2,0.5-0.1c0.1-1-1.1-0.7-1.3-1.5c0.3-0.1,0.6-0.3,1-0.3c0-0.8-1-0.9-0.9-1.6
		c0.1,0,0.3,0.1,0.2-0.1c0.4,0.3,1,0.6,1.8,0.7c-0.6-0.8-1.9-1.4-2.6-2.3c0.1-0.5-0.1-1.1-0.4-1.5c0.4-0.1,0.7,0.8,1.2,0.3
		c-0.5-0.2-0.9-0.6-1.4-0.9c-0.1-0.3,0.1-0.5,0.2-0.8c0.2,0,0.2,0.2,0.4,0.2c0-0.1,0.1-0.2,0.2-0.3c-0.6-0.2-0.7-0.8-1.4-0.9
		c-0.1-0.3,0.2-0.1,0.3-0.3c-0.7-0.2-1.4-0.4-1.9-0.8c0.1-0.4,0.9,0.1,1-0.4c-0.5-0.7-1.6-1.1-1.7-2c0.6-0.1,0.8,0.9,1.5,0.7
		c0.3-1-0.9-0.8-1.4-1.2c0-0.3,0.3-0.2,0.4-0.3c-0.1-0.2-0.4-0.1-0.4-0.4c0.3-0.1,0.3,0.4,0.7,0.4c0.2-0.1,0.1-0.5,0.3-0.6
		c-0.4,0-0.3-0.6-0.8-0.4c0-0.4-0.4-0.5-0.2-1c0-0.1-0.3,0-0.2-0.1c-0.1-0.4,0.1-0.5,0.4-0.5c-0.2-0.4-0.7,0.1-1-0.1
		c0.3-0.3,0.6-0.6,1.2-0.5c0-0.7-0.6-0.7-0.8-1.1c0-0.2,0.4,0,0.3-0.3c-0.8-0.3-1.9-0.2-2-1.2c0.3,0.2,0.7,0,1,0
		c-0.1-0.3-0.2-0.5-0.2-0.8c0.1-0.1,0.2-0.2,0.4-0.2c-0.1-0.2-0.2-0.4-0.6-0.4c-0.1-0.3-0.3-0.4-0.4-0.6c0.1-0.1,0.5,0,0.6-0.1
		c-0.2-0.2-0.2-0.4-0.3-0.7c-0.1,0-0.3-0.1-0.4,0c0.1-0.3-0.6-0.2-0.3-0.4c0.1-0.2,0.3,0.1,0.6,0.1c0.3,0,0.5-0.1,0.6-0.4
		c-0.2-0.1-0.4-0.1-0.5-0.2s-0.1-0.3-0.1-0.5c-0.7,0-1-0.7-1.2-1.5c-0.1-0.4-0.3-0.8-0.2-0.9c0.1-0.5,0.7-0.3,0.7-0.7
		c-0.2-0.2-0.3,0-0.5,0c-0.7,0.1-1.5-0.5-1.8,0.2c0.2,0.1,0.5,0,0.8,0c0.2,0.8,0.9,2,0.4,2.8c0,0.1,0.2,0,0.2,0.1
		c-0.2,0.7-1,1.3-0.8,2.1c0.3,0.1,0.4-0.5,0.8-0.5c-0.1,0.5-0.5,0.6-0.6,1.1c0.2,0.2,0.3,0.4,0.6,0.5c-0.1,1.1-1.2,1.3-1.2,2.6
		c0.4,0.2,1.2,0.1,1.5-0.1c0.3,0.7-0.5,1.2-1.1,1.4c0.1,0.8-0.8,0.5-0.8,1.2c0.8,0.2,1.5-0.1,2.2-0.1c0.1,1.2-1.6,1-1.6,2.1
		c-0.2,0-0.2,0.3-0.4,0.2c0.3,0.1,0.7,0.8,1,0.3c0,0.3,0.4,0.2,0.7,0.3c-0.1,0.5-0.6,0.7-0.8,1.3c0,0.2,0.3,0.2,0.6,0.2
		c-0.1,0.6-0.6,0.7-0.8,1.2c0.1,0.2,0.5,0,0.7,0c-0.1,0.4-0.6,0.5-0.7,1c-0.3,0.2-0.8,0.2-0.8,0.6c-0.1,0.5,0.7,0.6,0.9,1
		c-0.3,0.8-1,1.1-1.2,2c0.8-0.3,1.7-0.5,2.1-1.2c0.4,0.1-0.2,0.7,0.1,0.8c-0.1,0.3-0.4,0.3-0.4,0.6c0,0.1,0.3,0,0.2,0.1
		c-0.3,0.3-0.7,0.5-0.7,1.1c0.2-0.2,0.5-0.2,0.8-0.3c0.2,0.2-0.4,0.5,0,0.5c-1,1.6-2.2,3-2.8,5c0.5,0,0.6-0.5,0.8-0.7
		c0.3,0,0.2,0.2,0.4,0.3c0-0.2,0-0.3,0.1-0.3c0.5,0.1,1.3,0,1.9-0.2c-0.1-0.4-0.3-0.7-0.5-0.7c-0.5-0.1-0.4,1.1-1.4,0.7v-0.3
		c0,0,0.3,0.3,0.4,0.3c0.3-0.9,0.8-1.7,1.3-2.4c0.1,0.1,0,0.4,0.1,0.6c0.6-0.1,0.1-1.3,0.8-1.4c0.1,0.5-0.5,0.6-0.3,1.1
		c0.2,0.1,0.2-0.3,0.5-0.3c-0.5,0.6-0.2,1.9-0.5,2.7c-0.1,0.3-0.4,0.4-0.5,0.6c0,0.2,0.3,0.1,0.3,0.3c-0.4,1-1.5,1.7-2,2.8
		c-0.2,0.1-0.4,0.2-0.4,0.4c-0.6,0.1-0.9,0.4-1,1c1.1,0.1,1.6-1.3,2.5-1.1c0,0.4-0.2,0.8-0.3,1.2c0.8,0.4,1.2-0.8,1.6-1.2
		c0.5,1.3-0.8,2-0.8,3.4c0.3-0.1,0.4-0.4,0.4-0.7c0.5,0.8-0.2,1.6-0.8,1.9c0,0.1,0.3,0,0.3,0.2c-0.1,0.1-0.4,0.1-0.5,0.2
		c0.1,0.4,0.4-0.1,0.7-0.1c-0.1,0.4-0.6,0.8-1,1.1c0.1,0.2,0.4-0.1,0.6,0c-0.2,0.9-1,1.2-1.2,2.2c0.1,0.1,0.2-0.1,0.3-0.1
		c-0.1,1-1.5,1.9-1.2,3.1c0,0.1,0,0.2,0.2,0.3c-0.2,0.1-0.2,0.3-0.4,0.3c-0.1,0.5,0.3,0.9,0.1,1.3c0.1,0,0.4-0.1,0.4,0.2
		c0.2-0.1,0.2-0.4,0.2-0.7c0.2,0,0.2,0.3,0.4,0.3c0.4-0.3,0-1.1,0.1-1.6c0.4,0.2,0.2,1,0.5,1.3c0.2-0.1,0-0.6,0.1-0.7
		c0.4-0.1,0.4,0.3,0.7,0.4c0.2-0.1,0-0.2,0-0.3c0.4,0.2,0.1,0.6,0.3,0.9c-0.3,0.3-0.6,0.6-0.6,1.2c-0.1,0.2-0.2,0.2-0.3,0.4
		c-0.3,0.6,0,1.8-0.7,1.7c-0.3,0-0.2-0.2-0.4-0.4c-0.2,0.2-0.2,0.6-0.3,0.8c0,0.2,0.3-0.1,0.3,0.1c-0.1,0.5-0.7,0.5-0.9,0.9
		c0.2,0.7,0.2,1.5,0.4,2.3c0.5-0.1,0.4-0.7,1-0.7c0.1,0.9-0.8,1.9,0,2.4c-0.7,0.5-0.4,1.4,0.8,1.2c-0.2,0.5,0.1,1.1-0.3,1.5
		c-0.3,0-0.3-0.3-0.3-0.6c-0.4,0.4-0.1,1.5-0.4,2c-0.7-0.9-0.6-2.6-1-3.8c-0.5,0.3-0.2,1.3,0,1.7c-0.3,0.3-0.1,1.1-0.3,1.5
		c-0.4-0.5-1-1.1-1.9-0.8c-0.4-0.5-0.6-1.1-1.2-1.5c0.5-0.1,1.4-0.4,1.8,0c-0.4-1.5-1.8-2.1-2.6-3.3c0.1-0.1,0.3,0.1,0.5,0.1
		c0-0.6-0.6-0.5-0.8-0.8c-0.1-0.5,0.2-0.7,0.2-1.2c0.3,0.1,0.4,0.4,0.6,0.5c0.7-0.5-0.2-1.2-0.4-1.8c-0.1-0.2,0-0.4,0-0.6
		c-0.1-0.2-0.4-0.3-0.5-0.4c0.2-0.6-0.1-1.1-0.4-1.4c0-0.2,0.2-0.2,0.2-0.4c-0.1-0.2-0.7-0.1-0.7-0.4c0.1-0.2,0.4-0.2,0.4-0.2v-0.8
		c1,0.1,0.5-0.4,0.6-0.8c0-0.2-0.4-0.1-0.5,0c-0.2-0.4-0.5-0.7-0.7-1.2c-0.3-0.8-0.5-1.6-1.2-2c0.6-0.2,0.3-0.9,0.1-1.3
		c0-0.2,0.1-0.2,0.2-0.1c-0.6-0.5-0.4-1.5-1-2c-0.2-0.2-0.4-0.1-0.6-0.3c0.2-0.1,0.3,0,0.5,0.1c-0.8-0.7-1-2.3-1.3-3.6
		c-0.1,1.6-0.3,3.7,0.6,4.6c-0.3,0.7-0.7,2.5,0.6,2.4c0.1,1.2,0.2,2,0.1,3.1c0,0.2-0.3,0.1,0.7,0.1v0.4c0,0.4,0.2,1.2,0.1,2
		c0,0.2,0.2,0.2,0.3,0.4c-0.3,1-0.7,2-1,2.9c0.4,0,0.7,0.6,1.1,0.8c0.2,0.1,0.1-0.3,0.3-0.3c0.6,3.1-0.7,5.5-1.7,7.5
		c0.1,0.2,0.5,0.1,0.8,0.1c0.1,0.2-0.1,0.4-0.1,0.5c0.7-0.1,0.7-0.9,0.8-1.6c0.3,0.1,0.3,0.6,0.4,0.9c0,0.2,0.2-0.1,0.2,0
		c0.1,0.9-0.7,1.2-0.9,2c0,0.2,0.1,0.4,0,0.6c-0.1,0.3-0.5,0.6-0.4,1c-0.4,0.3-0.4,0.9-0.6,1.3c-0.5-0.6-0.4-1.7-0.4-2.8
		c-0.3-0.3-1.2-0.6-0.9-1.2c0.4-0.1,0.2,0.5,0.5,0.5c0.5-0.3,0-1-0.2-1.3c-0.2-0.2-0.4-0.3-0.5-0.4c0.1-0.3,0.4-0.4,0.6-0.6
		c-0.2-0.5-0.8-0.7-0.8-1.4c0.2,0,0.3,0.2,0.6,0.1c-0.1-0.5-0.2-1-0.8-1c0.1-1.2-0.1-2.3-0.4-3.2c-0.5,0.3-0.3,1.3,0,1.7
		c-0.4,2.1,0.8,4.8-0.6,6.1c0.6,0.1,0.6-0.4,1.2-0.4c-0.2,0.5-0.4,1.2-0.9,1.4c1.2,0.4-0.2,1.9,0.3,2.6c-0.3,0.4-0.5,1-0.8,1.5
		c0.5,0.1,0.4-0.5,0.7-0.5c0,0.5-0.2,0.7-0.2,1.2c0.2,0.1,0.3-0.2,0.5,0.1c0,0.4-0.7,0.6-0.8,1c0,0.3,0.1,0.6,0.4,0.6
		c-0.1,1.4-0.8,2.6-1.5,3.6c0.1,0.5,0.2,0.7,0.2,1.3c0,0.6-0.4,1.2-0.4,1.6s0.6,0.7,0.6,1.1c0,0.3-0.6,0.6-0.7,1.2
		c0,0.2,0,0.3,0,0.4l-0.8,0.6c0-0.1,0-0.2,0-0.3c-0.1,0-0.2,0.1-0.3,0.1c0,0.1,0,0.2,0,0.4l-0.3,0.2c-0.7-1.4-2.5-2.3-2.8-4
		c0-0.2,0-0.5,0-0.7c-0.1-0.4-0.8-0.8-0.7-1.5c0.2,0,0.1,0.3,0.4,0.3c0.5-0.8-1.1-1.2-0.6-2c0.3-0.1,0.4,0.3,0.6,0.1
		c0-0.4-0.5-0.7-0.6-1c-0.3-0.8-0.4-1.9-0.6-2.9c-0.6-2.8-1.1-5.8-1.8-8.5c0,2.5,0.5,6-0.5,8c0.6,0.1,0.5-0.4,0.7-0.6
		c-0.1,0.7-0.5,1.2-0.4,2c0,0.2,0.1,0.4,0.1,0.6s-0.2,0.3-0.3,0.5c-0.4,0.7-0.3,1.7-0.5,2.5c0.2-0.1,0.3-0.5,0.6-0.5
		c0.5,0.8-0.4,1.8,0,2.5c0.2,0,0.5,0,0.6-0.1c-0.1,1-1.5,1.4-1.2,2.9c-0.3,0.5-0.7,0.8-1,1.3c0.2-0.1,0.4-0.2,0.6-0.1
		c0,0.5-0.2,1.4,0.5,1.3c-0.4,0.6-0.5,1.5-0.9,2.2c-0.9-1-0.4-3.4-1.2-4.5c0.2-0.1,0.5,0,0.7,0c0.2-0.3-0.2-0.4-0.4-0.6
		c-0.3-0.4,0-1-1-1.2V409c0,0.1,0.4,0.3,0.7,0.4c-0.2-0.8-0.4-1.7-0.7-2.6c-0.3-0.9-0.4-1.8-0.8-2.6c-0.6,0.6,0,1.5,0,2.1
		c0,0.4-0.4,0.7-0.3,1.4c0.1,0.5,0.4,1,0.4,1.5c0,0.6-0.3,1-0.5,1.5c0.3,0.8-0.6,1.1-0.3,1.6c0.3,0,0.4-0.1,0.5-0.4
		c0.6,0.3,0.3,0.6,0.1,1.2c-0.2,0.5-0.2,1-0.5,1.3c0.2,0.2,0.7,0.2,1,0.4c0,0.7-0.9,1.1-0.6,1.8c-0.4,0.3-0.5,1-0.8,1.4
		c-0.1,0.5,0.6,0.8,0.2,1.2c-0.2-0.2-0.1-0.8-0.6-0.8c-0.2,0.5,0.2,1.5-0.1,1.9c-0.2,0.1-0.1-0.2-0.3-0.2c-0.3,0.2-0.4,0.5-0.5,0.8
		c-0.3,0-0.6-0.5-0.8-0.8c0.1-0.2,0.4,0,0.5,0c-1.3-1-0.5-4.2-1.6-5.4c0.3-1.3-0.4-2.4-0.4-3.6c-0.7,0.3-0.1,1.4-0.1,2.2
		c0,1.6-0.2,3.3-0.7,4.4c0.2,0.2,0.9-0.1,0.9,0.3c0.1,0.3-0.2,0.4-0.4,0.6c-0.3,0.4-0.4,1.1-0.2,1.7c0.2,0.1,0.3-0.4,0.5-0.2
		c0.3,0.5-0.2,1-0.3,1.5c-0.2-0.1-0.2-0.4-0.5-0.4c-0.1,0.4,0.1,1.1-0.3,1.2c-0.2-0.3,0.2,1.2,0.1,0.8c-0.1,0-0.5,2-0.5-0.1
		c0,1.9,0,2,0,4V533h521v-86.3c0-2,0-2,0-4C613,444.9,612.7,442.9,612.6,442.9z M216.2,307.9c0.4,0.5,1.2-0.5,1.6,0.1
		c0.4-0.2,0-0.9,0.2-1.2c0.2,0.1,0.3,0.3,0.4,0.5c-0.1,0.5-0.4,1-0.4,1.6c0.1,0.1,0.3-0.1,0.3-0.2c0.1,1.1-0.4,2.3-0.2,3.5
		c-1,0.1-0.9-0.8-1.7-0.8c0.2-0.4,0.9-0.7,1.2-0.2c0-0.3-0.1-0.4-0.2-0.6c0.1,0,0.2-0.1,0.3,0c-0.7-0.7-0.9-1.8-2-2.2
		C215.8,308.2,216.2,308.2,216.2,307.9z M213.2,314.7c0,1.1-0.8,1.9-1.5,2.6c-0.5-0.4-0.4-1.4-0.7-2
		C212,315.4,212.5,315,213.2,314.7z M211,312.9c0-0.4-0.7-0.4-0.5-0.9c0.2-0.1,0.2,0.2,0.4,0.2c0.2-0.1,0.2-0.3,0.3-0.5
		c0.2,0,0.1,0.3,0.3,0.3c0.4-0.1,0.6-0.9,0.7-1.5c0.9,1.5-0.8,2.4-1,3.8c-0.5-0.1-0.4-0.8-0.8-1C210.5,313,210.7,312.9,211,312.9z
		 M204.4,326.2c-0.4,0.2-1,0.2-1.2-0.2c0.4-0.5-0.1-0.8-0.4-1.1C203.5,324.6,204.4,325.2,204.4,326.2z M168.2,356
		c0.4,0.5,1.2-0.5,1.6,0.1c0.4-0.2,0-0.8,0.2-1.2c0.2,0.1,0.3,0.3,0.4,0.5c-0.1,0.5-0.4,1-0.4,1.6c0.1,0.1,0.3-0.1,0.3-0.2
		c0,0.5-0.1,1.1-0.1,1.7l-0.6,0.6c0-0.1-0.1-0.2-0.2-0.4c0.1,0,0.2-0.1,0.3,0c-0.7-0.7-0.9-1.8-2-2.2
		C167.8,356.2,168.1,356.2,168.2,356z M165.1,362.8c0,1.1-0.8,1.9-1.5,2.6c-0.5-0.4-0.4-1.4-0.7-2C164,363.4,164.5,363,165.1,362.8z
		 M162.9,360.9c0-0.4-0.7-0.4-0.5-0.9c0.2-0.1,0.2,0.2,0.4,0.2c0.2-0.1,0.2-0.3,0.3-0.5c0.2,0,0.1,0.3,0.3,0.3
		c0.5-0.1,0.6-0.9,0.7-1.5c0.9,1.5-0.9,2.4-1,3.8c-0.5-0.1-0.4-0.8-0.8-1C162.5,361.1,162.6,360.9,162.9,360.9z M168.4,359.5
		c0.2-0.4,0.8-0.6,1.1-0.3l-0.5,0.6C168.9,359.6,168.7,359.5,168.4,359.5z M156.2,373.6l-0.7,0.7c-0.2-0.1-0.3-0.1-0.4-0.3
		c0.4-0.5-0.1-0.8-0.4-1.1C155.3,372.7,155.9,373,156.2,373.6z M141.4,374.2c0,0.2,0,0.5-0.1,0.7
		C141.3,374.6,141.3,374.4,141.4,374.2z M141.7,377.8c0,0.1,0,0.1,0,0.1c-0.1-0.1-0.3-0.2-0.3-0.3
		C141.5,377.6,141.7,377.6,141.7,377.8z M123.8,389.3c0.2-0.1,0.4-0.1,0.7-0.1c-0.1-0.2-0.2-0.8-0.1-1.3c0.1,0.1,0.2,0.2,0.5,0.1
		c0.1,0.1,0.1,0.2,0.1,0.3c0.1-0.2,0.3-0.3,0.6-0.3c0.1-0.1,0.1-0.3,0.1-0.5c1.2,0.8-0.4,1.9-0.4,3C124.4,390.5,124,390,123.8,389.3
		z M120.1,396.7c0.4,0.5,1.2-0.5,1.6,0.1c0.4-0.2,0-0.8,0.2-1.2c0.2,0.1,0.3,0.3,0.4,0.5c-0.1,0.5-0.4,1-0.4,1.6
		c0.1,0.1,0.3-0.1,0.3-0.2c0.1,1.1-0.4,2.3-0.2,3.5c-1,0.1-0.9-0.8-1.7-0.8c0.2-0.4,0.9-0.7,1.2-0.2c0-0.3-0.1-0.4-0.2-0.6
		c0.1,0,0.2-0.1,0.3,0c-0.7-0.7-0.9-1.8-2-2.2C119.7,397,120.1,397,120.1,396.7z M117.1,403.5c0,1.1-0.8,1.9-1.5,2.6
		c-0.5-0.4-0.4-1.4-0.7-2C116,404.2,116.4,403.8,117.1,403.5z M114.9,401.7c0-0.4-0.7-0.4-0.5-0.9c0.2-0.1,0.2,0.2,0.4,0.2
		c0.2-0.1,0.2-0.3,0.3-0.5c0.2,0,0.1,0.3,0.3,0.3c0.4-0.1,0.6-0.9,0.7-1.5c0.9,1.5-0.8,2.4-1,3.8c-0.5-0.1-0.4-0.8-0.8-1
		C114.4,401.8,114.6,401.7,114.9,401.7z M107.1,414.8c0.4-0.5-0.1-0.8-0.4-1.1c0.7-0.2,1.4,0.2,1.6,1l-0.6,0.5
		C107.4,415.1,107.2,415,107.1,414.8z M589,418.6c0.1,0.6,0.2,1.4,0.7,1.5c0.2,0,0.1-0.4,0.3-0.3c0.1,0.2,0.1,0.4,0.3,0.5
		c0.2,0,0.2-0.4,0.4-0.2c0.2,0.5-0.5,0.5-0.5,0.9c0.3,0,0.5,0.2,0.6,0.4c-0.4,0.2-0.2,0.9-0.8,1C589.9,421,588.1,420,589,418.6z
		 M590.2,423.4c-0.3,0.6-0.2,1.6-0.7,2c-0.7-0.6-1.4-1.5-1.5-2.6C588.7,423,589.2,423.5,590.2,423.4z M583.2,414.9
		c0.3,0.3-0.2,1,0.2,1.2c0.4-0.6,1.2,0.4,1.6-0.1c0.1,0.3,0.4,0.2,0.4,0.5c-1,0.3-1.3,1.5-2,2.2c0.2,0,0.2,0,0.3,0
		c0,0.2-0.2,0.3-0.2,0.6c0.3-0.5,1-0.2,1.2,0.2c-0.8,0-0.8,0.9-1.7,0.8c0.2-1.3-0.3-2.4-0.2-3.5c0,0.2,0.3,0.3,0.3,0.2
		c0-0.6-0.3-1.1-0.4-1.6C582.9,415.3,583,415,583.2,414.9z M579.6,406.9c0,0.2,0,0.4,0,0.5c0.3,0,0.5,0.1,0.6,0.3
		c0-0.2,0-0.3,0.1-0.3c0.2,0,0.4,0,0.5-0.1c0,0.5,0,1.1-0.1,1.3c0.3,0,0.6,0,0.7,0.1c-0.2,0.7-0.5,1.2-1.4,1.3
		C580,408.8,578.4,407.7,579.6,406.9z M565.5,385.1c0,0.1-0.1,0.1-0.1,0.2c-0.1-0.1-0.2-0.1-0.2-0.2
		C565.3,385,565.5,384.9,565.5,385.1z M553.9,378.1c-0.3,0.3-0.7,0.6-0.4,1.1c-0.2,0.4-0.8,0.5-1.2,0.2
		C552.2,378.5,553.1,377.9,553.9,378.1z M544.4,363.8c0.1,0.6,0.2,1.4,0.7,1.5c0.2,0,0.1-0.4,0.3-0.3c0.1,0.2,0.1,0.4,0.3,0.5
		c0.2,0,0.2-0.4,0.4-0.2c0.2,0.5-0.5,0.5-0.5,0.9c0.3,0,0.5,0.2,0.6,0.4c-0.4,0.2-0.2,1-0.8,1C545.3,366.2,543.5,365.3,544.4,363.8z
		 M545.6,368.6c-0.3,0.6-0.2,1.6-0.7,2c-0.7-0.6-1.4-1.5-1.5-2.6C544.1,368.3,544.6,368.7,545.6,368.6z M538.6,360.2
		c0.3,0.3-0.2,1,0.2,1.2c0.4-0.6,1.2,0.4,1.6-0.1c0.1,0.3,0.4,0.2,0.4,0.5c-1,0.3-1.3,1.5-2,2.2c0.2,0,0.2,0,0.3,0
		c0,0.2-0.2,0.3-0.2,0.6c0.3-0.5,1-0.2,1.2,0.2c-0.8,0-0.8,0.9-1.7,0.8c0.2-1.3-0.3-2.4-0.2-3.5c0,0.2,0.3,0.3,0.3,0.2
		c0-0.6-0.3-1.1-0.4-1.6C538.3,360.5,538.4,360.3,538.6,360.2z M482.5,283.7c0,0.4,0.1,0.8,0.5,1c-0.2,0.2-0.4,0.4-0.6,0.5l-0.6-1.4
		C482,283.8,482.2,283.8,482.5,283.7z M597.1,433.4c0.3-0.4,0.8-0.6,1.3-0.5c-0.3,0.3-0.7,0.6-0.4,1.1c0,0,0,0.1-0.1,0.1
		L597.1,433.4z"/>
	<path fill="#316368" d="M173.2,349.8c0-0.2,0.1-0.5,0.2-0.7c-0.3,0.1-0.5,0.3-0.8,0.5C172.8,349.7,173,349.8,173.2,349.8z"/>
	<path fill="#316368" d="M171.9,354.1c0.3-0.3,0.1-1,0.3-1.5c-1.2,0.2-1.5-0.7-0.8-1.2c-0.8-0.5,0.1-1.5,0-2.4
		c-0.6,0-0.5,0.6-0.9,0.7c0.2,1.5,0.5,3.5,0.8,5.6c0.2-0.5-0.1-1.5,0.3-1.9C171.6,353.8,171.6,354.1,171.9,354.1z"/>
	<path fill="#316368" d="M170.1,347.5c0.2,0.7,0.2,1.5,0.4,2.3l0,0C170.3,348.3,170.1,347.4,170.1,347.5z"/>
	<path fill="#316368" d="M171.4,350.2c0.5,0,0.9-0.3,1.2-0.6c-0.2-0.1-0.3-0.2-0.4-0.4C171.7,349.4,171.5,349.7,171.4,350.2z"/>
	<path fill="#316368" d="M172.8,348.8c0.3-0.6,0.8-1.1,1.2-1.6c-0.1-0.1-0.2-0.3-0.3-0.4c0,0.2,0,0.4,0,0.5c-0.3,0-0.5,0.1-0.6,0.3
		c0-0.2,0-0.3-0.1-0.3c-0.3,0-0.4,0-0.5-0.1c0,0.5,0,1.1,0.1,1.3c-0.3,0-0.6,0-0.7,0.1c0.1,0.3,0.2,0.5,0.4,0.7h0.1
		C172.4,349,172.6,348.9,172.8,348.8z"/>
	<path fill="#316368" d="M218.1,299.4c0.2,0.7,0.2,1.5,0.4,2.3l0,0C218.3,300.2,218.2,299.3,218.1,299.4z"/>
	<path fill="#316368" d="M220.8,300.8c0.3-0.6,0.8-1.1,1.2-1.6c-0.1-0.1-0.2-0.3-0.3-0.4c0,0.2,0,0.4,0,0.5c-0.3,0-0.5,0.1-0.6,0.3
		c0-0.2,0-0.3-0.1-0.3c-0.2,0-0.4,0-0.5-0.1c0,0.5,0,1.1,0.1,1.3c-0.3,0-0.6,0-0.7,0.1c0.1,0.3,0.2,0.5,0.4,0.7h0.1
		C220.4,300.9,220.6,300.9,220.8,300.8z"/>
	<path fill="#316368" d="M220,306c0.3-0.3,0.1-1,0.3-1.5c-1.2,0.2-1.5-0.7-0.8-1.2c-0.8-0.5,0.1-1.5,0-2.4c-0.6,0-0.5,0.6-0.9,0.7
		c0.2,1.5,0.5,3.5,0.8,5.6c0.2-0.5-0.1-1.5,0.3-1.9C219.6,305.8,219.7,306,220,306z"/>
	<path fill="#316368" d="M221.3,301.8c0-0.2,0.1-0.5,0.2-0.7c-0.3,0.1-0.5,0.3-0.8,0.5C220.8,301.7,221,301.8,221.3,301.8z"/>
	<path fill="#316368" d="M219.4,302.2c0.5,0,0.9-0.3,1.2-0.6c-0.2-0.1-0.3-0.2-0.4-0.4C219.8,301.3,219.5,301.7,219.4,302.2z"/>
	<path fill="#316368" d="M536.3,354.5L536.3,354.5c0.3-0.2,0.4-0.5,0.5-0.7c-0.2-0.1-0.4-0.1-0.7-0.1c0.1-0.2,0.2-0.8,0.1-1.3
		c-0.1,0.1-0.2,0.2-0.5,0.1c-0.1,0.1-0.1,0.2-0.1,0.3c-0.1-0.2-0.3-0.3-0.6-0.3c-0.1-0.1-0.1-0.3,0-0.5c-0.2,0.1-0.3,0.2-0.3,0.4
		c0.4,0.5,0.9,1,1.2,1.6C536,354.2,536.2,354.2,536.3,354.5z"/>
	<path fill="#316368" d="M537.2,354.3c-0.1,0.9,0.8,1.9,0,2.4c0.7,0.5,0.4,1.4-0.8,1.2c0.2,0.5-0.1,1.1,0.3,1.5
		c0.3,0,0.3-0.3,0.3-0.6c0.4,0.3,0.1,1.4,0.3,1.9c0.3-2.1,0.6-4.1,0.8-5.6C537.7,354.8,537.7,354.2,537.2,354.3z"/>
	<path fill="#316368" d="M535.4,355.1c0.2,0,0.4-0.1,0.6-0.2c-0.3-0.2-0.5-0.4-0.8-0.5C535.3,354.6,535.4,354.8,535.4,355.1z"/>
	<path fill="#316368" d="M538.5,352.7c-0.1-0.1-0.2,0.8-0.4,2.3l0,0C538.3,354.3,538.3,353.4,538.5,352.7z"/>
	<path fill="#316368" d="M537.2,355.5c-0.1-0.5-0.4-0.8-0.8-0.9c-0.1,0.1-0.2,0.3-0.4,0.4C536.3,355.2,536.7,355.5,537.2,355.5z"/>
</g>
</svg>
