<?xml version="1.0" encoding="utf-8"?>
<!-- Generator: Adobe Illustrator 18.0.0, SVG Export Plug-In . SVG Version: 6.00 Build 0)  -->
<!DOCTYPE svg PUBLIC "-//W3C//DTD SVG 1.1//EN" "http://www.w3.org/Graphics/SVG/1.1/DTD/svg11.dtd">
<svg version="1.1" id="Calque_1" xmlns="http://www.w3.org/2000/svg" xmlns:xlink="http://www.w3.org/1999/xlink" x="0px" y="0px"
	 viewBox="5.1 119.8 694.9 429.4" enable-background="new 5.1 119.8 694.9 429.4" xml:space="preserve">
<g>
	<path fill="#052C35" d="M697,543.8c-1,2.8-0.8,0.2-1,0.2c-0.2,0.5,0.2-1.5-0.1-1.1c-0.6-0.1-0.3-1.1-0.5-1.6
		c-0.3,0.1-0.3,0.5-0.7,0.6c-0.1-0.6-0.8-1.3-0.5-2c0.3-0.2,0.5,0.4,0.7,0.3c0.2-0.8,0.1-1.7-0.3-2.2c-0.2-0.3-0.6-0.4-0.5-0.8
		c0.1-0.5,1-0.1,1.2-0.4c-0.6-1.5-0.9-3.7-0.9-5.8c0-1.1,0.8-2.6-0.1-3c-0.1,1.6-0.9,3.1-0.6,4.8c-1.5,1.6-0.4,5.8-2.1,7.2
		c0.2-0.1,0.6-0.4,0.7-0.1c-0.3,0.4-0.6,1-1,1c-0.2-0.4-0.4-0.8-0.7-1.1c-0.3-0.1-0.2,0.4-0.5,0.3c-0.4-0.6,0.1-1.9-0.2-2.6
		c-0.7-0.1-0.5,0.7-0.8,1c-0.4-0.6,0.4-0.9,0.3-1.6c-0.4-0.5-0.5-1.5-1-1.9c0.4-1-0.7-1.5-0.8-2.4c0.4-0.2,1-0.2,1.3-0.5
		c-0.4-0.3-0.4-1-0.6-1.7c-0.3-0.7-0.6-1.1,0.1-1.5c0.1,0.3,0.3,0.5,0.6,0.5c0.4-0.8-0.8-1.1-0.4-2.2c-0.3-0.8-0.6-1.3-0.6-2.1
		c0-0.7,0.4-1.3,0.5-2c0.1-0.9-0.4-1.3-0.4-1.9c0-0.8,0.8-2,0-2.8c-0.5,1.1-0.7,2.3-1.1,3.5c-0.4,1.2-0.7,2.4-1,3.5
		c0.3-0.1,0.8-0.4,0.8-0.5v1.5c-1,0.2-0.9,1-1.2,1.5c-0.2,0.3-0.7,0.4-0.4,0.8c0.3-0.1,0.6-0.1,1,0c-1.1,1.4-0.4,4.6-1.6,5.9
		c-0.5-0.8-0.7-2.1-1.2-2.9c0.9,0.1,0.7-1.1,0.7-1.7c0.3-0.2,0.6,0.1,0.8,0.1c-0.4-0.6-0.9-1.1-1.3-1.7c0.4-1.9-1.4-2.5-1.5-3.9
		c0.1,0.2,0.5,0.1,0.8,0.1c0.5-0.9-0.6-2.3,0-3.3c0.4,0.1,0.4,0.5,0.8,0.7c-0.2-1.1-0.2-2.4-0.6-3.3c-0.1-0.3-0.4-0.4-0.5-0.6
		c0-0.2,0.1-0.5,0.1-0.8c0.1-1-0.4-1.7-0.6-2.6c0.3,0.3,0.2,0.9,1,0.8c-1.4-2.6-0.6-7.3-0.6-10.6c-0.9,3.5-1.6,7.6-2.4,11.2
		c-0.3,1.3-0.3,2.7-0.8,3.8c-0.2,0.4-0.8,0.8-0.8,1.3c0.3,0.2,0.4-0.3,0.8-0.2c0.6,1.2-1.5,1.6-0.8,2.7c0.3,0,0.2-0.4,0.5-0.4
		c0.2,0.9-0.7,1.4-0.9,1.9c-0.1,0.3,0,0.6-0.1,0.9c-0.4,2.3-2.8,3.5-3.7,5.4c-0.1,0.3-0.1,0.6-0.4,0.8c-0.3-0.6,0.2-1,0.1-1.7
		c-0.2-0.1-0.3-0.2-0.5-0.2c0.1,0.3,0.1,0.6-0.1,0.8c-0.4,0-0.6-0.1-0.9-0.1c-0.2,0.2,0.1,0.8-0.1,1c-0.2-0.2-0.2-0.6-0.2-1
		c0-0.1,0.3,0,0.3-0.3c0-0.6,0.2-0.8,0.1-1.3c-0.1-0.8-0.9-1.2-0.9-1.6c0-0.5,0.7-0.9,0.8-1.4c0-0.5-0.5-1.3-0.5-2.1
		c-0.1-0.8,0.1-1.1,0.3-1.7c-0.8-1.4-1.8-3-1.9-4.8c0.4,0,0.6-0.5,0.6-0.8c-0.1-0.6-1.1-0.8-1-1.4c0.2-0.3,0.4,0,0.6-0.1
		c0.1-0.7-0.2-1-0.3-1.6c0.3-0.1,0.3,0.8,0.9,0.6c-0.4-0.6-0.6-1.3-1-1.9c0.8-0.9-1.1-2.8,0.4-3.4c-0.7-0.3-0.9-1.1-1.2-1.8
		c0.7-0.1,0.8,0.6,1.5,0.5c-1.8-1.8-0.3-5.4-0.8-8.2c0.3-0.5,0.5-1.9-0.1-2.2c-0.4,1.2-0.7,2.6-0.5,4.2c-0.8,0-1,0.6-1,1.3
		c0.4,0,0.5-0.1,0.8-0.2c-0.1,0.9-0.8,1.1-1.1,1.8c0.3,0.3,0.6,0.5,0.8,0.8c-0.2,0.1-0.5,0.3-0.7,0.5c-0.4,0.4-1,1.3-0.3,1.7
		c0.5,0,0.1-0.8,0.7-0.6c0.4,0.9-0.8,1.2-1.2,1.6c0,1.4,0.1,3-0.6,3.7c-0.3-0.5-0.3-1.3-0.8-1.7c0.2-0.6-0.4-1-0.5-1.3s0-0.6,0-0.8
		c-0.2-1-1.2-1.5-1.2-2.6c0.1-0.2,0.3,0.3,0.3-0.1c0.1-0.4,0.1-1,0.5-1.2c0.1,1,0.1,2,1.1,2.1c-0.1-0.2-0.3-0.4-0.2-0.6
		c0.4,0,0.9,0.1,1-0.1c-1.3-2.6-3-5.8-2.2-9.9c0.2,0,0.1,0.4,0.4,0.4c0.6-0.2,1-1,1.5-1c-0.5-1.2-0.9-2.5-1.3-3.8
		c0.1-0.3,0.7-0.2,0.7-0.5c0-1.1-0.3-2.1,0.7-2.6v-0.6c0,0,0.3,0.1,0.3-0.1c-0.2-1.3-0.5-2.4-0.4-4c1.7,0.1,1.1-2.3,0.7-3.2
		c1.1-1.2,0.9-4,0.7-6.1c-0.4,1.8-0.7,3.9-1.7,4.8c0.2-0.1,0.4-0.3,0.6-0.1c-0.2,0.4-0.5,0.2-0.8,0.4c-0.8,0.6-0.5,2-1.3,2.6
		c0.2,0,0.4,0,0.3,0.2c-0.2,0.6-0.7,1.5,0.1,1.7c-1,0.4-1.2,1.6-1.7,2.6c-0.3,0.6-0.7,1.1-1,1.6c-0.1-0.1-0.6-0.1-0.7,0.1
		c0.1,0.5-0.3,1.2,0.7,1v1c0,0,0.6,0,0.7,0.3c0,0.5-0.7,0.3-0.8,0.6c0,0.3,0.2,0.3,0.2,0.6c-0.5,0.3-0.8,1-0.6,1.8
		c-0.2,0.1-0.6,0.2-0.7,0.5c-0.1,0.2,0,0.5-0.1,0.8c-0.2,0.8-1.5,1.7-0.5,2.4c0.3-0.2,0.5-0.6,0.8-0.7c0,0.6,0.4,0.8,0.3,1.5
		c-0.3,0.4-1.1,0.3-1.1,1.1c0.3,0.1,0.6-0.2,0.7-0.1c-1.1,1.5-2.9,2.3-3.4,4.4c0.5-0.5,1.7-0.3,2.4-0.1c-0.7,0.4-1.1,1.3-1.6,1.9
		c-1.2-0.4-2,0.4-2.5,1c-0.3-0.5-0.1-1.5-0.5-1.9c0.2-0.5,0.6-1.9,0-2.2c-0.5,1.6-0.5,3.8-1.3,5c-0.4-0.6,0.1-2.1-0.5-2.6
		c0,0.4,0,0.8-0.4,0.8c-0.5-0.4-0.1-1.3-0.4-1.9c1.5,0.3,2-1,1-1.6c1.1-0.7-0.2-2,0-3.2c0.8,0,0.7,0.8,1.3,1c0.2-1,0.2-2.1,0.5-3
		c-0.3-0.5-1.1-0.4-1.2-1.2c0.1-0.4,0.5,0,0.5-0.2c-0.2-0.3-0.1-0.9-0.4-1.1c-0.3,0.2-0.2,0.5-0.6,0.5c-1,0.1-0.6-1.5-1-2.3
		c-0.1-0.3-0.4-0.2-0.4-0.5c0-0.8-0.4-1.1-0.8-1.5c0.2-0.4-0.2-1,0.4-1.2c0,0.2-0.3,0.3,0,0.4c0.4-0.1,0.3-0.6,0.9-0.5
		c0.2,0.2-0.1,0.9,0.2,1c0.3-0.5,0.1-1.5,0.6-1.7c0.2,0.6-0.3,1.7,0.2,2.1c0.3,0,0.2-0.4,0.5-0.4c0.1,0.3,0.1,0.7,0.3,0.9
		c0-0.4,0.4-0.4,0.6-0.3c-0.2-0.6,0.2-1.1,0.1-1.7c-0.3,0-0.3-0.3-0.6-0.4c0.3-0.1,0.3-0.2,0.3-0.4c0.4-1.5-1.4-2.8-1.6-4
		c0.2,0,0.3,0.3,0.4,0.1c-0.2-1.2-1.3-1.7-1.5-2.9c0.3,0,0.6,0.4,0.8,0.1c-0.5-0.4-1.2-0.9-1.3-1.4c0.4-0.1,0.8,0.7,1,0.1
		c-0.1-0.2-0.5-0.1-0.6-0.3c0-0.3,0.3-0.1,0.4-0.3c-0.7-0.4-1.6-1.5-1-2.6c0,0.5,0.1,0.8,0.5,1c0.1-1.8-1.6-2.8-1-4.5
		c0.6,0.6,1,2.1,2.1,1.6c-0.2-0.4-0.5-1.1-0.5-1.5c1.3-0.3,1.9,1.5,3.3,1.5c-0.1-0.7-0.5-1.2-1.3-1.3c0-0.3-0.3-0.4-0.6-0.6
		c-0.7-1.4-2.1-2.3-2.7-3.7c0-0.3,0.4-0.1,0.4-0.4c-0.2-0.4-0.5-0.4-0.6-0.8c-0.5-1,0-2.7-0.7-3.5c0.3,0,0.4,0.6,0.6,0.4
		c0.3-0.7-0.5-0.8-0.5-1.5c0.9,0.1,0.2,1.7,1.1,1.9c0-0.2-0.1-0.6,0.1-0.8c0.6,0.9,1.2,2,1.6,3.1c0.2-0.1,0.4-0.4,0.4-0.4v0.4
		c-1,0.5-1.2-1-1.8-0.9c-0.3,0-0.5,0.5-0.6,1c0.7,0.2,1.8,0.4,2.5,0.3c0.1,0.1,0.1,0.2,0.1,0.4c0.2-0.1,0.2-0.4,0.5-0.4
		c0.3,0.4,0.4,1,1.1,1c-0.8-2.7-2.3-4.6-3.7-6.7c0.6-0.1-0.3-0.5,0.1-0.7c0.4,0.1,0.8,0.2,1.1,0.4c0-0.8-0.5-1.1-1-1.4
		c-0.1-0.3,0.3,0,0.3-0.2c0-0.4-0.4-0.4-0.5-0.8c0.4-0.1-0.4-1,0.2-1.1c0.5,1,1.8,1.2,2.8,1.6c-0.3-1.2-1.2-1.6-1.6-2.6
		c0.3-0.5,1.3-0.6,1.2-1.3c-0.1-0.5-0.7-0.4-1.1-0.8c-0.1-0.7-0.7-0.8-0.9-1.3c0.3,0,0.8,0.3,1,0c-0.2-0.7-0.9-0.9-1-1.6
		c0.4,0,0.7,0,0.8-0.3c-0.2-0.7-0.8-1-1-1.7c0.3-0.1,0.9,0,0.9-0.4c0.4,0.6,0.9-0.3,1.3-0.5c-0.3,0-0.3-0.3-0.5-0.3
		c-0.1-1.5-2.3-1.3-2.2-2.8c1,0,1.9,0.4,3,0.2c0-0.8-1.3-0.5-1.1-1.5c-0.8-0.2-1.8-0.8-1.4-1.8c0.4,0.3,1.4,0.4,1.9,0.2
		c0-1.6-1.4-1.9-1.5-3.4c0.3-0.2,0.5-0.5,0.8-0.7c-0.1-0.7-0.7-0.8-0.8-1.5c0.6,0,0.7,0.8,1.1,0.7c0.2-1-0.8-1.8-1.1-2.8
		c0-0.2,0.3,0,0.3-0.1c-0.7-1,0.3-2.6,0.5-3.7c0.3,0,0.8,0.1,1-0.1c-0.3-0.9-1.4-0.2-2.4-0.3c-0.3,0-0.4-0.3-0.7-0.1
		c0,0.6,0.8,0.3,1,1c0,0.2-0.2,0.7-0.3,1.2c-0.3,1-0.6,1.9-1.5,1.9c0,0.3,0,0.5-0.1,0.6c-0.1,0.2-0.5,0.1-0.7,0.3
		c0.1,0.3,0.4,0.5,0.8,0.5c0.3,0,0.6-0.4,0.8-0.1c0.3,0.4-0.6,0.2-0.5,0.6c-0.2,0-0.4,0-0.6,0.1c-0.1,0.3-0.2,0.7-0.4,0.9
		c0.1,0.2,0.6,0,0.8,0.2c-0.2,0.3-0.5,0.4-0.6,0.8c-0.5,0-0.7,0.2-0.8,0.5c0.3,0,0.4,0.1,0.5,0.3c0,0.5-0.1,0.8-0.3,1.1
		c0.5,0,0.9,0.4,1.3,0.1c-0.1,1.2-1.6,1.2-2.6,1.5c-0.1,0.4,0.4,0.1,0.4,0.4c-0.2,0.6-1.1,0.6-1,1.5c0.9-0.1,1.2,0.3,1.6,0.7
		c-0.4,0.2-1-0.4-1.3,0.1c0.3,0.1,0.6,0.2,0.5,0.7c0.1,0.3-0.3,0-0.3,0.2c0.2,0.6-0.4,0.7-0.3,1.3c-0.7-0.2-0.4,0.6-1,0.6
		c0.2,0.2,0.2,0.7,0.4,0.8c0.5,0.1,0.5-0.7,0.9-0.5c0,0.4-0.4,0.3-0.5,0.5c0.1,0.2,0.6,0.1,0.5,0.4c-0.5,0.6-2.2,0.3-1.8,1.6
		c1,0.3,1.2-1.1,2-0.9c-0.2,1.2-1.7,1.7-2.3,2.6c0.1,0.7,1.2-0.1,1.3,0.5c-0.7,0.5-1.6,0.8-2.5,1.1c0.1,0.2,0.5,0,0.4,0.4
		c-0.9,0.1-1.1,0.9-1.9,1.2c0.1,0.2,0.2,0.3,0.3,0.4c0.2,0,0.2-0.3,0.5-0.3c0.1,0.3,0.4,0.7,0.3,1c-0.7,0.3-1.2,0.8-1.9,1.2
		c0.6,0.6,1.1-0.6,1.6-0.4c-0.4,0.4-0.6,1.2-0.5,1.9c-0.9,1.2-2.6,1.9-3.4,3c1-0.1,1.9-0.5,2.4-0.9c-0.1,0.2,0.2,0.1,0.3,0.1
		c0.1,1-1.2,1-1.2,2.1c0.5,0.1,0.9,0.3,1.3,0.4c-0.2,1.1-1.8,0.6-1.7,2c0.2-0.1,0.5,0,0.6,0.2c-0.2,0.7-1.1,0.6-1.9,0.6
		c0.1,0.2-0.1,0.2-0.1,0.3c-1.4,0.2-1.7,1.4-2.6,2.1c0.6,0.2,1.1,0.4,1.7,0.6c0.3,0.9-0.8,1.8-0.1,2.6c0.3-0.1-0.1-0.4,0.2-0.5
		c0.1,0.1,0.2,0.2,0.4,0.3c-0.1,0.7-0.9,0.7-0.9,1.5c-0.2,0.1-0.4,0.2-0.6,0.4c-0.1,0.8-1.1,1-1,1.8c0.6,0.1,0.5-0.4,0.9-0.5
		c0.2,0.3,0.4-0.1,0.6,0.1c-0.4,0.6-0.6,1.4-1.3,1.7c0.1-1.1-0.8-1.2-1.3-1.4c-0.3-0.1-0.6,0-0.8-1c0.4,0,0.6,0,0.6,0
		c0-2,0-2.3,0-4.9c0,2.8-0.4,0.2-0.6,0.2c-0.2,0.5,0.4-1.5,0.1-1.1c-0.6-0.1-0.2-1.1-0.4-1.6c-0.3,0.1-0.3,0.5-0.6,0.6
		c-0.1-0.6-0.8-1.3-0.4-2c0.3-0.2,0.5,0.4,0.7,0.3c0.2-0.8,0.1-1.7-0.3-2.2c-0.2-0.3-0.6-0.4-0.5-0.8c0.1-0.5,1-0.1,1.2-0.4
		c-0.6-1.5-0.9-3.7-0.9-5.8c0-1.1,0.8-2.6-0.1-3c-0.1,1.6-0.9,3.2-0.6,4.8c-1.4,1.5-0.5,5.5-2,7c-0.4-0.3-0.8-0.6-1.1-1
		c-0.2,0.4-0.3,0.8-0.5,1.2l0,0c-0.4-0.7,0.1-1.8-0.2-2.5c-0.7-0.1-0.5,0.7-0.8,1c-0.4-0.6,0.4-0.9,0.3-1.6c-0.4-0.5-0.5-1.5-1-1.9
		c0.4-1-0.7-1.5-0.8-2.4c0.4-0.2,1-0.2,1.3-0.5c-0.4-0.3-0.4-1-0.6-1.7c-0.3-0.7-0.6-1.1,0.1-1.5c0.1,0.3,0.3,0.5,0.6,0.5
		c0.4-0.8-0.8-1.1-0.4-2.2c-0.3-0.8-0.6-1.3-0.6-2.1c0-0.7,0.4-1.3,0.5-2c0.1-0.9-0.4-1.3-0.4-1.9c0-0.8,0.8-2,0-2.8
		c-0.5,1.1-0.7,2.3-1.1,3.5c-0.4,1.2-0.6,2.4-0.9,3.5c0.3-0.1-0.1-0.4,0.9-0.5v1.5c-1,0.2-1,1-1.3,1.5c-0.2,0.3-0.8,0.4-0.5,0.8
		c0.3-0.1,0.6-0.1,0.9,0c-1.1,1.4-0.5,4.6-1.6,5.9c-0.5-0.8-0.7-2.1-1.2-2.9c0.9,0.1,0.6-1.1,0.7-1.7c0.3-0.2,0.6,0.1,0.8,0.1
		c-0.4-0.6-0.9-1.1-1.3-1.7c0.4-1.9-1.4-2.5-1.5-3.9c0.1,0.2,0.5,0.1,0.8,0.1c0.5-0.9-0.6-2.3,0-3.3c0.4,0.1,0.4,0.5,0.8,0.7
		c-0.2-1.1-0.2-2.4-0.6-3.3c-0.1-0.3-0.4-0.4-0.5-0.6c0-0.2,0.1-0.5,0.1-0.8c0.1-1-0.4-1.7-0.6-2.6c0.3,0.3,0.2,0.9,1,0.8
		c-1.4-2.6-0.6-7.3-0.6-10.6c-0.9,3.5-1.6,7.6-2.4,11.2c-0.3,1.3-0.3,2.7-0.8,3.8c-0.2,0.4-0.8,0.8-0.8,1.3c0.3,0.2,0.4-0.3,0.8-0.2
		c0.6,1.2-1.5,1.6-0.8,2.7c0.3,0,0.2-0.4,0.5-0.4c0.2,0.9-0.7,1.4-0.9,1.9c-0.1,0.3,0,0.6-0.1,0.9c-0.4,2.3-2.8,3.5-3.7,5.4
		c-0.1,0.3-0.1,0.6-0.4,0.8c-0.3-0.6,0.2-1,0.1-1.7c-0.2-0.1-0.3-0.2-0.4-0.2c0.1,0.3,0.1,0.6-0.1,0.8c-0.4,0-0.6-0.1-0.9-0.1
		c-0.2,0.2,0.1,0.8-0.1,1c-0.2-0.2-0.2-0.6-0.2-1c0-0.1,0.3,0,0.3-0.3c0-0.6,0.2-0.8,0.1-1.3c-0.1-0.8-0.9-1.2-0.9-1.6
		c0-0.5,0.7-0.9,0.8-1.4c0-0.5-0.5-1.3-0.5-2.1c-0.1-0.8,0.1-1.1,0.3-1.7c-0.8-1.4-1.8-3-1.9-4.8c0.4,0,0.6-0.5,0.6-0.8
		c-0.1-0.6-1.1-0.8-1-1.3c0.2-0.3,0.4,0,0.6-0.1c0.1-0.7-0.2-1-0.3-1.6c0.4-0.1,0.3,0.8,0.9,0.6c-0.4-0.6-0.6-1.3-1-1.9
		c0.8-0.9-1.1-2.8,0.5-3.4c-0.7-0.3-0.9-1.1-1.2-1.8c0.7,0,0.8,0.6,1.5,0.5c-1.8-1.8-0.3-5.4-0.8-8.2c0.3-0.5,0.5-1.9-0.1-2.2
		c-0.4,1.2-0.7,2.6-0.5,4.2c-0.8,0-1,0.6-1,1.4c0.4,0,0.5-0.1,0.8-0.2c-0.1,0.9-0.8,1.1-1.1,1.8c0.3,0.3,0.6,0.5,0.8,0.8
		c-0.2,0.1-0.5,0.3-0.7,0.5c-0.4,0.4-1,1.3-0.3,1.7c0.5,0,0.1-0.8,0.7-0.6c0.4,0.9-0.8,1.2-1.2,1.6c0,1.4,0.1,3-0.6,3.7
		c-0.3-0.5-0.3-1.3-0.8-1.7c0.2-0.6-0.4-1-0.5-1.3s0-0.6,0-0.8c-0.2-1-1.2-1.5-1.2-2.6c0.1-0.2,0.3,0.3,0.3-0.1
		c0.1-0.4,0.1-1,0.5-1.2c0.1,1,0.1,2,1.1,2.1c-0.1-0.2-0.3-0.4-0.2-0.6c0.4,0,0.9,0.1,1-0.1c-1.3-2.6-3-5.8-2.2-9.9
		c0.2,0,0.1,0.5,0.4,0.4c0.6-0.2,1-1,1.5-1c-0.5-1.2-0.9-2.5-1.3-3.8c0.1-0.3,0.3-0.2,0.3-0.5c0-1.1,0.3-2.1,0.3-2.6v-0.6
		c1,0,0.7,0.1,0.7-0.1c-0.2-1.3-0.3-2.4-0.2-4c1.6,0.1,1.2-2.3,0.8-3.2c1.1-1.2,1-4,0.8-6.1c-0.4,1.8-0.7,3.9-1.7,4.8
		c0.2-0.1,0.4-0.3,0.6-0.1c-0.2,0.4-0.5,0.2-0.8,0.4c-0.8,0.6-0.5,2-1.3,2.6c0.2,0,0.4,0,0.3,0.2c-0.2,0.6-0.7,1.5,0.1,1.7
		c-1,0.4-1.2,1.6-1.7,2.6c-0.3,0.6-0.7,1.1-1,1.6c-0.1-0.1-0.5-0.1-0.6,0.1c0.1,0.5-0.2,1.2,0.8,1v1c0,0,0.5,0,0.6,0.3
		c0,0.5-0.7,0.3-0.9,0.6c0,0.3,0.2,0.3,0.2,0.6c-0.5,0.3-0.8,1-0.6,1.8c-0.2,0.1-0.6,0.2-0.7,0.5c-0.1,0.2,0,0.5-0.1,0.8
		c-0.2,0.8-1.5,1.7-0.5,2.4c0.3-0.2,0.5-0.6,0.8-0.7c0,0.6,0.4,0.8,0.3,1.5c-0.3,0.4-1.1,0.3-1.1,1.1c0.3,0.1,0.6-0.2,0.7-0.1
		c-1.1,1.5-2.9,2.3-3.4,4.4c0.5-0.5,1.7-0.3,2.4-0.1c-0.7,0.4-1.1,1.3-1.6,1.9c-1.2-0.4-2,0.4-2.5,1c-0.3-0.5-0.1-1.5-0.4-1.9
		c0.2-0.5,0.6-1.9,0-2.2c-0.5,1.6-0.5,3.8-1.3,5c0,0,0-0.1-0.1-0.2c-0.3,2.4-0.7,4.9-1,7.2c0.1,0,0.1,0.1,0.2,0
		c0.1,0.7-0.4,1.1-0.1,1.7c-0.1,0-0.2,0-0.3,0c-0.2,1.6-0.4,2.9-0.5,3.8c0.1,0.3,0.1,0.7,0.3,0.9c0,0.2-0.3-0.1-0.4,0.1
		c0,0.1,0,0.1,0,0.1v-0.1c0-0.2,0.1-0.5,0.2-1c0-0.1-0.1-0.1-0.1-0.2c-0.4,0.2-0.2,0.5-0.6,0.5c-1,0.1-0.6-1.5-1-2.3
		c-0.1-0.3-0.4-0.2-0.4-0.5c0-0.8-0.4-1.1-0.8-1.5c0.2-0.4-0.2-1,0.4-1.2c0,0.2-0.3,0.3,0,0.5c0.4-0.1,0.3-0.6,0.9-0.5
		c0.2,0.2-0.1,0.9,0.2,1c0.3-0.5,0.1-1.5,0.6-1.7c0.2,0.6-0.3,1.7,0.2,2.1c0.3,0,0.2-0.4,0.5-0.4c0.1,0.3,0.1,0.7,0.3,0.9
		c0-0.2,0.1-0.3,0.3-0.3c0.1-0.6,0.2-1.1,0.2-1.8c-0.1-0.1-0.2-0.3-0.4-0.3c0.3-0.1,0.3-0.2,0.3-0.4c0.4-1.5-1.4-2.8-1.6-4
		c0.2,0,0.3,0.3,0.4,0.1c-0.2-1.2-1.3-1.7-1.5-2.9c0.3,0,0.6,0.4,0.8,0.1c-0.5-0.4-1.2-0.9-1.3-1.4c0.4-0.1,0.8,0.7,1,0.1
		c-0.1-0.2-0.5-0.1-0.6-0.3c0-0.3,0.3-0.1,0.4-0.3c-0.7-0.4-1.6-1.5-1-2.6c0,0.5,0.1,0.8,0.5,1c0.1-1.8-1.6-2.8-1-4.5
		c0.6,0.6,1,2.1,2.1,1.6c-0.2-0.4-0.5-1.1-0.4-1.5c0.2-0.1,0.4,0,0.6,0c-0.4-0.9-1.2-1.8-0.8-2.5c-0.4-0.5-0.8-1-1.1-1.5
		c0-0.3,0.4-0.1,0.4-0.5c-0.2-0.4-0.5-0.4-0.6-0.8c-0.5-1,0-2.7-0.7-3.5c0.3,0,0.4,0.6,0.6,0.4c0.3-0.7-0.5-0.8-0.4-1.5
		c0.9,0.1,0.2,1.7,1.1,1.9c0-0.2-0.1-0.6,0.1-0.8c0.6,0.9,1.4,2,1.8,3.1c0.2-0.1-0.3-0.4,0.7-0.4v0.4c-1,0.5-1.4-1-2-0.9
		c-0.3,0-0.6,0.5-0.7,1c0.7,0.2,1.8,0.4,2.4,0.3c0.1,0.1,0.1,0.2,0.1,0.4c0.2-0.1,0.2-0.4,0.5-0.4c0.3,0.4,0.4,1,1.1,1
		c-0.8-2.7-2.3-4.6-3.7-6.7c0.6-0.1-0.3-0.5,0.1-0.7c0.4,0.1,0.8,0.2,1.1,0.4c0-0.8-0.5-1.1-1-1.4c-0.1-0.3,0.3,0,0.3-0.2
		c0-0.4-0.4-0.4-0.5-0.8c0.4-0.1-0.4-1,0.2-1.1c0.5,1,1.8,1.2,2.8,1.6c-0.3-1.2-1.2-1.6-1.6-2.6c0.3-0.5,1.3-0.6,1.2-1.4
		c-0.1-0.5-0.7-0.4-1.1-0.8c-0.1-0.7-0.7-0.8-0.9-1.3c0.3,0,0.8,0.3,1,0c-0.2-0.7-0.9-0.9-1-1.6c0.4,0,0.7,0,0.8-0.3
		c-0.2-0.7-0.8-1-1-1.7c0.3-0.1,0.9,0,0.9-0.4c0.4,0.6,0.9-0.3,1.3-0.4c-0.3,0-0.3-0.3-0.5-0.3c-0.1-1.5-2.3-1.3-2.2-2.8
		c1,0,1.9,0.4,3,0.2c0-0.8-1.3-0.5-1.1-1.5c-0.8-0.2-1.8-0.8-1.4-1.8c0.4,0.3,1.4,0.4,1.9,0.2c0-1.6-1.4-1.9-1.5-3.4
		c0.3-0.2,0.5-0.5,0.8-0.7c-0.1-0.7-0.7-0.8-0.8-1.5c0.6,0,0.7,0.8,1.1,0.7c0.2-1-0.8-1.8-1.1-2.8c0-0.2,0.3,0,0.3-0.1
		c-0.7-1,0.3-2.6,0.5-3.7c0.3,0,0.8,0.1,1-0.1c-0.3-0.9-1.4-0.2-2.4-0.3c-0.3,0-0.4-0.3-0.7-0.1c0.1,0.6,0.8,0.3,1,1
		c0,0.2-0.2,0.7-0.3,1.2c-0.3,1-0.6,1.9-1.5,1.9c0,0.3,0,0.5-0.1,0.6c-0.1,0.2-0.5,0.1-0.7,0.3c0.1,0.3,0.4,0.5,0.8,0.5
		c0.3,0,0.6-0.4,0.8-0.1c0.3,0.4-0.6,0.2-0.4,0.6c-0.2,0-0.4,0-0.6,0.1c-0.1,0.3-0.2,0.6-0.4,0.9c0.1,0.2,0.6,0.1,0.8,0.2
		c-0.2,0.3-0.5,0.4-0.6,0.8c-0.5,0-0.7,0.2-0.8,0.5c0.3,0,0.4,0.1,0.5,0.3c0,0.5-0.1,0.8-0.3,1.1c0.5,0,0.9,0.4,1.4,0.1
		c-0.1,1.2-1.6,1.1-2.6,1.5c-0.1,0.4,0.4,0.1,0.4,0.4c-0.2,0.6-1.1,0.6-1,1.5c0.9-0.1,1.2,0.3,1.6,0.7c-0.4,0.2-1-0.4-1.3,0.1
		c0.3,0.1,0.6,0.2,0.5,0.7c0.1,0.3-0.3,0-0.3,0.2c0.2,0.6-0.4,0.7-0.3,1.3c-0.7-0.2-0.4,0.6-1,0.6c0.2,0.2,0.2,0.7,0.4,0.8
		c0.5,0.1,0.5-0.7,0.9-0.5c0,0.4-0.4,0.3-0.5,0.5c0.1,0.2,0.6,0.1,0.5,0.4c-0.5,0.6-2.2,0.3-1.8,1.6c1,0.3,1.2-1.1,2-0.9
		c-0.2,1.2-1.7,1.7-2.3,2.6c0.1,0.7,1.2-0.1,1.3,0.5c-0.7,0.5-1.6,0.8-2.5,1.1c0.1,0.2,0.5,0,0.4,0.4c-0.9,0.1-1.1,0.9-1.9,1.2
		c0.1,0.2,0.2,0.3,0.3,0.4c0.2,0,0.2-0.3,0.5-0.3c0.1,0.3,0.4,0.7,0.3,1c-0.7,0.3-1.2,0.8-1.9,1.2c0.6,0.6,1.1-0.6,1.6-0.4
		c-0.4,0.4-0.6,1.2-0.5,1.9c-0.9,1.2-2.6,1.9-3.4,3c1-0.1,1.9-0.5,2.4-0.9c-0.1,0.2,0.2,0.1,0.3,0.1c0.1,1-1.2,1-1.2,2.1
		c0.5,0.1,0.9,0.3,1.3,0.5c-0.2,1.1-1.8,0.6-1.7,2c0.2-0.1,0.5,0,0.6,0.2c-0.2,0.7-1.1,0.6-1.9,0.6c0.1,0.2-0.1,0.2-0.1,0.3
		c-1.1,0.2-1.5,1-2.1,1.6c0,0.2,0,0.5,0,0.7c0.4,0.2,0.8,0.3,1.3,0.5c0.3,0.9-0.8,1.8-0.1,2.6c0.3-0.1-0.1-0.4,0.2-0.5
		c0.1,0.1,0.3,0.2,0.4,0.3c-0.1,0.7-0.9,0.7-0.9,1.5c-0.2,0.1-0.4,0.2-0.6,0.4c-0.1,0.4-0.4,0.6-0.6,0.9c0,0.3,0,0.6-0.1,0.9
		c0.3-0.1,0.3-0.5,0.6-0.5c0.2,0.3,0.4-0.1,0.6,0.1c-0.4,0.6-0.6,1.4-1.3,1.7c0-0.1,0-0.6,0.1-1.3c-0.1,0-0.2,0-0.3,0
		c-0.1-0.4,0.1-0.7,0.3-0.9c0.1-1.4,0.2-3.4,0.3-5.6c-0.2-0.1-0.3-0.1-0.5-0.2c0.2-0.1,0.3-0.3,0.5-0.5c0.4-7.8,0.9-18,0.5-18.2
		s-0.8-0.6-0.8-1c0,0,0.2-0.2,0.1-0.3c-0.1-0.2,0.1-0.4,0-0.8c-0.1-0.7-0.9-1.1-1.2-1.9c0.9-0.3-0.1-1.1-0.3-1.3
		c-0.1-0.2,0-0.4-0.1-0.5c-0.2-0.4-0.8-0.6-0.8-1c0.1-0.2,0.3-0.3,0.3-0.6c-0.2-0.4-0.8-1-0.6-1.5c-0.7-0.7-1.5-1.3-2.3-2
		c-0.2,0.4-0.3,0.8-0.5,1.2l0,0c0,0.1-0.1,0.1-0.1,0.2c-0.9-1.3-1.7-2.7-2.2-4.2c0.5-0.8,2.3-0.5,2.9-1.2c-0.8-1-1.6-2-2.6-2.7
		c2.6-2.5-2.5-6.8-0.8-9.1c-1.5-0.6-1.8-2.3-2.5-3.6c-0.1,2.7-1.8,5.5-0.5,7.9c-0.4,0.8-0.9,1.6-1.3,2.4c0.4-0.1,0.8-0.2,1.2-0.4
		c0.3,0.1,0,0.2,0,0.4c0.1,0.2,0.5,0,0.6,0.1c-0.2,0.3-0.5,0.5-0.8,0.6c-0.4,0-0.5-0.4-1-0.3c0.3,1-1.4,1.1-1.5,2.2
		c1.3,0.3,1.1,2.1,2.7,2.2c-0.4,1.5-1,2.7-1.6,3.9c0.3,0.6,1.1,0.7,1.2,1.5c0,0.3-0.3,0.9-0.5,1.5c-0.4,1.3-0.9,2.9-1.7,3.5
		c-0.6-0.5-0.1-2-0.6-2.6c-0.1,0.5-0.1,1.2-0.6,1.3c-1.7-2.2-2.3-5.5-4.5-7.1c-0.7-3.6-1.3-7.3-2.7-10.2c-0.9,2.8,1.1,5.8,0.1,8.5
		c-0.2-0.9-0.2-2-0.7-2.6c-0.7,0.3-0.6,2.2-1.4,2.2c-0.7,0-1.2-3-1.3-3.8c-0.3-1.8-0.6-3.1-1-4c-0.6,1.5,0.3,4.5-1,5.3
		c-1-0.7-1-2.4-1.3-3.8c-0.2,0.7-0.2,1.6-0.7,2.1c-0.5-2-0.5-4.6-1-6.6c-0.2,1.3-0.6,2.5-1,3.6c-0.8-0.3,0.1-1.7-0.4-2.3
		c-0.3-0.1-0.4,0-0.7,0c-0.3,0.1-0.2,0.7-0.4,1c-0.2-0.7-0.6-1.2-1.1-1.6c0.1-0.4,0.6-0.4,0.7-0.8c-0.2-0.8-0.8-2.2-0.1-2.9
		c-0.7-1.2-2.3-3.4-0.6-4.7c-1.5-0.4-1.1-2.3-1.5-4.3c-0.2-1.1-0.3-3-0.6-4.2c-0.5,0.7-0.5,1.5-0.4,2.5c0.1,0.4,0.4,0.7,0.4,1
		c0.4,2.8-1.6,6.3,0.3,8.5c-0.4,0.5-1.2,0.7-1.4,1.5c-0.2,0.7,0.1,1.5-0.6,1.9c-0.8-0.6-1.5-1.7-1.6-3.1c-0.2-1.7,0.3-3.7-0.8-4.6
		c0.2,1.9-0.8,2.5-0.6,4.3c-1.8-0.9-1.9-3.6-3.1-5.2c-0.2-2.2-2.6-3.7-1.4-6c0.5,0.8,1.4,1.2,2.3,1.6c0.1-1.9-1.2-3.1-1.9-4.4
		c0.4,0.2,0.7,1.2,1.6,1.1c-1.2-3.2-5-3.8-5.6-7.6c0-0.2-0.3-0.1-0.3-0.2c0.2-0.9-0.7-1.2-0.2-1.9c0.6,0,1,0.5,1.7,0.3
		c0.6-0.1,0.8-0.8,1.3-1c0.4-0.1,0.3,0.3,0.6,0.2c0.3-0.5,0.4-0.9,0.4-1.4c0-1.2-1.2-1.4-1.9-2.4c-0.1-0.2-0.2-0.6-0.4-0.9
		c-0.6-0.9-1.8-1.4-1.7-2.2c0.1-0.8,1.1-0.6,1.5-1.2c0-0.7-0.8-1.5-0.1-1.9c0.1,0.5,0.2,1.1,1,1c-0.3-2.8-2.7-4.2-3-7.3
		c0.8,0.2,1.1,1.5,2.3,1.1c-0.2-0.8-1.1-1.7-1.2-2.8c-1.2-0.9,0.4-2.1,0-3.4c0.8-0.2,0.7,0.6,1.2,0.6c-0.1-1-0.9-1.8-1.2-2.8
		c0.9-1.1-0.8-3.4,0.9-3.8c-0.4-0.6-1.3-0.8-1.5-1.8s0.2-2.1-0.1-3.2c1.2,0.2,1.8,2.1,3.7,1.6c-0.8-2.1-4.1-2.9-3.1-6
		c0.4,0.2,0.4,0.8,0.8,1c2-1,0.4-3.6,0.2-5.5c-0.1-0.7,0-1.4,0-2.1c0.5-0.8,0.3-1.9,0.3-3.1c-0.8,0.4-0.9,1.3-1,2.6
		c-0.1,1.3-1,1.9-1,3.5c-0.5,0.9-2,1.1-1.7,2.6c0.6,0.1,0.7-0.4,1.3-0.3c0.7,1.5-0.4,2.3-1.3,2.8c0.1,0.3,0.6,0.1,0.6,0.4
		c0.1,0.3-0.1,0.3-0.1,0.6c-0.9,0.4-2.2,0.5-2.5,1.5c0.5,0.8,0.9,1.5,1.9,1.8c-2.1,1.5-1,6.2-3,7.7c0.3,0.7,1.1-0.1,1.5,0.1
		c-0.1,1.4-1,2.8-1.6,4c-0.6,0.1-0.6-0.4-1.2-0.3c0.4-2-2.2-1.6-2.7-3c0.2,0.1,0.4,0.2,0.8,0.2c-0.1-0.8-0.7-1.1-0.9-1.8
		c0.4,0,0.8,0.7,1.3,0.8c0.3-0.1,0.3-0.5,0.4-0.9c0.4,0.5,1.5,0.6,2.3,0.3c-1.1-0.7-1.5-2.6-3.4-2.7c-1.1-1.1-2.2-2.4-3.4-3.6
		c-0.4-0.3-0.9-0.7-0.7-1.2c0.9,0.4,1.8,1.5,2.9,2.1c0.3-0.5-0.2-0.9-0.3-1.3c1.1,0.4,1.7,2,3.3,1.4c-2.7-1.8-4.2-4.8-5.3-8.1
		c0.5-1.1-0.1-1.7-0.6-2.4c-0.3-0.4-0.5-1-0.7-1.4c-1-1.8-2.3-3.6-2.2-6.8c0-0.8,0.2-1.9,0.7-2.6c0.1-0.2,0.6-0.4,0.7-0.8
		c0.3-1.5-1.7-2.3-1.3-3.9c0.1-0.2-0.4,0.1-0.3-0.2c0.2-1.9-0.6-3.9,0.2-5.2c0.1,1,0.5,1.6,1.6,1.6c0.3-0.1-0.1-1,0.2-1.2
		c0.8-0.1,0.5,1,1.4,0.8c0.3-0.9-1.2-1.1-1-1.9c0.9,0.2,1.4,0.9,1.9,1.6c0.4,0.6,0.8,1.7,1.8,1.5c0.2-0.2-0.2-0.5-0.2-0.8
		c-0.1-1.7,0.5-2.6,1.6-3.1c-1.2-0.5-2.4-1-3.2-1.9c0.3-0.1,1.4,0.6,1.7-0.1c-1.1,0.2-1.3-1-1.9-1.3c-0.4-0.2-1.1,0.1-1.4-0.6
		c0.1-0.4,1.1,0.2,1.3-0.2c-0.7-1.8-2.3-3.5-2.4-5.7c0-0.8,0.1-1.5,0.3-2.3c0.6,0.4,0.9,1.1,1.7,1.3c0.4-2.6-0.2-4.8-1.3-6.2
		c0.3-0.3,0.9-0.3,1.3-0.2c-1.7-3.1-0.3-6.8-0.2-10.6c-1.1,0.6-1.7,2-1.6,3.5c0,0.4,0.2,0.9,0.2,1.3c-0.1,0.9-1.4,1.9-2,2.6
		c-0.8,0.8-1.7,1.3-2.4,2.2c0,0.6,1,0.1,1.1,0.5c-0.3,0.1-0.1,0.6-0.4,0.9c-0.4,0.5-1.7,0.8-1.6,1.8c0,0.3,0.2,0.5,0.6,0.6
		c0.9,0.1,0.5-0.8,1.4-0.9c-0.3,2.2-2.3,3.4-2.9,5.5c-0.3-0.4-0.7-0.8-1.1-1.3l-0.3-3.2c0.1,0.3,0.3,0.5,0.6,0.6
		c0.6-0.1,0.2-0.7,0.2-1.1c-0.1-0.5,0-1-0.2-1.5c-0.2-0.3-0.5-0.4-0.7-0.5l-0.1-1.4c0.2-0.2,0.4-0.3,0.6-0.5
		c0.7,0.2,0.8,1.2,0.7,1.9c0.5-0.2,0.9-0.1,1.4,0.4c0.5-0.1,0.4-0.9,1-0.5c-0.2-1.2-0.7-2.1-1.2-3c0.1-0.2,0.6,0.3,0.8,0
		c0.4-1-0.4-1.9-0.9-2.6c-1.5-2.2-3.1-4.3-3.4-7.7l3.4-20.9L479,213v-27v-24.5L466.5,149h-22.1l-12.9-29.2L357.6,133l0.1-0.4
		c0,0.2-0.1,0.4-0.1,0.5l-13.4,2.4l-2.1,5.6l-9.1,3.7c0,0.3,0.2,0.6,0.2,0.9c0,1.5-1.5,2.8-2.2,3.6c-0.6-2.1-2.6-3.3-2.9-5.5
		c0.9,0,0.5,1,1.4,0.9c0.4,0,0.5-0.3,0.6-0.6c0.1-1-1.2-1.3-1.6-1.8c-0.3-0.3-0.1-0.8-0.4-0.9c0.2-0.4,1.2,0.1,1.1-0.5
		c-0.7-0.8-1.6-1.4-2.4-2.2c-0.7-0.7-1.9-1.7-2-2.6c-0.1-0.4,0.2-0.9,0.2-1.3c0-1.6-0.5-3-1.6-3.5c0,3.8,1.4,7.6-0.2,10.6
		c0.4-0.1,1-0.1,1.3,0.2c-1.1,1.4-1.7,3.6-1.3,6.2c0.8-0.2,1.1-0.9,1.7-1.3c0.2,0.8,0.4,1.5,0.3,2.3c-0.1,2.3-1.7,4-2.4,5.7
		c0.2,0.4,1.1-0.1,1.3,0.2c-0.2,0.6-0.9,0.3-1.4,0.6c-0.6,0.3-0.9,1.5-1.9,1.3c0.3,0.7,1.4,0,1.7,0.1c-0.8,0.9-2,1.4-3.2,1.9
		c1.1,0.5,1.7,1.4,1.6,3.1c0,0.3-0.5,0.6-0.2,0.8c1,0.2,1.3-0.9,1.8-1.5c0.5-0.7,1-1.5,1.9-1.6c0.2,0.8-1.2,1.1-1,1.9
		c0.9,0.2,0.6-0.9,1.4-0.8c0.4,0.2,0,1.1,0.2,1.2c1.1,0,1.5-0.6,1.6-1.6c0.8,1.3,0,3.3,0.2,5.2c0.1,0.2-0.4-0.1-0.3,0.2
		c0.4,1.6-1.6,2.4-1.3,3.9c0.1,0.4,0.6,0.6,0.7,0.8c0.5,0.7,0.7,1.8,0.7,2.6c0.2,3.1-1.1,5-2.2,6.8c-0.2,0.4-0.4,0.9-0.7,1.4
		c-0.5,0.8-1.2,1.3-0.6,2.4c-1.2,3.3-2.7,6.3-5.3,8.1c1.6,0.6,2.2-1,3.3-1.4c-0.1,0.4-0.6,0.8-0.3,1.3c1.1-0.5,2-1.7,2.9-2.1
		c0.1,0.5-0.4,0.9-0.7,1.2c-1.2,1.1-2.3,2.5-3.4,3.5c-1.9,0.1-2.3,2.1-3.4,2.7c0.8,0.3,1.9,0.2,2.3-0.3c0.1,0.4,0.1,0.8,0.4,0.9
		c0.5-0.1,0.9-0.8,1.3-0.8c-0.2,0.7-0.8,1-0.9,1.8c0.4,0,0.6-0.1,0.8-0.2c-0.4,1.4-3,1-2.7,3c-0.6-0.1-0.6,0.4-1.2,0.3
		c-0.6-1.2-1.5-2.5-1.6-4c0.4-0.2,1.2,0.7,1.5-0.1c-2-1.6-0.9-6.3-3-7.7c1-0.2,1.5-1,1.9-1.8c-0.3-1-1.6-1-2.5-1.5
		c0-0.3-0.1-0.3-0.1-0.6s0.6-0.1,0.6-0.4c-0.9-0.5-2-1.3-1.3-2.8c0.6,0,0.6,0.4,1.3,0.3c0.3-1.4-1.2-1.7-1.7-2.6
		c-0.1-1.5-0.9-2.1-1-3.5c-0.1-1.3-0.2-2.2-1-2.6c0,1.2-0.2,2.3,0.3,3.1c0,0.7,0.1,1.3,0,2.1c-0.2,1.9-1.7,4.5,0.2,5.5
		c0.4-0.1,0.4-0.8,0.8-1c1,3.1-2.3,3.9-3.1,6c1.9,0.5,2.5-1.4,3.7-1.6c-0.3,1.1,0.1,2.2-0.1,3.2c-0.2,0.9-1.1,1.1-1.5,1.8
		c1.7,0.4,0,2.7,0.9,3.8c-0.3,1-1.1,1.9-1.2,2.8c0.5-0.1,0.4-0.8,1.2-0.6c-0.4,1.3,1.2,2.4,0,3.4c-0.1,1.1-1,2-1.2,2.8
		c1.2,0.4,1.4-0.9,2.3-1.1c-0.2,3.1-2.7,4.5-3,7.3c0.8,0.2,0.9-0.4,1-1c0.7,0.5-0.1,1.2-0.1,1.9c0.4,0.6,1.4,0.5,1.5,1.2
		c0.1,0.8-1.1,1.3-1.7,2.2c-0.2,0.2-0.3,0.7-0.4,0.9c-0.8,1-1.9,1.2-1.9,2.4c0,0.4,0.2,0.8,0.4,1.4c0.3,0,0.2-0.3,0.6-0.2
		c0.5,0.2,0.7,0.9,1.3,1c0.7,0.2,1.1-0.3,1.7-0.3c0.5,0.6-0.4,1-0.2,1.9c0,0.2-0.4,0-0.3,0.2c-0.6,3.8-4.4,4.4-5.6,7.6
		c0.9,0,1.2-0.9,1.6-1.1c-0.7,1.3-2.1,2.5-1.9,4.4c0.9-0.4,1.9-0.8,2.3-1.6c1.2,2.3-1.2,3.9-1.4,6c-1.1,1.6-1.2,4.3-3.1,5.2
		c0.2-1.8-0.9-2.4-0.6-4.3c-1.1,0.9-0.6,2.9-0.8,4.6c-0.2,1.4-0.8,2.4-1.6,3.1c-0.7-0.4-0.4-1.2-0.6-1.9s-1-1-1.4-1.5
		c1.9-2.2-0.1-5.6,0.3-8.5c0-0.3,0.3-0.7,0.4-1c0.1-1,0.1-1.8-0.4-2.5c-0.3,1.2-0.4,3.1-0.6,4.2c-0.3,2,0,3.8-1.5,4.3
		c1.7,1.3,0,3.4-0.6,4.7c0.7,0.7,0.1,2.1-0.1,2.9c0.1,0.4,0.6,0.4,0.7,0.8c-0.5,0.4-1,0.9-1.1,1.6c-0.2-0.2-0.1-0.8-0.4-1
		c-0.3,0-0.5-0.1-0.7,0c-0.5,0.6,0.4,2-0.4,2.3c-0.4-1.1-0.8-2.3-1-3.6c-0.5,2-0.5,4.6-1,6.6c-0.5-0.4-0.5-1.4-0.7-2.1
		c-0.3,1.4-0.3,3.1-1.3,3.8c-1.3-0.8-0.4-3.8-1-5.3c-0.5,1-0.7,2.2-1,4c-0.1,0.8-0.6,3.8-1.3,3.8c-0.8,0-0.6-1.9-1.4-2.2
		c-0.5,0.6-0.5,1.7-0.7,2.6c-1-2.6,1-5.6,0.1-8.5c-1.4,2.9-2,6.6-2.7,10.2c-2.2,1.6-2.9,4.9-4.5,7.1c-0.5-0.1-0.5-0.8-0.6-1.3
		c-0.5,0.5,0,2.1-0.6,2.6c-0.8-0.6-1.3-2.2-1.7-3.5c-0.2-0.5-0.5-1.1-0.5-1.5c0.1-0.7,0.9-0.8,1.2-1.5c-0.6-1.2-1.3-2.4-1.6-4
		c1.6,0,1.3-1.9,2.7-2.2c-0.1-1.1-1.8-1.2-1.5-2.2c-0.5-0.1-0.5,0.3-1,0.3c-0.3-0.2-0.6-0.4-0.8-0.6c0.2,0,0.6,0.1,0.6-0.1
		c0-0.2-0.3-0.3,0-0.4c0.4,0.2,0.8,0.3,1.2,0.4c-0.4-0.9-0.9-1.6-1.3-2.4c1.3-2.4-0.4-5.2-0.5-7.9c-0.7,1.3-1,3.1-2.5,3.6
		c1.7,2.3-3.4,6.6-0.8,9.1c-1,0.8-1.8,1.7-2.6,2.7c0.6,0.7,2.4,0.4,2.9,1.2c-0.8,2-2.2,4.1-3.4,5.8c-0.4,0.6-1.1,1.1-1.1,1.9
		c0.8,0.3,0.9-0.8,1.6-0.9c0.5,1.3-1.1,1.6-1.4,2.7c0.1,0,0.1,0,0.2,0c-0.4,0.4-1,0.7-1.5,1.1c-0.1-0.1-0.6-0.1-0.6-0.2
		c0,0.2,0,0.4,0,0.5c0,0.2-0.2,0.3-0.4,0.5c0.1,0.6-0.3,1.1-0.5,1.5c0,0.3,0.2,0.4,0.3,0.6c0,0.3-0.5,0.5-0.7,1
		c-0.1,0.1,0,0.4-0.1,0.5c-0.1,0.2-1.2,1-0.3,1.3c-0.3,0.8-1.1,1.3-1.2,1.9c-0.1,0.4,0.1,0.5,0,0.8c0,0.1,0.1,0.3,0.1,0.3
		c-0.1,0.5-0.4,0.8-0.8,1c-0.5,0.2-1.4,0.1-1.3,1.2c-0.7-0.3-0.9-1.1-1.3-1.7c0.2-0.2,0.4,0.2,0.6-0.1c0.4,0.1,0.3,0.6,0.9,0.5
		c0.2-0.8-0.8-1-1-1.8c-0.2-0.2-0.4-0.3-0.6-0.4c0-0.8-0.8-0.8-0.9-1.5c0.1-0.1,0.2-0.2,0.4-0.3c0.3,0-0.1,0.4,0.2,0.5
		c0.7-0.7-0.4-1.7-0.1-2.6c0.6-0.2,1.2-0.4,1.7-0.6c-0.9-0.7-1.2-1.9-2.6-2.1c-0.1-0.1-0.2-0.1-0.1-0.3c-0.8,0-1.8,0.1-1.9-0.6
		c0.1-0.2,0.4-0.3,0.6-0.2c0.1-1.3-1.5-0.9-1.7-2c0.5-0.1,0.8-0.4,1.3-0.4c0-1.1-1.3-1.1-1.2-2.1c0.1,0,0.4,0.1,0.3-0.1
		c0.5,0.4,1.4,0.8,2.4,0.9c-0.8-1.1-2.5-1.8-3.4-3c0.1-0.7-0.1-1.5-0.5-1.9c0.5-0.1,1,1.1,1.6,0.4c-0.7-0.3-1.2-0.8-1.9-1.2
		c-0.2-0.4,0.2-0.7,0.3-1c0.3,0,0.3,0.2,0.5,0.3c0.1-0.2,0.2-0.3,0.3-0.4c-0.7-0.3-0.9-1.1-1.9-1.2c-0.1-0.3,0.3-0.2,0.4-0.4
		c-0.9-0.3-1.8-0.6-2.5-1.1c0.2-0.6,1.3,0.2,1.3-0.5c-0.7-0.9-2.1-1.5-2.3-2.6c0.8-0.2,1,1.2,2,0.9c0.4-1.3-1.3-1.1-1.8-1.6
		c-0.1-0.4,0.4-0.3,0.5-0.4c-0.1-0.2-0.5-0.2-0.5-0.5c0.4-0.2,0.4,0.6,0.9,0.5c0.2-0.2,0.1-0.7,0.4-0.8c-0.6,0-0.3-0.7-1-0.6
		c0.1-0.6-0.6-0.7-0.3-1.3c0-0.2-0.4,0.1-0.3-0.2c-0.1-0.5,0.2-0.6,0.5-0.7c-0.3-0.5-0.9,0.1-1.3-0.1c0.4-0.4,0.7-0.8,1.6-0.7
		c0.1-0.9-0.8-0.9-1-1.5c0-0.3,0.5,0,0.4-0.4c-1-0.4-2.5-0.3-2.6-1.5c0.4,0.3,0.9-0.1,1.3-0.1c-0.1-0.3-0.3-0.6-0.3-1.1
		c0.1-0.1,0.2-0.3,0.5-0.3c-0.1-0.3-0.3-0.5-0.8-0.5c-0.1-0.3-0.4-0.5-0.6-0.8c0.2-0.1,0.6,0,0.8-0.2c-0.2-0.2-0.3-0.6-0.4-0.9
		c-0.2-0.1-0.3-0.1-0.6-0.1c0.1-0.4-0.7-0.2-0.5-0.6c0.1-0.2,0.4,0.1,0.8,0.1c0.4,0,0.6-0.2,0.8-0.5c-0.2-0.1-0.6-0.1-0.7-0.3
		c-0.1-0.2-0.2-0.4-0.1-0.6c-1,0-1.3-1-1.5-1.9c-0.1-0.5-0.4-1-0.3-1.2c0.1-0.6,0.9-0.4,1-1c-0.3-0.3-0.4,0-0.7,0.1
		c-0.9,0.1-2-0.6-2.4,0.3c0.2,0.1,0.7,0,1,0.1c0.2,1.1,1.2,2.7,0.5,3.7c0,0.2,0.3,0,0.3,0.1c-0.3,1-1.3,1.8-1.1,2.8
		c0.4,0.1,0.5-0.7,1.1-0.7c-0.1,0.7-0.7,0.8-0.8,1.5c0.2,0.2,0.4,0.5,0.8,0.7c-0.2,1.5-1.5,1.8-1.5,3.4c0.6,0.2,1.5,0.1,1.9-0.2
		c0.4,1-0.6,1.6-1.4,1.8c0.2,1-1.1,0.7-1.1,1.5c1,0.2,2-0.2,3-0.2c0.1,1.6-2.1,1.3-2.2,2.8c-0.2,0.1-0.2,0.4-0.5,0.3
		c0.4,0.1,0.9,1,1.3,0.5c0,0.4,0.6,0.3,0.9,0.4c-0.2,0.7-0.9,0.9-1,1.7c0.1,0.3,0.4,0.3,0.8,0.3c-0.1,0.7-0.8,0.9-1,1.6
		c0.2,0.3,0.7,0,1,0c-0.2,0.6-0.8,0.7-0.9,1.3c-0.4,0.3-1,0.3-1.1,0.8c-0.1,0.7,0.9,0.8,1.2,1.3c-0.4,1-1.3,1.5-1.6,2.6
		c1-0.4,2.3-0.6,2.8-1.6c0.6,0.1-0.2,1,0.2,1.1c-0.1,0.3-0.5,0.4-0.5,0.8c0,0.2,0.4-0.1,0.3,0.2c-0.4,0.3-0.9,0.6-1,1.4
		c0.3-0.2,0.7-0.3,1.1-0.4c0.3,0.2-0.5,0.6,0.1,0.7c-1.3,2.1-2.9,4-3.7,6.7c0.7,0,0.8-0.6,1.1-1c0.3,0,0.3,0.3,0.5,0.4
		c0-0.2,0-0.4,0.1-0.5c0.7,0.2,1.8-0.1,2.5-0.3c-0.1-0.5,0-0.9-0.4-1c-0.6-0.1-1.6,1.4-1.6,0.9v-0.4c0,0,0,0.4,0.2,0.4
		c0.4-1.2,0.9-2.2,1.5-3.1c0.1,0.1,0,0.5,0,0.8c0.9-0.1,0.2-1.8,1.1-1.9c0.1,0.7-0.7,0.8-0.5,1.5c0.3,0.2,0.3-0.4,0.6-0.4
		c-0.7,0.8-0.2,2.5-0.7,3.5c-0.2,0.4-0.5,0.5-0.6,0.8c0,0.3,0.4,0.1,0.4,0.4c-0.6,1.3-2,2.2-2.7,3.7c-0.2,0.1-0.5,0.2-0.6,0.6
		c-0.8,0.1-1.1,0.6-1.3,1.3c1.4,0.1,2.1-1.8,3.3-1.5c0.1,0.5-0.3,1.1-0.5,1.5c1.1,0.5,1.6-1,2.1-1.6c0.6,1.7-1.1,2.7-1,4.5
		c0.4-0.1,0.5-0.5,0.5-1c0.6,1.1-0.3,2.2-1,2.6c0.1,0.2,0.4,0,0.4,0.3c-0.1,0.2-0.6,0.1-0.6,0.3c0.2,0.6,0.5-0.2,1-0.1
		c-0.1,0.6-0.8,1-1.3,1.4c0.2,0.3,0.5-0.1,0.8-0.1c-0.3,1.2-1.3,1.7-1.5,2.9c0.1,0.2,0.2-0.2,0.4-0.1c-0.2,1.3-2,2.5-1.6,4
		c0,0.2,0,0.3,0.3,0.4c-0.3,0.1-0.3,0.4-0.6,0.4c-0.1,0.7,0.4,1.1,0.1,1.7c0.2-0.1,0.6-0.1,0.6,0.3c0.3-0.2,0.2-0.6,0.3-0.9
		c0.3,0,0.2,0.4,0.5,0.4c0.5-0.4,0-1.5,0.2-2.1c0.6,0.2,0.3,1.3,0.6,1.7c0.3-0.1,0-0.8,0.2-1c0.6-0.1,0.5,0.4,0.9,0.5
		c0.3-0.1,0-0.2,0-0.5c0.6,0.2,0.2,0.8,0.4,1.2c-0.4,0.4-0.8,0.8-0.8,1.5c-0.1,0.3-0.3,0.2-0.4,0.5c-0.4,0.8,0,2.4-1,2.3
		c-0.4,0-0.2-0.3-0.6-0.5c-0.3,0.2-0.2,0.8-0.4,1.1c0,0.2,0.4-0.2,0.4,0.2c-0.1,0.7-0.9,0.7-1.2,1.2c0.3,0.9,0.3,2.1,0.5,3
		c0.6-0.1,0.5-1,1.3-1c0.2,1.2-1.1,2.5,0,3.2c-0.9,0.7-0.5,1.9,1,1.6c-0.3,0.6,0.1,1.5-0.4,1.9c-0.4,0-0.4-0.4-0.4-0.8
		c-0.6,0.5-0.1,2-0.5,2.6c-0.9-1.2-0.8-3.4-1.3-5c-0.6,0.4-0.2,1.7,0,2.2c-0.4,0.4-0.2,1.4-0.4,1.9c-0.5-0.7-1.3-1.4-2.5-1
		c-0.5-0.7-0.9-1.5-1.6-1.9c0.7-0.2,1.9-0.5,2.4,0.1c-0.5-2.1-2.4-2.8-3.4-4.4c0.1-0.1,0.4,0.2,0.7,0.1c0.1-0.8-0.8-0.7-1.1-1.1
		c-0.1-0.7,0.3-0.9,0.3-1.5c0.4,0.1,0.5,0.5,0.8,0.7c1-0.7-0.3-1.6-0.5-2.4c-0.1-0.3,0-0.6-0.1-0.8c-0.1-0.3-0.5-0.4-0.7-0.5
		c0.2-0.8-0.1-1.5-0.6-1.8c0-0.3,0.2-0.3,0.3-0.6c-0.1-0.3-0.7-0.1-0.7-0.6c0.1-0.3-0.1-0.2,0.9-0.3v-1c0,0.1,0.4-0.5,0.5-1
		c0-0.2-0.7-0.2-0.8-0.1c-0.3-0.5-0.8-1-1.1-1.6c-0.4-1-0.7-2.2-1.7-2.6c0.8-0.2,0.4-1.2,0.1-1.7c0-0.2,0.1-0.2,0.3-0.2
		c-0.8-0.6-0.5-2-1.3-2.6c-0.3-0.2-0.6-0.1-0.8-0.4c0.2-0.2,0.5,0.1,0.6,0.1c-1-0.9-1.4-3-1.7-4.8c-0.2,2.1-0.4,4.9,0.8,6.1
		c-0.4,0.9-0.9,3.3,0.8,3.2c0.1,1.7-0.1,2.7-0.3,4c0,0.2,0.6,0.1,0.6,0.1v0.6c1,0.5,0.6,1.5,0.5,2.6c0.1,0.3,0.5,0.2,0.5,0.5
		c-0.4,1.3-0.8,2.6-1.3,3.8c0.6,0,1,0.8,1.5,1c0.3,0.1,0.1-0.4,0.4-0.4c0.8,4.1-0.9,7.3-2.2,9.9c0.2,0.2,0.7,0.1,1,0.1
		c0.1,0.2-0.1,0.5-0.2,0.6c0.9-0.1,1-1.2,1.1-2.1c0.4,0.1,0.4,0.7,0.5,1.2c0.1,0.3,0.2-0.1,0.3,0.1c0.1,1.2-1,1.6-1.2,2.6
		c0,0.3,0.1,0.6,0,0.8c-0.1,0.4-0.7,0.8-0.5,1.3c-0.5,0.3-0.5,1.1-0.8,1.7c-0.7-0.8-0.6-2.3-0.6-3.7c-0.4-0.5-1.6-0.7-1.2-1.6
		c0.6-0.1,0.3,0.6,0.7,0.6c0.7-0.3,0.1-1.3-0.3-1.7c-0.2-0.2-0.5-0.4-0.7-0.5c0.2-0.4,0.5-0.6,0.8-0.8c-0.3-0.6-1-0.9-1.1-1.8
		c0.3,0,0.4,0.2,0.8,0.2c-0.1-0.7-0.2-1.4-1-1.4c0.2-1.6-0.1-3-0.5-4.2c-0.6,0.4-0.4,1.7-0.1,2.2c-0.5,2.8,1,6.3-0.8,8.2
		c0.8,0.1,0.8-0.6,1.5-0.5c-0.3,0.7-0.5,1.5-1.2,1.8c1.5,0.6-0.3,2.5,0.4,3.4c-0.4,0.6-0.7,1.3-1,1.9c0.6,0.1,0.5-0.7,0.9-0.6
		c0,0.6-0.3,0.9-0.3,1.6c0.3,0.2,0.5-0.2,0.6,0.1c0,0.6-0.9,0.8-1,1.4c-0.1,0.4,0.1,0.8,0.6,0.8c-0.1,1.9-1.1,3.4-1.9,4.8
		c0.2,0.6,0.3,0.9,0.3,1.7c-0.1,0.8-0.5,1.6-0.5,2.1s0.8,0.9,0.8,1.4c0,0.4-0.8,0.8-0.9,1.6c0,0.5,0.1,0.7,0.1,1.3
		c-0.1,0.2,0.2,0.1,0.3,0.3c0,0.4,0,0.9-0.2,1c-0.2-0.2,0-0.8-0.1-1c-0.3,0-0.5,0.1-0.9,0.1c-0.2-0.2-0.2-0.4-0.1-0.8
		c-0.2,0-0.3,0.1-0.5,0.2c-0.1,0.6,0.4,1.1,0.1,1.7c-0.4-0.2-0.3-0.5-0.4-0.8c-0.9-1.9-3.3-3.1-3.7-5.4c-0.1-0.3,0-0.6-0.1-0.9
		c-0.2-0.6-1.1-1-0.9-1.9c0.3,0,0.2,0.4,0.5,0.4c0.7-1.1-1.4-1.5-0.8-2.7c0.4-0.1,0.5,0.4,0.8,0.2c0-0.6-0.7-0.9-0.8-1.3
		c-0.4-1.1-0.5-2.5-0.8-3.8c-0.7-3.7-1.5-7.7-2.4-11.2c0,3.3,0.7,8-0.6,10.6c0.8,0.2,0.7-0.5,1-0.8c-0.1,0.9-0.7,1.6-0.6,2.6
		c0,0.2,0.2,0.5,0.1,0.8c0,0.3-0.3,0.4-0.5,0.6c-0.5,0.9-0.5,2.3-0.6,3.3c0.3-0.2,0.4-0.6,0.8-0.7c0.6,1-0.5,2.4,0,3.3
		c0.3,0,0.6,0,0.8-0.1c-0.2,1.3-2,1.9-1.5,3.9c-0.4,0.7-0.9,1.1-1.3,1.7c0.2-0.1,0.6-0.3,0.8-0.1c0.1,0.6-0.2,1.8,0.7,1.7
		c-0.5,0.8-0.7,2-1.2,2.9c-1.2-1.3-0.5-4.5-1.6-5.9c0.3-0.1,0.6-0.1,1,0c0.3-0.4,0-0.6-0.2-0.8c-0.3-0.5-1-1.3-1-1.5v-1.5
		c0,0.1,0.3,0.4,0.6,0.5c-0.2-1.1-0.7-2.3-1.1-3.5c-0.4-1.2-0.6-2.4-1.1-3.5c-0.8,0.8,0,2,0,2.8c0,0.6-0.5,1-0.4,1.9
		c0.1,0.7,0.5,1.3,0.5,2c0,0.8-0.4,1.3-0.6,2.1c0.4,1-0.8,1.4-0.4,2.2c0.4,0,0.6-0.2,0.6-0.5c0.7,0.5,0.4,0.8,0.1,1.5
		c-0.3,0.6-0.2,1.3-0.6,1.7c0.3,0.3,0.9,0.3,1.3,0.5c-0.1,0.9-1.2,1.4-0.8,2.4c-0.6,0.4-0.6,1.3-1,1.9c-0.1,0.7,0.8,1,0.3,1.6
		c-0.3-0.3-0.1-1.1-0.8-1c-0.3,0.7,0.3,1.9-0.2,2.6c-0.2,0.2-0.2-0.3-0.4-0.3c-0.4,0.2-0.5,0.6-0.7,1.1c-0.4,0-0.8-0.7-1-1
		c0.1-0.3,0.5,0,0.7,0.1c-1.7-1.4-0.6-5.6-2.1-7.2c0.3-1.7-0.5-3.2-0.6-4.8c-1,0.4-0.1,1.8-0.1,3c0,2.1-0.3,4.4-0.9,5.8
		c0.2,0.3,1.1-0.1,1.2,0.4c0.1,0.3-0.3,0.5-0.5,0.8c-0.3,0.6-0.5,1.4-0.3,2.3c0.2,0.1,0.4-0.6,0.7-0.3c0.4,0.7-0.3,1.4-0.4,2
		c-0.3-0.1-0.3-0.5-0.6-0.6c-0.1,0.4,0,1-0.2,1.3h-0.1c-0.3,0-0.5-0.1-0.7-0.3c-0.5,0.1-1.1-0.2-1.1-0.9c0-1.2-0.3-2.4-0.3-3.7V341
		c-0.3-0.4-0.5-0.8-0.5-1.4c0-0.3,0-0.5,0-0.7c-0.4-0.1-0.7-0.5-0.7-0.9c0-0.3,0.1-0.5,0.3-0.7c-0.2-0.2-0.3-0.2-0.3-0.5
		c0-0.5,0.4-0.8,0.9-0.8h0.4c-0.1-1-0.3-0.5-0.6-0.6c-1.1-0.2-0.8-1.9,0.3-1.9c0.1,0,0.2-0.1,0.4-0.1c-0.1-0.1-0.2-0.1-0.3-0.2
		c-0.6-0.4-0.5-1.2-0.1-1.6c-0.1-0.1-0.1-0.4-0.1-0.5c0-0.5,0.4-1.1,0.9-1.1h0.1c-0.4,0-0.8-1-1.2-1.6c-0.5-0.8,0.6-1.8,1.3-1.2
		c-0.1-0.2-0.2-0.5-0.3-0.7c-0.5-1.1-1.1-2.3-1.6-3.4V323l0,0l-0.1-0.1l0,0c-0.2-0.4-0.4-0.7-0.5-1.1c-0.8,0.7-1.6,1.3-2.3,2
		c0.1,0.6-0.4,1.1-0.6,1.5c0,0.3,0.2,0.4,0.3,0.6c0,0.3-0.5,0.5-0.8,1c-0.1,0.1,0,0.4-0.1,0.5c-0.1,0.3-1.2,1-0.3,1.3
		c-0.3,0.8-1.1,1.3-1.2,1.9c-0.1,0.4,0.1,0.5,0,0.8c0,0.1,0.1,0.3,0.1,0.3c-0.1,0.5-0.4,0.8-0.8,1c-0.3,0.1,0.1,10.4,0.5,18.2
		c0.2,0.2,0.3,0.4,0.5,0.5c-0.2,0.1-0.3,0.1-0.5,0.2c0.1,2.2,0.2,4.2,0.3,5.6c0.2,0.2,0.4,0.5,0.3,0.9c-0.1,0-0.2,0-0.3,0
		c0,0.7,0.1,1.2,0.1,1.3c-0.7-0.3-0.9-1.1-1.3-1.7c0.2-0.2,0.4,0.2,0.6-0.1c0.3,0.1,0.3,0.4,0.6,0.5c0-0.3,0-0.6-0.1-0.9
		c-0.3-0.3-0.6-0.5-0.6-0.9c-0.2-0.2-0.4-0.3-0.6-0.4c0-0.8-0.8-0.8-0.9-1.5c0.1-0.1,0.3-0.2,0.4-0.3c0.3,0-0.1,0.4,0.2,0.5
		c0.7-0.7-0.4-1.7-0.1-2.6c0.4-0.2,0.8-0.3,1.3-0.5c0-0.2,0-0.4,0-0.7c-0.6-0.7-1-1.5-2.1-1.6c-0.1-0.1-0.2-0.1-0.1-0.3
		c-0.8,0-1.8,0.1-1.9-0.6c0.1-0.2,0.4-0.3,0.6-0.2c0.1-1.3-1.5-0.9-1.7-2c0.5-0.1,0.8-0.4,1.3-0.4c0-1.1-1.3-1.1-1.2-2.1
		c0.1,0,0.4,0.1,0.3-0.1c0.5,0.4,1.4,0.8,2.4,0.9c-0.8-1.1-2.5-1.8-3.4-3c0.1-0.7-0.1-1.5-0.5-1.9c0.5-0.1,1,1.1,1.6,0.5
		c-0.7-0.3-1.2-0.8-1.9-1.2c-0.2-0.4,0.2-0.7,0.3-1c0.3,0,0.3,0.2,0.5,0.3c0.1-0.2,0.2-0.3,0.3-0.4c-0.7-0.3-0.9-1.1-1.9-1.2
		c-0.1-0.3,0.3-0.2,0.4-0.4c-0.9-0.3-1.8-0.6-2.5-1.1c0.2-0.6,1.3,0.2,1.3-0.5c-0.7-0.9-2.1-1.5-2.3-2.6c0.8-0.2,1,1.2,2,0.9
		c0.4-1.3-1.3-1.1-1.8-1.6c-0.1-0.4,0.4-0.3,0.5-0.4c-0.1-0.2-0.5-0.2-0.5-0.5c0.4-0.2,0.4,0.6,0.9,0.5c0.2-0.2,0.1-0.7,0.4-0.8
		c-0.6,0-0.3-0.7-1-0.6c0-0.6-0.6-0.7-0.3-1.3c0-0.2-0.4,0.1-0.3-0.2c-0.1-0.5,0.2-0.6,0.5-0.7c-0.3-0.5-0.9,0.1-1.3-0.1
		c0.4-0.4,0.7-0.8,1.6-0.7c0.1-0.9-0.8-0.9-1-1.5c0-0.3,0.5,0,0.4-0.4c-1-0.4-2.5-0.3-2.6-1.5c0.4,0.3,0.9-0.1,1.3-0.1
		c-0.1-0.3-0.3-0.6-0.3-1.1c0.1-0.1,0.2-0.3,0.5-0.3c-0.1-0.3-0.3-0.5-0.8-0.5c-0.1-0.3-0.4-0.5-0.6-0.8c0.2-0.1,0.6,0,0.8-0.2
		c-0.2-0.2-0.3-0.6-0.5-0.9c-0.2-0.1-0.3-0.1-0.6-0.1c0.1-0.4-0.7-0.2-0.4-0.6c0.2-0.2,0.4,0.1,0.8,0.1c0.4,0,0.6-0.2,0.8-0.5
		c-0.2-0.1-0.6-0.1-0.7-0.3c-0.1-0.2-0.2-0.4-0.1-0.6c-1,0-1.3-1-1.5-1.9c-0.1-0.5-0.4-1.1-0.3-1.2c0.1-0.6,0.9-0.4,1-1
		c-0.3-0.3-0.4,0-0.7,0.1c-0.9,0.1-2-0.6-2.4,0.3c0.2,0.1,0.7,0,1,0.1c0.2,1.1,1.2,2.7,0.5,3.7c0,0.2,0.3,0,0.3,0.1
		c-0.3,1-1.3,1.8-1.1,2.8c0.4,0.1,0.5-0.7,1.1-0.7c-0.1,0.7-0.7,0.8-0.8,1.5c0.2,0.2,0.4,0.5,0.8,0.7c-0.2,1.5-1.5,1.8-1.5,3.4
		c0.6,0.2,1.5,0.1,1.9-0.2c0.4,1-0.6,1.6-1.4,1.8c0.2,1-1.1,0.7-1.1,1.5c1,0.2,2-0.2,3-0.2c0.1,1.6-2.1,1.3-2.2,2.8
		c-0.2,0.1-0.2,0.4-0.5,0.3c0.4,0.1,0.9,1,1.3,0.4c0,0.4,0.6,0.3,0.9,0.4c-0.2,0.7-0.9,0.9-1,1.7c0.1,0.3,0.4,0.3,0.8,0.3
		c-0.1,0.7-0.8,0.9-1,1.6c0.2,0.3,0.7,0,1,0c-0.2,0.6-0.8,0.7-0.9,1.4c-0.4,0.3-1,0.3-1.1,0.8c-0.1,0.7,0.9,0.8,1.2,1.3
		c-0.4,1-1.3,1.5-1.6,2.6c1-0.4,2.3-0.6,2.8-1.6c0.6,0.1-0.2,1,0.2,1.1c-0.1,0.3-0.5,0.4-0.5,0.8c0,0.2,0.4-0.1,0.3,0.2
		c-0.4,0.3-0.9,0.6-1,1.4c0.3-0.2,0.7-0.3,1.1-0.4c0.3,0.2-0.5,0.6,0.1,0.7c-1.3,2.1-2.9,4-3.7,6.7c0.7,0,0.8-0.6,1.1-1
		c0.3,0,0.3,0.3,0.5,0.4c0-0.2,0-0.4,0.1-0.4c0.7,0.2,1.8-0.1,2.5-0.3c-0.1-0.5-0.3-0.9-0.6-1c-0.6-0.1-0.8,1.4-1.8,0.9v-0.4
		c0,0,0.2,0.4,0.5,0.4c0.4-1.2,1-2.2,1.6-3.1c0.1,0.1,0,0.5,0.1,0.8c0.8-0.1,0.2-1.8,1.1-1.9c0.1,0.7-0.7,0.8-0.4,1.5
		c0.3,0.2,0.3-0.4,0.6-0.4c-0.7,0.8-0.2,2.5-0.7,3.5c-0.2,0.4-0.5,0.5-0.6,0.8c0,0.3,0.4,0.1,0.4,0.5c-0.2,0.6-0.7,1.1-1.1,1.5
		c0.4,0.8-0.4,1.6-0.8,2.5c0.2-0.1,0.4-0.1,0.6,0c0.1,0.5-0.3,1.1-0.4,1.5c1.1,0.5,1.6-1,2.1-1.6c0.6,1.7-1.1,2.7-1,4.5
		c0.4-0.1,0.5-0.5,0.5-1c0.6,1.1-0.3,2.2-1,2.6c0.1,0.2,0.4,0,0.4,0.3c-0.1,0.2-0.6,0.1-0.6,0.3c0.2,0.6,0.5-0.2,1-0.1
		c-0.1,0.6-0.8,1-1.3,1.4c0.2,0.3,0.5-0.1,0.8-0.1c-0.3,1.2-1.3,1.7-1.5,2.9c0.1,0.2,0.2-0.2,0.4-0.1c-0.2,1.3-2,2.5-1.6,4
		c0,0.2,0,0.3,0.3,0.4c-0.2,0.1-0.3,0.3-0.4,0.3c0.1,0.6,0.2,1.2,0.2,1.8c0.1,0,0.3,0.1,0.3,0.3c0.3-0.2,0.2-0.6,0.3-0.9
		c0.3,0,0.2,0.4,0.5,0.4c0.5-0.4,0-1.5,0.2-2.1c0.6,0.2,0.3,1.3,0.6,1.7c0.3-0.1,0-0.8,0.2-1c0.6-0.1,0.5,0.4,0.9,0.5
		c0.3-0.1,0-0.2,0-0.5c0.6,0.2,0.2,0.8,0.4,1.2c-0.4,0.4-0.8,0.8-0.8,1.5c-0.1,0.3-0.3,0.2-0.5,0.5c-0.4,0.8,0,2.4-1,2.3
		c-0.4,0-0.2-0.3-0.6-0.5c-0.1,0-0.1,0.1-0.1,0.2c0.1,0.5,0.1,0.8,0.2,1v0.1c0,0,0,0,0-0.1c-0.1-0.2-0.4,0.1-0.4-0.1
		c0.1-0.2,0.1-0.6,0.3-0.9c-0.1-0.9-0.3-2.2-0.5-3.8c-0.1,0-0.2,0-0.3,0c0.2-0.6-0.2-1.1-0.1-1.7c0.1,0,0.1,0,0.2,0
		c-0.3-2.2-0.6-4.7-1-7.1c0,0.1,0,0.1-0.1,0.1c-0.9-1.2-0.8-3.4-1.4-5c-0.6,0.4-0.2,1.7,0,2.2c-0.4,0.4-0.2,1.4-0.4,1.9
		c-0.5-0.7-1.3-1.4-2.5-1c-0.5-0.7-0.9-1.5-1.6-1.9c0.7-0.2,1.9-0.5,2.4,0.1c-0.5-2-2.4-2.8-3.4-4.4c0.1-0.1,0.4,0.2,0.7,0.1
		c0.1-0.8-0.8-0.7-1.1-1.1c-0.1-0.7,0.3-0.9,0.3-1.5c0.4,0.1,0.5,0.5,0.8,0.7c1-0.7-0.3-1.6-0.5-2.4c-0.1-0.3,0-0.6-0.1-0.8
		c-0.1-0.3-0.5-0.4-0.7-0.5c0.2-0.8-0.1-1.5-0.6-1.8c0-0.3,0.2-0.3,0.3-0.6c-0.1-0.3-0.7-0.1-0.7-0.6c0.1-0.3,0.8-0.2,0.8-0.3v-1
		c0,0.1,0.5-0.5,0.5-1c0-0.2-0.7-0.2-0.8-0.1c-0.3-0.5-0.8-1-1-1.6c-0.4-1-0.7-2.2-1.7-2.6c0.8-0.2,0.4-1.2,0.1-1.7
		c0-0.2,0.1-0.2,0.3-0.2c-0.8-0.6-0.5-2-1.3-2.6c-0.3-0.2-0.6-0.1-0.8-0.4c0.2-0.2,0.5,0.1,0.6,0.1c-1-0.9-1.4-3-1.7-4.8
		c-0.2,2.1-0.4,4.9,0.8,6.1c-0.4,0.9-0.9,3.3,0.8,3.2c0.1,1.7-0.1,2.7-0.4,4c0,0.2,0.5,0.1,0.5,0.1v0.6c1,0.5,0.7,1.5,0.6,2.6
		c0.1,0.3,0.5,0.2,0.6,0.5c-0.4,1.3-0.8,2.6-1.3,3.8c0.6,0,1,0.8,1.6,1c0.3,0.1,0.1-0.4,0.4-0.4c0.8,4.1-0.9,7.3-2.2,9.9
		c0.2,0.2,0.7,0.1,1,0.1c0.1,0.2-0.1,0.5-0.2,0.6c0.9-0.1,1-1.2,1.1-2.1c0.4,0.1,0.4,0.7,0.5,1.2c0.1,0.3,0.2-0.1,0.3,0.1
		c0.1,1.2-1,1.6-1.2,2.6c0,0.3,0.1,0.6,0,0.8c-0.1,0.4-0.7,0.8-0.5,1.3c-0.5,0.3-0.5,1.1-0.8,1.7c-0.7-0.8-0.6-2.3-0.6-3.7
		c-0.4-0.5-1.6-0.7-1.2-1.6c0.6-0.1,0.3,0.6,0.7,0.6c0.7-0.3,0.1-1.3-0.3-1.7c-0.2-0.2-0.5-0.4-0.7-0.5c0.2-0.4,0.5-0.6,0.8-0.8
		c-0.3-0.7-1-0.9-1.1-1.8c0.3,0,0.4,0.2,0.8,0.2c-0.1-0.7-0.2-1.4-1-1.3c0.2-1.6-0.1-3-0.5-4.2c-0.6,0.4-0.4,1.8-0.1,2.2
		c-0.5,2.8,1,6.3-0.8,8.2c0.8,0.1,0.8-0.6,1.5-0.5c-0.3,0.7-0.5,1.5-1.2,1.8c1.5,0.6-0.3,2.5,0.5,3.4c-0.4,0.6-0.7,1.3-1,1.9
		c0.6,0.1,0.5-0.7,0.9-0.6c0,0.6-0.3,0.9-0.3,1.6c0.2,0.2,0.5-0.2,0.6,0.1c0,0.6-1,0.8-1,1.3c-0.1,0.4,0.1,0.8,0.6,0.8
		c-0.1,1.9-1.1,3.4-1.9,4.8c0.2,0.6,0.3,0.9,0.3,1.7c-0.1,0.8-0.5,1.6-0.5,2.1s0.8,0.9,0.8,1.4c0,0.4-0.8,0.8-0.9,1.6
		c0,0.5,0.1,0.7,0.1,1.3c-0.1,0.2,0.2,0.1,0.3,0.3c0,0.4,0,0.9-0.2,1c-0.2-0.2,0-0.8-0.1-1c-0.3,0-0.5,0.2-0.9,0.1
		c-0.2-0.2-0.2-0.4-0.1-0.8c-0.2,0-0.3,0.1-0.4,0.2c-0.1,0.6,0.4,1.1,0.1,1.7c-0.4-0.2-0.3-0.5-0.4-0.8c-0.9-1.9-3.3-3.1-3.7-5.4
		c-0.1-0.3,0-0.6-0.1-0.9c-0.2-0.6-1.1-1-0.9-1.9c0.3,0,0.2,0.4,0.5,0.4c0.7-1.1-1.4-1.5-0.8-2.7c0.4-0.1,0.5,0.4,0.8,0.2
		c0-0.6-0.7-0.9-0.8-1.3c-0.4-1.1-0.5-2.5-0.8-3.8c-0.7-3.7-1.5-7.7-2.4-11.2c0,3.4,0.7,8-0.6,10.6c0.8,0.2,0.7-0.5,1-0.8
		c-0.1,0.9-0.7,1.6-0.6,2.6c0,0.2,0.2,0.5,0.1,0.8c0,0.3-0.3,0.4-0.5,0.6c-0.5,0.9-0.5,2.3-0.6,3.3c0.3-0.2,0.4-0.6,0.8-0.7
		c0.6,1-0.5,2.4,0,3.3c0.3,0,0.6,0,0.8-0.1c-0.2,1.3-2,1.9-1.5,3.9c-0.4,0.7-0.9,1.1-1.3,1.7c0.2-0.1,0.6-0.3,0.8-0.1
		c0.1,0.6-0.2,1.8,0.7,1.7c-0.5,0.8-0.7,2-1.2,2.9c-1.2-1.3-0.5-4.5-1.6-5.9c0.3-0.1,0.6-0.1,1,0c0.3-0.4-0.1-0.6-0.3-0.8
		c-0.4-0.5-0.1-1.3-1.1-1.5v-1.5c0,0.1,0.4,0.4,0.7,0.5c-0.2-1.1-0.7-2.3-1.1-3.5c-0.4-1.2-0.6-2.4-1.1-3.5c-0.8,0.8,0,2,0,2.8
		c0,0.6-0.5,1-0.4,1.9c0.1,0.7,0.5,1.3,0.5,2c0,0.8-0.4,1.3-0.6,2.1c0.4,1-0.7,1.4-0.4,2.2c0.4,0,0.6-0.2,0.6-0.5
		c0.7,0.5,0.4,0.8,0.1,1.5c-0.3,0.6-0.2,1.3-0.6,1.7c0.3,0.3,0.9,0.3,1.3,0.5c-0.1,0.9-1.2,1.4-0.8,2.4c-0.6,0.4-0.6,1.3-1,1.9
		c-0.1,0.7,0.8,1,0.3,1.6c-0.3-0.3-0.1-1.1-0.8-1c-0.3,0.7,0.3,1.9-0.2,2.6c-0.2,0.2-0.2-0.3-0.4-0.3c-0.4,0.2-0.5,0.7-0.7,1.1
		c-0.4,0-0.8-0.6-1-1c0.1-0.3,0.5,0,0.7,0.1c-1.1-0.9-1-2.9-1.3-4.6c0.1,0,0.2,0.1,0.2,0.1c-0.1-0.2-0.2-0.5-0.3-0.7l0,0
		c-0.1-0.8-0.3-1.4-0.8-1.9c0.3-1.7-0.5-3.2-0.6-4.8c-1,0.4-0.1,1.8-0.1,3c0,0.2,0,0.4,0,0.6c0-0.1-0.1-0.1-0.1-0.2l0,0l0,0
		c0-0.1-0.1-0.1-0.1-0.2l0,0c-0.2-0.4-0.4-0.8-0.5-1.2c-0.8,0.7-1.6,1.3-2.3,2c0.1,0.6-0.4,1.1-0.6,1.5c0,0.3,0.2,0.4,0.3,0.6
		c0,0.3-0.5,0.5-0.8,1c-0.1,0.1,0,0.4-0.1,0.5c-0.1,0.2-1.2,1-0.3,1.3c-0.3,0.8-1.1,1.3-1.2,1.9c-0.1,0.4,0.1,0.5,0,0.8
		c0,0.1,0.1,0.3,0.1,0.3c-0.1,0.5-0.4,0.8-0.8,1c-0.3,0.1,0,6.8,0.3,13.4l-2.6,2.8c-0.6,0-1.1-0.1-1.2-0.6c0.1-0.2,0.4-0.3,0.6-0.2
		c0.1-1.3-1.5-0.9-1.7-2c0.5-0.1,0.8-0.4,1.4-0.4c0-1.1-1.3-1.1-1.2-2.1c0.1,0,0.4,0.1,0.3-0.1c0.5,0.4,1.4,0.8,2.4,0.9
		c-0.8-1.1-2.5-1.8-3.4-3c0.1-0.7-0.1-1.5-0.5-1.9c0.5-0.1,1,1.1,1.6,0.5c-0.7-0.3-1.2-0.8-1.9-1.2c-0.2-0.4,0.2-0.7,0.3-1
		c0.3,0,0.3,0.2,0.5,0.3c0.1-0.2,0.2-0.3,0.3-0.5c-0.7-0.3-0.9-1.1-1.9-1.2c-0.1-0.3,0.3-0.2,0.4-0.4c-0.9-0.3-1.8-0.6-2.5-1.1
		c0.2-0.6,1.3,0.2,1.3-0.5c-0.7-0.9-2.1-1.5-2.3-2.6c0.8-0.2,1,1.2,2,0.9c0.4-1.3-1.3-1.1-1.8-1.6c-0.1-0.4,0.4-0.3,0.5-0.4
		c-0.1-0.2-0.5-0.2-0.5-0.5c0.4-0.2,0.4,0.6,0.9,0.5c0.2-0.2,0.1-0.7,0.4-0.8c-0.6,0-0.3-0.7-1-0.6c0-0.6-0.6-0.7-0.3-1.3
		c0-0.2-0.4,0.1-0.3-0.2c-0.1-0.5,0.2-0.6,0.5-0.7c-0.3-0.5-0.9,0.1-1.3-0.1c0.4-0.4,0.7-0.8,1.6-0.7c0.1-0.9-0.8-0.9-1-1.5
		c0-0.3,0.5,0,0.4-0.4c-1-0.4-2.5-0.3-2.6-1.5c0.4,0.3,0.9-0.1,1.3-0.1c-0.1-0.3-0.3-0.6-0.3-1.1c0.1-0.1,0.2-0.3,0.5-0.3
		c-0.1-0.3-0.3-0.5-0.8-0.5c-0.1-0.3-0.4-0.5-0.6-0.8c0.2-0.1,0.6,0,0.8-0.2c-0.2-0.2-0.3-0.6-0.4-0.9c-0.2-0.1-0.3-0.1-0.6-0.1
		c0.1-0.4-0.7-0.2-0.4-0.6c0.1-0.2,0.4,0.1,0.8,0.1s0.6-0.2,0.8-0.5c-0.2-0.1-0.6-0.1-0.7-0.3c-0.1-0.2-0.2-0.4-0.1-0.6
		c-1,0-1.3-1-1.5-1.9c-0.1-0.5-0.4-1-0.3-1.2c0.1-0.6,0.9-0.4,1-1c-0.3-0.3-0.4,0-0.7,0.1c-0.9,0.1-2-0.6-2.4,0.3
		c0.2,0.2,0.7,0,1,0.1c0.2,1.1,1.2,2.7,0.5,3.7c0,0.2,0.3,0,0.3,0.1c-0.3,1-1.3,1.8-1.1,2.8c0.4,0.1,0.5-0.7,1.1-0.7
		c-0.1,0.7-0.7,0.8-0.8,1.5c0.2,0.2,0.4,0.5,0.8,0.7c-0.2,1.5-1.5,1.8-1.5,3.4c0.6,0.2,1.5,0.1,1.9-0.2c0.4,1-0.6,1.6-1.4,1.8
		c0.2,1-1.1,0.7-1.1,1.5c1,0.2,2-0.2,3-0.2c0.1,1.6-2.1,1.3-2.2,2.8c-0.2,0.1-0.2,0.4-0.5,0.3c0.4,0.1,0.9,1,1.3,0.5
		c0,0.4,0.6,0.3,0.9,0.4c-0.2,0.7-0.9,0.9-1,1.7c0.1,0.3,0.4,0.3,0.8,0.3c-0.1,0.7-0.8,0.9-1,1.6c0.2,0.3,0.7,0,1,0
		c-0.2,0.6-0.8,0.7-0.9,1.3c-0.4,0.3-1,0.3-1.1,0.8c-0.1,0.7,0.9,0.8,1.2,1.3c-0.4,1-1.3,1.5-1.6,2.6c1-0.4,2.3-0.6,2.8-1.6
		c0.6,0.1-0.2,1,0.2,1.1c-0.1,0.3-0.5,0.4-0.5,0.8c0,0.2,0.4-0.1,0.3,0.2c-0.4,0.3-0.9,0.6-1,1.4c0.3-0.2,0.7-0.3,1.1-0.4
		c0.3,0.2-0.5,0.6,0.1,0.7c-1.3,2.1-2.9,4-3.7,6.7c0.7,0,0.8-0.6,1.1-1c0.3,0,0.3,0.3,0.5,0.4c0-0.2,0-0.4,0.1-0.5
		c0.7,0.2,1.8-0.1,2.5-0.3c-0.1-0.5-0.4-0.9-0.7-1c-0.6-0.1-0.9,1.4-1.9,0.9V412c1,0,0.4,0.4,0.6,0.4c0.4-1.2,1-2.2,1.7-3.1
		c0.1,0.1,0.1,0.5,0.1,0.8c0.8-0.1,0.2-1.8,1.1-1.9c0.1,0.7-0.7,0.8-0.4,1.5c0.3,0.2,0.3-0.4,0.6-0.4c-0.7,0.8-0.2,2.5-0.7,3.5
		c-0.2,0.4-0.5,0.5-0.6,0.8c0,0.3,0.4,0.1,0.4,0.5c-0.2,0.6-0.7,1.1-1.1,1.5c0.4,0.8-0.4,1.6-0.8,2.5c0.2-0.1,0.4-0.1,0.6,0
		c0.1,0.5-0.3,1.1-0.4,1.5c1.1,0.5,1.6-1,2.1-1.6c0.6,1.7-1.1,2.7-1,4.5c0.4-0.1,0.5-0.5,0.5-1c0.6,1.1-0.3,2.2-1,2.6
		c0.1,0.2,0.4,0,0.4,0.3c-0.1,0.2-0.6,0.1-0.6,0.3c0.1,0.4,0.3,0.2,0.6,0l-3.6,3.9c-0.1-0.8-0.2-1.5-0.3-2.3c0,0.1,0,0.1-0.1,0.2
		c-0.9-1.2-0.8-3.4-1.3-5c-0.6,0.4-0.2,1.7,0,2.2c-0.4,0.4-0.2,1.4-0.4,1.9c-0.5-0.7-1.3-1.4-2.5-1c-0.5-0.6-0.9-1.5-1.6-1.9
		c0.7-0.2,1.9-0.5,2.4,0.1c-0.5-2-2.4-2.8-3.4-4.4c0.1-0.1,0.4,0.2,0.7,0.1c0.1-0.8-0.8-0.7-1.1-1.1c-0.1-0.7,0.3-0.9,0.3-1.5
		c0.4,0.1,0.5,0.5,0.8,0.7c1-0.7-0.3-1.6-0.5-2.4c-0.1-0.3,0-0.6-0.1-0.8c-0.1-0.3-0.5-0.4-0.7-0.5c0.2-0.8-0.1-1.5-0.6-1.8
		c0-0.3,0.2-0.3,0.3-0.6c-0.1-0.3-0.9-0.1-0.9-0.6c0.1-0.3,0.7-0.2,0.7-0.3v-1c1,0.1,0.6-0.5,0.7-1c0-0.2-0.6-0.2-0.7-0.1
		c-0.3-0.5-0.7-1-1-1.6c-0.4-1-0.6-2.2-1.7-2.6c0.8-0.2,0.4-1.2,0.1-1.7c0-0.2,0.1-0.2,0.3-0.2c-0.8-0.6-0.5-2-1.3-2.6
		c-0.3-0.2-0.6-0.1-0.8-0.4c0.2-0.2,0.5,0.1,0.6,0.1c-1-0.9-1.4-3-1.7-4.8c-0.2,2.1-0.4,4.9,0.8,6.1c-0.4,0.9-0.9,3.3,0.8,3.2
		c0.1,1.7-0.3,2.7-0.5,4c0,0.2,0.4,0.1,0.4,0.1v0.6c1,0.5,0.8,1.5,0.7,2.6c0.1,0.3,0.6,0.2,0.6,0.5c-0.4,1.3-0.7,2.6-1.2,3.8
		c0.6,0,1,0.8,1.6,1c0.3,0.1,0.2-0.4,0.4-0.4c0.8,4.1-0.9,7.3-2.2,9.9c0.2,0.2,0.7,0.1,1,0.1c0.1,0.2-0.1,0.5-0.2,0.6
		c0.9-0.1,1-1.2,1.1-2.1c0.4,0.1,0.4,0.7,0.5,1.2c0.1,0.3,0.2-0.1,0.3,0.1c0.1,1.2-1,1.6-1.2,2.6c0,0.3,0.1,0.6,0,0.8
		c-0.1,0.4-0.7,0.8-0.5,1.3c-0.5,0.3-0.5,1.1-0.8,1.7c-0.7-0.8-0.6-2.3-0.6-3.7c-0.4-0.5-1.6-0.7-1.2-1.6c0.6-0.1,0.3,0.6,0.7,0.6
		c0.7-0.3,0.1-1.3-0.3-1.7c-0.2-0.2-0.5-0.4-0.7-0.5c0.2-0.4,0.5-0.6,0.8-0.8c-0.3-0.6-1-0.9-1.1-1.8c0.3,0,0.4,0.2,0.8,0.2
		c-0.1-0.7-0.2-1.4-1-1.4c0.2-1.6-0.1-3-0.5-4.2c-0.6,0.4-0.4,1.8-0.1,2.3c-0.5,2.8,1,6.3-0.8,8.2c0.8,0.1,0.8-0.6,1.5-0.5
		c-0.3,0.7-0.5,1.5-1.2,1.8c1.5,0.6-0.3,2.5,0.4,3.4c-0.4,0.6-0.7,1.3-1,1.9c0.6,0.1,0.5-0.7,0.9-0.6c0,0.6-0.3,0.9-0.3,1.6
		c0.3,0.2,0.5-0.2,0.6,0.1c0,0.6-0.9,0.8-1,1.3c-0.1,0.4,0.1,0.8,0.6,0.8c-0.1,1.9-1.1,3.4-1.9,4.8c0.2,0.6,0.3,0.9,0.3,1.7
		c-0.1,0.8-0.5,1.6-0.5,2.1s0.8,0.9,0.8,1.4l-2.9,3.2c-1.1-1.6-3.1-2.8-3.4-4.9c-0.1-0.3,0-0.6-0.1-0.9c-0.2-0.6-1.1-1-0.9-1.9
		c0.3,0,0.2,0.4,0.5,0.4c0.7-1.1-1.4-1.5-0.8-2.7c0.4-0.1,0.5,0.4,0.8,0.2c0-0.6-0.7-0.9-0.8-1.3c-0.4-1.1-0.5-2.5-0.8-3.8
		c-0.7-3.7-1.5-7.7-2.4-11.2c0,3.3,0.7,8-0.6,10.6c0.8,0.2,0.7-0.5,1-0.8c-0.1,0.9-0.7,1.6-0.6,2.6c0,0.2,0.2,0.5,0.1,0.8
		c0,0.3-0.3,0.4-0.4,0.6c-0.5,0.9-0.5,2.3-0.6,3.3c0.3-0.2,0.4-0.6,0.8-0.7c0.6,1-0.5,2.4,0,3.3c0.3,0,0.6,0,0.8-0.1
		c-0.2,1.3-2,1.9-1.5,3.9c-0.4,0.7-0.9,1.1-1.3,1.7c0.2-0.1,0.6-0.3,0.8-0.1c0.1,0.6-0.2,1.8,0.7,1.7c-0.5,0.8-0.7,2-1.2,2.9
		c-1.2-1.3-0.5-4.5-1.6-5.9c0.3-0.1,0.6-0.1,1,0c0.3-0.4-0.2-0.5-0.4-0.8c-0.4-0.5-0.2-1.3-1.2-1.5v-1.5c0,0.1,0.5,0.4,0.8,0.5
		c-0.2-1.1-0.6-2.3-1-3.5s-0.6-2.4-1.1-3.5c-0.8,0.8,0,2,0,2.8c0,0.6-0.5,1-0.4,1.9c0.1,0.7,0.5,1.3,0.5,2c0,0.8-0.4,1.3-0.6,2.1
		c0.4,1-0.7,1.4-0.4,2.2c0.4,0,0.6-0.2,0.6-0.5c0.7,0.5,0.4,0.8,0.1,1.5c-0.3,0.6-0.2,1.3-0.6,1.7c0.3,0.3,0.9,0.3,1.3,0.5
		c-0.1,0.9-1.2,1.4-0.8,2.4c-0.6,0.4-0.6,1.3-1,1.9c-0.1,0.7,0.8,1,0.3,1.6c-0.3-0.3-0.1-1.1-0.8-1c-0.3,0.7,0.3,1.9-0.2,2.6
		c-0.2,0.2-0.2-0.3-0.5-0.3c-0.4,0.2-0.5,0.6-0.7,1.1c-0.4,0-0.8-0.6-1-1c0.1-0.3,0.5,0,0.7,0.1c-1.7-1.4-0.6-5.6-2.1-7.2
		c0.1-0.3,0.1-0.6,0.1-0.9c0.1,0,0.2,0,0.3,0c-0.1-0.1-0.2-0.1-0.3-0.2l0,0c0-0.5-0.1-0.9-0.2-1.4c0-0.1,0.1-0.1,0.1-0.2
		c-0.1-0.1-0.1-0.3-0.1-0.4c0-0.5,0.4-1,0.9-1h0.1c-0.4,0-0.8-1-1.2-1.6c-0.5-0.8,0.6-1.8,1.3-1.3c-0.1-0.2-0.2-0.5-0.3-0.7
		c-0.5-1.1-1.1-2.2-1.6-3.3l0,0l0,0c0,0-0.1-0.1-0.1-0.2l0,0c-0.2-0.4-0.4-0.8-0.5-1.2c-0.8,0.7-1.6,1.3-2.3,2
		c0.1,0.6-0.4,1.1-0.6,1.5c0,0.3,0.2,0.4,0.3,0.6c0,0.3-0.5,0.5-0.8,1c-0.1,0.1,0,0.4-0.1,0.5c-0.1,0.2-1.2,1-0.3,1.4
		c-0.3,0.8-1.1,1.3-1.2,1.9c-0.1,0.4,0.1,0.5,0,0.8c0,0.1,0.1,0.3,0.1,0.3c-0.1,0.5-0.4,0.8-0.8,1c-0.5,0.2-1.4,0.1-1.3,1.2
		c-0.7-0.3-0.9-1.1-1.3-1.7c0.2-0.2,0.4,0.2,0.6-0.1c0.4,0.1,0.3,0.6,0.9,0.5c0.2-0.8-0.8-1-1-1.8c-0.2-0.2-0.4-0.3-0.6-0.4
		c0-0.8-0.8-0.8-0.9-1.5c0.1-0.1,0.3-0.2,0.4-0.3c0.3,0-0.1,0.4,0.2,0.4c0.7-0.7-0.4-1.7-0.1-2.6c0.6-0.2,1.2-0.4,1.7-0.6
		c-0.9-0.7-1.2-1.9-2.6-2.1c-0.1-0.1-0.2-0.1-0.1-0.3c-0.8,0-1.8,0.1-1.9-0.6c0.1-0.2,0.4-0.3,0.6-0.2c0.1-1.3-1.5-0.9-1.7-2
		c0.5-0.1,0.8-0.4,1.3-0.4c0-1.1-1.3-1.1-1.2-2.1c0.1,0,0.4,0.1,0.3-0.1c0.5,0.4,1.4,0.8,2.4,0.9c-0.8-1.1-2.5-1.8-3.4-3
		c0.1-0.7-0.1-1.5-0.5-1.9c0.5-0.1,1,1.1,1.6,0.5c-0.7-0.3-1.2-0.8-1.9-1.2c-0.2-0.4,0.2-0.7,0.3-1c0.3,0,0.3,0.2,0.5,0.3
		c0.1-0.2,0.2-0.3,0.3-0.4c-0.7-0.3-0.9-1.1-1.9-1.2c-0.1-0.3,0.3-0.2,0.4-0.4c-0.9-0.3-1.8-0.6-2.5-1.1c0.2-0.6,1.3,0.2,1.3-0.5
		c-0.7-0.9-2.1-1.5-2.3-2.6c0.8-0.2,1,1.2,2,0.9c0.4-1.3-1.3-1.1-1.8-1.6c-0.1-0.4,0.4-0.3,0.5-0.4c-0.1-0.2-0.5-0.2-0.5-0.5
		c0.4-0.2,0.4,0.6,0.9,0.5c0.2-0.2,0.1-0.7,0.4-0.8c-0.6,0-0.3-0.7-1-0.6c0-0.6-0.6-0.7-0.3-1.3c0-0.2-0.4,0.1-0.3-0.2
		c-0.1-0.5,0.2-0.6,0.5-0.7c-0.3-0.5-0.9,0.1-1.3-0.1c0.4-0.4,0.7-0.8,1.6-0.7c0.1-0.9-0.8-0.9-1-1.5c0-0.3,0.5,0,0.4-0.4
		c-1-0.4-2.5-0.3-2.6-1.5c0.4,0.3,0.9-0.1,1.3-0.1c-0.1-0.3-0.3-0.6-0.3-1.1c0.1-0.1,0.2-0.3,0.5-0.3c-0.1-0.3-0.3-0.5-0.8-0.5
		c-0.1-0.3-0.4-0.5-0.6-0.8c0.2-0.1,0.6,0,0.8-0.2c-0.2-0.2-0.3-0.6-0.5-0.9c-0.2-0.1-0.3-0.1-0.6-0.1c0.1-0.4-0.7-0.2-0.4-0.6
		c0.2-0.2,0.4,0.1,0.8,0.1c0.4,0,0.6-0.2,0.8-0.5c-0.2-0.1-0.6-0.1-0.7-0.3c-0.1-0.2-0.2-0.4-0.1-0.6c-1,0-1.3-1-1.5-1.9
		c-0.1-0.5-0.4-1-0.3-1.2c0.1-0.6,0.9-0.4,1-1c-0.3-0.3-0.4,0-0.7,0.1c-0.9,0.1-2-0.6-2.4,0.3c0.2,0.1,0.7,0,1,0.1
		c0.2,1.1,1.2,2.7,0.5,3.7c0,0.2,0.3,0,0.3,0.1c-0.3,1-1.3,1.8-1.1,2.8c0.4,0.1,0.5-0.7,1.1-0.7c-0.1,0.7-0.7,0.8-0.8,1.5
		c0.2,0.2,0.4,0.5,0.8,0.7c-0.2,1.5-1.5,1.8-1.5,3.4c0.6,0.2,1.5,0.1,1.9-0.2c0.4,1-0.6,1.6-1.4,1.8c0.2,1-1.1,0.7-1.1,1.5
		c1,0.2,2-0.2,3-0.2c0.1,1.6-2.1,1.3-2.2,2.8c-0.2,0.1-0.2,0.4-0.5,0.3c0.4,0.1,0.9,1,1.3,0.5c0,0.4,0.6,0.3,0.9,0.4
		c-0.2,0.7-0.9,0.9-1,1.7c0.1,0.3,0.4,0.3,0.8,0.3c-0.1,0.7-0.8,0.9-1,1.6c0.2,0.3,0.7,0,1,0c-0.2,0.6-0.8,0.7-0.9,1.3
		c-0.4,0.3-1,0.3-1.1,0.8c-0.1,0.7,0.9,0.8,1.2,1.4c-0.4,1-1.3,1.5-1.6,2.6c1-0.4,2.3-0.6,2.8-1.6c0.6,0.1-0.2,1,0.2,1.1
		c-0.1,0.3-0.5,0.4-0.5,0.8c0,0.2,0.4-0.1,0.3,0.2c-0.4,0.3-0.9,0.6-1,1.4c0.3-0.2,0.7-0.3,1.1-0.4c0.3,0.2-0.5,0.6,0.1,0.7
		c-1.3,2.1-2.9,4-3.7,6.7c0.7,0,0.8-0.6,1.1-1c0.3,0,0.3,0.3,0.5,0.4c0-0.2,0-0.4,0.1-0.4c0.7,0.2,1.8-0.1,2.5-0.3
		c-0.1-0.5-0.3-0.9-0.7-1c-0.6-0.1-0.9,1.4-1.9,0.9v0.7c0,0,0.3,0.4,0.5,0.4c0.4-1.2,1-2.2,1.7-3.1c0.1,0.1,0,0.5,0.1,0.8
		c0.8-0.1,0.2-1.8,1.1-1.9c0.1,0.7-0.7,0.8-0.4,1.5c0.3,0.2,0.3-0.4,0.6-0.4c-0.7,0.8-0.2,2.5-0.7,3.5c-0.2,0.4-0.5,0.5-0.6,0.8
		c0,0.3,0.4,0.1,0.4,0.4c-0.6,1.3-2,2.2-2.7,3.7c-0.2,0.1-0.5,0.2-0.6,0.6c-0.8,0.1-1.1,0.6-1.3,1.3c1.4,0.1,2.1-1.8,3.3-1.5
		c0.1,0.5-0.3,1.1-0.5,1.5c1.1,0.5,1.6-1,2.1-1.6c0.6,1.7-1.1,2.7-1,4.5c0.4-0.1,0.5-0.5,0.5-1c0.6,1.1-0.3,2.2-1,2.6
		c0.1,0.2,0.4,0,0.4,0.3c-0.1,0.2-0.6,0.1-0.6,0.3c0.2,0.6,0.5-0.2,1-0.1c-0.1,0.6-0.8,1-1.3,1.4c0.2,0.3,0.5-0.1,0.8-0.1
		c-0.3,1.2-1.3,1.7-1.5,2.9c0.1,0.2,0.2-0.2,0.4-0.1c-0.2,1.3-2,2.5-1.6,4c0,0.2,0,0.3,0.3,0.4c-0.3,0.1-0.3,0.4-0.6,0.4
		c-0.1,0.7,0.4,1.1,0.1,1.7c0.2-0.1,0.6-0.1,0.6,0.3c0.3-0.2,0.2-0.6,0.3-0.9c0.3,0,0.2,0.4,0.5,0.4c0.5-0.4,0-1.5,0.2-2.1
		c0.6,0.2,0.3,1.3,0.6,1.7c0.3-0.1,0-0.8,0.2-1c0.6-0.1,0.5,0.4,0.9,0.5c0.3-0.1,0-0.2,0-0.5c0.6,0.2,0.2,0.8,0.4,1.2
		c-0.4,0.4-0.8,0.8-0.8,1.5c-0.1,0.3-0.3,0.2-0.4,0.5c-0.4,0.8,0,2.4-1,2.3c-0.4,0-0.2-0.3-0.6-0.5c-0.3,0.2-0.2,0.8-0.4,1.1
		c0,0.2,0.4-0.2,0.4,0.2c-0.1,0.7-0.9,0.7-1.2,1.2c0.3,0.9,0.3,2.1,0.5,3c0.6-0.1,0.5-1,1.3-1c0.2,1.2-1.1,2.5,0,3.2
		c-0.9,0.7-0.5,1.9,1,1.6c-0.3,0.6,0.1,1.5-0.4,1.9c-0.4,0-0.4-0.4-0.4-0.8c-0.6,0.5-0.1,2-0.5,2.6c-0.9-1.2-0.8-3.4-1.3-5
		c-0.6,0.4-0.2,1.7,0,2.2c-0.4,0.4-0.2,1.4-0.4,1.9c-0.5-0.7-1.3-1.4-2.5-1c-0.5-0.6-0.9-1.5-1.6-1.9c0.7-0.2,1.9-0.5,2.4,0.1
		c-0.5-2-2.4-2.8-3.4-4.4c0.1-0.1,0.4,0.2,0.7,0.1c0.1-0.8-0.8-0.7-1.1-1.1c-0.1-0.7,0.3-0.9,0.3-1.5c0.4,0.1,0.5,0.5,0.8,0.7
		c1-0.7-0.3-1.6-0.5-2.4c-0.1-0.3,0-0.6-0.1-0.8c-0.1-0.3-0.5-0.4-0.7-0.5c0.2-0.8-0.1-1.5-0.6-1.8c0-0.3,0.2-0.3,0.3-0.6
		c-0.1-0.3-1-0.1-1-0.6c0.1-0.3,0.6-0.2,0.6-0.3v-1c1,0.1,0.7-0.5,0.8-1c0-0.2-0.5-0.2-0.7-0.1c-0.3-0.5-0.7-1-1-1.6
		c-0.4-1-0.6-2.2-1.6-2.6c0.8-0.2,0.4-1.2,0.1-1.7c0-0.2,0.1-0.2,0.3-0.2c-0.8-0.6-0.5-2-1.3-2.6c-0.3-0.2-0.6-0.1-0.8-0.5
		c0.2-0.2,0.5,0.1,0.6,0.1c-1-0.9-1.4-3-1.7-4.8c-0.2,2.1-0.4,4.9,0.8,6.1c-0.4,0.9-0.9,3.3,0.8,3.2c0.1,1.7,0.1,2.7-0.1,4
		c0,0.2-0.3,0.1,0.7,0.1v0.6c0,0.5,0.4,1.5,0.4,2.6c0.1,0.3,0.4,0.2,0.4,0.5c-0.4,1.3-0.8,2.6-1.3,3.8c0.6,0,0.9,0.8,1.5,1
		c0.3,0.1,0.1-0.4,0.4-0.4c0.8,4.1-0.9,7.3-2.3,9.9c0.2,0.2,0.7,0.1,1,0.1c0.1,0.2-0.1,0.5-0.2,0.6c0.9-0.1,1-1.2,1.1-2.1
		c0.4,0.1,0.4,0.7,0.5,1.2c0.1,0.3,0.2-0.1,0.3,0.1c0.1,1.2-1,1.6-1.2,2.6c0,0.3,0.1,0.6,0,0.8c-0.1,0.4-0.7,0.8-0.5,1.3
		c-0.5,0.3-0.5,1.1-0.8,1.7c-0.7-0.8-0.6-2.3-0.6-3.7c-0.4-0.5-1.6-0.7-1.2-1.6c0.6-0.1,0.3,0.6,0.7,0.6c0.7-0.3,0.1-1.3-0.3-1.7
		c-0.2-0.2-0.5-0.4-0.7-0.5c0.2-0.4,0.5-0.6,0.8-0.8c-0.3-0.6-1-0.9-1.1-1.8c0.3,0,0.4,0.2,0.8,0.2c-0.1-0.7-0.2-1.4-1-1.4
		c0.2-1.6-0.1-3-0.5-4.2c-0.6,0.4-0.4,1.8-0.1,2.2c-0.5,2.8,1,6.3-0.8,8.2c0.8,0.1,0.8-0.6,1.5-0.5c-0.3,0.7-0.5,1.5-1.2,1.8
		c1.5,0.6-0.3,2.5,0.4,3.4c-0.4,0.6-0.7,1.3-1,1.9c0.6,0.1,0.5-0.7,0.9-0.6c0,0.6-0.3,0.9-0.3,1.6c0.3,0.2,0.5-0.2,0.6,0.1
		c0,0.6-0.9,0.8-1,1.4c0,0.4,0.1,0.8,0.6,0.8c-0.1,1.9-1.1,3.4-1.9,4.8c0.2,0.6,0.3,0.9,0.3,1.7c-0.1,0.8-0.5,1.6-0.5,2.1
		s0.8,0.9,0.8,1.4c0,0.4-0.8,0.8-0.9,1.6c0,0.5,0.1,0.7,0.1,1.3c-0.1,0.2,0.2,0.1,0.3,0.3c0,0.4,0,0.9-0.2,1c-0.2-0.2,0-0.8-0.1-1
		c-0.3,0-0.5,0.2-0.9,0.1c-0.2-0.2-0.2-0.4-0.1-0.8c-0.2,0-0.3,0.1-0.4,0.2c-0.1,0.6,0.4,1.1,0.1,1.7c-0.4-0.2-0.3-0.5-0.4-0.8
		c-0.9-1.9-3.3-3.1-3.7-5.4c-0.1-0.3,0-0.6-0.1-0.9c-0.2-0.6-1.1-1-0.9-1.9c0.3,0,0.2,0.4,0.5,0.4c0.7-1.1-1.4-1.5-0.8-2.7
		c0.4-0.1,0.5,0.4,0.8,0.2c0-0.6-0.7-0.9-0.8-1.3c-0.4-1.1-0.5-2.5-0.8-3.8c-0.7-3.7-1.5-7.7-2.4-11.2c0,3.4,0.7,8-0.6,10.6
		c0.8,0.2,0.7-0.5,1-0.8c-0.1,0.9-0.7,1.6-0.6,2.6c0,0.2,0.2,0.5,0.1,0.8c0,0.3-0.3,0.4-0.4,0.6c-0.5,0.9-0.5,2.3-0.6,3.3
		c0.3-0.2,0.4-0.6,0.8-0.7c0.6,1-0.5,2.4,0,3.3c0.3,0,0.6,0,0.8-0.1c-0.2,1.3-2,1.9-1.5,3.9c-0.4,0.7-0.9,1.1-1.3,1.7
		c0.2-0.1,0.6-0.3,0.8-0.1c0.1,0.6-0.2,1.8,0.7,1.7c-0.5,0.8-0.7,2-1.2,2.9c-1.2-1.3-0.5-4.5-1.6-5.9c0.3-0.1,0.6-0.1,1,0
		c0.3-0.4-0.4-0.6-0.5-0.8C15,502,15,501.2,14,501v-1.5c1,0.1,0.6,0.4,0.9,0.5c-0.2-1.1-0.6-2.3-0.9-3.5c-0.4-1.2-0.6-2.4-1-3.5
		c-0.8,0.8,0,2,0,2.8c0,0.6-0.5,1-0.4,1.9c0.1,0.7,0.5,1.3,0.5,2c0,0.8-0.4,1.3-0.6,2.1c0.4,1-0.7,1.4-0.4,2.2
		c0.4,0,0.6-0.2,0.6-0.5c0.7,0.5,0.4,0.8,0.1,1.5c-0.3,0.6-0.2,1.3-0.6,1.7c0.3,0.3,0.9,0.3,1.3,0.5c-0.1,0.9-1.2,1.4-0.8,2.4
		c-0.6,0.4-0.6,1.3-1,1.9c-0.1,0.7,0.8,1,0.3,1.6c-0.3-0.3-0.1-1.1-0.8-1c-0.3,0.7,0.3,1.9-0.2,2.6c-0.2,0.2-0.2-0.3-0.4-0.3
		c-0.4,0.2-0.5,0.7-0.7,1.1c-0.4,0-0.8-0.7-1-1c0.1-0.3,0.5,0,0.7,0.1c-1.7-1.4-0.6-5.6-2.1-7.2c0.3-1.7-0.5-3.2-0.6-4.8
		c-1,0.4-0.1,1.8-0.1,3c0,2.1-0.3,4.4-0.9,5.8c0.2,0.3,1.1-0.1,1.2,0.4c0.1,0.3-0.3,0.5-0.5,0.8c-0.3,0.6-0.5,1.4-0.3,2.2
		c0.2,0.1,0.4-0.6,0.7-0.3c0.4,0.7-0.3,1.4-0.5,2c-0.3-0.1-0.3-0.5-0.6-0.6c-0.2,0.5,0.1,1.5-0.4,1.6c-0.3-0.4,0.4,1.6,0.2,1.1
		c-0.2,0-0.6,2.6-0.6-0.2c0,2.6,0,2.8,0,4.8v26h692L697,543.8L697,543.8z M24.8,506.6c0.5-0.7-0.2-1.1-0.5-1.5
		c1-0.2,2.2,0.5,2.1,1.8C25.9,507.2,25,507.1,24.8,506.6z M34.4,489.7c0.1-0.3,0.3-0.5,0.8-0.5c0-0.6-0.9-0.5-0.6-1.2
		c0.2-0.1,0.3,0.3,0.5,0.3c0.2-0.1,0.2-0.4,0.4-0.6c0.3,0,0.2,0.4,0.5,0.5c0.6-0.1,0.8-1.2,0.9-2.1c1.2,2-1.1,3.2-1.3,5
		C34.8,491,35,490,34.4,489.7z M36.2,495.1c-0.7-0.5-0.6-1.8-0.9-2.6c1.3,0.1,2-0.4,2.8-0.8C38,493.1,37.1,494.3,36.2,495.1z
		 M320.7,225.6c-0.1-0.7-0.7-0.9-1-1.5c0.1,0,0.1-0.1,0.2-0.2c0.2,0.5,1.1,0.8,1.6,0.5C321.2,224.7,321.3,225.5,320.7,225.6z
		 M323,222.7v1.5c-1,1.1-1.2,3.8-3,4.4C320.8,226.4,322,224.4,323,222.7z M320.3,225.7c0.8,0.8-0.3,1.7-0.3,2.6
		c-0.9,0.1-1.2-1.1-0.8-1.6c0.3,0,0.2,0.3,0.6,0.2C320.2,226.7,320,225.9,320.3,225.7z M315.6,203.1c2,0.5,2.6-1,4.2-1.1
		c0.2,0.2-0.3,0.3,0,0.6c0.3,0,0.6,0,0.8,0.1c-0.3,0.5-1.4,1.5-0.6,2.2c0.8-0.3,0.7-1.5,1.6-1.7c0,0.6-0.4,0.8-0.4,1.4
		c0.1,0.2,0.2,0.2,0.4,0.3c0-0.7,0.4-1.6,1-1.2c-0.5,0.4-0.7,1.2-0.8,2c-0.1,0.3-0.6-0.4-0.4,0c0.7,1.7-2.7,2.3-1.2,4
		c-0.7,0.4-1.1,1-1.2,1.9c0.4-0.1,0.6-0.5,1-0.6c-0.2,1.3-1.3,2.1-1.3,3.3c0.8,0,0.4-1.3,1.3-1.3c-0.1,1.1-1.1,1.8-0.9,3
		c0.7-0.1,0.5-1.3,1.1-1.5c0.2,0.4-0.4,0.7-0.3,1.3c0.2,0,0.1,0.3,0.3,0.2c0.5-0.8,1.2-1,1.8-1.6c0,0.5-0.1,1.2,0.4,1.3
		c0.9-1.9,0.9-4.8,1.9-6.6c0.1,1.3-1.1,3.3-0.2,4.6c0.3-1.2,0.5-2.5,1-3.5c-0.2,5.4-2.9,8.4-3,13.9c-1,0-1-0.5-1.4-1
		c-0.3-0.3-0.6-0.3-0.9-0.6c-0.4-0.4-0.7-1-1.1-1.3s-0.8-0.3-1.3-0.6c0-1.1-1.7-2.2-0.3-2.9c0.3,1,2.2,0.4,3,1
		c-1.3-2.9-3.8-4.7-4-8.8c0.4,0.1,0.4-0.6,0.7-0.6c0.4,0,0.6,1.2,1.3,0.8c0.1-0.3-0.2-0.2-0.2-0.3c0.2-0.2,0.5-0.2,0.6-0.6
		c-0.5-2.2-1.9-3.4-3.3-4.7C315.4,204.2,315.5,203.7,315.6,203.1z M265.7,271.9c0,0,0-0.1-0.1-0.1c0,0,0,0,0-0.1
		c-0.2-0.4-0.4-0.8-0.5-1.2C266.1,270.5,266,271.3,265.7,271.9z M242.4,302.8c0.2-0.1,0.6-0.1,1-0.1c-0.2-0.2-0.2-1.1-0.2-1.7
		c0.1,0.1,0.3,0.2,0.6,0.2c0.1,0.1,0.2,0.2,0.1,0.4c0.2-0.2,0.3-0.4,0.8-0.4c0.1-0.2,0.1-0.4,0.1-0.6c1.5,1.1-0.5,2.5-0.6,4
		C243.1,304.4,242.7,303.7,242.4,302.8z M237.5,312.7c0.6,0.6,1.6-0.7,2.1,0.1c0.5-0.2,0-1.1,0.3-1.5c0.3,0.1,0.4,0.5,0.5,0.7
		c-0.2,0.7-0.5,1.3-0.5,2.1c0.1,0.1,0.5-0.1,0.4-0.3c0.1,1.5-0.6,3-0.3,4.7c-1.3,0.1-1.2-1.1-2.3-1.1c0.3-0.5,1.2-0.9,1.6-0.3
		c0.1-0.4-0.2-0.5-0.3-0.8c0.2,0,0.2-0.1,0.4-0.1c-0.9-1-1.2-2.4-2.6-2.9C237,312.9,237.4,313,237.5,312.7z M233.5,321.6
		c0,1.5-1,2.6-1.9,3.4c-0.7-0.5-0.6-1.8-0.9-2.6C232,322.6,232.6,322,233.5,321.6z M230.6,319.2c0-0.6-1-0.5-0.6-1.2
		c0.2-0.1,0.3,0.3,0.5,0.3c0.2-0.1,0.2-0.4,0.4-0.6c0.3,0,0.2,0.4,0.4,0.4c0.6-0.1,0.8-1.2,0.9-2.1c1.2,2-1.1,3.2-1.3,5
		c-0.7-0.1-0.5-1.1-1-1.4C229.9,319.4,230.1,319.2,230.6,319.2z M221.8,336.9c-0.5,0.3-1.4,0.2-1.6-0.3c0.5-0.7-0.2-1.1-0.5-1.5
		C220.7,334.8,221.9,335.6,221.8,336.9z M169.7,364.8c0.6,0.6,1.6-0.7,2.1,0.1c0.5-0.2,0-1.1,0.3-1.5c0.3,0.1,0.4,0.5,0.5,0.7
		c-0.2,0.7-0.5,1.3-0.5,2.1c0.1,0.1,0.5-0.1,0.4-0.3c0.1,1.5-0.6,3-0.3,4.7c-1.3,0.1-1.2-1.1-2.3-1.1c0.3-0.5,1.2-0.9,1.6-0.3
		c0.1-0.4-0.2-0.5-0.3-0.8c0.1,0,0.2-0.1,0.4-0.1c-0.9-1-1.2-2.4-2.6-2.9C169.1,365.1,169.6,365.2,169.7,364.8z M165.6,373.8
		c0,1.5-1,2.6-1.9,3.4c-0.7-0.5-0.6-1.8-0.9-2.6C164.1,374.7,164.8,374.2,165.6,373.8z M162.7,371.4c0-0.6-0.9-0.5-0.6-1.2
		c0.2-0.1,0.3,0.3,0.5,0.3c0.2-0.1,0.2-0.4,0.4-0.6c0.3,0,0.2,0.4,0.4,0.4c0.6-0.1,0.8-1.2,0.9-2.1c1.2,2-1.1,3.2-1.3,5
		c-0.7-0.1-0.5-1.1-1-1.4C162.1,371.6,162.3,371.4,162.7,371.4z M153.9,389c-0.5,0.3-1.4,0.2-1.6-0.3c0.5-0.7-0.2-1.1-0.5-1.5
		C152.8,387,154,387.7,153.9,389z M105.9,428.6c0.6,0.6,1.6-0.7,2.1,0.1c0.5-0.2,0-1.1,0.3-1.5c0.3,0.1,0.4,0.5,0.5,0.7
		c-0.2,0.7-0.5,1.3-0.5,2.1c0.1,0.1,0.5-0.1,0.4-0.3c0.1,0.7-0.1,1.4-0.2,2.2l-0.8,0.9c-0.1-0.2-0.2-0.3-0.2-0.5
		c0.2,0,0.2-0.1,0.5-0.1c-0.9-1-1.2-2.4-2.6-2.9C105.4,428.9,105.8,428.9,105.9,428.6z M101.9,437.6c0,1.5-1,2.6-1.9,3.4
		c-0.7-0.5-0.6-1.8-0.9-2.6C100.4,438.5,101,437.9,101.9,437.6z M99,435.1c0-0.6-0.9-0.5-0.6-1.2c0.2-0.1,0.3,0.3,0.5,0.3
		c0.2-0.1,0.2-0.4,0.4-0.6c0.3,0,0.2,0.4,0.4,0.4c0.6-0.1,0.8-1.2,0.9-2.1c1.2,2-1.1,3.2-1.3,5c-0.7-0.1-0.5-1.1-1-1.4
		C98.3,435.3,98.5,435.1,99,435.1z M106.2,433.3c0.2-0.5,1-0.8,1.5-0.4l-0.7,0.7C106.8,433.4,106.6,433.3,106.2,433.3z M90,451.9
		l-0.9,1c-0.2-0.1-0.4-0.2-0.5-0.4c0.5-0.7-0.2-1.1-0.5-1.5C88.8,450.8,89.6,451.2,90,451.9z M70.4,452.7c0,0.3,0,0.6-0.1,1
		C70.2,453.4,70.2,453,70.4,452.7z M70.8,457.5c0,0.1,0,0.1,0,0.2c-0.2-0.1-0.4-0.2-0.4-0.4C70.5,457.3,70.7,457.3,70.8,457.5z
		 M47,472.8c0.2-0.1,0.6-0.1,1-0.1c-0.2-0.2-0.2-1.1-0.2-1.7c0.1,0.1,0.3,0.2,0.6,0.2c0.1,0.1,0.2,0.2,0.1,0.4
		c0.2-0.2,0.3-0.4,0.8-0.4c0.1-0.2,0.1-0.4,0.1-0.6c1.5,1.1-0.5,2.5-0.6,4C47.8,474.4,47.3,473.7,47,472.8z M42.1,482.7
		c0.6,0.6,1.6-0.7,2.1,0.1c0.5-0.2,0-1.1,0.3-1.5c0.3,0.1,0.4,0.5,0.5,0.7c-0.2,0.7-0.5,1.3-0.5,2.1c0.1,0.1,0.5-0.1,0.4-0.3
		c0.1,1.5-0.6,3-0.3,4.7c-1.3,0.1-1.2-1.1-2.3-1.1c0.3-0.5,1.2-0.9,1.6-0.3c0.1-0.4-0.2-0.5-0.3-0.8c0.1,0,0.2-0.1,0.4-0.1
		c-0.9-1-1.2-2.4-2.6-2.9C41.6,483,42.1,483,42.1,482.7z M664.4,511.6c0.1,0.8,0.3,1.9,0.9,2.1c0.3,0,0.1-0.5,0.4-0.4
		c0.1,0.2,0.2,0.5,0.4,0.6c0.2-0.1,0.3-0.5,0.5-0.3c0.3,0.7-0.6,0.7-0.6,1.2c0.4,0,0.7,0.2,0.8,0.5c-0.5,0.3-0.3,1.3-1,1.4
		C665.6,514.9,663.2,513.6,664.4,511.6z M666,518c-0.3,0.8-0.2,2.1-0.9,2.6c-0.9-0.8-1.9-1.9-1.9-3.4C664,517.6,664.6,518.1,666,518
		z M656.7,506.8c0.3,0.4-0.2,1.3,0.3,1.5c0.6-0.8,1.6,0.5,2.1-0.1c0.1,0.3,0.5,0.3,0.5,0.7c-1.4,0.4-1.7,1.9-2.6,2.9
		c0.2,0,0.3,0,0.4,0.1c-0.1,0.3-0.3,0.4-0.3,0.8c0.4-0.7,1.3-0.3,1.6,0.3c-1.1,0-1,1.2-2.3,1.1c0.3-1.7-0.4-3.2-0.3-4.7
		c0,0.2,0.4,0.4,0.5,0.3c0-0.8-0.3-1.4-0.5-2.1C656.3,507.3,656.4,507,656.7,506.8z M651.8,496.1c0,0.2,0,0.5,0.1,0.6
		c0.4,0,0.6,0.2,0.8,0.4c0-0.2,0-0.3,0.1-0.4c0.3,0.1,0.5-0.1,0.6-0.2c0.1,0.7,0,1.5-0.2,1.7c0.4,0,0.7,0,1,0.1
		c-0.3,0.9-0.7,1.6-1.8,1.7C652.4,498.6,650.3,497.2,651.8,496.1z M633.2,467.2c-0.1,0.1-0.1,0.2-0.2,0.2c-0.1-0.1-0.2-0.2-0.3-0.3
		C632.9,467.1,633.1,467,633.2,467.2z M617.8,458c-0.3,0.4-1,0.8-0.5,1.5c-0.2,0.5-1.1,0.6-1.6,0.3
		C615.5,458.5,616.7,457.7,617.8,458z M605.2,438.9c0.1,0.8,0.3,1.9,0.9,2.1c0.3,0,0.1-0.5,0.4-0.4c0.1,0.2,0.2,0.5,0.4,0.6
		c0.2-0.1,0.3-0.5,0.5-0.3c0.3,0.7-0.6,0.7-0.6,1.2c0.4,0,0.7,0.2,0.8,0.5c-0.5,0.3-0.3,1.3-1,1.3
		C606.4,442.2,604,440.9,605.2,438.9z M606.8,445.3c-0.3,0.8-0.2,2.1-0.9,2.6c-0.9-0.8-1.9-1.9-1.9-3.4
		C604.8,444.9,605.4,445.4,606.8,445.3z M597.4,434.1c0.3,0.4-0.2,1.3,0.3,1.5c0.6-0.8,1.6,0.5,2.1-0.1c0.1,0.3,0.5,0.3,0.5,0.7
		c-1.4,0.4-1.7,1.9-2.6,2.9c0.2,0,0.3,0,0.5,0.1c-0.1,0.3-0.3,0.4-0.3,0.8c0.4-0.7,1.3-0.3,1.6,0.3c-1.1,0-1,1.2-2.3,1.1
		c0.3-1.7-0.4-3.2-0.3-4.7c0,0.2,0.4,0.4,0.4,0.3c0-0.8-0.3-1.4-0.5-2.1C597.1,434.6,597.2,434.3,597.4,434.1z M517.9,355.2
		c-0.6-0.1-0.5-0.9-0.9-1.2c0.6,0.4,1.4,0,1.6-0.5c0.1,0,0.1,0.1,0.2,0.2C518.7,354.2,518.1,354.5,517.9,355.2z M519.5,356.2
		c0.4,0.5,0.1,1.7-0.8,1.6c-0.1-0.9-1.1-1.8-0.3-2.6c0.2,0.2,0.1,1,0.6,1.2C519.2,356.5,519.2,356.2,519.5,356.2z M518,358.2
		c-1.8-0.7-1-3.3-3-4.4v-1.5C517,353.9,517.2,356,518,358.2z M514.6,343.1c0.8-1.3-0.4-3.3-0.2-4.6c1,1.8,1,4.7,1.9,6.6
		c0.5,0,0.4-0.7,0.4-1.3c0.6,0.6,1.3,0.8,1.8,1.6c0.3,0.1,0.2-0.2,0.3-0.2c0.1-0.6-0.5-0.9-0.3-1.3c0.6,0.3,0.4,1.4,1.1,1.5
		c0.2-1.2-0.7-1.9-0.9-3c0.9,0,0.5,1.3,1.3,1.3c0-1.2-1.1-2-1.3-3.3c0.4,0.1,0.5,0.5,1,0.6c-0.1-0.9-0.5-1.6-1.2-1.9
		c1.5-1.7-1.9-2.2-1.2-3.9c0.2-0.4-0.3,0.3-0.4,0c-0.1-0.8-0.3-1.6-0.8-2c0.6-0.4,1,0.5,1,1.2c0.2-0.1,0.3-0.1,0.4-0.3
		c0-0.6-0.4-0.7-0.4-1.4c0.9,0.2,0.8,1.4,1.6,1.7c0.8-0.7-0.2-1.6-0.6-2.2c0.2-0.1,0.5-0.1,0.8-0.1c0.3-0.2-0.2-0.4,0-0.6
		c1.6,0.1,2.2,1.6,4.2,1.1c0.1,0.6,0.2,1.1,0.6,1.3c-1.4,1.2-2.8,2.5-3.3,4.7c0,0.3,0.4,0.4,0.6,0.6c0,0.2-0.3,0.1-0.2,0.3
		c0.6,0.3,0.9-0.8,1.3-0.8c0.4,0,0.4,0.7,0.7,0.6c-0.2,4.1-2.7,5.8-4,8.8c0.7-0.6,2.7,0,3-1c1.3,0.7-0.3,1.8-0.3,2.9
		c-0.5,0.2-0.9,0.3-1.3,0.6c-0.4,0.3-0.7,0.9-1.1,1.3c-0.3,0.3-0.6,0.3-0.9,0.6c-0.4,0.5-0.4,1.1-1.4,1c-0.1-5.5-2.8-8.4-3-13.9
		C514.2,340.6,514.4,341.9,514.6,343.1z M676.4,532.1c-0.2,0.5-1.1,0.6-1.6,0.3c-0.1-1.3,1.1-2,2.1-1.8
		C676.6,531,676,531.5,676.4,532.1z"/>
	<path fill="#052C35" d="M112.6,420.4c0-0.3,0.1-0.6,0.3-0.9c-0.4,0.1-0.7,0.4-1.1,0.7C112,420.3,112.3,420.4,112.6,420.4z"/>
	<path fill="#052C35" d="M112,419.1c0.4-0.8,1-1.5,1.6-2.1c-0.1-0.2-0.2-0.3-0.5-0.5c0,0.2,0,0.5-0.1,0.6c-0.4,0-0.6,0.2-0.8,0.4
		c0-0.2,0-0.3-0.1-0.4c-0.3,0.1-0.5-0.1-0.6-0.2c-0.1,0.7,0,1.5,0.2,1.7c-0.4,0-0.7,0-1,0.1c0.1,0.4,0.3,0.7,0.5,1
		c0.1,0,0.1,0,0.2,0C111.5,419.3,111.8,419.2,112,419.1z"/>
	<path fill="#052C35" d="M110.9,426.1c0.5-0.4,0.1-1.3,0.4-1.9c-1.5,0.3-2-0.9-1-1.6c-1.1-0.7,0.2-2,0-3.2c-0.7,0-0.7,0.8-1.2,0.9
		c0.3,1.9,0.7,4.6,1,7.4c0.3-0.7-0.1-2,0.4-2.5C110.4,425.7,110.5,426.1,110.9,426.1z"/>
	<path fill="#052C35" d="M111.2,419.7c-0.6,0.1-1,0.6-1.1,1.2c0.7,0,1.2-0.4,1.6-0.7C111.6,420.1,111.4,419.9,111.2,419.7z"/>
	<path fill="#052C35" d="M108.4,417.3c0.3,0.9,0.3,2.1,0.5,3c0,0,0,0,0.1,0C108.7,418.4,108.5,417.2,108.4,417.3z"/>
	<path fill="#052C35" d="M176.3,356.7c0-0.3,0.1-0.6,0.3-0.9c-0.4,0.1-0.7,0.4-1.1,0.7C175.8,356.5,176,356.6,176.3,356.7z"/>
	<path fill="#052C35" d="M175,355.9c-0.6,0.1-1,0.6-1.1,1.2c0.7,0,1.2-0.4,1.6-0.7C175.3,356.3,175.1,356.1,175,355.9z"/>
	<path fill="#052C35" d="M172.2,353.5c0.3,0.9,0.3,2.1,0.5,3c0,0,0,0,0.1,0C172.4,354.6,172.2,353.4,172.2,353.5z"/>
	<path fill="#052C35" d="M175.8,355.3c0.4-0.8,1-1.5,1.6-2.1c-0.1-0.2-0.2-0.3-0.5-0.5c0,0.2,0,0.5-0.1,0.6c-0.4,0-0.6,0.2-0.8,0.4
		c0-0.2,0-0.3-0.1-0.5c-0.3,0.1-0.5-0.1-0.6-0.2c-0.1,0.7,0,1.5,0.2,1.7c-0.4,0-0.7,0-1,0.1c0.1,0.4,0.3,0.7,0.5,1
		c0.1,0,0.1,0,0.2,0C175.2,355.5,175.5,355.4,175.8,355.3z"/>
	<path fill="#052C35" d="M174.6,362.3c0.5-0.4,0.1-1.3,0.4-1.9c-1.5,0.3-2-0.9-1-1.6c-1.1-0.7,0.2-2,0-3.2c-0.7,0-0.7,0.8-1.2,0.9
		c0.3,1.9,0.7,4.6,1,7.5c0.3-0.7-0.1-2,0.4-2.5C174.2,361.9,174.2,362.3,174.6,362.3z"/>
	<path fill="#052C35" d="M595.6,426.3c-0.2,1.2,1.1,2.5,0,3.2c0.9,0.7,0.5,1.9-1,1.6c0.3,0.6-0.1,1.5,0.4,1.9c0.4,0,0.4-0.4,0.4-0.8
		c0.5,0.5,0.2,1.8,0.4,2.5c0.4-2.8,0.8-5.5,1-7.4C596.3,427.1,596.3,426.3,595.6,426.3z"/>
	<path fill="#052C35" d="M594.4,426.6c0.1,0,0.1,0,0.2,0.1c0.2-0.3,0.3-0.6,0.5-1c-0.2-0.1-0.6-0.1-1-0.1c0.2-0.2,0.2-1.1,0.2-1.7
		c-0.1,0.1-0.3,0.2-0.6,0.2c-0.1,0.1-0.2,0.2-0.1,0.4c-0.2-0.2-0.3-0.4-0.8-0.4c-0.1-0.2-0.1-0.4-0.1-0.6c-0.2,0.2-0.4,0.3-0.5,0.5
		c0.6,0.7,1.2,1.3,1.6,2.1C594,426.2,594.3,426.2,594.4,426.6z"/>
	<path fill="#052C35" d="M594,427.1c0.5,0.4,1,0.8,1.6,0.7c-0.1-0.7-0.5-1.1-1.1-1.2C594.4,426.8,594.2,427,594,427.1z"/>
	<path fill="#052C35" d="M597.4,424.2c-0.1-0.1-0.3,1.1-0.6,3c0,0,0,0,0.1,0C597.1,426.3,597.1,425.1,597.4,424.2z"/>
	<path fill="#052C35" d="M593.2,427.4c0.3,0,0.6-0.1,0.8-0.3c-0.3-0.3-0.7-0.6-1.1-0.7C593.1,426.8,593.2,427.1,593.2,427.4z"/>
</g>
</svg>
