<?xml version="1.0" encoding="utf-8"?>
<!-- Generator: Adobe Illustrator 18.0.0, SVG Export Plug-In . SVG Version: 6.00 Build 0)  -->
<!DOCTYPE svg PUBLIC "-//W3C//DTD SVG 1.1//EN" "http://www.w3.org/Graphics/SVG/1.1/DTD/svg11.dtd">
<svg version="1.1" id="Calque_1" xmlns="http://www.w3.org/2000/svg" xmlns:xlink="http://www.w3.org/1999/xlink" x="0px" y="0px"
	 viewBox="0 385 700 194.9" enable-background="new 0 385 700 194.9" xml:space="preserve">
<path fill="#000D12" d="M0,420.7l67.4-18.2l28.6-4.3l21.5,2.9l25.8,12.2l30.1,7.2l15.8-15.8h27.3l12.9-12.9h30.2
	c0,0,18.7-10.1,22.9-5.7c4.3,4.3,18.7,4.3,18.7,4.3l7.9,7.9l10.8,10.8l10.8,10.8h23.6l11.8-11.8h18.3l24.4-3.2h18.7l31.5,2.9h18.7
	l22.9,8.6l13.6,13.6l30.8,7.9l31.5,10.4l11.7-11.7l37-1.6l24.4-7.2l17.2-4.3l33,7.8v148.7L0,579.9V420.7z"/>
</svg>
