<?xml version="1.0" encoding="utf-8"?>
<!-- Generator: Adobe Illustrator 18.0.0, SVG Export Plug-In . SVG Version: 6.00 Build 0)  -->
<!DOCTYPE svg PUBLIC "-//W3C//DTD SVG 1.1//EN" "http://www.w3.org/Graphics/SVG/1.1/DTD/svg11.dtd">
<svg version="1.1" id="Calque_1" xmlns="http://www.w3.org/2000/svg" xmlns:xlink="http://www.w3.org/1999/xlink" x="0px" y="0px"
	 viewBox="128.1 0 520 700" enable-background="new 128.1 0 520 700" xml:space="preserve">
<g>
	<g>
		<path fill="#000D12" d="M405.8,165.2c0.6,2.5-1.6,5-2.7,6.8c0,1.2,0.8,1.7,1.1,2.6c0.1,1.5-2.4,2.4-3.4,4.3
			c-0.3,0.6,0,1.6-0.3,2.3c-0.5,1.1-5.1,4.6-1.1,6c-1.4,3.7-4.9,5.6-5.4,8.5c-0.3,1.7,0.3,2.4,0,3.4c-0.2,0.5,0.6,1.2,0.6,1.4
			c-0.4,2-1.9,3.7-3.7,4.6c-2.3,1-6.3,0.6-5.7,5.4c-3-1.5-3.9-5-5.7-7.7c0.8-0.7,1.7,0.9,2.6-0.3c1.8,0.3,1.3,2.9,4,2.3
			c0.8-3.8-3.8-4.6-4.3-8c-0.7-0.7-1.7-1.2-2.6-1.7c-0.1-3.4-3.5-3.5-4-6.6c0.6-0.4,1.1-0.8,1.7-1.1c1.2,0-0.3,1.6,0.9,2
			c3.2-3.2-1.6-7.5-0.3-11.4c2.6-0.9,5.2-1.9,7.7-2.8c-3.9-3-5.4-8.5-11.4-9.4c-0.3-0.3-0.8-0.5-0.6-1.4c-3.7,0-7.8,0.4-8.5-2.6
			c0.5-0.8,1.9-1.2,2.8-0.9c0.5-6-6.7-4.1-7.4-8.8c2-0.6,3.7-1.7,6-2c0.1-4.8-5.8-5.1-5.1-9.4c0.5-0.1,1.7,0.4,1.4-0.6
			c2.1,1.6,6.1,3.8,10.5,4c-3.5-4.9-11.1-8.1-15.1-13.4c0.5-3.1-0.6-6.7-2.3-8.5c2.3-0.6,4.3,4.8,7.1,2c-3-1.4-5.2-3.7-8.3-5.1
			c-0.8-1.6,0.9-3.1,1.1-4.6c1.2-0.1,1.2,1.1,2.3,1.1c0.3-0.8,0.9-1.2,1.1-2c-3.3-1.2-4.2-4.8-8.3-5.1c-0.4-1.5,1.4-0.9,1.7-1.7
			c-4-1.4-8.1-2.5-11.1-4.8c0.7-2.5,5.6,0.7,6-2.3c-2.9-4.2-9.2-6.5-10.3-11.7c3.7-0.7,4.5,5.3,8.8,4c1.9-5.8-5.6-4.7-8-7.1
			c-0.2-1.7,1.7-1.1,2.3-2c-0.5-1-2.3-0.7-2.3-2.3c1.7-0.7,1.8,2.5,4,2.3c1-0.8,0.7-2.9,1.7-3.7c-2.6,0.2-1.5-3.3-4.6-2.6
			c0.2-2.5-2.5-3.2-1.4-5.7c0.1-0.8-1.6,0.3-1.1-0.9c-0.3-2.1,0.7-2.9,2.3-3.1c-1.3-2.2-4.1,0.5-5.7-0.3c1.6-1.8,3.3-3.5,7.1-3.1
			c0.3-4-3.5-3.9-4.6-6.6c0.1-1.2,2.3-0.1,2-1.7c-4.4-1.7-11-1.3-11.7-6.8c1.8,1.4,3.9-0.2,6-0.3c-0.5-1.5-1.2-2.8-1.1-4.8
			c0.5-0.6,1-1.3,2.3-1.1c-0.5-1.4-1.4-2.4-3.4-2.3c-0.5-1.5-1.7-2.3-2.6-3.4c0.8-0.6,2.9,0,3.4-0.9c-0.9-1.1-1.5-2.5-2-4
			c-0.7-0.2-1.5-0.4-2.6-0.3c0.6-1.9-3.3-0.9-2-2.6c0.7-1,1.9,0.6,3.4,0.6c1.8,0,2.8-0.8,3.4-2.3c-0.9-0.5-2.5-0.3-3.1-1.1
			c-0.4-0.8-0.7-1.6-0.6-2.8c-4.4,0-5.6-4.2-6.8-8.5c-0.6-2.1-1.6-4.7-1.4-5.4c0.5-2.8,4.1-1.6,4.3-4.3c-1.2-1.3-1.6,0.2-3.1,0.3
			c-4.2,0.3-9-2.7-10.5,1.1c1,0.7,3.1,0.1,4.6,0.3c0.9,4.9,5.3,11.9,2.3,16.2c-0.2,0.8,1.3-0.2,1.1,0.6c-1.2,4.4-5.8,7.9-4.8,12.5
			c1.9,0.3,2.3-3.2,4.8-3.1c-0.4,2.9-3.1,3.5-3.4,6.6c1.1,1.1,2,2.4,3.4,3.1c-0.7,6.6-6.8,7.8-6.8,15.1c2.5,1.1,6.8,0.6,8.5-0.9
			c1.7,4.3-2.9,6.9-6.3,8c0.7,4.6-4.7,3.1-4.8,6.8c4.5,1,8.8-0.7,13.1-0.9c0.6,6.9-9.3,5.7-9.7,12.5c-0.9,0.3-0.9,1.6-2.3,1.4
			c1.7,0.5,3.8,4.5,5.7,2c0.2,1.7,2.6,1.2,4,1.7c-0.9,3.1-3.8,4.2-4.6,7.4c0.3,1.3,1.9,1.2,3.4,1.1c-0.6,3.3-3.7,4.1-4.6,7.1
			c0.8,1.3,3.1,0.1,4.3,0c-0.8,2.5-3.7,2.9-4,6c-1.7,1.4-4.5,1.3-4.8,3.4c-0.5,3.2,3.9,3.6,5.4,6c-1.9,4.4-6,6.6-7.1,11.7
			c4.5-2,10.2-2.7,12.3-7.1c2.5,0.5-0.9,4.2,0.9,4.8c-0.4,1.5-2.1,1.7-2.3,3.4c-0.1,0.8,1.6-0.3,1.1,0.9c-2,1.5-4.2,2.9-4.3,6.3
			c1.2-1,3.2-1.2,4.8-1.7c1.5,1-2.2,2.8,0.3,3.1c-6,9.3-12.9,17.7-16.2,29.6c3.2,0.1,3.4-2.7,4.8-4.3c1.5-0.2,1.4,1.3,2.3,1.7
			c0-0.9,0.1-1.6,0.6-2c3,0.7,7.9-0.3,11.1-1.1c-0.4-2.1-1.1-4.1-2.6-4.3c-2.7-0.3-4.8,6.3-8,4v-2c1.3,0.1,1,1.7,2,2
			c1.8-5.2,4.3-9.8,7.1-14c0.7,0.6,0.1,2.4,0.3,3.4c3.8-0.6,0.8-7.9,4.8-8.3c0.4,3.1-3.2,3.6-2,6.6c1.3,0.8,1.4-1.8,2.8-1.7
			c-3,3.6-1,11.2-3.1,15.7c-0.8,1.7-2.2,2.1-2.8,3.7c-0.1,1.4,1.8,0.6,1.7,2c-2.6,5.9-8.9,9.9-12,16.2c-1.1,0.7-2.4,1-2.6,2.6
			c-3.4,0.4-5.1,2.5-5.7,5.7c6.3,0.3,9.2-7.8,14.8-6.6c0.3,2.1-1.2,4.9-2,6.8c4.7,2.4,7-4.4,9.4-7.1c2.7,7.7-4.9,11.8-4.6,19.9
			c1.6-0.5,2.2-2.2,2.3-4.3c2.7,5-1.4,9.6-4.6,11.4c0.2,0.8,1.9,0.2,1.7,1.4c-0.6,0.8-2.5,0.3-2.9,1.4c0.7,2.5,2.4-0.8,4.3-0.6
			c-0.4,2.5-3.5,4.6-5.7,6.3c0.7,1.3,2.2-0.4,3.4-0.3c-1.1,5.4-5.8,7.3-6.8,12.8c0.4,0.7,0.9-0.7,1.7-0.6c-0.7,5.6-8.7,11.1-7.1,18
			c0.2,0.9,0.2,1.4,1.4,1.7c-1.1,0.5-1.4,1.9-2.6,1.7c-0.3,2.9,1.6,5,0.6,7.7c0.7-0.3,2.6-0.4,2.6,1.4c1.1-0.7,1.1-2.5,1.4-4
			c1.4-0.1,1,1.7,2.3,1.7c2.3-1.9,0.1-6.6,0.9-9.4c2.5,1,1.4,5.6,2.8,7.7c1.3-0.4,0-3.4,0.9-4.3c2.6-0.5,2.4,1.8,4,2.3
			c1.3-0.5-0.1-1.1,0-2c2.5,1.1,0.9,3.5,1.7,5.4c-1.6,1.8-3.4,3.4-3.4,6.8c-0.3,1.3-1.4,1-2,2.3c-1.8,3.7,0.2,10.7-4.3,10.3
			c-1.8-0.2-1-1.5-2.6-2.3c-1.2,1-0.9,3.4-1.7,4.8c0,1,1.7-0.8,2,0.9c-0.3,3.2-4.1,2.9-5.4,5.1c1.2,4,1.3,9.1,2.3,13.4
			c2.8-0.6,2.3-4.3,5.7-4.3c0.8,5.2-4.9,11.2,0,14.2c-4.1,2.9-2.3,8.5,4.6,7.1c-1.2,2.7,0.3,6.6-1.7,8.5c-1.7-0.1-1.9-1.7-1.7-3.7
			c-2.5,2.2-0.4,8.9-2.3,11.7c-3.9-5.5-3.6-15.2-6-22.2c-2.8,1.7-1,7.7,0,10c-1.6,1.9-0.8,6.2-2,8.5c-2.1-3-5.9-6.4-11.1-4.6
			c-2.3-2.9-3.8-6.6-7.1-8.5c3.2-0.8,8.5-2.1,10.8,0.3c-2.4-9.1-10.4-12.5-15.1-19.4c0.5-0.4,1.8,0.8,3.1,0.6
			c0.3-3.5-3.4-3.1-4.8-4.8c-0.6-3.2,1.2-4.1,1.1-6.8c1.7,0.6,2.3,2.3,3.7,3.1c4.4-2.9-1.4-7.1-2.3-10.5c-0.3-1.3,0.2-2.6-0.3-3.7
			c-0.6-1.4-2.2-1.7-3.1-2.3c1-3.5-0.4-6.7-2.6-8c0-1.2,1.1-1.4,1.1-2.6c-0.6-1.4-3.4-0.5-3.4-2.6c0.3-1.2,2.1-0.9,3.4-1.1v-4.6
			c1.5,0.6,2.2-2.4,2.6-4.6c-0.1-0.9-2.9-0.7-3.4-0.3c-1.4-2.4-3.3-4.3-4.6-7.1c-2-4.4-2.9-9.7-7.4-11.7c3.6-1.1,1.6-5.1,0.6-7.7
			c-0.1-0.9,0.6-0.9,1.4-0.9c-3.3-2.7-2.3-9.1-5.7-11.7c-1.2-0.9-2.5-0.4-3.4-2c1-0.8,2.1,0.3,2.8,0.6c-4.5-3.9-6.1-13.3-7.7-21.1
			c-0.9,9.3-1.6,21.9,3.4,27.1c-1.8,4.1-3.9,14.7,3.4,14.2c0.4,7.3-0.2,12-1.1,18c0.1,0.9,1.6,0.4,2.6,0.6v2.6
			c2.3,2.3,2.5,6.8,2.3,11.7c0.2,1.3,2,1.1,2.3,2.3c-1.7,5.8-3.5,11.5-5.7,16.8c2.5,0.2,4.2,3.5,6.8,4.6c1.4,0.3,0.6-1.7,1.7-1.7
			c3.4,18.2-4.1,32.2-10,43.9c0.7,1,3,0.4,4.6,0.6c0.6,0.9-0.4,2.1-0.9,2.8c4.2-0.6,4.3-5.2,4.8-9.4c1.9,0.6,1.7,3.2,2.3,5.1
			c0.2,1.4,1-0.7,1.4,0.3c0.3,5.2-4.4,7.3-5.1,11.7c-0.2,1.1,0.3,2.5,0,3.7c-0.5,1.7-3.2,3.3-2.3,6c-2.1,1.5-2.2,5-3.4,7.4
			c-3-3.4-2.6-10.1-2.6-16.5c-1.8-2-7.3-3.3-5.4-7.1c2.6-0.6,1.1,2.9,3.1,2.8c3.2-1.5,0.2-5.6-1.4-7.4c-1-1.1-2.4-1.7-3.1-2.3
			c0.7-1.6,2.2-2.5,3.4-3.7c-1.4-2.9-4.6-4-4.8-8c1.2,0.2,1.8,1,3.4,0.9c-0.3-3.2-1-6-4.6-6c0.7-7.2-0.3-13.5-2.3-18.8
			c-2.7,1.6-1.7,7.8-0.3,10c-2.2,12.4,4.6,28.1-3.4,36.2c3.4,0.4,3.6-2.5,6.8-2.3c-1.4,3-2.1,6.8-5.4,8c6.8,2.6-1.4,11.1,2,15.1
			c-1.8,2.6-3,5.8-4.6,8.5c2.7,0.6,2.4-3.2,4-2.8c-0.1,2.7-1.4,4.1-1.1,7.1c1.1,0.7,2-0.9,2.8,0.6c0.2,2.6-4.2,3.4-4.6,6
			c-0.2,1.7,0.6,3.7,2.6,3.7c-0.6,8.2-4.9,15.2-8.5,21.4c0.7,2.7,1.4,4.2,1.1,7.7c-0.2,3.4-2.4,7-2.3,9.1c0.1,2.4,3.6,4.1,3.4,6.3
			c-0.2,2-3.7,3.5-4,7.1c-0.2,2.1,0.5,2.9,0.6,5.7c-0.3,1.1,1,0.6,1.1,1.1c0,1.8,0.2,3.8-0.9,4.6c-0.8-0.8,0.2-3.4-0.6-4.3
			c-1.5,0-2.4,0.7-4,0.6c-0.9-0.8-0.9-1.9-0.6-3.4c-0.9,0.1-1.3,0.6-2,0.9c-0.4,2.8,1.7,4.7,0.6,7.4c-1.8-0.9-1.4-2.2-2-3.4
			c-4-8.6-14.8-13.7-16.5-23.9c-0.2-1.3,0.1-2.7-0.3-4c-0.8-2.5-4.7-4.6-4-8.5c1.4,0,0.9,2,2.3,2c3.1-4.8-6.2-6.8-3.7-12
			c1.7-0.4,2.1,1.7,3.4,0.9c-0.1-2.5-2.9-4-3.7-6c-1.9-4.8-2.3-11.1-3.4-16.8c-3.3-16.3-6.5-34.4-10.5-49.9c0,14.9,3.2,35.5-2.8,47
			c3.3,0.8,3-2.2,4.3-3.4c-0.6,3.9-2.9,7.2-2.6,11.7c0.1,1,0.8,2.3,0.6,3.4c-0.2,1.2-1.4,1.7-2,2.8c-2.1,4.1-2,10-2.8,14.8
			c1.5-0.7,1.6-2.7,3.4-3.1c2.7,4.5-2.4,10.6,0,14.8c1.3,0,2.8,0.2,3.4-0.6c-0.7,6-8.8,8.5-6.8,17.1c-1.6,2.9-4.1,4.9-5.7,7.7
			c1-0.3,2.5-1.3,3.7-0.6c0.2,2.8-0.9,7.9,3.1,7.7c-2.4,3.7-3.1,9.1-5.4,12.8c-5.2-5.9-2.3-20-7.1-26.2c1.4-0.5,2.8-0.2,4.3,0
			c1.4-1.8-0.8-2.4-1.7-3.7c-1.6-2.3-2.2-5.8-5.1-6.8v-6.8c1.6,0.3,2,1.8,3.4,2.3c-1.1-4.9-2.9-10.1-4.6-15.4
			c-1.6-5.2-2.6-10.7-4.8-15.4c-3.5,3.5,0.1,8.8,0,12.5c-0.1,2.6-2.1,4.4-1.7,8.3c0.3,3.1,2.3,5.8,2.3,8.8c0,3.4-1.7,5.6-2.8,9.1
			c1.7,4.6-3.3,6.2-1.7,9.7c1.7-0.1,2.5-0.9,2.8-2.3c3.3,2,1.9,3.6,0.6,6.8c-1.1,2.8-0.9,5.9-2.9,7.4c1.3,1.4,4.1,1.3,5.7,2.3
			c-0.2,4.1-5.2,6.3-3.4,10.5c-2.5,1.8-2.7,5.8-4.6,8.3c-0.5,3.1,3.3,4.5,1.4,7.1c-1.4-1.4-0.5-5-3.7-4.6c-1.4,3,1.1,8.6-0.9,11.4
			c-1,0.9-0.7-1.4-2-1.1c-1.6,1.1-2.4,2.9-3.1,4.8c-1.8-0.2-3.4-2.9-4.6-4.6c0.6-1.3,2.4,0,3.1,0.3c-7.6-6.2-2.8-24.8-9.4-31.9
			c1.5-7.4-2.1-14.1-2.6-21.4c-4.3,1.6-0.6,8.2-0.6,13.1c0,9.5-1.2,19.4-4,25.9c1,1.3,5.1-0.3,5.4,1.7c0.5,1.5-1.5,2.1-2.3,3.4
			c-1.5,2.5-2.2,6.4-1.1,10c0.9,0.6,1.7-2.5,3.1-1.4c1.6,3.2-1.4,6.1-2,8.8c-1.5-0.3-1.3-2.3-2.8-2.6c-0.8,2.2,0.5,6.5-2,7.1
			c-1.3-1.9,0.7,7.1-0.2,4.8c-0.7,0-0.7,11.5-3.5-0.8c0,11.4,0,188.2,0,199.7c68.7,0,506.8,0,574,0L700,0H429.4
			c-1,12.2-6.8,19.5-12,27.4c-1.6,2.4-4.7,5.6-3.1,9.1c0.9,1,2.4-0.7,2.8,0c-1.7,3.2-3.6,6.3-4.3,10.5c2.2-1.5,1.6,1.3,3.4,1.7
			c1.5-1.8,3.2-2.3,4.8-1.4c-0.3-2.6,0.1-6.2,2.6-6.8c1.7,1.4,4,2.7,3.1,5.4c-0.4,1.2-3,1.5-4,3.1c-1,1.5-0.6,3.4-0.9,5.1
			c-0.2,1.4-1.7,3.5,0.6,4c2.9-0.8,2-5.4,5.4-5.7c0.7,1.5-1,2.2-1.1,3.7c-0.1,1,0.6,2.2,0.6,3.1c0,5.3-5.3,9.8-7.7,12.8
			c-2.3-7.4-9.3-11.6-10.3-19.4c3,0.2,1.8,3.5,4.8,3.1c1.3-0.1,1.9-0.9,2-2c0.4-3.4-4.3-4.6-5.7-6.3c-0.9-1-0.5-2.7-1.4-3.1
			c0.6-1.3,4.1,0.3,4-1.7c-2.5-3-5.7-4.8-8.5-7.7c-2.3-2.3-6.6-6-7.1-9.1c-0.2-1.4,0.5-3.2,0.6-4.6c0.1-5.6-1.9-10.6-5.7-12.5
			c0,13.5,5,26.8-0.9,37.6c1.5-0.5,3.7-0.4,4.6,0.6c-3.8,4.9-6,12.8-4.6,21.9c2.8-0.7,3.9-3.1,6-4.6c0.7,2.8,1.3,5.1,1.1,8
			c-0.4,8-6.2,14-8.5,20.2c0.8,1.5,4-0.4,4.6,0.9c-0.8,2.3-3.3,1.2-4.8,2c-2.2,1.2-3,5.2-6.8,4.6c1,2.5,4.8,0,6,0.3
			c-2.9,3.1-7.2,4.8-11.4,6.6c3.9,1.7,6.2,4.9,5.7,10.8c0,1.1-1.6,2-0.9,2.8c3.6,0.6,4.7-3.2,6.3-5.4c1.7-2.4,3.6-5.1,6.8-5.7
			c0.6,2.8-4.4,3.8-3.4,6.8c3.1,0.6,2-3.2,4.8-2.8c1.2,0.8-0.1,4,0.9,4.3c3.8,0,5.5-2.1,5.7-5.7c3,4.5,0.1,11.6,0.9,18.2
			c0.2,0.8-1.3-0.2-1.1,0.6c1.3,5.6-5.6,8.3-4.6,13.7c0.3,1.5,2.1,2.2,2.6,2.8c1.8,2.6,2.4,6.3,2.6,9.1c0.6,11.1-4,17.5-7.7,23.9
			c-0.8,1.4-1.4,3.3-2.6,4.8c-1.9,2.7-4.1,4.7-2.3,8.5c-4.1,11.7-9.4,22.1-18.8,28.5c5.7,2.3,7.7-3.6,11.7-4.8 M223.9,450.4
			c-2.4,1.3-6.1,0.9-7.1-1.4c2.1-2.9-0.7-4.8-2.3-6.6C219.1,441.4,224.2,444.6,223.9,450.4z M259.5,374.3c0.5-1.4,1.5-2.3,3.4-2.3
			c-0.1-2.5-4.2-2.4-2.8-5.4c0.9-0.7,1.3,1.2,2.3,1.4c0.9-0.6,1.1-2,1.7-2.8c1.4-0.1,0.7,1.9,2,2c2.6-0.6,3.5-5.4,4-9.1
			c5.3,8.7-5,14.4-6,22.2C260.9,379.9,261.8,375.5,259.5,374.3z M267.2,398c-3-2.2-2.5-8-4-11.7c5.9,0.6,8.7-1.9,12.5-3.4
			C275.5,389.4,271.2,394.3,267.2,398z M306.5,347.8c0.5,6.5-2.5,13.3-1.1,20.8c-5.6,0.6-5.4-4.7-10.3-4.8c1.1-2.4,5.4-4.1,7.1-1.1
			c0.3-1.8-0.9-2.2-1.1-3.4c0.7-0.1,1.1-0.5,2-0.3c-3.9-4.2-5.5-10.8-11.7-12.8c-0.1-1.9,2-1.6,2.3-3.1c2.5,2.7,6.9-2.9,9.4,0.6
			c2.3-1-0.1-5,1.4-6.8c1.2,0.6,1.6,2,2.3,3.1c-0.7,3.2-2.1,5.7-2.3,9.4C304.8,349.6,306.5,348.8,306.5,347.8z M323.3,306.8
			c-4.8-0.5-6.8-3.6-8-7.7c1-0.7,2.6-0.6,4.3-0.6c-0.7-1-1.1-4.8-0.9-7.7c0.6,0.6,1.4,1.1,2.8,0.9c0.4,0.5,0.8,1,0.6,2
			c0.7-1,1.5-1.9,3.4-1.7c0.3-0.8,0.3-1.8,0.3-2.9C332.7,294,323.5,300.4,323.3,306.8z"/>
	</g>
</g>
</svg>
